<?xml version="1.0" standalone="no"?>
<!DOCTYPE svg PUBLIC "-//W3C//DTD SVG 1.1//EN" "http://www.w3.org/Graphics/SVG/1.1/DTD/svg11.dtd" >
<svg xmlns="http://www.w3.org/2000/svg" xmlns:xlink="http://www.w3.org/1999/xlink" version="1.1">
<metadata></metadata>
<defs>
<font id="audrey_and_louisone" horiz-adv-x="333" >
<font-face units-per-em="2048" ascent="1536" descent="-512" />
<missing-glyph horiz-adv-x="344" />
<glyph unicode="&#xfb00;" horiz-adv-x="598" d="M-103 606q-1 8 9 12t20.5 7.5t20.5 7.5q29 6 34 13t9 38q6 96 24 197q14 86 36 170t59 166q10 25 23 47t34 41q37 33 78 24q14 -4 16 -12t-3 -10t-9 -7q-23 -10 -34 -30.5t-21 -42.5q-29 -66 -48.5 -134.5t-31.5 -140.5q-14 -66 -23.5 -129t-19.5 -127q-4 -29 1 -35t33 1 q20 4 43 0.5t37 13.5q16 16 17.5 37.5t5.5 42.5q33 127 52.5 255t49.5 255q4 14 8.5 28.5t8.5 26.5q14 41 51 35q23 -4 26 -17.5t0 -29.5l-24 -271q-6 -80 -12.5 -160.5t-12.5 -160.5q-2 -29 2 -34t33 -5q23 -2 45.5 -2t44.5 -8q8 -2 15.5 -4t13.5 -9q12 -10 11 -20t-15 -17 q-27 -12 -58 -2q-18 10 -38 13q-41 2 -51.5 -7.5t-12.5 -50.5q-16 -254 -20.5 -505.5t-1.5 -507.5v-58q0 -12 -2.5 -22t-18.5 -15q-37 -10 -53 23q-8 14 -9 27.5t-3 29.5q-6 76 -8.5 151t-4.5 150v203h-4v383v18.5t-2 18.5q0 10 -6 10t-6 -12q-16 -63 -30.5 -126t-35.5 -124 q-16 -57 -39 -98q-20 -37 -55 -35q-33 6 -45 41q-16 47 -20.5 96t-6.5 96q-4 51 -3 101.5t7 101.5q2 8 1 15.5t2 17.5q4 37 -31 35q-10 0 -20.5 1t-20.5 7q-10 4 -11 12zM43 309.5q0 -16.5 2 -33.5q0 -27 2 -52t4 -52q0 -8 6 -14q8 0 13 14q4 6 5 12t5 13q31 94 49 189 t41 192q8 31 -25 26q-14 -4 -26.5 -4t-26.5 -2q-35 0 -37 -39q-4 -55 -7 -109.5t-5 -107.5v-32.5z" />
<glyph unicode="st" horiz-adv-x="638" d="M-16 676q-6 37 4 80t31.5 83t52 71.5t65.5 45.5q51 18 105 7q55 -16 32 -70q-10 -27 -28 -45q-35 -39 -49 14q-2 6 -3 13.5t-8 9.5q-8 2 -12 -4.5t-8 -12.5q-29 -39 -49.5 -81t-24.5 -91q-2 -35 17.5 -65.5t52.5 -44.5q14 -6 20 8q8 14 15.5 27.5t13.5 27.5q41 88 80 174 t78 174q4 4 5 7.5t3 7.5q10 25 -15 22q-14 0 -27 -1t-26 -3h-18t-19 2q-8 2 -14 3t-8 9q-2 10 6 14.5t14 6.5q25 4 48.5 9t46.5 3q25 -2 38 7.5t23 31.5q8 18 17.5 35.5t19.5 36.5q16 33 61 29q23 0 35 -12.5t21 -30.5q8 -27 12 -58q0 -18 8 -23.5t25 -5.5q61 2 123 0 q39 0 65 -16q4 -4 7 -8t-1 -10q-4 -8 -12 -9q-14 -4 -27 0q-39 10 -76.5 6.5t-76.5 -3.5q-33 0 -33 -33q-2 -70 -6 -137.5t-15 -133.5q-25 -176 -41 -351t-36 -351q-4 -39 -13 -72q-6 -35 -43 -30q-18 2 -21 13t-3 25v170h6q4 129 11 257t11 258q2 86 9.5 167.5t15.5 165.5 q0 6 1 13.5t1 13.5q2 8 -6 12q-12 8 -19 -2q-10 -10 -20 -31q-49 -109 -96 -216t-101 -214q-16 -27 9 -51q29 -35 32.5 -70.5t-12.5 -76.5q-39 -92 -123 -152q-16 -10 -43 -18q-35 -14 -61 6q-14 12 -12.5 27.5t6.5 31.5q14 47 36.5 88t44.5 84q14 29 22.5 43.5t6.5 24.5 t-15.5 19.5t-43.5 29.5q-33 23 -58.5 49.5t-33.5 69.5zM74 260q-4 -12 4 -18q2 0 6 2l8 4q37 35 60.5 76t27.5 88q0 10 1 20t-7 14q-10 4 -14 -6t-8 -18q-10 -18 -20.5 -37.5t-20.5 -42.5q-10 -20 -18.5 -39.5t-18.5 -42.5z" />
<glyph unicode="aa" horiz-adv-x="667" d="M0 397q-53 150 37 279q23 35 74 35q14 0 27.5 1t29.5 13q23 18 41 6t20 -43v-127q-2 -51 -1 -101t12 -100q2 -8 2 -15t-11 -11q-18 -10 -34 6q-10 10 -13.5 20.5l-7.5 22.5q-4 20 -6 40.5t-6 43.5q-2 6 1 15.5t-7 9.5q-8 2 -10.5 -7.5t-6.5 -17.5q-14 -45 -32 -78 q-23 -33 -58 -31q-39 2 -51 39zM57 437.5q-2 -7.5 9 -7.5q8 0 12 14q10 35 21.5 71t21.5 71q2 12 1 24.5t-3 22.5q0 4 -3 10t-7 6q-8 4 -11.5 -2t-5.5 -12q-16 -41 -23.5 -82t-11.5 -82v-20q2 -6 0 -13.5zM336 437q-45 128 32 239q19 29 63 29q12 0 23.5 1t24.5 11 q20 16 35.5 5.5t16.5 -36.5v-109q-1 -43 -0.5 -86t10.5 -85q1 -7 1 -13t-9 -10q-15 -8 -29 5q-8 9 -11 18t-7 19q-3 17 -5 34.5t-5 37.5q-2 5 0.5 13t-5.5 8q-7 2 -9 -6t-6 -15q-12 -38 -27 -67q-20 -28 -49 -26q-34 2 -44 33zM384.5 471.5q-1.5 -6.5 7.5 -6.5q7 0 11 12 q8 30 18 61t18 61q2 10 1 20.5t-2 19.5q0 3 -3 8t-6 5q-7 4 -10 -1t-5 -10q-13 -36 -19.5 -71t-9.5 -70v-17q1 -5 -0.5 -11.5z" />
<glyph unicode="bb" horiz-adv-x="1064" d="M-19 825q1 103 11 207q6 80 14 159t25 157q6 23 12 44t16 42q23 39 60 32q23 -4 31 -17t10 -32q4 -29 6 -57.5t-2 -56.5q-8 -98 -14.5 -193.5t-12.5 -194.5q-4 -16 0 -30q0 -25 19 -11q4 2 7 4.5t7 4.5q45 29 94 35t101 -5q96 -18 116 -114q8 -35 6 -67t-8 -66 q-18 -98 -59 -183.5t-107 -160.5q-29 -29 -60.5 -51.5t-72.5 -32.5q-39 -8 -74.5 -2t-62.5 43q-10 14 -20 16q-31 0 -36 18.5t-5 40.5v264q-2 104 -1 207zM88 338q-6 -41 23 -62q16 -10 32.5 -7t30.5 14q20 14 33.5 31.5t25.5 35.5q53 84 77 174.5t30 188.5q0 25 -3 50 t-13 48q-12 33 -27.5 39t-46.5 -10q-55 -29 -100 -84q-16 -16 -26.5 -36t-12.5 -42q-4 -45 -8.5 -88t-8.5 -86q-2 -16 1 -25.5t26 4.5q12 6 24 -2q8 -10 3 -16t-9 -12t-6 -11.5t-6 -11.5q-14 -23 -24.5 -45.5t-14.5 -46.5zM553 808q1 86 9 173q5 67 12 133t21 131 q5 19 10 36.5t13 35.5q20 32 50 27q20 -4 26.5 -15t8.5 -26q3 -25 4.5 -48.5t-1.5 -47.5q-7 -82 -12 -161.5t-10 -162.5q-4 -13 0 -25q0 -21 15 -9q4 2 6.5 4t5.5 4q38 24 79 29t84 -4q80 -15 97 -96q7 -29 5 -55.5t-7 -55.5q-15 -82 -49 -153t-89 -134q-25 -24 -51 -43 t-61 -27q-32 -7 -61.5 -2t-52.5 36q-8 12 -17 13q-26 0 -30 15.5t-4 34.5v220q-2 87 -1 173zM643 401q-5 -34 19 -51q13 -9 27 -6.5t25 11.5q17 12 28.5 26.5t21.5 29.5q44 71 64 146.5t25 157.5q0 20 -2.5 41t-10.5 40q-10 28 -23 33t-39 -8q-46 -25 -84 -71 q-13 -13 -22 -29.5t-10 -35.5q-4 -37 -7.5 -73t-6.5 -72q-2 -13 0.5 -21t21.5 3q10 5 20 -1q7 -9 3 -14l-8 -10q-3 -5 -4.5 -9.5t-5.5 -9.5q-12 -19 -20.5 -38t-11.5 -39z" />
<glyph unicode="cc" horiz-adv-x="1060" d="M-20 459q0 143 65 270q39 74 102 121q59 41 136 29q12 -2 22 -7.5t10 -21.5q0 -27 -26 -31q-29 -4 -44.5 -21.5t-31.5 -39.5q-115 -168 -133 -369q-4 -63 16 -115q16 -47 56 -16q23 18 45 45q51 55 96 115.5t92 120.5q12 16 24.5 30.5t26.5 30.5q14 18 29 21q12 4 20 -5 q8 -8 -2 -18q-66 -86 -126 -172t-132 -166q-12 -12 -24.5 -23.5t-28.5 -19.5q-41 -25 -84 -12.5t-68 53.5q-16 29 -24 60.5t-12 66.5q-2 18 -3 37t-1 37zM542 498q0 119 54 225q33 61 85 100q49 34 112 24q10 -1 18.5 -5.5t8.5 -18.5q0 -22 -22 -25q-24 -4 -36.5 -18.5 t-26.5 -32.5q-95 -140 -110 -307q-3 -52 13 -95q14 -39 47 -14q19 15 37 38q42 45 79.5 95.5t76.5 100.5q10 13 20 25t22 26q12 15 24 17q10 3 17 -4q6 -7 -2 -15q-55 -72 -104.5 -143t-109.5 -138q-10 -10 -20 -19.5t-24 -16.5q-34 -20 -69.5 -10t-55.5 44 q-14 24 -20.5 50.5t-9.5 55.5q-2 15 -3 30.5t-1 30.5z" />
<glyph unicode="dd" horiz-adv-x="911" d="M-14 406q-25 129 53 229q31 43 86 43q31 2 37 8t16 35q35 117 69 230.5t68 230.5q4 16 9.5 30.5t11.5 30.5q6 20 21.5 22.5t31.5 -1.5q18 -2 20.5 -14.5t-1.5 -26.5l-43 -277q-16 -119 -29.5 -236.5t-22.5 -238.5q-8 -117 -14 -234.5t-4 -236.5q0 -29 1 -58.5t7 -58.5 q8 -35 -24 -30q-37 0 -50 32q-6 20 -7 40t-5 40q-8 84 -6 168t0 180q2 51 4 111.5t4 122.5q0 6 2 13t-8 9q-6 0 -8 -7t-4 -13q-14 -41 -31.5 -79t-44.5 -73q-14 -16 -29.5 -28.5t-40.5 -14.5q-57 -2 -69 52zM49 422q0 -6 6 -8q8 -4 11.5 2t7.5 10q27 41 43 87t28 93q0 4 1 6 t1 4q-4 27 -26 17q-10 -6 -17.5 -15.5t-13.5 -19.5q-41 -65 -41 -139v-27v-10zM377 442q0 49 4 101.5t18 105.5q4 14 10.5 28.5t12.5 31.5q23 43 58.5 56t78.5 -9q20 -10 26.5 -6t12.5 22q29 98 59.5 194.5t61.5 194.5l55 166q4 10 8 20.5t9 20.5q10 25 45 18q29 -6 24 -34 q0 -74 -6 -148q-12 -133 -20.5 -265t-8.5 -265q-2 -152 -1 -300.5t3 -299.5q2 -72 7.5 -141.5t15.5 -139.5q2 -35 16 -72q6 -16 -2 -25t-24 -5t-24.5 13t-14.5 22q-14 25 -19.5 51t-9.5 55q-8 66 -12 132.5t-8 131.5q-10 176 -13.5 350.5t-5.5 350.5q-2 41 1 82t5 82 q0 4 2 9t-8 7q-2 0 -3 -4t-3 -8q-18 -59 -35.5 -120t-36.5 -120q-29 -98 -58.5 -195.5t-57.5 -195.5q-14 -43 -37 -88q-18 -37 -60 -35q-23 2 -34 15.5t-15 31.5q-12 45 -14 90t-2 94zM453 325.5q0 -6.5 6 -6.5t8 6.5t4 10.5q14 47 28.5 95t26.5 97q8 37 3 74t-15 72 q0 8 -8 12t-9 -2t-3 -10q-4 -6 -5.5 -13.5t-5.5 -15.5q-16 -59 -22 -117.5t-8 -117.5v-74v-10.5z" />
<glyph unicode="ee" horiz-adv-x="573" d="M-19 466.5q-1 20.5 1 43.5q-2 100 57 197q14 20 30.5 36.5t41.5 24.5q35 16 65 -8q16 -10 18.5 -27.5t-4.5 -34.5q-12 -47 -37.5 -87t-66.5 -66q-23 -14 -31 -29.5t-6 -38.5q2 -20 3 -42.5t18 -31.5q20 -10 34.5 7.5t28.5 29.5q41 41 82 80t82 80q10 8 19.5 17.5 t23.5 9.5q10 4 20 -6q6 -4 -2 -19q-6 -4 -14 -16q-45 -47 -89 -93.5t-89 -93.5q-25 -27 -57 -39q-45 -16 -78 2.5t-45 65.5q-4 18 -5 38.5zM76 627q-4 -8 2 -9q2 -4 8 3q16 20 28.5 40.5t18.5 45.5q0 4 -1 6t-1 4q-4 -2 -7 -2t-5 -2q-16 -20 -25.5 -42t-17.5 -44z M307.5 519.5q-0.5 15.5 0.5 33.5q-1 76 44 151q11 15 23.5 27.5t31.5 19.5q27 12 50 -7q12 -7 14 -20.5t-3 -26.5q-9 -36 -29 -66.5t-51 -50.5q-18 -11 -24 -23t-4 -29q1 -16 2 -33t14 -24q15 -8 26 5.5t22 22.5q31 32 62.5 61.5t63.5 61.5q8 6 15 13.5t18 7.5q8 3 15 -5 q5 -3 -1 -15q-5 -3 -11 -12q-35 -36 -68.5 -71.5t-68.5 -71.5q-19 -21 -43 -30q-35 -12 -60.5 2t-34.5 50q-3 14 -3.5 29.5zM380 643q-3 -7 2 -7q1 -3 6 2q12 15 21.5 31t14.5 35q0 3 -0.5 4.5t-0.5 2.5q-4 -1 -6 -1t-4 -2q-12 -15 -19.5 -32t-13.5 -33z" />
<glyph unicode="gg" horiz-adv-x="868" d="M-20 483q2 84 28.5 155t75.5 136q57 76 147 68q41 -4 53.5 -21.5t-3.5 -58.5q-8 -16 8 -14q29 2 42 -14.5t23 -39.5q29 -61 33 -139q10 -174 -43 -340q-33 -98 -68.5 -193.5t-78.5 -187.5q-27 -57 -56 -102q-29 -41 -73 -35q-8 2 -15.5 4t-11.5 10q-4 10 3 14.5t11 10.5 q12 10 19.5 22.5t11.5 26.5q76 180 129 366.5t76 383.5q2 23 2 45v45q0 4 -1 8t-7 4q-2 -2 -5.5 -4t-5.5 -6q-16 -41 -31.5 -81t-31.5 -81q-10 -23 -19.5 -43.5t-23.5 -36.5q-23 -33 -61.5 -45t-75.5 4q-39 14 -45 62q-4 20 -4 38.5t-2 38.5zM115 483q-4 -10 2 -16 q10 0 16 10q35 55 63.5 111.5t51.5 116.5q8 20 5 23t-28 5q-20 8 -37 -18q-55 -111 -73 -232zM483 426q-4 14 0 31q8 82 33 156.5t74 140.5q29 35 61 49q39 14 68 -2q20 -10 18 -29q-2 -10 -9 -18.5t-17 -3.5q-27 6 -37 -8.5t-21 -32.5q-29 -53 -48 -108.5t-34 -115.5 q-2 -8 -5 -18t7 -14q4 -2 -4 1t-13 8t2 9t42 6q41 57 68 119q14 37 51 37q25 -2 36 -10.5t17 -32.5q10 -41 10 -79t4 -67q2 -121 -21.5 -223t-51.5 -205q-12 -43 -25.5 -84t-32.5 -82q-8 -14 -15 -27t-17 -28q-25 -35 -70 -28q-10 2 -15.5 8t5.5 12q31 23 41 52.5t20 62.5 q41 125 64.5 252t21.5 258q0 4 1 8t-1 8q-2 10 0 24.5t-8 18.5q-12 4 -17.5 -9t-11.5 -24q-23 -33 -51.5 -49t-69.5 -10q-43 6 -49 47z" />
<glyph unicode="hh" horiz-adv-x="610" d="M-20 655q2 123 12 245t41 245q4 16 9 28.5t9 26.5q8 23 37 27q51 8 53 -43q2 -59 -4 -114.5t-12 -113.5q-12 -94 -23.5 -187t-17.5 -187q-2 -23 2 -27t25 4q49 20 94 -12q29 -23 41 -50.5t16 -60.5q4 -20 -12 -26q-20 -6 -33 8q-6 8 -14 28q-4 10 -8.5 22.5t-10.5 23.5 q-18 33 -32.5 32.5t-32.5 -30.5q-10 -16 -18.5 -35t-18.5 -37q-14 -29 -24.5 -38t-30.5 -5q-18 4 -25.5 15.5t-11.5 45.5q-8 53 -9 105.5t-1 109.5zM316 702q2 98 10 195.5t32 195.5q4 13 8 23t7 21q6 19 29 22q41 6 43 -34q1 -48 -3.5 -92t-9.5 -91q-10 -75 -19 -149.5 t-14 -149.5q-2 -18 1.5 -21t20.5 3q39 16 75 -10q23 -18 32.5 -40t12.5 -48q3 -16 -9 -21q-16 -5 -27 6q-4 7 -11 23q-3 8 -6.5 18t-8.5 18q-14 27 -26 26.5t-26 -24.5q-8 -13 -15 -28t-15 -30q-11 -23 -19 -30t-24 -4q-15 3 -21 12.5t-9 36.5q-6 42 -7 84t-1 88z" />
<glyph unicode="ii" horiz-adv-x="382" d="M-16 518q2 41 3 81t11 77q8 27 19.5 36t33.5 7q18 -4 25.5 -11.5t3.5 -27.5q-4 -25 -7 -49.5t-7 -48.5q-4 -59 -7.5 -116.5t15.5 -115.5q8 -27 -23 -26q-25 0 -42 16t-21 47q-12 70 -4 131zM53 885q-6 35 15 69q8 12 19 12.5t24 -3.5q14 -4 14 -14.5v-24.5 q-2 -8 -4 -18.5t-2 -20.5q-2 -12 -6 -21.5t-21 -9.5q-33 4 -39 31zM182 566q2 33 2.5 65.5t8.5 61.5q7 22 16.5 29.5t26.5 5.5q15 -3 21 -9t3 -22q-3 -21 -5.5 -40.5t-5.5 -38.5q-4 -48 -6.5 -94t12.5 -93q6 -21 -19 -21q-20 0 -33.5 13t-17.5 38q-9 56 -3 105zM238 861 q-5 28 12 56q7 9 15.5 9.5t19.5 -2.5t11 -11.5v-19.5q-1 -7 -3 -15.5t-2 -16.5q-1 -9 -4.5 -17t-16.5 -8q-27 4 -32 25z" />
<glyph unicode="jj" horiz-adv-x="481" d="M-176 -322q23 29 34 61t19 66q76 303 96 607q4 55 9.5 110.5t3.5 112.5q0 10 2 20.5t14 14.5q14 6 25.5 0t19.5 -19q16 -23 22.5 -49.5t10.5 -54.5q4 -20 4 -40t2 -40q4 -47 2 -95t-10 -96q-23 -123 -48.5 -245.5t-62.5 -243.5q-10 -27 -18 -51.5t-25 -46.5 q-16 -23 -36.5 -34t-49.5 -7q-33 6 -14 30zM-2 827q-2 23 10 37.5t37 7.5q23 -6 21 -26q0 -10 -2.5 -18.5t-4.5 -18.5q0 -14 -5 -24.5t-23 -8.5q-31 2 -33 51zM63 -215q20 25 29.5 52.5t16.5 57.5q66 261 83 523q3 48 8 96t3 97q0 9 1.5 18t12.5 12q12 5 22 0t16 -16 q14 -20 19.5 -43t9.5 -47q3 -17 3 -34.5t2 -34.5q4 -41 2 -82t-9 -83q-20 -106 -42 -211.5t-53 -210.5q-9 -23 -16 -44t-21 -40q-14 -20 -32 -29.5t-43 -6.5q-28 5 -12 26zM213 777q-1 19 9 31.5t32 6.5q20 -5 18 -22q0 -9 -2 -16t-4 -16q0 -12 -4.5 -21t-19.5 -7 q-27 1 -29 44z" />
<glyph unicode="kk" horiz-adv-x="819" d="M-18 332q-2 23 0 42t4 42q14 166 27.5 328.5t47.5 324.5q2 14 4.5 26.5t6.5 24.5q8 25 17 33t32 8q35 -2 37 -47q4 -59 -1 -118.5t-14 -118.5q-4 -27 -7 -52.5t-7 -54.5q-2 -4 -2 -11t4 -7q6 -4 11 2t10 10q27 31 59 51q25 14 45 16q10 0 19.5 1.5t13.5 -9.5 q6 -12 -5.5 -15t-17.5 -7q-2 -2 -12 -8q-78 -53 -86 -126t57 -143q14 -16 25.5 -17t28.5 15q20 20 34.5 44t24.5 50q35 80 59.5 162t46.5 166q12 51 25.5 100.5t28.5 100.5q10 41 45 39q23 -2 31 -12.5t10 -38.5q6 -131 -17 -271q-6 -41 -12 -79t-12 -78v-9.5t2 -5.5 q8 -4 16 8q57 86 123 166q14 14 27.5 28.5t27.5 29.5q6 6 12.5 12t16.5 8q23 8 31 -4q8 -8 3 -14t-9 -13q-43 -55 -86 -111.5t-84 -111.5q-6 -8 -12.5 -15t-12.5 -14q-18 -25 -28.5 -39t-9.5 -25t11.5 -23.5t32.5 -32.5q29 -25 56.5 -49.5t64.5 -36.5q14 -4 14 -13 q0 -8 -6 -11t-12 -3q-23 -2 -41 5t-35 18q-45 29 -92 71q-4 4 -9 9.5t-14 2.5q-6 -4 -7 -10t-3 -12q-4 -55 -10 -110.5t-12 -110.5q-4 -35 -5 -68t-6 -65q0 -35 -28 -35q-37 0 -45 29q-2 10 -3 21t1 22q4 86 8 168.5t8 168.5q4 47 7 96.5t7 96.5q0 4 -1 7t-1 7q-4 -4 -7 -6 t-5 -6l-37 -104q-10 -27 -23.5 -53.5t-31.5 -49.5q-41 -47 -91 -46t-91 48q-2 4 -3 5t-4 5q-10 10 -17 31t-15 19q-16 -6 -13.5 -25.5t-1.5 -36.5q-6 -47 -11 -96t-13 -98q-4 -29 -14.5 -38.5t-34.5 -6.5q-45 2 -45 53z" />
<glyph unicode="ll" horiz-adv-x="485" d="M-20 504.5v58.5q0 94 6 188.5t24 186.5q4 12 7 25.5t8 25.5q4 14 16 18.5t27 2.5q25 -2 28 -33v-18.5t-2 -18.5q-6 -92 -13 -180t-13 -180q-4 -39 -4.5 -77t-2.5 -77v-10t7 -6q8 -2 9 4t3 10q16 55 34.5 111.5t35.5 111.5q35 119 70.5 236.5t76.5 234.5q4 6 5 14.5 t5 14.5q29 68 99 45q16 -6 22 -18.5t8 -26.5q6 -41 7 -82t-1 -82q-8 -123 -22 -241.5t-31 -239.5q-10 -84 -19.5 -168t-19.5 -168q-4 -31 -8 -61.5t-8 -59.5q-4 -33 -31 -39q-16 -4 -27.5 3t-9.5 26v68.5t2 68.5q6 113 12.5 224.5t8.5 226.5q2 55 6 110t8 111v22 q-10 -6 -14 -20q-23 -72 -44.5 -141.5t-43.5 -141.5q-16 -57 -35 -111.5t-45 -107.5q-10 -20 -24.5 -34.5t-39.5 -14.5q-27 0 -39 8t-20 33q-10 27 -13 54.5t-3 55.5q-2 29 -2 58.5z" />
<glyph unicode="mm" horiz-adv-x="1222" d="M-18 416q-4 92 1 181t19 179q2 12 4 23.5t8 21.5q12 20 37 15q10 -2 14.5 -9.5t6.5 -17.5v-23q-4 -59 -5 -118.5t-4 -118.5q2 -4 3 -4v-4q0 2 -1.5 4t-1.5 4q16 6 16.5 20.5t4.5 24.5q16 53 32.5 102t39.5 99q12 27 26 45q20 27 58 20q33 -8 36 -47q2 -12 3.5 -25.5 t1.5 -25.5q0 -31 -1 -59.5t-1 -57.5v-20.5t2 -10.5q10 -4 12 5.5t6 15.5q14 18 37 14q23 -6 26 -28q4 -23 6.5 -43.5t6.5 -40.5l12 -74q0 -10 6 -12q8 -4 17 8q10 23 19 41t17 41q43 115 86 226.5t86 225.5q4 14 8.5 27.5t20.5 19.5q25 8 43.5 -2t22.5 -39q4 -27 4 -52v-52 q0 -35 -1 -69.5t-1 -69.5v-9.5t2 -5.5q8 -4 9 2.5t3 10.5q10 18 17.5 37.5t17.5 39.5q16 39 57 37q35 -2 43 -51q12 -59 11 -119.5t4 -119.5q4 -29 4 -59t2 -58q2 -4 0 -12.5t8 -8.5q6 0 8 7.5t6 13.5q4 16 9.5 30.5t11.5 28.5q10 20 17 40t18 38q10 16 21 30.5t34 10.5 t26 -20.5t7 -32.5q6 -31 10 -62.5t14 -62.5q4 -10 7 -20.5t14 -14.5q14 -4 20 5l12 18q16 20 29.5 40.5t30.5 40.5q4 8 9 15.5t13 13.5q14 18 33 4q10 -6 7 -14t-7 -14q-16 -35 -37.5 -67t-50.5 -58q-35 -33 -67.5 -26t-51.5 50q-10 23 -16 49.5t-10 53.5q-2 6 -3 12t-10 8 q-4 0 -7 -6l-5 -10q-14 -33 -27.5 -66t-27.5 -67q-8 -18 -16.5 -37t-32.5 -17q-27 2 -32 21.5t-9 38.5q-12 70 -18.5 137t-10.5 137q-2 16 -1 36.5t-11 20.5q-16 2 -19.5 -16t-7.5 -33q-31 -88 -51.5 -178t-36.5 -182q-4 -10 -5 -20.5t-5 -20.5q-8 -29 -16.5 -36t-32.5 -7 q-27 0 -38.5 9t-15.5 36q-6 37 -6 70q-4 86 1 172t18 172q2 10 2 30q0 4 -1 5.5t-1 5.5q-8 -4 -9 -9q-10 -16 -20 -49q-23 -55 -40 -111.5t-46 -109.5q-8 -16 -15.5 -31.5t-21.5 -27.5q-25 -27 -50.5 -21t-37.5 41q-4 16 -7 30.5t-7 31.5q-4 10 -5 22t-8 10q-10 -2 -11 -13 t-5 -21q-6 -18 -11 -38t-9 -38l-4.5 -13.5l-4.5 -13.5q-10 -31 -36 -29q-31 2 -31 35q-2 27 -2 51.5v51.5q0 55 2 110.5t4 110.5q0 16 -4 20q-10 4 -12.5 -3t-4.5 -13q-29 -74 -50 -150.5t-40 -154.5q-6 -25 -11 -49.5t-11 -48.5q-10 -37 -47 -33q-29 2 -39 37q-4 23 -5 45 t-3 45z" />
<glyph unicode="nn" horiz-adv-x="960" d="M-19 430q1 45 3 92q4 94 16 187.5t35 185.5q4 16 8 27q8 25 18.5 33t32.5 3q20 -4 28.5 -13t8.5 -38q0 -33 -2 -65.5t-4 -65.5l-8 -98l-8 -98q-2 -12 -3.5 -25.5t7.5 -26.5l-2 2q0 -2 1 -2t1 -2q29 78 60.5 155t72.5 153q12 27 26 45q10 14 24.5 16t29.5 -2 q16 -4 21 -15.5t5 -27.5q0 -31 -1 -62.5t-3 -64.5q-4 -72 -7 -143.5t1 -143.5v-14q4 -29 13.5 -46.5t19.5 -15.5q20 6 28.5 23.5t12.5 34.5q8 41 12 84t10 84q4 37 11.5 73.5t17.5 71.5q4 10 6 18.5t6 16.5q8 12 19.5 14t23.5 -2q23 -6 19 -28q0 -18 -2 -37t-4 -37 q0 -14 2 -14q6 -2 12 8q4 10 8 19t8 20q35 82 76 160.5t88 154.5q12 23 26.5 43t30.5 41q33 39 86 25q27 -8 35 -28t11 -42q4 -59 -2.5 -116.5t-16.5 -117.5q-23 -172 -40 -342t-28 -344q0 -10 -1 -19t-15 -13q-29 -6 -41 24q-4 14 -5 26.5t-1 26.5q2 111 10 219.5t17 219.5 q6 96 12 190t14 191q0 8 1 17t-5 13q-10 4 -15 -6l-9 -18q-41 -66 -76 -133.5t-68 -139.5t-60.5 -145.5t-53.5 -151.5q-4 -16 -10.5 -29.5t-12.5 -29.5q-16 -45 -59 -37q-23 2 -45 -10q-31 -14 -58.5 -4t-44.5 41q-8 14 -11 29.5t-5 31.5q-10 70 -10 138.5t2 138.5q0 4 1 11 t-10 7q-8 0 -12 -14q-35 -80 -63.5 -161t-55.5 -163q-4 -16 -9 -32.5t-13 -32.5q-10 -29 -26.5 -40.5t-45.5 -6.5q-29 2 -40 13t-17 44q-10 47 -9 92z" />
<glyph unicode="oo" horiz-adv-x="624" d="M-18 594q4 76 36 147q25 51 74 41q12 -4 18.5 -10t-4.5 -18q-4 -4 -6 -10.5t0 -8.5q6 -8 11.5 -3t9.5 9q57 41 117.5 72t119.5 64q10 6 16.5 14t14.5 16q35 35 79 32t73 -42q35 -53 39 -121q10 -111 -20 -212t-89 -193q-43 -66 -115 -64q-88 2 -110 82q-17 64 -13 107 q0 72 8.5 132t26.5 117q2 8 6.5 16.5t-2.5 14.5q-10 8 -17 1t-15 -11q-23 -14 -46.5 -29.5t-48.5 -29.5q-41 -25 -26 -72q14 -39 15 -78t-9 -80q-2 -12 -7 -24.5t-9 -24.5q-16 -35 -62 -31q-43 0 -53 43q-16 78 -12 154zM59 543q4 -8 1 -20.5t8 -16.5q4 -2 6 12t4 25 q2 10 3 18t1 17q0 8 1 18t-7 10q-12 0 -11 -10t-2 -18q-2 -8 -2 -16.5t-2 -18.5zM356 510q2 -23 2 -45.5t2 -44.5q2 -10 3.5 -18.5t11.5 -12.5q8 -2 13 5t9 14q8 12 15 22q82 133 94 295q4 41 -2 81t-29 77q-18 33 -39 4q-23 -29 -32 -61.5t-15 -67.5q-2 -10 2 -21.5 t8 -23.5q2 -8 -1 -12.5t-9 -8.5t-11 -8t-5 -12v-10q-6 -37 -11.5 -75t-5.5 -77z" />
<glyph unicode="pp" horiz-adv-x="868" d="M-20 147v27q0 117 2 233.5t12 233.5q4 41 9 79t11 79q0 10 9 30q6 25 32 21q20 -2 25 -31v-37q0 -27 -1 -52t-1 -54q0 -8 -2 -18.5t8 -14.5t14 6t13 15q35 33 71.5 21.5t46.5 -58.5v-10.5t4 -8.5q10 -4 13.5 2t7.5 13q33 53 60.5 106t50.5 111q8 18 19 29.5t34 11.5 q27 0 37 -8.5t20 -34.5q2 -6 4 -14.5t4 -8.5q10 0 11.5 8t5.5 15q14 29 27.5 55.5t29.5 52.5q14 20 27.5 39t31.5 35q29 25 61 34t66 -3q39 -14 56.5 -42t21.5 -65q4 -33 4 -65.5t-8 -65.5q-41 -184 -147 -338q-35 -49 -81 -84t-106 -47q-16 -4 -20 -11t-6 -22 q-4 -45 -8.5 -89t-8.5 -89q-4 -35 -7 -66.5t-7 -66.5q0 -6 -2 -12t-4 -13q-6 -29 -41 -24q-23 0 -29 31q-4 41 -5 81.5t-1 81.5v197q4 72 6 150.5t10 162.5q2 4 2 11.5t-4 7.5q-10 4 -18 -12q-23 -37 -45.5 -72t-48.5 -70q-33 -43 -70 -74q-18 -18 -39 -24q-10 -4 -19 -4 t-16 10q-10 10 -4 17.5t11 13.5q20 27 32.5 55.5t16.5 60.5q2 10 2 31q0 10 -8 15q-10 4 -15 -11q-27 -51 -47 -103t-22 -112q0 -59 -4.5 -116.5t-10.5 -114.5q-2 -49 -47 -43q-27 4 -26 26zM463 401q-6 -14 2 -19t24 3q27 12 49.5 28.5t39.5 39.5q72 102 111.5 211.5 t55.5 226.5q0 55 -14 92q-20 51 -59 14q-23 -16 -37 -39q-68 -102 -112 -211.5t-52 -234.5q-4 -29 1 -55.5t-9 -55.5z" />
<glyph unicode="qq" horiz-adv-x="782" d="M-18 565q-2 61 10 118.5t45 111.5q27 47 65.5 50t77.5 -32q27 -23 35 -47.5t6 -54.5q-4 -80 -8 -161t-8 -163q-2 -10 -2 -31q0 -4 1 -8t5 -4q6 -4 7 0t1 8q6 18 12.5 36t12.5 36q10 29 21 58.5t28 58.5q4 8 9 15t11 15q8 10 17.5 15.5t19.5 -0.5q14 -10 5 -18.5 t-13 -16.5q-35 -63 -56.5 -131t-39.5 -137q-16 -63 -29.5 -127t-17.5 -129q0 -10 -1 -21.5t-20 -13.5q-16 0 -22.5 10t-8.5 25q-6 125 -6 249v43h6v261v26q0 10 -12 17q-8 4 -12 -1.5t-8 -11.5q-10 -16 -18.5 -33.5t-18.5 -35.5q-10 -16 -23.5 -23.5t-34.5 -3.5 q-23 4 -28.5 18.5t-7.5 32.5zM86 690q2 4 2 7.5t2 7.5q8 0 9 6t5 12q10 10 2 16q-6 4 -8 -2t-4 -10q-2 -6 -2 -12t-2 -13q-10 -4 -4 -12zM348 560q-2 57 9.5 110.5t41.5 103.5q25 43 61 46t72 -30q25 -21 32 -43.5t6 -50.5q-4 -75 -7.5 -150t-7.5 -151q-2 -10 -2 -29 q0 -4 1 -7.5t5 -3.5q5 -4 6 -0.5t1 7.5q5 17 11.5 33.5t11.5 33.5q9 27 19.5 54.5t25.5 54.5q4 7 8.5 13.5t10.5 14.5q7 9 16 14t18 0q13 -10 5 -18t-12 -15q-33 -59 -52.5 -122t-36.5 -127q-15 -59 -27.5 -118.5t-16.5 -119.5q0 -9 -0.5 -20t-18.5 -12q-15 0 -21 9t-8 23 q-5 116 -5 231v40h5v243v24q0 9 -11 16q-7 4 -11 -1.5t-7 -10.5q-10 -15 -17.5 -31.5t-17.5 -32.5q-9 -15 -21.5 -22t-31.5 -3q-22 3 -27 16.5t-7 30.5zM445 676q1 4 1 7t2 7q8 0 9 5.5t4 11.5q10 9 2 15q-5 3 -7 -2.5t-4 -8.5q-2 -6 -2 -11.5t-2 -12.5q-9 -3 -3 -11z" />
<glyph unicode="rr" horiz-adv-x="686" d="M-19 243.5q1 30.5 1 63.5q10 135 15 268.5t28 268.5q8 37 15 72.5t15 72.5q4 16 8 25q10 37 43 30q16 -4 20.5 -15t4.5 -25q-4 -41 -5 -82t-5 -82v-6q0 -10 -3 -21.5t5 -19.5q8 -6 16 1t19 7q25 4 39 -4.5t20 -36.5q4 -14 6 -27.5t6 -30.5q4 -25 11.5 -48t23.5 -44 q25 -33 49 2q6 10 7.5 20.5t3.5 20.5q4 39 13 76t21 74q2 18 15 33q8 14 20.5 17t26.5 -1q23 -6 22 -33v-80q0 -10 3.5 -15t17.5 -3q23 2 37 2t22 -6t14.5 -18.5t14.5 -34.5q2 -16 12 -35q29 -66 96 -31q8 4 14.5 9t16.5 7q14 4 21 -6q4 -4 1 -9t-7 -9q-20 -20 -48 -28.5 t-56 -4.5t-53.5 19.5t-41.5 39.5q-10 20 -17 39q-10 18 -24 2q-41 -47 -53 -108q-16 -66 -24.5 -132.5t-8.5 -135.5v-21.5t-19 -13.5q-33 -6 -49 20q-6 10 -7 22.5t-1 22.5q-4 49 1 98.5t7 98.5q0 8 1 16t1 17q0 18 -18 18q-37 -4 -58.5 15.5t-37.5 48.5q-14 29 -23 53 q-4 10 -4 25.5t-16 17.5q-10 2 -14.5 -13.5t-8.5 -25.5q-23 -45 -34 -92t-15 -96q-8 -78 -16.5 -154t-8.5 -154q0 -16 -2 -26.5t-22 -12.5q-49 -6 -53 37q-2 31 -1 61.5z" />
<glyph unicode="ss" horiz-adv-x="800" d="M-38 605.5q-13 33.5 1 82.5q12 49 41 98q76 145 201 258q16 16 34.5 28.5t39.5 23.5q39 14 77 -2q29 -10 4 -31q-90 -74 -154.5 -168t-123.5 -190q-4 -8 -6 -15.5t-6 -15.5q-18 -45 -10 -69.5t49 -49.5q25 -14 38 -21.5t23 -5.5t20.5 12.5t28.5 32.5q35 43 73 85t81 79 q12 10 22 35q23 66 71 110t107 76q41 23 93 7q20 -4 18 -21q0 -10 -16 -18q-57 -16 -92 -56.5t-64 -87.5q-20 -33 -14 -61.5t28 -56.5q23 -27 46.5 -51.5t45.5 -51.5q27 -29 36.5 -30t37.5 24q23 18 43.5 36.5t42.5 35.5q14 14 29 14q4 0 12 -8q4 -4 -2 -10q-8 -6 -15 -13.5 t-16 -15.5q-23 -20 -45 -41t-45 -41q-29 -25 -20 -59q8 -31 3 -61t-18.5 -57.5t-33 -49t-39.5 -33.5q-6 -6 -15 -8q-51 -27 -77 4q-16 16 -12.5 34.5t10.5 34.5q12 31 32.5 57.5t42.5 51.5q27 31 6 66q-16 27 -36.5 48t-42.5 44q-25 25 -49.5 48t-40.5 56q-8 16 -15.5 13 t-17.5 -11q-41 -45 -78 -91t-76 -93q-10 -10 -6 -18.5t12 -18.5q20 -23 32.5 -49.5t16.5 -59.5q2 -35 -14 -69.5t-45 -62t-64.5 -46t-70.5 -18.5q-47 -2 -67.5 22.5t-8.5 71.5q10 37 29.5 67.5t40.5 61.5q10 12 18 24.5t17 22.5q23 29 20.5 37t-33.5 27q-18 12 -38.5 22 t-39.5 23q-43 29 -56 62.5zM47 220.5q0 -9.5 8 -15.5q10 -10 20.5 -8t20.5 6q39 16 69 61t30 90q-4 10 -7.5 25.5t-11.5 30.5q-12 23 -26 4q-25 -33 -46.5 -66t-37.5 -69q-4 -10 -8.5 -19.5t-6.5 -19.5q-4 -10 -4 -19.5zM532 293q0 -6 5 -14q2 2 4 2q4 0 6 2q41 39 51 98 q0 4 -1 5t-1 5q-4 -2 -6 -2t-4 -2q-16 -23 -32.5 -44t-21.5 -50z" />
<glyph unicode="tt" horiz-adv-x="452" d="M-143 920q-4 12 12 20q27 16 55.5 26.5t57.5 18.5q23 6 33 17.5t12 35.5q4 45 14 89t22 87q2 10 4.5 18.5t6.5 18.5q12 29 43 23q27 -10 24 -37q-4 -43 -7 -85t-7 -83q0 -10 -4 -27q-2 -27 24 -24q2 2 7 2q27 2 42 4t22 9t11 21.5t11 41.5q6 33 13 64.5t15 64.5 q8 29 16.5 36t30.5 7q49 0 58 -43q8 -31 11 -61.5t5 -59.5q0 -27 2 -40t8.5 -19.5t19.5 -8.5t38 -2q39 -2 76.5 -6t76.5 -14q16 -4 32.5 -12.5t31.5 -24.5q8 -8 6 -19q-4 -6 -8 -7t-10 -3q-23 -4 -46 10q-47 31 -99 32t-105 1q-20 0 -23 -18v-17q-2 -182 -23.5 -361 t-39.5 -362q-8 -98 -16.5 -195t-16.5 -196q-4 -43 -8 -85t-15 -83q-8 -33 -24.5 -45t-46.5 -12q-29 0 -41.5 10.5t-14.5 40.5q-4 55 -2 109.5t6 107.5q6 182 19 361q12 174 18 346t31 346q4 29 -1 34t-34 1q-10 0 -16 -2q-37 -4 -43 -11.5t-10 -41.5q-27 -176 -44.5 -352.5 t-29.5 -354.5q-2 -16 -6 -27.5t-27 -11.5q-20 2 -25.5 13.5t-5.5 27.5q1 84 7 170q8 133 13 264t19 264q2 29 -24 21q-16 -6 -35 -10t-37 -9q-23 -6 -41 -4q-14 0 -18 11z" />
<glyph unicode="uu" horiz-adv-x="831" d="M-16 459q-6 117 3 230.5t38 228.5q8 31 22 69q27 57 90 51q29 -4 38 -15t5 -40q-8 -51 -16 -100t-17 -101l-12 -94l-12 -94q-4 -16 -4 -33.5t6 -34.5h-4l2 2v-4q18 39 35.5 77t36.5 77q6 10 12 20.5t14 18.5q23 23 48.5 15.5t33.5 -38.5q10 -35 16.5 -71.5t12.5 -73.5 q6 -33 13 -64.5t24 -62.5q8 -12 2 -19q-10 -10 -25 -4q-18 6 -27.5 20.5t-15.5 31.5q-12 29 -19.5 59.5t-15.5 60.5q-4 16 -5 38t-15 24q-16 2 -21.5 -18.5t-11.5 -36.5q-23 -53 -42 -107.5t-42 -108.5q-8 -18 -18.5 -31.5t-32.5 -17.5q-70 -12 -84 56q-10 47 -12 90z M432 487q-5 99 3 195t32 194q7 26 19 58q23 49 76 43q25 -3 32.5 -12.5t3.5 -33.5q-6 -43 -13 -84.5t-15 -85.5l-10 -80l-10 -80q-3 -13 -3 -28t5 -29h-4l2 1v-3q15 33 30 65t31 65l10 18t12 15q20 20 41.5 13.5t28.5 -32.5q8 -30 13.5 -61t10.5 -62q5 -28 11 -54.5 t21 -52.5q6 -11 1 -17q-8 -8 -21 -3q-15 5 -23 17.5t-13 26.5q-11 25 -17 50.5t-13 51.5q-3 13 -4 32t-13 20q-14 2 -18.5 -15.5t-9.5 -30.5q-19 -45 -35.5 -91.5t-35.5 -91.5q-7 -16 -16 -27t-27 -15q-60 -10 -71 48q-9 39 -11 76z" />
<glyph unicode="vv" horiz-adv-x="909" d="M-20 627q4 135 18 261t53 249q8 23 16.5 45t18.5 45q20 39 57 41q41 6 58.5 -9.5t15.5 -56.5q-4 -78 -17.5 -155.5t-25.5 -155.5q-16 -104 -28.5 -210t-18.5 -212v-31q0 -14 2 -14q8 -2 9 3t3 9q8 18 15 41q29 78 59.5 156t69.5 153q12 25 25.5 49.5t29.5 47.5q6 8 13 15 t16 15q10 6 19 11.5t20 -4.5q10 -10 0.5 -17.5t-13.5 -15.5q-33 -45 -55.5 -94.5t-42.5 -100.5q-45 -111 -84 -223.5t-66 -228.5q-14 -63 -69 -52q-18 4 -27.5 15.5t-15.5 27.5q-23 63 -33 140q-10 66 -14 131.5t-8 124.5zM464 618q3 98 13.5 189.5t38.5 181.5l12 32t14 33 q14 29 41 30q30 4 42.5 -7t11.5 -41q-3 -57 -13 -113t-19 -113q-11 -76 -20 -153t-14 -154v-23q0 -10 2 -10q6 -1 6.5 2.5t1.5 6.5q6 13 11 30q21 57 43.5 113.5t50.5 111.5q9 18 19 35.5t21 34.5q4 6 9.5 11t11.5 11l14 8t15 -3q7 -7 0 -12.5t-10 -11.5q-24 -33 -40.5 -69 t-30.5 -73q-33 -81 -61.5 -162.5t-47.5 -165.5q-10 -46 -50 -38q-13 3 -20 11t-12 20q-16 46 -24 102q-7 48 -10 95.5t-6 90.5z" />
<glyph unicode="ww" horiz-adv-x="1382" d="M-20 350q4 180 35.5 350t84.5 338q18 57 37 114.5t43 111.5q25 45 45 90q4 8 10.5 15t12.5 15q16 18 50 24.5t52 -7.5q23 -16 19 -35.5t-11 -36.5q-31 -102 -59.5 -201.5t-56.5 -201.5q-41 -141 -71 -282.5t-48 -289.5q-6 -35 -6 -67q0 -10 -5.5 -23.5t7.5 -17.5 q10 -2 13 13t7 26l148 381q4 10 6 17t6 17q10 20 25.5 24.5t31.5 2.5q18 -4 25.5 -14.5t9.5 -26.5q4 -39 7 -77t8 -77q2 -18 6 -36.5t8 -36.5q0 -6 12 -15q6 6 10 17q18 55 36 110.5t34 112.5q16 55 32.5 111.5t39.5 109.5q16 39 34 66q14 23 35 22q31 4 21 -24 q-53 -117 -82 -237t-68 -238q-8 -23 -15 -44.5t-20 -39.5q-25 -37 -64.5 -37t-62.5 39q-14 23 -21 48t-13 50q-2 10 -3 22.5t-12 12.5q-10 0 -12 -12.5t-6 -22.5q-25 -66 -49 -135q-16 -47 -31.5 -95.5t-32.5 -95.5q-4 -14 -9 -27.5t-11 -25.5q-16 -37 -36 -49t-56 -8 q-29 4 -44.5 17t-25.5 50q-14 51 -17 103.5t-3 105.5zM707 446q3 143 28 278.5t68 268.5q14 46 29 91.5t34 88.5q20 36 36 72q3 6 8 11.5t10 12.5q13 14 40 19t41 -6q19 -13 15.5 -28.5t-8.5 -28.5q-25 -81 -47.5 -160.5t-45.5 -160.5q-32 -112 -56 -224.5t-38 -230.5 q-5 -27 -5 -53q0 -8 -4.5 -18.5t6.5 -13.5q8 -2 10 10t6 21l117 303q3 8 5 13.5t5 13.5q8 16 20 19.5t25 1.5q14 -3 20 -11.5t8 -21.5q3 -31 5.5 -61t6.5 -61q2 -14 5 -29t6 -29q0 -5 10 -12q4 5 8 14q14 43 28 87.5t27 89.5q13 44 26 88.5t31 87.5q13 31 28 52q11 18 27 18 q25 3 17 -19q-42 -94 -65 -189t-54 -189q-7 -18 -12.5 -35.5t-15.5 -31.5q-20 -29 -51.5 -29t-49.5 31q-11 18 -16.5 38t-10.5 40q-2 7 -2.5 17t-9.5 10q-8 0 -9.5 -10t-4.5 -17q-20 -53 -39 -108q-13 -37 -25.5 -75.5t-25.5 -76.5q-3 -11 -7 -21.5t-9 -20.5 q-13 -29 -29 -38.5t-44 -6.5q-23 3 -35.5 13.5t-20.5 39.5q-11 41 -13.5 82.5t-2.5 83.5z" />
<glyph unicode="xx" horiz-adv-x="870" d="M-134 319.5q3 8.5 7 16.5q31 61 59.5 122.5t61.5 121.5q29 53 14 110q-12 51 -22.5 100.5t-14.5 102.5q0 8 -1 15t-1 18q0 12 4 22t21 13q27 2 37 -25q12 -27 17 -55.5t11 -57.5q4 -16 4 -37.5t15 -25.5q12 -4 20 16.5t19 34.5q47 80 108 143q20 23 45 33t54 6 q51 -6 22 -49q-37 -53 -76 -107.5t-77 -107.5q-16 -23 -31 -46.5t-33 -45.5q-16 -23 -18 -43.5t4 -44.5q16 -59 34.5 -116.5t45.5 -115.5q14 -34 -19 -36q-16 -2 -25.5 8t-19.5 22q-23 35 -37 71t-26 73q-4 10 -5.5 24.5t-15.5 16.5q-12 0 -17 -13.5t-12 -23.5 q-18 -31 -36.5 -62.5t-36.5 -64.5q-6 -10 -13.5 -20.5t-19.5 -14.5q-25 -8 -39 6q-10 8 -7 16.5zM318.5 330.5q2.5 7.5 5.5 14.5q28 54 53 108t54 107q25 46 12 97q-11 45 -20 88.5t-12 89.5q0 7 -1 13.5t-1 16.5t3.5 19t18.5 11q23 2 32 -22q11 -23 15.5 -48.5t9.5 -50.5 q3 -14 3 -33t14 -23q10 -3 17 15t17 30q41 71 95 126q17 20 39 29t48 6q44 -6 19 -44q-33 -46 -67 -94t-67 -95q-14 -20 -27.5 -41t-29.5 -40q-14 -20 -15.5 -38t3.5 -40q14 -51 30.5 -102t39.5 -102q13 -30 -16 -32q-14 -1 -22.5 7.5t-17.5 19.5q-20 31 -32.5 62.5 t-22.5 64.5q-4 9 -5 21.5t-14 14.5q-10 0 -14.5 -12t-10.5 -21q-16 -27 -32.5 -55t-31.5 -57q-6 -8 -12.5 -17.5t-16.5 -12.5q-22 -7 -35 5q-8 7 -5.5 14.5z" />
<glyph unicode="yy" horiz-adv-x="874" d="M-18 499.5v53.5q-2 55 8 107.5t26 105.5q12 39 33 68q18 29 53 28q27 0 36 -9t5 -34q-8 -55 -17 -108.5t-17 -106.5q-4 -23 -7.5 -43t-7.5 -41q0 -4 1 -7t1 -7q12 4 15 6q23 35 46 68.5t48 66.5q18 29 37 45q16 18 36.5 19.5t43.5 -6.5q20 -6 22 -22.5t2 -35.5 q2 -39 -6 -75.5t-16 -75.5q-20 -109 -43 -216.5t-52 -213.5q-18 -68 -45 -125q-6 -16 -16 -33q-16 -20 -39 -10q-12 6 -11 14t5 18q47 139 73.5 280.5t49.5 285.5q2 23 4 42t-2 42q-20 -10 -29.5 -29t-21.5 -35q-16 -23 -31.5 -45t-32.5 -45q-25 -35 -67 -35 q-35 0 -52.5 11.5t-25.5 43.5q-6 27 -6 53.5zM438 454.5v44.5q-2 47 6.5 91t21.5 88q10 33 28 57q15 25 45 24q22 0 29.5 -7.5t4.5 -28.5q-7 -46 -14.5 -91t-14.5 -90q-3 -19 -6 -36l-6 -34q0 -4 1 -6.5t1 -5.5q10 3 12 5q19 29 38.5 57.5t40.5 55.5q15 25 31 38 q13 15 30.5 16.5t36.5 -5.5q17 -5 18.5 -19t1.5 -30q2 -32 -4.5 -63t-13.5 -64q-17 -91 -36.5 -181.5t-43.5 -179.5q-15 -57 -38 -105q-5 -13 -13 -27q-13 -17 -33 -9q-10 5 -9 12t4 15q40 117 62 236t41 239q2 20 3.5 36t-1.5 35q-17 -8 -25 -24t-18 -30q-13 -19 -26 -37.5 t-27 -37.5q-21 -30 -57 -30q-29 0 -43.5 10t-21.5 36q-5 23 -5 45.5z" />
<glyph unicode="zz" horiz-adv-x="819" d="M-18 1051q-2 16 14 24q18 8 35 12q55 14 110.5 18.5t110.5 -9.5q16 -2 35 -11q84 -35 43 -112q-12 -25 -26.5 -46.5t-31.5 -43.5q-51 -80 -95 -162t-73 -174q-10 -27 -14 -51.5t-8 -51.5q-6 -39 8 -65.5t43 -48.5q31 -25 66 -13q18 8 34 11q8 2 15.5 1t11.5 -12 q2 -8 -4 -12t-10 -8q-53 -31 -113 -14q-59 14 -101 62t-38 114q4 78 21.5 152.5t43.5 146.5q16 41 35 77.5t39 75.5l17.5 35t15.5 37q10 27 5 36t-34 11q-8 2 -15 1t-18 -1h-30v2h-70q-20 0 -22 19zM388 956q-2 13 12 20q15 6 29 10q46 12 92 15.5t92 -8.5q13 -1 29 -9 q70 -29 36 -94q-10 -21 -22 -39t-27 -36q-42 -67 -78.5 -135.5t-60.5 -145.5q-9 -23 -12 -43.5t-7 -42.5q-5 -33 7 -55t36 -41q26 -21 55 -11q15 7 28 10q7 1 13 0.5t9 -10.5q2 -6 -3 -9.5t-8 -6.5q-44 -26 -94 -12q-49 12 -84 52t-32 95q3 65 17.5 127.5t36.5 122.5 q13 35 29 65.5t33 62.5q6 14 14 30t13 31q9 22 4.5 29.5t-28.5 9.5q-7 2 -12.5 1t-14.5 -1h-25v2h-59q-16 0 -18 16z" />
<glyph unicode="ad" horiz-adv-x="927" d="M-20 502q0 57 15 109.5t52 97.5q23 29 53.5 34t63.5 -6q59 -23 63 -90q4 -49 4 -98v-98q2 -10 2 -20.5t3 -20.5q2 -10 8 -13.5t14 6.5q6 6 11 14.5t10 14.5l86 123q27 37 50 75t36 83q10 25 22 47t29 45q27 35 58.5 55.5t76.5 18.5q20 -2 29.5 7t15.5 25q39 96 74 191.5 t63 193.5q4 10 7 21.5t14 19.5q25 18 51 4q14 -4 18 -15t2 -23q-2 -41 -4 -80t-6 -78q-16 -131 -29.5 -260t-23.5 -258q-10 -147 -20.5 -294t-10.5 -294v-16q0 -29 -22 -31q-31 -4 -37 24q-12 45 -13 95v86q6 145 11.5 288.5t15.5 288.5q4 47 7 95.5t7 95.5q0 4 1 10t-5 6 q-6 2 -7 -4t-3 -10q-29 -74 -56.5 -146.5t-56.5 -146.5q-25 -70 -51 -137.5t-57 -135.5q-8 -16 -17.5 -34.5t-19.5 -34.5q-12 -20 -30.5 -24.5t-41.5 -0.5q-20 4 -27 18.5t-12 30.5q-8 35 -8 70t4 70q2 2 -2 12q-10 -6 -12 -8q-14 -20 -26.5 -40t-26.5 -40 q-10 -16 -20.5 -30.5t-24.5 -27.5q-33 -33 -65 -24.5t-46 51.5q-10 35 -13 72t-3 74q-2 12 1 26t-7 19q-14 4 -19.5 -11.5t-13.5 -25.5q-12 -14 -22.5 -28.5t-22.5 -29.5q-18 -29 -56 -24q-41 4 -40 41zM74 582h2q14 20 26.5 38.5t26.5 38.5q4 6 8 13.5t-6 13.5 q-10 4 -14 -3t-8 -13q-10 -20 -21.5 -41t-11.5 -45v-2h-2zM489 457q0 -4 1.5 -9.5t1.5 -9.5q8 0 12 15q33 86 65.5 171t65.5 171v4v10q-8 4 -12 -4q-8 -10 -15.5 -19.5t-13.5 -19.5q-41 -72 -65 -149.5t-40 -159.5z" />
<glyph unicode="ak" horiz-adv-x="745" d="M-19 625.5q3 68.5 25 136.5q10 29 26.5 40t45.5 9q27 -4 41 -17.5t18 -45.5q4 -35 5 -67t3 -67v-18t2 -18q0 -6 -1 -13.5t10 -7.5q8 -2 10 5t6 13q47 119 90 238t80 242q14 45 26.5 89t24.5 91q8 37 43 37q41 0 49 -37q4 -16 5.5 -31.5t1.5 -32.5q2 -70 -3.5 -138 t-13.5 -138q-6 -53 -10 -107.5t-8 -109.5q0 -6 4 -19l-2 5l2 -5q29 41 57.5 80t56.5 80q31 41 62 72q8 6 15 12t16 10q18 8 30 -4q8 -8 3 -15t-9 -13q-35 -47 -68.5 -94.5t-68.5 -94.5q-16 -25 -34.5 -49.5t-35.5 -50.5q-23 -31 -21.5 -44t23.5 -46q23 -31 45.5 -61.5 t49.5 -59.5q4 -4 8 -10t0 -13q-4 -4 -9.5 -4t-9.5 -2q-18 -2 -31.5 6.5t-25.5 20.5q-12 16 -25.5 30.5t-25.5 30.5q-4 4 -8 11.5t-11 3.5q-10 -2 -10 -10.5t-2 -14.5q-4 -57 -8 -113.5t-8 -113.5q-4 -39 -6 -76t-7 -74q-2 -10 -3 -22.5t-11 -20.5q-10 -10 -20.5 -10t-20.5 2 q-16 4 -17 16.5t-1 22.5q0 98 1 192.5t5 190.5q6 123 9 245t13 244q0 10 -8 11q-2 0 -6 -9q-6 -14 -11 -28.5t-9 -30.5q-27 -70 -53.5 -139.5t-55.5 -136.5q-8 -14 -14 -28.5t-17 -27.5q-37 -45 -69 0q-12 16 -16.5 11t-8.5 -15q-8 -23 -22 -47q-16 -29 -50 -22 q-16 2 -22 13t-8 23q-10 70 -7 138.5zM41 571q0 -10 4 -14q6 -2 7 2t3 8q10 27 16.5 54.5t-3.5 56.5q-2 4 -3.5 8t-3.5 8q-2 -4 -4 -6t-4 -6q-6 -20 -7 -40t-3 -40q0 -8 -1 -15t-1 -16z" />
<glyph unicode="al" horiz-adv-x="710" d="M-14 475q-18 123 41 225q35 55 94 39q23 -6 30 -1t13 22q2 10 10 31q8 16 20.5 19t28.5 -1q27 -2 23 -35q-2 -29 -4 -55.5t-4 -54.5q-8 -72 -9.5 -141.5t4.5 -139.5q2 -14 3.5 -30.5t11.5 -18.5q16 0 20 15.5t8 29.5q23 68 39.5 137.5t34.5 138.5q33 133 71 263.5 t87 259.5q4 10 8 19t8 20q18 39 36 50t52 7q27 -4 38.5 -22.5t15.5 -59.5q4 -59 3 -116.5t-5 -117.5q-14 -172 -36 -339.5t-32 -339.5q-4 -76 -6 -150t-6 -149q0 -12 -1 -24.5t-20 -18.5q-16 -4 -32.5 1t-26.5 21q-10 14 -13.5 31.5t-5.5 34.5q-2 92 0 185t7 185 q2 47 4 93.5t4 93.5q2 131 13 259t32 257q0 4 1 6t1 4l-4 2q-4 -4 4 -12q-18 2 -20.5 -10.5t-6.5 -22.5q-31 -76 -52.5 -153.5t-43.5 -155.5q-23 -84 -43.5 -167t-42.5 -167q-6 -27 -15.5 -53.5t-25.5 -49.5q-10 -16 -22.5 -26t-32.5 -6q-20 2 -31.5 13t-20.5 28 q-18 47 -25 95t-9 97q-2 12 0 29.5t-6 17.5q-16 2 -19.5 -14t-7.5 -29q-10 -18 -18.5 -37.5t-22.5 -35.5q-12 -14 -26.5 -21.5t-35.5 -1.5q-31 8 -34 47zM37 498q0 -4 1 -8.5t5 -4.5q10 -4 14 11q14 31 29.5 61.5t5.5 67.5v37q0 12 -6 12q-8 4 -12 -6q-16 -41 -26.5 -83 t-10.5 -87z" />
<glyph unicode="at" horiz-adv-x="649" d="M-16 599.5q8 64.5 39 123.5q20 39 71 33q23 -4 32 -17.5t13 -33.5q6 -41 8.5 -79t6.5 -79q2 -37 5 -73t13 -71q0 -4 1 -10t9 -4q6 2 11 12q8 25 17 49.5t15 51.5q25 86 47.5 171t44.5 171q4 6 4.5 13t2.5 13q6 25 -21 21q-16 -2 -31.5 -3t-31.5 -3l-31 -6q-10 0 -19.5 1 t-11.5 13q-2 8 6.5 11t16.5 7q43 14 88 19q23 2 34 4t17 8t9 17.5t7 31.5q20 72 39 144.5t37 144.5q4 14 9 28.5t28 18.5q61 10 68 -51q2 -96 -7 -191q-4 -29 -4 -54t-4 -52q-4 -18 4.5 -24.5t24.5 -6.5q43 2 85 3t85 1q47 0 84 -14q12 -4 12 -14q-4 -12 -16 -13 q-6 0 -13.5 -1t-13.5 1q-53 10 -108.5 5t-108.5 -7q-31 0 -36 -6t-9 -39q-12 -143 -16 -284.5t-4 -282.5q0 -115 1 -226.5t9 -226.5q2 -4 2 -16t-1 -25.5t-18 -17.5q-39 -6 -55 25q-12 20 -15 43.5t-7 48.5q-10 125 -15.5 249.5t-7.5 254.5q-2 94 -6 187t-2 189v21l-6 6 l-6 -6q-4 -10 -5.5 -18.5t-5.5 -16.5q-25 -82 -48 -162t-48 -160q-6 -23 -14 -43t-21 -38q-18 -33 -53 -29q-16 2 -25.5 12t-15.5 25q-10 29 -14 59.5t-11 61.5q0 4 -2 11t-4 7q-10 0 -10 -7t-4 -11q-4 -10 -8 -19.5t-10 -19.5q-14 -25 -46 -21q-31 6 -34 35 q-10 66 -2 130.5zM59 604q0 -4 1 -5t1 -5l5 8q0 4 -1.5 6t-1.5 4q-4 -4 -4 -8z" />
<glyph unicode="ch" horiz-adv-x="753" d="M-16 492q-8 57 2 112t39 107q10 18 25.5 34.5t37.5 24.5q20 6 35 2q8 -2 15 -4t7 -12q0 -8 -6 -10.5t-12 -2.5q-16 -2 -26.5 -11t-16.5 -21q-70 -117 -45 -244q4 -8 4 -14q12 -33 26.5 -36t41.5 21q23 20 39 44l32 48q29 49 51.5 98.5t45.5 102.5q41 100 80.5 202.5 t72.5 207.5q10 31 27.5 46t70.5 11q35 -4 50.5 -19.5t21.5 -52.5q10 -59 5 -117.5t-13 -117.5q-8 -78 -19.5 -152.5t-21.5 -152.5q-4 -23 0 -28t29 -3q45 4 61 -37q23 -63 33 -139q4 -18 -12 -25q-20 -6 -31 13q-4 14 -7 27.5t-8 27.5q-4 8 -5 16t-5 17q-4 14 -8 31.5 t-14 17.5q-16 2 -24.5 -14.5t-16.5 -32.5q-10 -20 -10 -42t-5 -44l-12 -117q-4 -31 -12 -41t-35 -12q-63 -4 -74 47q-6 29 -5 58t1 52q6 119 11.5 231.5t11.5 225.5v31v7t-6 3q-4 0 -6.5 -3t-4.5 -5l-7 -17.5t-7 -15.5q-31 -70 -62.5 -136.5t-70.5 -131.5 q-16 -33 -36.5 -61.5t-47.5 -55.5q-27 -23 -54.5 -39t-66.5 -4q-35 14 -47 43t-16 62z" />
<glyph unicode="ck" horiz-adv-x="729" d="M-14 508q-18 123 37 233q14 29 30.5 37t38.5 4q16 0 21 -12q2 -12 -15 -16q-12 -2 -18 -9.5t-10 -17.5q-23 -53 -33 -106.5t-2 -110.5q0 -12 6 -25q8 -20 17.5 -23t27.5 13q16 12 30.5 29.5t28.5 34.5q57 82 105 172q59 117 109.5 235.5t93.5 241.5q10 31 18 62.5 t18 62.5q10 35 25.5 45t54.5 6q33 -4 45.5 -18.5t16.5 -49.5q4 -47 0 -95t-10 -95q-14 -102 -30 -201.5t-36 -199.5l2 -3l-2 3q10 -4 15 1t10 9q10 12 21 23.5t22 21.5q20 20 47 18q14 -4 16 -10q4 -6 -6 -16q-35 -31 -60.5 -68t-48.5 -76q-6 -10 -10 -18t-10 -19 q-25 -57 10 -106q23 -29 45.5 -54.5t52.5 -43.5l7.5 -7.5t-0.5 -9.5q-6 -8 -17 -8q-33 2 -57 25q-14 10 -26.5 23t-26.5 26q-4 4 -8.5 9t-10.5 3q-8 -2 -8 -9t-2 -13q-8 -53 -15.5 -106.5t-17.5 -106.5q-4 -33 -9 -65t-9 -62q-6 -37 -41 -37q-25 -2 -37 4t-19 28 q-10 39 -9 77t5 77q10 174 25.5 343t34.5 339q0 8 1 14.5t1 12.5q2 12 5 24.5t-5 22.5q-10 -8 -14.5 -20.5t-8.5 -22.5q-37 -80 -73.5 -159t-81.5 -157q-31 -59 -74 -110q-16 -23 -43 -45q-47 -39 -88 -23.5t-51 74.5z" />
<glyph unicode="cl" horiz-adv-x="614" d="M-12 504q-23 131 26 248q16 47 52 69q16 12 33.5 17.5t37.5 -4.5q16 -4 17 -17q0 -18 -15 -18q-27 4 -37 -11.5t-18 -33.5q-55 -127 -35 -262q2 -14 6 -31t21 -19q14 -4 20 12.5t13 26.5q16 31 26 62.5t21 64.5q41 133 80.5 265.5t93.5 261.5q18 43 36.5 86t39.5 84 q16 35 34.5 47t53.5 8q31 -4 46 -20.5t25 -55.5q4 -16 5 -32.5t3 -39.5q-2 -92 -9 -187t-19 -191q-16 -147 -32.5 -295t-33.5 -295q-4 -37 -7 -74t-7 -74q-4 -29 -12 -49q-8 -18 -25.5 -26.5t-40.5 -4.5q-18 4 -24.5 17.5t-8.5 29.5q0 14 -1 27.5t1 30.5q8 141 15.5 279.5 t17.5 279.5q4 88 9 175t12 175q2 35 5 69t7 68q4 14 -2 21q-6 2 -8 -3t-4 -9q-6 -14 -12.5 -26.5t-12.5 -27.5q-47 -113 -84 -228.5t-72 -234.5q-10 -31 -19 -61.5t-20 -60.5q-10 -27 -21 -52.5t-30 -48.5q-33 -41 -72.5 -34.5t-60.5 53.5q-4 12 -8 24.5t-6 24.5z" />
<glyph unicode="gh" horiz-adv-x="847" d="M-19 598q3 37 7 74q10 68 32.5 130t63.5 118q16 23 34.5 41t45.5 28q84 39 100 -51q2 -27 29 -29q20 -4 31.5 -17t21.5 -30q35 -66 45 -145q39 -369 -100 -719q-16 -39 -39 -75t-53 -66q-16 -16 -36 -25.5t-46 -5.5q-29 6 -33 35q-2 33 9 61.5t28 52.5q12 16 35 11 q12 -6 9 -14.5t-7 -18.5q0 -2 -2 -4t-2 -4q-4 -16 -12.5 -32.5t5.5 -23.5q10 -4 19.5 14.5t15.5 33.5q27 55 42.5 114.5t27.5 118.5q43 221 43 461v74.5t-8 80.5v10.5t-6 6.5t-8.5 -6t-4.5 -11q-12 -35 -23.5 -67.5t-23.5 -67.5q-14 -37 -30.5 -72.5t-38.5 -68.5 q-37 -49 -91 -47q-33 2 -49 14t-24 45q-10 39 -7 76zM82 563q0 -6 4 -8q8 -4 11 2t7 12q66 111 107 242q4 10 4 20.5t-4 20.5q0 20 1 39.5t3 40.5q0 14 -6 18q-10 4 -13 -2t-8 -10q-47 -86 -72.5 -176t-33.5 -189v-10zM481 594v96q4 98 8.5 193.5t18.5 191.5q10 66 27 119 q10 23 21 31t36 6q41 0 41 -41q4 -23 0 -47q-12 -125 -23.5 -250t-23.5 -252q-2 -10 -2 -18.5v-18.5q0 -8 4 -8q8 -6 12 4q10 10 21 27q12 18 32.5 26.5t42 6t42 -12.5t32.5 -29q23 -31 30 -65.5t7 -69.5q0 -25 -23 -24q-20 -2 -24 20q-4 8 -4 15.5t-2 15.5q-6 33 -19 68 q-6 14 -15 27t-26 16q-16 2 -24 -12.5t-17 -24.5q-23 -35 -42 -71t-33 -75q-4 -12 -11.5 -22t-23.5 -15q-47 -6 -54 45q-4 37 -5 74t-3 74z" />
<glyph unicode="ng" horiz-adv-x="1019" d="M-20 518q0 37 4 72q2 35 7 67.5t9 65.5q6 39 43 35q37 -6 39 -41t1 -67t-7 -66v-11.5t2 -7.5q10 -2 14 10q6 12 11.5 24.5t11.5 23.5q29 61 60.5 121.5t70.5 117.5q10 16 20 30.5t27 25.5q35 25 78 10q20 -10 25 -26.5t5 -35.5q4 -55 -3 -110.5t-11 -110.5 q-10 -109 -17.5 -217.5t-9.5 -218.5v-14q2 -4 2 -8.5t7 -2.5q2 0 6 6t6 13.5t6 13.5q37 104 84 202.5t104 192.5q29 51 59 100.5t54 102.5q27 55 72 92q27 23 56.5 32t64.5 3q23 -4 30 -13t7 -34q0 -16 12 -21q25 -14 31 -36.5t10 -46.5q10 -59 7 -121t-13 -121 q-23 -137 -55.5 -271.5t-75.5 -267.5q-10 -33 -21.5 -63.5t-34.5 -57.5q-12 -14 -25.5 -23t-31.5 -5q-14 2 -19.5 7t3.5 19q27 51 43 104.5t27 108t20.5 109.5t19.5 110q16 80 22.5 161t16.5 161q0 4 -1 10t-1 11q-8 -2 -10 -7.5t-6 -9.5q-16 -43 -32 -85t-38 -83 q-10 -18 -25.5 -30.5t-38.5 -14.5q-47 0 -61 43q-4 16 -6 30.5t-6 31.5q0 4 1 9t-7 7q-6 0 -8.5 -4t-6.5 -8q-41 -78 -78.5 -155t-68.5 -159q-12 -35 -24.5 -69.5t-28.5 -69.5q-12 -29 -26.5 -37t-41.5 -6q-33 4 -39 33q-8 25 -10 50.5t-2 51.5q-2 41 -1 80t1 80 q0 106 5 210.5t15 211.5v22.5t2 22.5q0 12 -6 12q-8 0 -8 -6q-14 -16 -23 -35q-41 -66 -73.5 -135.5t-61.5 -140.5q-16 -41 -33 -70q-27 -47 -77 -39q-23 4 -32 14.5t-13 38.5q-4 35 -4 72zM725 559q0 -4 1 -8t1 -8q4 4 7 5t5 3q4 8 7.5 16t7.5 17q29 59 51 120.5t41 124.5 q4 14 7 27.5t19 20.5q5 4 7 8v4q-4 0 -6.5 2t-4.5 0q-10 -2 -22 -19q-35 -43 -58 -102q-23 -51 -38 -104.5t-25 -106.5z" />
<glyph unicode="in" horiz-adv-x="714" d="M-17 547q-3 33 1 67q8 51 34 50q23 -4 25 -18.5t4 -31.5q4 -29 5 -55.5t5 -54.5q0 -10 6 -12q8 -4 17 8q12 23 24.5 46t24.5 48q41 86 80 173t80 173q16 35 32.5 44t51.5 5q29 -4 39 -14t14 -39q2 -33 1 -63.5t-5 -63.5l-6 -74q0 -6 1 -13t3 -7q8 0 10 7t4 11 q23 51 45.5 101.5t44.5 101.5q6 14 13.5 26.5t13.5 26.5q16 31 57 31q35 2 50.5 -11.5t13.5 -50.5q-2 -43 -6 -85t-9 -85q-10 -109 -19 -216t-20 -216q-4 -23 -5 -43t-5 -41q-4 -20 -14 -28q-16 -12 -29 -4q-8 2 -10 8t-2 12l6 148q0 12 1 24.5t1 24.5q4 84 6 167t6 167v11 t-2 7q-10 4 -12 -3t-4 -13q-20 -51 -38.5 -101.5t-39.5 -101.5q-10 -25 -19 -49.5t-22 -48.5q-27 -51 -88 -37q-23 4 -33 16t-14 45q-8 51 -10 102.5t2 102.5q2 10 2 19.5v19.5q2 2 0 4t-2 4q-2 -2 -5 -2t-5 -2q-4 -8 -8.5 -15.5t-8.5 -17.5q-25 -49 -48 -98t-48 -96 q-23 -47 -55 -86q-29 -35 -76 -27q-23 4 -33 20.5t-14 36.5q-6 33 -9 66zM0 827q0 20 6 28.5t25 10.5q39 2 43 -28q4 -39 -41 -39q-14 2 -23.5 7t-9.5 21z" />
<glyph unicode="inn" horiz-adv-x="1236" d="M-4 416q-31 123 2 241q4 14 8 19q10 18 31 12q14 -2 14 -10t-2 -19q-10 -49 -12 -97t2 -99q2 -16 2 -34.5t14 -20.5q16 -4 24.5 13t16.5 34q35 66 59.5 133t53.5 135q45 119 104 233q10 16 20.5 29.5t33.5 18.5q37 8 61.5 -6.5t32.5 -53.5q6 -31 9 -62.5t-1 -64.5 q-4 -72 -10 -140.5t-13 -139.5q-2 -6 -2 -21q2 -4 0 -9t7 -7q4 0 10 10q8 18 14 41q10 29 21.5 57.5t21.5 57.5t23.5 37t40.5 6q23 -4 31 -14.5t12 -41.5t5 -61.5t5 -61.5q2 -16 2 -33.5t4 -33.5q2 -8 2 -16.5t10 -10.5q6 0 10.5 6.5t8.5 10.5q16 25 29.5 48t29.5 48 q10 12 11 25.5t1 29.5q4 66 11.5 129.5t19.5 128.5q14 66 80 58q45 -6 45 -48q2 -29 0 -56.5t-4 -55.5q0 -23 -2 -42.5t-2 -41.5q-4 -14 2 -14q8 -2 12 12q8 16 14.5 31.5t12.5 31.5q27 61 54.5 121t60.5 119q10 16 19 31.5t26 27.5q25 27 63 15q16 -4 23.5 -17.5t9.5 -29.5 q8 -41 7 -83t-5 -83q-10 -168 -28.5 -335t-35.5 -335q-4 -35 -4 -70t-2 -69q0 -10 -1 -19.5t-15 -13.5q-33 -4 -45 20q-12 23 -8 52q4 78 7 154.5t7 152.5q2 49 6 98l8 98q4 82 12.5 162t18.5 160q2 10 2 27q0 10 3 22t-7 16t-14 -9t-9 -21q-55 -104 -97 -213t-77 -221 q-10 -29 -20 -57.5t-21 -57.5q-20 -45 -65 -39q-23 2 -34 13.5t-17 37.5q-4 18 -2 41t-13 27q-16 6 -23 -15.5t-22 -33.5q-14 -12 -28.5 -21.5t-36.5 -5.5q-20 4 -27.5 19.5t-11.5 31.5q-6 31 -12.5 62.5t-12.5 62.5q-2 4 -3 10t-7 4q-6 0 -10 -10q-18 -43 -35.5 -86 t-36.5 -86q-14 -41 -49 -41q-45 0 -62 37q-8 16 -14 45q-10 29 -13 57.5t-7 57.5q-4 66 -3 132t9 132q2 10 2 21.5v21.5v8t-6 2q-6 0 -8 -6q-4 -10 -9.5 -18.5t-11.5 -18.5q-31 -66 -57.5 -131t-55.5 -131q-12 -31 -25 -59.5t-28 -57.5q-4 -12 -11 -24t-15 -23 q-10 -16 -26.5 -27.5t-39.5 -7.5t-33 19.5t-14 36.5zM18 842v16q0 59 43 53q27 -4 21 -24q-4 -16 -7 -29.5t-7 -28.5q-10 -23 -35 -16q-10 2 -12.5 10t-2.5 19z" />
<glyph unicode="sh" horiz-adv-x="724" d="M-21.5 726q9.5 89 105.5 153q55 35 117 26q14 -4 27.5 -9t17.5 -22q4 -16 -5.5 -28t-19.5 -23q-25 -25 -45 2q-6 8 -12 4t-10 -8q-23 -25 -41.5 -53.5t-26.5 -62.5q-8 -29 0 -53.5t25 -47.5q31 -37 45 -53t23 -15t18.5 19t29.5 53q47 76 83 157t69 165q10 27 21.5 53.5 t21.5 52.5q12 29 22.5 36t36.5 7q25 -2 40.5 -12t23.5 -35q6 -27 10 -52.5t4 -51.5q-2 -150 -24 -297q-2 -12 -4.5 -25.5t-4.5 -27.5q-2 -10 -7 -23.5t3 -22.5q10 -6 19.5 4.5t19.5 14.5q31 14 55.5 5t34.5 -40q14 -43 20.5 -86t10.5 -86q0 -14 -4 -23.5t-21 -11.5 q-29 0 -32 29q-6 72 -25 135q-2 8 -3 16.5t-9 10.5q-10 4 -15.5 -4.5t-9.5 -14.5q-35 -53 -59.5 -108.5t-26.5 -120.5q0 -10 -4 -31q-4 -23 -14 -31t-33 -6q-23 0 -30 7.5t-7 29.5q0 49 1 97.5t3 95.5q2 25 3 49t-3 49q-2 86 1 169t14 167q4 14 0 20q-8 2 -11.5 -4t-5.5 -10 q-16 -31 -28.5 -61.5t-28.5 -59.5q-49 -113 -113 -211q-18 -27 -6 -57q14 -39 12 -78t-18 -71.5t-47 -57.5t-70 -35q-25 -8 -43 -2q-35 12 -26 49q6 29 24 58q35 59 70 106q20 29 -2 51q-16 16 -32.5 35t-33.5 35q-80 82 -70.5 171zM59.5 267.5q-2.5 -7.5 3.5 -15.5 q10 -8 18.5 -2t14.5 10q58 45 62 102v21q-2 4 -2 10t-4 8q-6 4 -10.5 -1t-8.5 -9q-18 -27 -36.5 -53.5t-30.5 -54.5q-4 -8 -6.5 -15.5z" />
<glyph unicode="sl" horiz-adv-x="641" d="M-16 596q27 129 125 217q39 37 84 39q14 0 27 -2t24 -10q16 -10 10 -27q-6 -16 -21 -12q-20 8 -35.5 6t-26.5 -11.5t-20.5 -21.5t-17.5 -24q-25 -31 -42 -66t-30 -72q-18 -57 2.5 -87.5t59.5 -59.5q12 -10 22 4q6 10 11.5 18.5t11.5 18.5q68 115 125 233.5t110 239.5 q12 27 23.5 52.5t24.5 47.5q16 29 31.5 37t45.5 4q27 -4 39.5 -18.5t18.5 -36.5q12 -41 12 -78q4 -86 -4 -168t-23 -166q-20 -127 -36.5 -254t-34.5 -256q-4 -31 -9.5 -61.5t-11.5 -63.5q-4 -20 -12 -41q-12 -29 -47 -22q-16 4 -20.5 14.5t-4.5 24.5l13 153q14 147 26 291 t17 291q0 59 4 119.5t8 120.5h-2l2 -2q-18 2 -22.5 -11.5t-10.5 -23.5q-29 -61 -59.5 -124t-59.5 -124q-29 -59 -59.5 -118.5t-65.5 -114.5q-10 -14 -11 -25.5t9 -26.5q25 -37 23 -72.5t-21.5 -64.5t-50.5 -48t-61 -21q-41 -4 -54.5 14t3.5 55q10 29 25 52.5t32 50.5 q18 27 17 36t-27 31q-12 12 -25.5 23.5t-26.5 23.5q-47 45 -34 117zM57 246q-8 -18 4 -25q4 -2 19 2q29 16 42 38.5t17 51.5q-2 8 -2 15q0 14 -8 18t-11 -1t-7 -9q-16 -23 -29.5 -44.5t-24.5 -45.5z" />
<glyph unicode="ly" horiz-adv-x="555" d="M-18 383q10 188 31.5 372.5t68.5 370.5q4 14 8 26.5t10 27.5q16 39 56 32q20 -4 24 -17t4 -30q-4 -35 -6 -67.5t-6 -65.5q-18 -168 -37.5 -334t-38.5 -331v-17q0 -2 2 -4q0 -2 2 -2q4 0 9 6q4 8 9 17.5t9 19.5q41 92 81 185.5t75 189.5l18 43q10 23 31 20q16 -4 18 -12 t2 -18q-2 -25 -3 -48.5t-1 -46.5q-2 -18 -4 -37.5t-2 -37.5q0 -10 -2 -21.5t8 -15.5q12 -4 17.5 7t13.5 21q6 8 11 16.5t9 18.5q10 16 23.5 20.5t30.5 0.5q18 -4 21 -17.5t3 -27.5q0 -61 -8 -123t-18 -123q-6 -41 -13.5 -83t-21.5 -83q-4 -14 -10.5 -26.5t-12.5 -26.5 q-10 -18 -31 -12q-12 4 -12 13t4 17q16 57 25.5 115.5t17.5 118.5q4 33 7.5 63.5t7.5 63.5q0 6 1 14t-3 10q-10 4 -14.5 -2t-10.5 -10l-8 -8q-31 -20 -54.5 -10t-33.5 45q-2 8 -1 16t-9 8t-11.5 -8t-3.5 -16q-23 -61 -45 -123t-45 -123t-49 -115q-23 -47 -82 -37 q-23 4 -35 17.5t-16 44.5q-12 71 -10 139z" />
<glyph unicode="ti" horiz-adv-x="462" d="M-197 983q-4 18 13.5 21.5t31.5 7.5q66 20 125 28q20 2 30.5 6.5t15 9.5t5.5 14t5 24q10 47 23.5 93t29.5 89q4 16 11 29.5t13 27.5q18 43 66 39q51 -2 53 -53q4 -45 -2 -88l-12 -86q-4 -25 -4 -38t5 -19.5t18.5 -6.5t37.5 2q27 4 52.5 4t52.5 3h24q10 -2 19.5 -4.5 t9.5 -12.5q2 -12 -7 -14t-20 -4q-10 -2 -20 -1t-21 -1q-31 -4 -61.5 -7.5t-60.5 -7.5q-31 -4 -38.5 -10t-11.5 -41t-9 -68.5t-9 -68.5q-14 -113 -25.5 -223.5t-19.5 -223.5v-30q0 -8 2 -8q8 -6 12 6q10 18 18.5 37.5t18.5 40.5l74 147q4 8 8 16.5t10 16.5q12 20 39 14 q25 -2 25 -35q2 -53 4 -105t6 -106q0 -16 1 -30.5t3 -30.5q4 -18 -12 -25q-18 -2 -25 15q-8 18 -10 34q-6 37 -8 74t-2 74q0 4 -1 10t-5 8q-10 4 -12.5 -3t-4.5 -13q-23 -53 -45 -106.5t-45 -106.5q-6 -16 -12 -32.5t-17 -33.5q-14 -31 -29.5 -40t-45.5 -5q-29 2 -41.5 17.5 t-18.5 38.5q-14 53 -20 123q-4 59 -9 117.5t-1 111.5q-2 98 5 189t19 182q4 23 1 26.5t-25 -0.5q-25 -4 -48.5 -7t-48.5 -7l-12 -4t-12 -2q-16 0 -34 -3t-22 15zM299 762q0 39 35 43q29 0 28 -31q1 -39 -36 -39q-29 0 -27 27z" />
<glyph unicode="ou" horiz-adv-x="770" d="M-18 471q-10 106 53 195q6 8 20 16q10 4 18.5 5t18.5 -5q10 -10 3 -17.5t-9 -15.5q0 -6 2 -10q-2 2 -2 4l-2 -4q4 -4 1 -2t1 4q33 4 60.5 19.5t56.5 31.5q47 29 91 61.5t85 73.5q20 18 42.5 21.5t47.5 -2.5q33 -12 43 -49q4 -23 5 -43.5t-1 -42.5q-4 -74 -17.5 -146.5 t-23.5 -146.5q-4 -16 -5 -31.5t-3 -32.5v-10t6 -6q10 -2 14 12q33 53 56.5 110.5t42.5 117.5q8 23 14 42t12 39q8 27 41 27q31 -2 35 -35q2 -10 2 -20v-21q2 -66 0 -130t8 -130q4 -18 -12 -24q-23 -6 -35 10q-8 12 -9 25.5t-3 25.5q-4 27 -4 52.5t-12 47.5 q-16 -20 -23.5 -43.5t-17.5 -46.5q-14 -29 -27.5 -55.5t-32.5 -50.5q-25 -35 -47 -41t-59 0q-29 6 -39 29.5t-15 48.5q-12 76 -8 149.5t15 147.5q4 35 11 67.5t13 67.5q2 4 0 7t-2 7q-10 0 -14 -4q-16 -10 -30.5 -21.5t-29.5 -23.5q-41 -31 -86 -58.5t-94 -43.5 q-37 -12 -31 -48q10 -55 -22 -106q-6 -10 -15.5 -20.5t-23.5 -14.5q-23 -8 -41 2t-22 35zM39 508q0 -10 4 -12q10 -4 14 10q6 16 9.5 32.5t-5.5 32.5l-2 2q-12 -14 -13 -28.5t-5 -30.5q0 -2 -1 -3t-1 -3z" />
<glyph unicode="out" horiz-adv-x="972" d="M-10 440q-25 160 14 312q4 16 8 24q16 31 54 27q29 -2 20 -35q-23 -78 -30 -155.5t1 -157.5q0 -4 2 -9.5t4 -9.5q8 12 11 19q33 117 14 231q-6 37 2 47t47 19q25 6 49.5 11t49.5 7q23 2 29.5 12.5t6.5 28.5q0 10 4 31q6 29 33 28q16 0 26.5 -5t14.5 -21q4 -12 4 -25.5 v-27.5q4 -61 0 -124t-8 -124q0 -12 -1 -24.5t-1 -24.5q2 -12 -1 -27.5t7 -20.5q12 -2 16.5 14.5t10.5 26.5q20 41 37.5 80t38.5 78q10 25 20 37q14 20 43 14q25 -6 25 -34q2 -35 2 -68t2 -66q0 -16 1 -33.5t3 -35.5q0 -10 6 -10q8 0 12 8q4 10 7.5 22.5t7.5 22.5 q27 98 52 192t52 193q6 23 3 27t-25 -1q-18 -2 -37 -5t-37 -5q-16 -4 -21 12q-4 8 2.5 11.5t12.5 5.5q20 4 38.5 11t39.5 9q29 4 42 18.5t21 41.5q14 47 29.5 91t31.5 89q10 29 23.5 36t42.5 5q51 -2 57 -55q4 -39 2 -77t-4 -77q-2 -29 2 -33t33 -2q47 4 96 6t97 -2 q14 0 28.5 -3t24.5 -13q16 -14 -4 -25q-10 -4 -17.5 -3t-15.5 3q-55 12 -110.5 5t-110.5 -7q-18 0 -25.5 -10t-9.5 -27q-6 -84 -15.5 -165.5t-13.5 -167.5q-10 -147 -13 -292t-3 -292q0 -14 -2 -27.5t-25 -13.5q-35 -2 -43 37q-4 25 -5 50.5t-3 49.5q-2 86 -4 170t-6 156 v193t2 177q0 31 2 62t4 59v8.5t-6 2.5q-8 0 -8 -7q-4 -12 -8.5 -24t-8.5 -27q-25 -82 -48 -163l-46 -162q-12 -41 -31 -80q-4 -10 -9 -18.5t-9 -18.5q-10 -14 -22.5 -23.5t-30.5 -5.5t-28.5 15.5t-14.5 27.5q-6 27 -9.5 52.5t-7.5 52.5q0 4 -1 8t-7 2l-6 -6 q-14 -29 -26.5 -56.5t-24.5 -56.5q-10 -20 -19.5 -39.5t-21.5 -40.5q-25 -41 -68 -31q-20 4 -28.5 17.5t-12.5 32.5q-4 23 -6 44t-2 44v122.5t2 122.5q0 31 -5 35t-36 -2q-14 -2 -26.5 -4t-26.5 -4q-29 -8 -33 -14t0 -37q10 -59 6 -115.5t-18 -116.5l-4 -20t-6 -21 q-20 -45 -60 -43q-25 2 -37 15.5t-18 34.5q-4 10 -8 30z" />
<glyph horiz-adv-x="0" />
<glyph unicode="&#xd;" horiz-adv-x="344" />
<glyph horiz-adv-x="0" />
<glyph horiz-adv-x="0" />
<glyph unicode=" "  horiz-adv-x="344" />
<glyph unicode="&#x09;" horiz-adv-x="344" />
<glyph unicode="&#xa0;" horiz-adv-x="344" />
<glyph unicode="!" horiz-adv-x="208" d="M43 674q2 127 27 256l6 24q8 31 41 27q33 0 41 -27q2 -4 4 -9t2 -11q2 -20 2 -39t2 -31q-4 -86 -11 -167t-16 -158q-4 -35 -5 -70t-3 -70v-21t-16 -16q-39 -10 -56 21q-10 16 -10 35q-10 129 -8 256zM63 252q2 18 29 18q14 0 25.5 -3t15.5 -19q4 -10 3 -21.5t-1 -21.5 v-15q0 -10 1 -19t-11 -13q-27 -10 -43 14q-23 37 -19 80z" />
<glyph unicode="&#x22;" horiz-adv-x="284" d="M41 958q6 41 8 87.5t4 93.5q2 16 6 30.5t9 30.5q8 23 18 31t31 6q37 -6 39 -47q4 -33 -2 -60q-12 -57 -16.5 -114.5t-6.5 -116.5q0 -14 -2 -25.5t-20 -15.5q-16 -4 -34 4t-26 23q-6 16 -7 32t-1 41zM176 981v43q2 33 4 64.5t6 62.5q2 14 7.5 25.5t23.5 9.5 q18 0 22.5 -11.5t2.5 -25.5q-4 -49 -7.5 -96t-7.5 -95v-19t-2 -17q0 -23 -18 -23q-23 -4 -27 19q-2 16 -2 31.5t-2 31.5z" />
<glyph unicode="#" horiz-adv-x="425" d="M43 477q-2 10 6 14.5t17 4.5q27 2 30.5 17t5.5 36q4 55 13.5 110.5t19.5 108.5q4 23 12 41q14 31 46 18q12 -4 13 -15t-1 -21q-10 -47 -17.5 -94.5t-15.5 -94.5q-2 -10 -4 -22.5t-2 -24.5q-2 -10 -5 -20.5t15 -14.5t32.5 5.5t18.5 25.5q4 23 6.5 47.5t6.5 46.5 q2 10 4 18.5t8 16.5q10 14 33 10q12 -2 16 -9t2 -17q-2 -23 -3 -42.5t-3 -41.5q-4 -29 0 -34t33 -5h4q16 -2 33.5 -3t17.5 -20q0 -14 -17.5 -12t-29.5 0q-86 -6 -41 -90q2 -6 3 -11.5t-5 -7.5q-23 -8 -24 -24.5t-3 -32.5q-4 -29 -8 -55.5t-8 -55.5q0 -23 -14 -39 q-12 -12 -29 -6q-14 2 -14 25q4 29 7 59.5t3 61.5q0 8 3 17t4 18.5t-3 15.5t-19 10q-29 6 -39 -5t-14 -52q-4 -49 -9 -98.5t-5 -98.5q2 -10 1 -22.5t-20 -12.5q-16 0 -21 10.5t-7 22.5q-2 14 -1 28.5t1 29.5h-2q4 41 6 79.5t4 79.5q2 12 0 23.5t-18 19.5t-12.5 15.5 t18.5 11.5q20 6 20 24q-2 14 -10 15.5t-19 3.5q-6 2 -12 3t-8 9zM152 444q0 -16 10 -16t18 -2q25 2 32 8t7 29q0 8 -1 15t-13 7q-25 2 -40 -9t-13 -32z" />
<glyph unicode="$" horiz-adv-x="462" d="M43 791q2 53 36 97t93 60q66 16 72 80q0 10 5 20.5t9 20.5q6 16 27 12q16 -2 12 -24q0 -4 -1 -5t-1 -5q-4 -18 -8 -38t2 -36q2 -8 9 -10t15.5 -3.5t17.5 -2.5t17 -5q29 -12 48.5 -31.5t23.5 -52.5q0 -10 -1 -19t-13 -13q-23 -6 -35 12q-25 41 -62 57q-20 10 -27.5 6 t-11.5 -26q-10 -63 -16 -126t-16 -126q-2 -37 24 -62q37 -31 60 -71q20 -35 18 -62.5t-27 -60.5q-25 -35 -63 -53q-35 -16 -33 -60q4 -49 -1 -98t9 -96q4 -18 -10 -21q-16 -4 -25 8q-8 14 -11 29.5t-5 32.5v121q-2 31 -7 36t-34 3q-4 0 -9 -1.5t-11 1.5q-10 4 -22.5 7 t-8.5 19q4 12 12 11t19 -1q39 2 49 12.5t12 45.5v47q2 10 2 21.5t2 21.5q14 53 -3 94t-60 76q-35 29 -54.5 68.5t-17.5 89.5zM121 786q-4 -39 9 -70.5t42 -58.5q8 -6 11 -0.5t5 13.5q4 53 10.5 106t16.5 107v10t-8 8q-2 -2 -4 -1t-6 -1q-33 -18 -52.5 -46t-23.5 -67z M224 411.5q-3 -10.5 9 -14.5q10 -2 14.5 9.5t8.5 21.5q6 12 2 31q-2 10 -6 23.5t-16 13.5q-12 -2 -8.5 -14.5t-0.5 -22.5q-2 -5 -2 -17v-10q2 -10 -1 -20.5z" />
<glyph unicode="%" horiz-adv-x="425" d="M45 885.5q6 27.5 23 56.5q12 20 41 29q18 4 24 -3.5t4 -27.5q-4 -8 0 -14t8 -13q6 -14 11.5 -26.5t9.5 -26.5q6 -27 -9.5 -49.5t-39.5 -26.5q-47 -14 -68 43q-10 31 -4 58.5zM76 178q8 55 18 107.5t21 105.5q29 141 61.5 281.5t75.5 277.5q14 43 28.5 84t30.5 82 q10 16 17 33q18 29 45 16q14 -6 11 -17t-5 -22l-86 -282q-47 -162 -88 -323t-76 -324q0 -8 -4 -21q-4 -33 -31 -26q-14 4 -16 12t-2 16zM106 846q-2 -6 0.5 -12.5t6.5 -6.5q12 0 12 8.5t2 18.5q-2 2 -2 5t-2 7t-2 8q-12 -4 -12 -12t-3 -16zM246 354q0 76 53 82q10 2 19.5 0 t9.5 -8q0 -20 13 -34.5t17 -31.5q6 -33 -8 -61q-16 -31 -45 -31q-31 0 -45 31q-10 24 -14 53zM295 352q2 -10 1 -20t13 -15q4 -2 6 5.5t2 11.5q0 10 -2 20.5t-14 14.5q-4 2 -4 -5.5t-2 -11.5z" />
<glyph unicode="&#x26;" horiz-adv-x="450" d="M45 201q-4 29 0 55.5t14 52.5q14 51 38 99.5t46 95.5q18 35 7 69q-16 47 -27.5 92.5t-7.5 94.5q4 55 37 92q23 25 54.5 33t55.5 -2q29 -14 36 -37.5t9 -50.5q-2 -66 -31 -125q-12 -29 -23 -56.5t-26 -54.5q-16 -29 -2 -59q14 -31 27.5 -61.5t28.5 -59.5q10 -23 26 -6 q10 12 21.5 24.5t23.5 22.5q18 23 41 20q14 0 17 -8q0 -6 -4 -14q-16 -18 -32 -35.5t-32 -36.5q-20 -25 -21.5 -33t13.5 -34q2 -4 4 -7.5t4 -7.5q4 -8 9 -15t-5 -18q-10 -4 -18.5 0.5t-16.5 8.5q-10 4 -15 16t-20 8q-10 -4 -17 -13t-15 -20q-16 -18 -32.5 -34.5t-39.5 -28.5 q-16 -10 -31.5 -15.5t-34.5 -5.5q-27 2 -42 13.5t-19 40.5zM94 227q4 -10 2 -22t13 -19q12 -6 21 1.5t17 17.5q25 23 48.5 48.5t48.5 49.5q12 12 6 29q-16 29 -28.5 59.5t-26.5 61.5q-4 12 -10.5 10t-10.5 -10q-10 -23 -20.5 -43.5t-20.5 -42.5q-16 -35 -25.5 -69t-13.5 -71 zM160 735q-2 -20 3 -40.5t9 -43.5q2 -10 4 -22.5t10 -14.5q14 0 18.5 13.5t8.5 23.5q6 16 11 31.5t12 32.5q18 53 12 108q-2 10 -4 19.5t-13 13.5q-12 4 -20 -1t-16 -13q-23 -23 -29 -48.5t-6 -58.5z" />
<glyph unicode="'" horiz-adv-x="143" d="M41 928h8v121v13t4 13q6 20 29 17q20 -4 20 -23v-26.5t-2 -26.5q-2 -33 -6 -65.5t-2 -65.5q0 -10 -2 -18.5t-16 -10.5q-27 0 -29 25q-2 10 -2 22t-2 25z" />
<glyph unicode="(" horiz-adv-x="239" d="M43 647q0 98 11.5 183t33.5 171q4 16 9 29.5t12 30.5q10 23 28 31q23 8 35 -5q8 -6 7 -13t-5 -15q-16 -51 -26.5 -104.5t-20.5 -106.5q-35 -184 -14.5 -360.5t75.5 -352.5q4 -8 10.5 -18.5t-10.5 -16.5q-14 -6 -22 2.5t-14 20.5q-10 23 -18.5 48.5l-16.5 49.5 q-29 109 -54.5 215.5t-19.5 210.5z" />
<glyph unicode=")" horiz-adv-x="239" d="M42 137q3 6 5 13q31 123 45 246.5t21 250.5q4 53 7 108.5t-1 108.5q-2 53 -6 105.5t-27 103.5q-8 14 -1 17.5t17 1.5q16 0 24.5 -9.5t16.5 -19.5q18 -29 27.5 -58.5t15.5 -60.5q6 -47 8.5 -95t2.5 -116q4 -102 -19.5 -219t-50.5 -238q-6 -29 -13.5 -54t-13.5 -54 q-4 -10 -8 -21.5t-14 -19.5q-14 -8 -31 -2q-8 6 -5 12z" />
<glyph unicode="*" horiz-adv-x="272" d="M43 1059q-2 10 12 14q4 4 7.5 4t7.5 2q33 0 14 31q-4 4 -6 10t4 13q18 14 29 0q16 -18 27.5 -13.5t21.5 19.5q18 23 47 16q12 -4 10 -14q-4 -10 -13 -16.5t-16 -16.5q-16 -18 9 -18q6 0 12 -1.5t14 -1.5q2 -2 3 -4t3 -4q4 -4 1 -6t-7 -6q-4 0 -4 -4q-4 -4 -11 -4h-14.5 t-12.5 -2t-5 -13q0 -10 9.5 -19t15.5 -19q4 -4 5 -6.5t5 -6.5q4 -8 9 -14t-1 -14q-18 -14 -37 4q-12 14 -23.5 32.5t-25.5 22.5q-18 2 -24.5 -19.5t-18.5 -33.5q-12 -8 -24 -2q-10 6 -7 20q4 6 6.5 12.5t6.5 12.5q10 16 10 26.5t-27 10.5q-8 0 -12 8z" />
<glyph unicode="+" horiz-adv-x="317" d="M43 594q-2 8 5 11t13 3q25 -2 37.5 5.5t18.5 19.5t8 28.5t4 32.5q0 10 1 18.5t3 18.5q2 12 5 22.5t20 10.5q20 -2 23 -13.5t3 -25.5q0 -16 -1 -33.5t-1 -34.5q-2 -27 2 -30.5t31 -8.5h18.5t18.5 -2q8 -2 16 -3t8 -11t-8 -11t-16 -1q-10 -2 -21.5 -1t-21.5 1 q-35 2 -35 -33q-2 -33 -4 -65.5t-4 -65.5q0 -10 -1 -18.5t-13 -12.5q-14 -4 -21.5 5.5t-9.5 21.5q-2 20 -3 40t-1 40v16q2 14 4 30.5t-4 26.5q-8 12 -24.5 7.5t-31.5 -0.5q-6 2 -12 2t-6 10z" />
<glyph unicode="," horiz-adv-x="149" d="M41 227q2 23 3 45.5t3 44.5q2 16 7 27.5t28 9.5q20 -2 22 -14t2 -29q-4 -33 -5 -63.5t-3 -63.5q-2 -12 -3 -25.5t3 -25.5q2 -6 3 -13t-7 -11q-14 -8 -31 2q-10 4 -15 15t-5 24q-2 20 -1 39.5t1 37.5h-2z" />
<glyph unicode="-" horiz-adv-x="389" d="M43 475q-4 16 13.5 18.5t29.5 6.5q53 14 106.5 22.5t108.5 12.5q12 -4 29.5 -1t17.5 -16q0 -16 -16.5 -15t-28.5 -3q-47 -8 -96 -16.5t-96 -16.5q-12 -4 -17 -4q-14 -2 -30.5 -3t-20.5 15z" />
<glyph unicode="." horiz-adv-x="176" d="M41 236q0 14 12.5 24t28.5 12q51 7 51 -30q2 -16 -10 -27.5t-33 -13.5q-20 -2 -34.5 8t-14.5 27z" />
<glyph unicode="/" horiz-adv-x="256" d="M41 215q0 13 2 25q16 170 41 337.5t66 335.5q4 10 5 18.5t5 16.5q12 27 39 21q14 -4 15 -13.5t-1 -21.5q-14 -68 -27.5 -135.5t-25.5 -134.5q-23 -115 -39.5 -230t-26.5 -231v-18.5t-12 -10.5q-25 -6 -35 16q-6 12 -6 25z" />
<glyph unicode="0" horiz-adv-x="442" d="M42 414.5q1 15.5 1 31.5q2 94 18.5 182.5t53.5 174.5q12 29 27.5 55.5t35.5 48.5q14 16 29.5 29.5t36.5 21.5q90 37 123 -51q29 -78 34 -155.5t-10 -157.5q-29 -164 -98 -313q-6 -14 -14.5 -27.5t-16.5 -28.5q-14 -25 -40.5 -37t-54.5 -11t-53.5 17.5t-39.5 49.5 q-14 35 -20.5 69.5t-10.5 69.5q-2 16 -1 31.5zM158 332q2 -16 4 -33.5t8 -34.5q6 -20 23 -4q8 16 12 23q51 111 79.5 222t34.5 232q0 33 -4 63.5t-8 63.5q-4 20 -18 23q-8 0 -11.5 -6.5t-7.5 -10.5q-6 -10 -11 -19t-9 -20q-23 -47 -38 -97t-28 -103q-18 -74 -26 -148.5 t0 -150.5z" />
<glyph unicode="1" horiz-adv-x="251" d="M42 344q-1 39 3 78q4 90 9 177t9 175q4 55 10.5 108.5t24.5 106.5q8 23 21.5 36t38.5 13q29 2 40 -9t11 -40q2 -41 -3 -80t-9 -80q-18 -135 -30.5 -269t-21.5 -269q-2 -33 -2 -65.5t4 -67.5q2 -31 -30 -31q-49 -4 -66 49q-12 41 -8 88q0 41 -1 80z" />
<glyph unicode="2" horiz-adv-x="464" d="M43 888.5q2 10.5 8 22.5q14 25 31.5 45.5t40.5 38.5q49 45 113 78q29 16 58.5 19.5t59.5 -0.5q80 -6 68 -86q-8 -57 -29 -113q-35 -104 -70.5 -203.5t-70.5 -204.5q-20 -55 -31.5 -113.5t-9.5 -119.5v-18.5t4 -18.5q4 -29 27 -12q53 35 71 12q8 -10 -7 -30.5t-40 -30.5 q-55 -25 -97 -2.5t-50 81.5q-4 18 -3 37t1 37q0 63 10 125t29 121q29 90 57.5 179t56.5 179q6 20 11.5 39t9.5 39q2 4 3 9.5t-5 9.5t-19 -4q-41 -25 -78.5 -53.5t-70.5 -63.5q-4 -6 -8 -11.5t-9 -9.5q-27 -16 -51 2q-12 10 -10 20.5z" />
<glyph unicode="3" horiz-adv-x="423" d="M43 872q-4 8 2 14.5t12 12.5q47 41 101.5 69.5t117.5 45.5q39 10 72 -4q43 -14 31 -58q-4 -20 -12.5 -37.5t-18.5 -35.5q-35 -61 -69.5 -122t-69.5 -122q-10 -16 -19.5 -34.5t-17.5 -35.5q-8 -20 -5 -26.5t26 -8.5q10 -2 22 -2h25q27 0 57 -10q39 -12 54.5 -35.5 t15.5 -74.5q-8 -66 -28 -132.5t-58 -130.5q-16 -27 -48 -51q-12 -12 -38 -16q-8 0 -16.5 1t-12.5 9t0 14.5t8 12.5q47 61 68.5 131.5t25.5 146.5q4 55 -12 73.5t-72 18.5h-35.5t-33.5 7q-61 14 -43 73q12 41 34 84q33 61 66 121.5t66 120.5q6 10 14 21.5t0 19.5 q-8 10 -19.5 2t-21.5 -12q-23 -12 -45.5 -23.5t-44.5 -24.5q-10 -4 -21.5 -9t-23.5 -7q-10 0 -19.5 2t-13.5 12z" />
<glyph unicode="4" horiz-adv-x="464" d="M43 467q-2 31 2 61.5t10 61.5q41 207 123 397q10 29 31 57q10 16 26.5 22.5t32.5 0.5q18 -8 20.5 -21.5t-1.5 -27.5q-6 -31 -12.5 -60.5t-14.5 -58.5q-23 -86 -45 -170t-39 -170q-12 -49 -8 -100q2 -29 10 -36t35 -5q6 0 11 1t9 1q25 4 39.5 7t21.5 10t9 21.5t6 39.5 q4 29 9.5 58.5t11.5 57.5q0 10 8 31q6 18 29 19q12 -4 15 -11.5t1 -17.5q0 -16 -1 -29.5t-3 -30.5q-2 -14 -4 -27t-6 -30q-4 -29 0 -35t32 -16q6 -2 12.5 -4t8.5 -10t-3 -13.5t-9 -9.5q-8 -8 -13 -10q-35 -8 -43 -31.5t-10 -52.5q-4 -31 -5 -61.5t9 -59.5q2 -10 3 -18.5 t-13 -12.5q-23 -6 -31 21q-10 25 -10 50t-2 60q-2 10 3 27.5t-7 30.5q-12 12 -30.5 4t-35.5 -8q-20 0 -39.5 -1t-40.5 1q-92 4 -102 98z" />
<glyph unicode="5" horiz-adv-x="471" d="M49 154q49 53 80 117.5t57 131.5q4 10 6.5 22.5t6.5 23.5q25 70 -49 75q-45 4 -63.5 25.5t-18.5 68.5t13 92.5t23 90.5q4 10 7.5 19t7.5 20q10 29 -17 28q-4 2 -8 2t-8 2q-25 10 -4 27q10 8 20.5 13.5t20.5 11.5q10 4 21.5 9t17.5 15q12 16 27.5 21.5t31.5 3.5 q18 -4 32.5 2t31.5 10q33 10 65.5 19.5t69.5 7.5q20 0 31 -2q12 -4 22 -9.5t8 -19.5t-13 -15t-22 1q-49 8 -91 -10.5t-87 -32.5q-18 -6 -22 -31q-14 -66 -28.5 -130.5t-27.5 -129.5q-2 -10 -2 -33q0 -27 27 -33q10 0 27 -4q47 -10 66.5 -40.5t2.5 -78.5q-51 -156 -157 -286 q-37 -43 -97 -31q-27 8 -8 27z" />
<glyph unicode="6" horiz-adv-x="382" d="M43 436q4 78 18.5 162t49.5 170q16 45 49 90q25 35 59.5 46t75.5 5q16 -4 28.5 -12t16.5 -27q2 -20 2 -41.5t-16 -37.5q-18 -20 -43 10q-16 23 -21.5 22.5t-17.5 -24.5q-27 -53 -43.5 -108.5t-26.5 -115.5q-29 -135 -24 -274q0 -10 1 -22.5t3 -24.5q2 -4 2 -11t10 -7 q6 0 8 5t6 9q39 82 43 178q0 25 -14 39q-27 20 4 31q47 14 63 -31q8 -20 9 -31q4 -59 -7.5 -113.5t-39.5 -107.5q-10 -16 -23.5 -30.5t-36.5 -18.5q-68 -18 -102 53q-16 35 -25.5 90t-7.5 127z" />
<glyph unicode="7" horiz-adv-x="362" d="M43 770q-4 10 4 18q35 29 69 50.5t81 19.5q31 -2 43 -14.5t12 -40.5q2 -33 1 -65.5t-5 -67.5q-2 -29 -6 -59.5t-9 -61.5q-2 -16 4.5 -21.5t22.5 -3.5q14 2 27.5 2t25.5 -6q8 -4 9 -12q0 -6 -11 -10q-12 -4 -25.5 -6.5t-25.5 -4.5q-39 -2 -41 -45q-6 -59 -14 -117.5 t-15 -117.5q-4 -18 -11 -29.5t-27 -9.5q-37 0 -37 33v69l4 66t4 65q2 12 -1 20.5t-22 12.5q-18 4 -19 14.5t15 20.5q23 10 27 27.5t6 38.5q4 59 9 116.5t12 114.5q2 18 -4.5 20t-18.5 -4q-16 -8 -31.5 -15t-34.5 -5q-12 0 -18 8z" />
<glyph unicode="8" horiz-adv-x="378" d="M43 193q0 23 5 44t13 44q12 39 28.5 75.5t35.5 71.5q16 31 4 59q-12 31 -24.5 62t-22.5 63q-18 55 -16 109q2 35 16 66.5t38.5 55t55.5 39t64 15.5q16 2 36.5 2t18.5 -33q0 -4 4 -4q20 -6 29.5 -17t9.5 -24.5t-4 -28t-8 -26.5q-14 -53 -35 -103.5t-45 -99.5 q-20 -43 -6 -90t19 -94t-1 -94q-6 -33 -17.5 -61.5t-31.5 -55.5q-31 -39 -74 -49q-16 -4 -33.5 -3t-31 9t-21.5 23.5t-6 44.5zM98 184q0 -20 13 -20q8 -2 12 3t8 11q31 51 31 121v26.5t-2 26.5q0 6 -4 6q-8 0 -9 -4q-20 -41 -35.5 -82t-13.5 -88zM182 696q-2 -18 2 -35.5 t9 -35.5q4 -10 8 -13q10 -4 14 11q18 41 34.5 83t29.5 85q4 16 0.5 27t-7.5 26q-4 16 -9 14t-11 -6q-37 -31 -52.5 -70t-17.5 -86z" />
<glyph unicode="9" horiz-adv-x="387" d="M41 616q8 70 36.5 128.5t86.5 103.5q27 23 57.5 27t63.5 -3q51 -8 45 -57q-6 -25 6 -45q10 -20 9 -41.5t-3 -42.5q-12 -104 -30.5 -206.5t-49.5 -203.5q-8 -23 -17 -43t-24 -36q-8 -8 -15 -15.5t-20 -9.5q-8 -2 -15 -2t-15 6q-8 8 -3 14.5t9 12.5q35 59 47 123.5 t24 130.5q8 47 13.5 94t7.5 96q0 4 1 9.5t-7 5.5t-12 -9q-10 -12 -18.5 -25.5t-18.5 -25.5q-25 -31 -52 -47q-39 -27 -79 -4q-20 10 -23.5 27.5t-3.5 37.5zM125 626.5q-6 -12.5 4 -18.5q8 -6 15.5 5.5t15.5 19.5q31 37 49 82t51 80q2 2 2 10q-6 10 -8 12q-10 4 -18 -8 q-35 -35 -59.5 -75t-41.5 -85q-4 -10 -10 -22.5z" />
<glyph unicode=":" horiz-adv-x="194" d="M41 414q0 23 14.5 38t38.5 13q45 -4 41 -45q-2 -18 -16 -29.5t-41 -9.5q-37 0 -37 33zM55 672q0 55 49 55q20 2 33 -9t15 -28q2 -20 -15.5 -37.5t-42.5 -19.5q-16 -2 -26.5 9.5t-12.5 29.5z" />
<glyph unicode=";" horiz-adv-x="247" d="M42 95.5q-1 9.5 3 19.5q4 53 15.5 105t23.5 106q4 25 22 32q16 8 27.5 1t13.5 -23q0 -10 -4 -27q-12 -47 -24.5 -94t-22.5 -94q-4 -12 -8 -21q-4 -10 -12 -16t-21 -2q-12 4 -13 13.5zM111 700q0 45 47 45q23 0 36 -11t13 -29q0 -23 -15.5 -38.5t-37.5 -13.5q-43 0 -43 47 z" />
<glyph unicode="&#x3c;" horiz-adv-x="356" d="M42 501.5q-3 20.5 19 51.5q43 53 95.5 95t111.5 77q18 12 35 6q4 -2 6 -4t6 -4q-4 -12 -12 -18q-14 -10 -27.5 -19.5t-27.5 -19.5q-35 -29 -70 -58.5t-63 -64.5q-20 -25 -17.5 -37t31.5 -29q35 -18 67.5 -34.5t67.5 -34.5q10 -4 17.5 -9.5t15.5 -9.5q10 -6 6 -12 q-4 -4 -12 -8q-10 -4 -18.5 -1t-18.5 7q-47 18 -91 38.5t-85 47.5q-33 20 -36 40.5z" />
<glyph unicode="=" horiz-adv-x="323" d="M42 547q-3 8 7 14q109 55 219 37q14 -4 13 -16q0 -10 -9 -11q-49 -4 -96 -18.5t-94 -24.5q-8 2 -14.5 2t-12.5 5q-10 4 -13 12zM70 459q-4 12 4 16t16 6q50 15 111 15q10 0 29.5 2t19.5 -15q2 -16 -17.5 -15t-33.5 -3q-27 -4 -52.5 -8t-52.5 -8h-14t-10 10z" />
<glyph unicode="&#x3e;" horiz-adv-x="331" d="M43 367q-2 10 8 18q29 35 57.5 68.5t59.5 68.5q12 16 25.5 29.5t27.5 28.5q27 27 -4 49q-23 16 -45 32.5t-45 32.5q-18 14 -35.5 29.5t-36.5 32.5q-6 6 -2 14q2 6 13 6q16 2 34 -12q39 -29 78 -57.5t78 -59.5q33 -27 34 -43t-28 -47q-41 -45 -81 -88t-81 -86 q-8 -10 -16.5 -18.5t-22.5 -6.5q-12 0 -18 9z" />
<glyph unicode="?" horiz-adv-x="393" d="M43 811q4 20 25.5 53t54.5 62.5t70.5 51t72.5 19.5q94 0 84 -94q-4 -39 -15 -73.5t-28 -69.5q-31 -66 -62.5 -131.5t-60.5 -130.5q-8 -16 -14 -31.5t-12 -32.5q-10 -27 -39 -16q-23 8 -17 35q6 16 12.5 34.5t14.5 34.5q27 66 52.5 130.5t49.5 129.5q10 29 19.5 56.5 t13.5 56.5q6 20 2 41q0 29 -24 14q-10 -6 -20.5 -12t-20.5 -14q-35 -29 -65 -59.5t-48 -71.5q-14 -25 -35 -15q-14 6 -10 33zM63 258q0 10 8.5 14t18.5 4t18.5 -3t12.5 -17q-2 -25 -31 -20q-10 0 -19.5 4t-7.5 18z" />
<glyph unicode="@" horiz-adv-x="538" d="M41 584q0 96 23.5 183t89.5 161q53 59 124.5 67.5t133.5 -37.5q66 -47 77 -122q16 -92 -2 -175t-53 -167q-14 -35 -49 -33q-18 2 -28.5 11t-16.5 26q-2 6 -6 14q-10 25 -14.5 26t-24.5 -18q-23 -23 -47.5 -16.5t-32.5 39.5q-20 80 21 159q23 49 77 29q6 -2 12.5 -4 t12.5 -4q16 -2 21.5 -10t5.5 -23q0 -35 -2.5 -71.5t8.5 -71.5q4 -14 4 -31.5t14 -19.5t19.5 15t9.5 32q23 70 35 140.5t-4 145.5q-12 59 -54 101q-47 41 -101 38t-95 -50q-35 -39 -58 -97q-37 -92 -44 -185t22 -190q23 -76 69 -129q37 -45 91 -26q43 16 82.5 37.5t76.5 48.5 q12 12 21 16q8 6 17 8t16 -8q4 -6 -0.5 -14t-10.5 -12q-49 -41 -101 -72t-118 -41q-39 -6 -69.5 9.5t-57.5 43.5q-41 49 -61.5 106.5t-28.5 123.5q-2 10 -2 22.5t-2 24.5zM258 571q0 -6 4 -10q4 0 8 4q12 25 22.5 51.5t0.5 57.5q-2 4 -10 12q-2 -4 -4.5 -6t-4.5 -6 q-8 -23 -10 -43.5t-6 -38.5v-21z" />
<glyph unicode="A" horiz-adv-x="563" d="M-20 467q2 8 12 18q4 4 8 4q39 6 50 32t22 54q43 135 99 262.5t122 249.5q12 27 26 46q20 29 51 38t62 -4q16 -6 24.5 -18t12.5 -29q10 -35 10 -66.5v-66.5q2 -16 1 -31.5t-1 -31.5q0 -88 -8 -175t-20 -174q-2 -33 26 -32q12 2 24.5 1t22.5 -3q18 0 19 -17q0 -10 -15 -14 q-27 -12 -51 -10q-39 0 -41 -41q-10 -102 -21.5 -203.5t-23.5 -204.5q-4 -47 -12 -88q-7 -37 -42 -37h-7q-31 4 -31 31v28.5t2 28.5q6 106 13.5 212t15.5 212v33q-4 16 -19 14q-27 -4 -52.5 -6t-53.5 -4q-29 -2 -35 -35q-10 -41 -22.5 -84t-24.5 -84q-4 -12 -7 -25.5 t-10 -25.5q-12 -29 -41 -29q-6 0 -12 1q-37 2 -43 40q-4 25 -3 50.5t5 50.5l13 67q6 27 3 33t-32 17l-10 5t-6 11zM206 533.5q5 -7.5 50 -3.5q10 2 31 2q18 2 27.5 3.5t14.5 6.5t6 15t3 29l18 307q2 10 2 18.5v18.5q0 4 -4 8q-2 -2 -4 -2t-4 -2q-4 -8 -7 -14.5t-7 -14.5 q-31 -80 -60.5 -160.5t-58.5 -162.5q-12 -41 -7 -48.5z" />
<glyph unicode="B" horiz-adv-x="710" d="M-20 557q2 18 9 32.5t15 31.5q35 59 78 110t94 98q37 31 43 74q6 29 19 58q12 31 37.5 35.5t46.5 -23.5q10 -14 17 -15.5t21 5.5q39 23 80 40t88 23q19 3 36 3q43 0 83 -17q42 -18 42 -58q0 -10 -3 -22q-6 -25 -18.5 -46.5t-26.5 -43.5q-47 -72 -101.5 -133.5 t-115.5 -120.5l-27 -27q-14 -14 6 -20q12 -2 23.5 -4t24.5 -7q29 -8 54 -17t48 -28q23 -18 36 -41.5t9 -52.5q-4 -68 -27.5 -124t-87.5 -91q-8 -4 -14 -6t-14 -6q-10 -4 -21.5 -4t-17.5 10q-8 14 1 20.5t17 10.5q46 37 60 86q9 34 10 71q0 16 -2 33q-4 29 -18.5 47.5 t-37.5 32.5q-29 14 -57 22.5t-57 8.5q-23 8 -28 -1t-5 -26q-6 -72 -12 -143.5t-11 -143.5q0 -16 -2 -31.5t-28 -17.5q-5 -1 -10 -1q-42 0 -48 48q-4 23 -5 46.5t-1 48.5q0 92 1 183t7 183q0 6 1.5 12.5t-9.5 10.5q-6 0 -16 -11q-27 -29 -52.5 -54t-50.5 -54q-23 -26 -50 -26 q-5 0 -11 1q-23 6 -22 31zM313 625q0 -4 2 -7q4 -4 8.5 -0.5t8.5 7.5q53 59 97 122.5t79 135.5q2 4 4 10t2 10q6 10 2 15q-4 6 -9 4t-9 -4q-41 -20 -77 -44t-71 -51q-10 -10 -13 -20t-5 -23q-4 -37 -8.5 -74.5t-8.5 -78.5q-2 2 -2 -2z" />
<glyph unicode="C" horiz-adv-x="528" d="M-20 453q2 100 19 197.5t58 189.5q18 47 44 90t65 80q65 62 145 62q31 0 64 -9q88 -20 94 -113v-12q0 -42 -12 -82q-4 -12 -9.5 -21.5t-21.5 -9.5q-23 0 -33 29q-12 57 -39 104q-18 29 -30.5 31t-36.5 -24q-31 -33 -53.5 -70t-38.5 -78q-87 -204 -87 -425q0 -23 1 -46 q2 -29 7 -55.5t17 -52.5q16 -31 43 -13q16 12 33.5 24.5t34.5 26.5q106 98 196 216q4 8 8.5 14t10.5 12q18 25 41 8q10 -6 8 -15t-6 -17t-7 -15.5t-8 -13.5q-88 -129 -204 -244q-47 -47 -117 -57q-15 -2 -29 -2q-95 0 -131 96q-16 47 -21 96.5t-5 98.5z" />
<glyph unicode="D" horiz-adv-x="550" d="M-19 959.5q1 9.5 5 19.5q29 53 77 78q27 14 41.5 33.5t24.5 44.5q6 20 18 39q16 31 50 24q31 -6 36 -39q2 -8 2.5 -14t2.5 -12q2 -29 32 -29q57 0 117 -27q78 -35 115 -101q27 -49 27 -110q0 -21 -3 -43q-8 -53 -25.5 -101t-39.5 -95q-94 -176 -213 -348 q-10 -14 -21.5 -26.5t-23.5 -27.5q-6 -8 -12.5 -16t-10.5 -19q-10 -29 -23.5 -37t-41.5 -3q-49 2 -52 61q-6 133 -6 269v69q-1 48 -1 96v49q1 72 7 148q2 31 5.5 60.5t7.5 60.5q4 10 0 14q-8 6 -19 -4q-6 -8 -12 -14.5t-12 -14.5q-18 -23 -43 -2q-10 8 -9 17.5zM191.5 341 q-1.5 -7 7.5 -11q8 -2 11 5t7 11q39 63 74 127t63 131q25 57 42.5 116.5t19.5 125.5q0 66 -27 115t-86 77q-37 18 -48 12t-9 -46l2 -62q0 -54 -5 -106q-7 -82 -18 -166q-10 -80 -16 -159t-14 -159q-2 -4 -3.5 -11z" />
<glyph unicode="E" horiz-adv-x="530" d="M-18 178q6 12 14 23q4 10 10 12q37 20 43 52t6 67q0 47 2 92t6 92q4 16 1 32.5t-27 20.5q-12 2 -13 13.5t9 15.5q18 8 26.5 20.5t12.5 25.5t4 28.5t2 29.5q10 76 24.5 150t32.5 147q4 18 5 34t-27 22q-14 4 -13.5 13t11.5 19q8 8 16 13.5t18 9.5q31 12 43 37q18 27 45 35 t52 -11q20 -12 38.5 -13t36.5 3q29 4 55.5 5t55.5 1q16 0 31.5 -4t29.5 -8q10 -4 20.5 -9t6.5 -20q-4 -14 -18.5 -14t-24.5 4q-30 11 -59 11q-15 0 -29 -3q-43 -8 -88 -16q-16 -4 -22.5 -11t-10.5 -24q-23 -197 -67 -387q-6 -29 22 -29q20 0 40 1t38 -9q8 -4 15 -8t5 -12 q0 -10 -8 -12.5t-16 -2.5q-10 -2 -18.5 -1t-18.5 3v2q-12 -2 -25.5 -2t-25.5 -4q-29 -4 -31 -30q-16 -63 -28.5 -127t-18.5 -129q-2 -23 3 -26t26 1q83 20 167 19q24 0 48 -1q16 0 31.5 -3t27.5 -15q18 -18 -4 -29q-20 -10 -47 -2q-28 5 -55 5q-36 0 -70 -9 q-59 -16 -119 -37q-14 -6 -18 -22q-6 -23 -29 -23q-43 0 -82 -32l-7 -3.5l-7 -3.5q-14 -4 -26.5 -4t-22.5 13q-10 12 -4 24z" />
<glyph unicode="F" horiz-adv-x="354" d="M-168 815q-6 16 3 29.5t20 25.5q47 47 104 72q57 23 66 86q12 68 51 133q23 41 69 41q31 0 43.5 -12t16.5 -45v-58q-4 -43 3 -49t52 4q41 10 84 18q34 6 69 6q9 0 19 -1q16 -2 29.5 -3t27.5 -7q10 -6 17.5 -13.5t5.5 -19.5q0 -20 -27 -29q-23 -8 -41 -4q-9 1 -19 1 q-59 0 -110 -22q-59 -26 -118 -50q-12 -4 -17 -25q-8 -53 -15 -103.5t-15 -101.5q-4 -16 4 -23.5t20 -11.5q6 -2 11 -7t3 -11q0 -16 -16 -12q-29 0 -33 -17.5t-8 -36.5q-10 -78 -21.5 -155.5t-21.5 -155.5q-4 -20 -11 -34.5t-30 -20.5q-14 -4 -26 -4q-47 0 -48 59 q-2 35 -2 66.5v66.5h6v131q4 27 -20 21h-16h-29.5t-20.5 18q-4 16 9.5 24.5t25.5 16.5t19 10q23 6 31 21.5t8 38.5q0 33 3 65.5t5 65.5q2 31 -25 18q-16 -8 -33.5 -17t-39.5 -9q-16 2 -34 1t-28 19z" />
<glyph unicode="G" horiz-adv-x="618" d="M-20 414q8 166 44.5 322.5t110.5 305.5q37 76 92 142q43 47 95 57q24 5 49 5q30 0 61 -7q35 -6 55.5 -29.5t24.5 -58.5q3 -30 3 -60q0 -41 -6 -81q-11 -68 -40 -136q-4 -10 -14 -20q-23 -23 -54 -10q-14 4 -18 15t-4 24q-2 29 -1 55.5t-1 54.5q-2 27 -2 51.5t-6 49.5 q-2 4 -2 10t-9 6q-6 0 -8 -4t-6 -8q-35 -53 -61 -119q-63 -154 -105.5 -313.5t-54.5 -327.5q-1 -16 -1 -33q0 -24 2 -48q3 -40 15 -81q8 -35 31 -6q23 31 40 64.5t34 68.5q16 41 30.5 83t24.5 83q4 16 1 27.5t-26 11.5q-16 0 -31.5 4t-17.5 23q-4 20 10.5 29t28.5 16 q125 53 268 59q14 0 21 -2q14 -4 28.5 -8t14.5 -23q2 -16 -11.5 -21t-25.5 -10q-35 -8 -66.5 -17t-64.5 -23q-18 -6 -24.5 -16.5t-8.5 -29.5q-10 -80 -10 -159.5t-4 -159.5q-2 -8 -1 -15.5t-1 -15.5q0 -25 -29 -24q-10 0 -19 4t-12 18q-2 23 -3 46.5t-3 47.5q-2 4 -2 6.5 t-2 4.5q-4 2 -7 -1t-3 -8q-14 -23 -25.5 -46t-25.5 -46q-35 -61 -111 -61q-41 2 -66.5 18.5t-43.5 51.5q-20 39 -28.5 79.5t-12.5 83.5q-4 25 -4 49.5t-2 51.5z" />
<glyph unicode="H" horiz-adv-x="632" d="M-18 662q-2 20 13 27t32 11q14 4 27.5 7.5t27.5 7.5q29 6 34 12t5 35q2 186 31 371q6 39 14 77.5t24 75.5q22 45 72 45h4q29 -4 41 -15t21 -40q14 -55 14 -112.5t-4 -114.5q-4 -70 -11.5 -137.5t-17.5 -135.5q-4 -25 1 -31t28 -2q33 4 49 5.5t22.5 6.5t6.5 19t2 49 q4 55 11 110.5t22 108.5q2 8 4 15.5t4 15.5q10 31 47 27q16 -4 21 -13.5t5 -25.5q1 -22 1 -44q0 -43 -3 -85q-4 -62 -10 -125q0 -6 -1 -13.5t-1 -13.5q-6 -27 23 -26h37q14 -2 26 -2t27 -2q12 -4 24.5 -10.5t10.5 -22.5q0 -14 -12.5 -18.5t-22.5 -8.5q-43 -8 -88 -12 q-39 -2 -39 -39q-4 -105 -14 -205q-7 -71 -6 -143q0 -31 1 -62q0 -10 -1 -18t-11 -12q-27 -10 -43 10q-10 10 -12 20.5t-4 22.5q-6 42 -6 85v21q2 54 4 107v158q0 23 -4.5 27.5t-26.5 0.5q-8 -4 -14 -4q-20 -4 -44 -4t-36 -16q-10 -16 -11.5 -38t-5.5 -42 q-12 -98 -23 -193.5t-22 -191.5q-4 -35 -13 -46.5t-32 -15.5q-41 -6 -58.5 7.5t-15.5 56.5q4 92 6.5 181t6.5 179q2 18 1 36t1 34q2 18 -6.5 24.5t-24.5 6.5q-27 -2 -59 4q-14 4 -29.5 9t-19.5 24z" />
<glyph unicode="I" horiz-adv-x="395" d="M-18 295q-4 12 4 19.5t18 13.5q27 23 68 28q20 6 12 27q-10 35 -12 70.5t-4 72.5v287q4 176 61 342q4 12 5 19.5t-19 3.5q-10 -4 -24.5 -5.5t-18.5 15.5q-4 16 9 22t25 11q35 16 72 19t74 7q16 2 31.5 1t31.5 -1v2h80q10 0 23.5 -3t13.5 -17q0 -12 -12 -13.5t-23 -1.5 q-23 0 -45 -1t-45 -5q-10 -2 -14 -5t0 -13q15 -31 15 -62q0 -19 -3 -69q-4 -80 -15 -160t-25.5 -158.5t-30 -157.5t-25.5 -159q0 -6 -1 -12t-3 -15q-2 -20 20 -20h47q25 0 47 -12q10 -4 7 -13q0 -4 -9 -12q-10 -4 -18 -4h-18q-63 0 -124 -9.5t-118 -37.5q-4 -2 -7 -3t-7 -3 q-12 0 -24.5 -2t-18.5 14z" />
<glyph unicode="J" horiz-adv-x="602" d="M-10 887q10 12 22.5 21.5t26.5 17.5q47 31 100.5 49t108.5 29q20 4 33.5 12t17.5 35q4 41 20.5 57t45.5 20q8 1 15 1q26 0 48 -11q27 -14 39 -49q10 -27 25.5 -36t42.5 -7q8 1 16 1q46 0 86 -21q23 -8 22 -27q-2 -18 -24 -27q-31 -10 -57 -10h-21.5t-21.5 -2 q-29 -4 -33 -9t-4 -34q0 -43 -2 -85t-7 -85q-10 -106 -37.5 -206.5t-64.5 -198.5q-14 -37 -33.5 -72t-46.5 -64q-20 -23 -44.5 -37t-55.5 -16q-53 0 -74 43q-18 41 -29 84q-10 37 -10 76v14q0 25 10 41q12 18 33 12q10 -4 11.5 -11t-1.5 -15q-2 -16 -2 -31q0 -24 5 -47 q10 -37 22 -72q4 -12 8 -25.5t17 -13.5q14 0 18 14.5t8 26.5q18 45 26.5 92.5t12.5 94.5q4 72 8.5 147.5t8.5 165.5v127q0 25 -4.5 29t-26.5 -4q-23 -8 -45.5 -16.5t-44.5 -16.5q-25 -10 -50.5 -15.5t-52.5 -5.5q-16 2 -29.5 4.5t-27.5 10.5q-29 18 -8 45z" />
<glyph unicode="K" horiz-adv-x="446" d="M-19 538q1 44 1 87v47q0 94 6 184q8 114 37 227q8 43 24 86q12 29 32.5 37t55.5 4q27 -4 38 -17t15 -44t4 -61v-8q0 -34 -6 -68q-4 -59 -9 -118.5t-15 -119.5q-2 -4 -2 -11t2 -9q10 -4 12 3t6 11q29 47 55.5 91t55.5 91q8 14 18.5 27.5t20.5 28.5q20 25 55 28 q38 0 38 -20q0 -10 -9 -25q-37 -63 -76 -124.5t-78 -123.5q-23 -35 -44 -66.5t-44 -66.5q-15 -21 -15 -45q0 -19 9 -41q18 -41 37.5 -78.5t48.5 -72.5q4 -6 9 -12.5t-3 -14.5q-10 -12 -31 -4q-27 10 -41 31q-10 16 -22 32.5t-23 32.5q-4 6 -7 13.5t-11 5.5q-10 -2 -9 -10.5 t-1 -14.5q-8 -33 -14.5 -65.5t-12.5 -65.5q-2 -10 -4 -18.5t-4 -18.5q-4 -35 -37 -35q-20 2 -26.5 12.5t-10.5 26.5q-8 47 -16 92t-8 93q-1 29 -1 58v29z" />
<glyph unicode="L" horiz-adv-x="456" d="M-12 188q18 29 47 50q20 12 25.5 28.5t7.5 38.5q8 123 16 243t18 243q10 127 52 237q6 16 13 32.5t19 29.5q23 27 49.5 21.5t36.5 -38.5l7 -24q0 -18 1 -34t1 -24q-2 -86 -15.5 -159.5t-29.5 -145.5q-16 -78 -31 -153.5t-29 -153.5q-2 -6 -2 -13.5t-2 -13.5 q-2 -23 2 -26.5t27 6.5q25 10 49 19t49 20q20 8 39.5 13t42.5 3q20 0 41 -10q14 -8 12 -23q0 -12 -14 -12q-96 -23 -177 -76t-163 -102q-16 -10 -32.5 -17.5t-37.5 -3.5q-30 4 -30 22q0 10 8 23z" />
<glyph unicode="M" horiz-adv-x="862" d="M-18 408q-1 31 -1 62q0 176 29 355q6 41 19 78q18 48 71 48q6 0 13 -1q29 -4 41 -17t14 -48q4 -25 3 -50.5t1 -50.5v-16q0 -6 2 -8q10 0 12 8t4 14q29 80 61 159t66 157q8 20 13 28q16 36 53 48q15 5 29 4q22 0 43 -11q16 -10 22 -25.5t8 -31.5q3 -28 3 -56v-14 q-1 -34 -3 -69q-8 -76 -15 -152t-15 -153q0 -8 1 -16.5t1 -16.5q-6 -6 -6 -4q0 -10 4 -2v8q16 4 18 17.5t8 25.5q49 117 98.5 231.5t96.5 231.5q10 23 22.5 38t40.5 19q9 1 17 1q40 -1 59 -17q23 -20 25 -72q1 -25 1 -50q-1 -72 -9 -142q-12 -94 -29 -187 q-23 -117 -37 -231.5t-25 -231.5q-4 -57 -8 -113.5t-8 -113.5q-2 -16 -7 -25.5t-22 -11.5q-39 0 -45 29q-4 10 -4 20t-2 21q-3 63 -3 124q0 50 2 102q5 112 7 226q0 94 2 187.5t11 189.5v15q-8 0 -10.5 -4.5t-6.5 -8.5l-43 -92q-35 -86 -67.5 -170t-67.5 -170 q-4 -14 -9 -27.5t-14 -27.5q-19 -39 -63 -39h-4q-45 4 -57 47q-10 31 -14.5 63.5t-8.5 65.5q-4 59 -5 117v23q0 46 3 93q0 8 1 16.5t1 16.5q-2 4 -2 7t-6 3l-6 -6q-4 -4 -4 -7t-2 -7q-35 -88 -65 -177t-50 -181q-12 -55 -21.5 -112.5t-25.5 -111.5q-4 -10 -8 -30 q-8 -39 -50 -39q-39 0 -49 39q-28 105 -28 202v7z" />
<glyph unicode="N" horiz-adv-x="536" d="M-18 666q-2 46 -2 93q0 73 4 148q4 55 12 110.5t24 108.5q16 55 70 62q9 1 17 1q35 -1 51 -15q20 -18 24 -66q3 -38 3 -76v-19q-1 -48 -7 -95q-2 -8 -5 -18.5t7 -14.5q8 -2 11.5 7t7.5 15q27 45 51 88t51 88q6 12 15.5 23.5t15.5 26.5q18 33 47 41t63 4q47 -6 62 -52 q6 -16 8 -34.5t2 -36.5q1 -36 0 -72q0 -55 -1 -107q-3 -88 -15 -176q-8 -63 -11.5 -126.5t-7.5 -127.5q-4 -76 -7 -149.5t-3 -146.5q0 -14 -2 -26.5t-18 -19.5q-16 -6 -38 -2t-32 17q-10 10 -16.5 23.5t-10.5 27.5q-8 31 -11 62.5t-5 62.5q-8 129 -11 258t-3 258 q-1 11 -1 22q0 28 4 55q5 38 9 77q2 10 -2 30q4 2 7 3t-3 6q-2 0 -3 -3.5t1 -5.5q-14 -4 -19.5 -14t-9.5 -20q-47 -80 -87 -164t-68 -172q-16 -49 -21.5 -99.5t-17.5 -99.5q-6 -27 -12.5 -53.5t-12.5 -55.5q-4 -16 -11 -26t-26 -8q-29 0 -35 32q-14 51 -18 109 q-10 124 -14 242z" />
<glyph unicode="O" horiz-adv-x="514" d="M-16 555q-3 40 -3 80q-1 105 19 205q26 138 86 272q16 35 33.5 66.5t44.5 60.5q35 41 83 41h5q36 -2 36 -29q0 -7 -3 -16q0 -4 -2 -8t-2 -8q-2 -10 -8.5 -22.5t1.5 -20.5q10 -10 20.5 -1t20.5 13q13 3 26 3q52 0 87 -54q57 -94 64 -211q2 -23 1 -43t-1 -43 q-4 -98 -15.5 -192.5t-38.5 -188.5q-12 -41 -29.5 -80t-43.5 -74q-29 -39 -72 -59q-41 -19 -85 -18h-4q-46 1 -89 26t-70 72q-31 53 -44 111.5t-17 117.5zM159 495.5q-1 -26.5 3 -53.5q4 -72 39 -131q16 -31 41 -6q23 18 38 41t29 49q25 47 41.5 99.5t26.5 105.5 q21 88 33 176q8 59 8 121q0 29 -2 59q-6 98 -54 179q-14 20 -23 21t-28 -15q-6 -6 -11 -14.5t-11 -8.5q-35 -4 -41 -26.5t-12 -44.5l-8.5 -34l-8.5 -34q-25 -107 -44 -213q-16 -88 -16 -179q0 -19 1 -38q0 -27 -1 -53.5z" />
<glyph unicode="P" horiz-adv-x="653" d="M-19 802.5q-1 8.5 3 18.5q14 61 57 113q35 39 49 81t19 93q2 31 11 61.5t21 61.5q4 10 10.5 21.5t16.5 21.5q23 20 47.5 16t38.5 -28q15 -29 15 -63q0 -8 -1 -15q0 -33 33 -21q45 15 90 21q14 2 28 2q31 0 64 -8q74 -16 113 -68q35 -47 36 -125q0 -8 -1 -16 q0 -35 -13.5 -77t-35.5 -83q-57 -104 -129 -193.5t-158 -173.5q-8 -6 -16.5 -13t-18.5 -11q-25 -10 -31 -26.5t-6 -39.5q-2 -86 -11 -176q-3 -45 -40 -45q-10 0 -22 4q-20 4 -24.5 19.5t-6.5 31.5q-6 53 -7 105.5t-6 105.5q-6 106 -6 212t-10 212q-2 8 -1 17.5t-7 11.5 q-10 4 -14.5 -5t-10.5 -16q-8 -10 -14 -19t-16 -17q-12 -16 -35 -5q-10 6 -11 14.5zM233 512q0 -4 5 -8q8 -6 12 4q35 43 69 94q55 76 88 160t48 176q3 17 3 34q0 58 -32 113q-8 10 -17.5 18.5t-25.5 4.5q-55 -18 -100 -51q-10 -6 -11.5 -16.5t-3.5 -20.5q-4 -41 -4 -80 t-4 -80q-6 -70 -14.5 -138t-12.5 -140v-70z" />
<glyph unicode="Q" horiz-adv-x="538" d="M-14 765q18 148 77 294q6 14 13.5 27.5t15.5 27.5q23 39 54 58q23 14 52 14q12 0 25 -2q16 -2 27.5 3t23.5 11q33 18 76 19h4q101 0 140 -95q18 -47 20 -94l4 -94q-2 -104 -21.5 -205.5t-54.5 -200.5q-16 -51 -39.5 -98t-58.5 -90q-20 -27 -4 -53q12 -20 22.5 -43 t34.5 -35q10 -4 7 -12.5t-11 -12.5q-23 -10 -51.5 -5t-44.5 28q-23 35 -51 46q-21 8 -48 8q-10 0 -20 -1q-6 -1 -12 -1q-31 0 -54 17q-26 21 -49 50q-43 57 -59 135q-23 104 -23 204q0 51 5 100zM139 504q2 -41 9.5 -82t25.5 -78q4 -10 12.5 -24.5t22.5 -6.5t5 19.5 t-13 21.5q-4 14 -8.5 27.5t6.5 24.5q12 14 27.5 14t31.5 -4q4 -2 7 -3t7 -5q16 -10 23.5 -4t13.5 18q12 25 27 57q43 109 66.5 220.5t27.5 228.5q1 15 1 29q0 64 -15 124q-4 20 -12.5 40t-22.5 36q-8 8 -17.5 15.5t-19.5 1.5q-31 -12 -61.5 -26.5t-40.5 -55.5t-22.5 -80 t-22.5 -80q-27 -104 -45 -211q-14 -81 -14 -163q0 -27 1 -54z" />
<glyph unicode="R" horiz-adv-x="718" d="M-18 745q-4 25 2 47.5t16 45.5q57 137 170 247q23 20 36 42t17 51q2 20 8.5 38.5t12.5 38.5q13 39 53 39h8q23 0 39 -7t21 -32q4 -16 12 -18t22 2q45 17 91 21q12 1 23 1q34 0 69 -10q109 -31 114 -141v-9q0 -95 -41 -186q-100 -221 -286 -362q-25 -18 -37.5 -29.5 t-13.5 -21.5t7.5 -23.5t26.5 -38.5q29 -35 54.5 -69.5t58.5 -63.5q12 -8 10 -16q-4 -10 -10 -10h-12q-16 -2 -28.5 5t-23.5 17q-20 16 -37.5 36.5t-35.5 39.5q-4 4 -8.5 10t-12.5 2q-6 -4 -6 -9v-9q-4 -41 -5 -80t-3 -80q-2 -31 -6 -39t-25 -10q-11 -2 -20 -2q-47 0 -54 43 q-6 31 -6 63v271q-4 90 -7 178q-1 20 -1 41q0 68 8 137q2 10 4 21.5t-10 15.5q-8 2 -13 -8.5t-11 -16.5q-27 -39 -51.5 -77.5t-43.5 -81.5q-2 -6 -6 -15q-8 -29 -43 -22q-23 6 -26 34zM330 631q0 -6 6 -8q6 -4 9 1t7 9q59 78 103.5 165t70.5 185q6 23 8.5 45t4.5 53 q-2 16 -3 37t-12 41q-10 23 -19 27t-30 -4q-16 -6 -31.5 -14.5t-31.5 -14.5q-35 -16 -39 -63q0 -66 -4 -129.5t-13 -129.5l-24 -190q-2 -4 -2 -10z" />
<glyph unicode="S" horiz-adv-x="669" d="M-18 846q14 156 88.5 274.5t208.5 202.5q39 25 82 35q36 8 73 8h15q11 1 21 1q46 0 85 -15q86 -35 92 -125q2 -29 -2 -58.5t-8 -58.5q-12 -57 -28.5 -112.5t-43.5 -108.5q-20 -43 -43 -72q-25 -31 -55 -31h-7q-36 0 -37 33q0 5 1 10q2 23 6 42.5t8 41.5q10 49 18.5 98.5 t16.5 100.5q1 13 1 25q0 47 -17 94q-6 25 -27 10q-12 -8 -16 -12q-92 -82 -155.5 -179.5t-94.5 -213.5q-4 -14 -5 -27.5t-3 -26.5v-13q0 -74 65 -112q29 -16 59.5 -31.5t61.5 -31.5q29 -16 57.5 -29.5t55.5 -32.5q78 -57 78 -125q0 -51 -44 -108q-57 -76 -131 -137 q-39 -34 -89 -34q-8 0 -15 1q-8 2 -15.5 4t-11.5 10q-4 10 2.5 15.5t12.5 11.5q31 25 55.5 56.5t46.5 64.5q10 16 18.5 32.5t14.5 34.5q7 24 7 45q0 59 -56 99q-20 14 -41 24.5t-43 20.5q-35 18 -68 34.5l-65 32.5q-72 34 -104 94q-26 49 -26 111q0 13 1 27z" />
<glyph unicode="T" horiz-adv-x="444" d="M-184 831q2 23 12 41.5t25 34.5q39 51 87 89t103 71q27 16 53.5 27.5t55.5 25.5q47 23 93 34t99 11q41 3 83 7q29 3 59 3q13 0 26 -1q41 0 66 -19q12 -10 11 -22.5t-18 -18.5q-27 -12 -57 -2q-22 7 -44 7q-18 0 -37 -5q-40 -10 -79 -18q-16 -4 -19 -16.5t-7 -26.5 q-14 -86 -26.5 -170t-29.5 -170q-27 -129 -37 -259t-14 -264q0 -23 1 -45t7 -45q8 -31 -28 -34q-6 -1 -11 -1q-53 0 -67 56q-10 41 -12 85t-5 87q-1 35 -1 69v33q1 49 1 90q-2 59 -2 115q0 48 2 94q4 98 19 193l12 67q0 6 1 11.5t-3 9.5t-9 1t-9 -7q-53 -37 -101.5 -78 t-89.5 -90q-23 -29 -52 -29q-10 0 -21 4q-38 12 -38 45q0 5 1 10z" />
<glyph unicode="U" horiz-adv-x="638" d="M-17 400q-1 32 -1 65q0 44 2 88q8 129 30.5 256t63.5 250q12 39 28.5 77t38.5 72q30 47 84 47q10 0 21 -2q47 -7 47 -46q0 -7 -2 -15q-12 -66 -25.5 -132.5t-27.5 -133.5q-31 -152 -55.5 -302.5t-34.5 -304.5q-2 -27 -1 -51t1 -51q0 -10 8 -10q6 0 6 6q8 14 15 27.5 t14 29.5q31 76 55 152t49 153q35 115 74 225.5t84 221.5q6 16 13 31.5t15 31.5q14 29 26.5 35t45.5 4q25 -4 36 -14t19 -39q6 -28 6 -55q0 -16 -2 -33l-12 -86q-16 -121 -37.5 -238.5t-36.5 -238.5q-16 -121 -18 -238q-2 -10 -1 -18t-1 -19q-4 -31 -12.5 -41t-32.5 -12h-8 q-53 0 -60 51q-4 41 -4 85.5t2 97.5q4 80 7.5 170t13.5 184v14q0 2 -4 11q-6 -6 -6 -9q-4 -12 -9.5 -24.5t-9.5 -24.5q-29 -96 -56.5 -191.5t-62.5 -189.5q-23 -59 -49 -116q-12 -27 -37.5 -39.5t-53.5 -12.5t-52.5 13.5t-36.5 35.5q-25 49 -37 101q-16 76 -19 152z" />
<glyph unicode="V" horiz-adv-x="520" d="M-20 768.5q0 105.5 10 210.5q4 41 12 74q12 45 57 45h4q25 -4 36.5 -14.5t15.5 -36.5q4 -23 4 -45.5v-45.5v-206q-3 -71 -3 -140q0 -35 1 -70q2 -104 18 -208q2 -10 3 -17.5t3 -15.5q0 -4 9 -4q6 0 6 4q4 12 6 24.5t6 22.5q47 250 161.5 462t272.5 406q20 25 45 46 q23 20 55 10q10 -4 12.5 -13.5t-7.5 -13.5q-27 -16 -43.5 -39.5t-32.5 -46.5q-115 -160 -207 -330t-152 -360q-16 -47 -26 -96t-23 -99q-4 -14 -7 -26.5t-7 -24.5q-8 -20 -22.5 -32.5t-32 -15.5t-36 4t-32.5 24q-16 16 -24.5 37.5t-16.5 42.5q-23 68 -35 136t-20 140 q-10 106 -10 211.5z" />
<glyph unicode="W" horiz-adv-x="710" d="M-18 666q12 248 92 481q12 37 27.5 71.5t37.5 69.5q12 18 28.5 29.5t41.5 9.5q46 0 46 -38q0 -4 -1 -9q-4 -35 -9 -68.5t-12 -68.5q-29 -147 -44 -291.5t-35 -292.5q-4 -33 -6.5 -63.5t-6.5 -63.5q0 -10 2 -16q2 4 5.5 6t3.5 6q10 31 20 61.5t21 59.5q33 102 71.5 200.5 t79.5 196.5q8 16 16.5 31.5t32.5 17.5q5 1 10 1q41 0 48 -46v-43v-131q-1 -78 -9 -156q-4 -36 -3 -73q0 -42 5 -84q2 -8 2 -23q0 -2 2.5 -3t2.5 -3q4 2 8 6q2 6 4 12.5t4 12.5q35 129 69.5 254t69.5 254q4 10 6 20.5t6 20.5q6 16 19.5 20t30.5 0q14 -4 19 -14t1 -23 q-6 -53 -18 -104q-29 -121 -53.5 -242t-63.5 -237q-8 -35 -25 -70q-20 -49 -79 -53q-61 0 -87 51q-20 39 -29 81t-14 87q-4 41 -8 79q-1 13 -1 26q0 26 5 53q2 4 0 7t-2 7q-4 -4 -7 -6t-5 -6q-14 -41 -27.5 -83t-25.5 -83q-16 -49 -28.5 -97.5t-26.5 -97.5 q-4 -16 -10.5 -32.5t-10.5 -32.5q-8 -20 -21.5 -32.5t-37.5 -12.5q-25 -2 -43.5 6t-30.5 31q-20 45 -29 79q-18 86 -26 173q-4 52 -4 106q0 36 2 72z" />
<glyph unicode="X" horiz-adv-x="567" d="M-12 184q6 22 14 41q33 88 68.5 173t74.5 171q4 10 10.5 22.5t6.5 22.5q-8 35 -15.5 68t-11.5 66q-18 101 -18 199v20q2 108 22 219q2 14 5 28.5t12 26.5q20 29 51 29q9 0 18 -2q20 -4 26.5 -17.5t8.5 -29.5q2 -29 2 -58.5t2 -58.5q0 -55 1 -111.5t1 -111.5q2 -6 1 -13.5 t7 -9.5q8 -4 10.5 3t6.5 11q20 35 40.5 69t45.5 67q14 18 29.5 35.5t35.5 33.5q29 24 61 24q7 0 13 -1q45 -2 19 -39q-33 -43 -59.5 -88t-55.5 -92t-55.5 -96.5t-55.5 -96.5q-17 -29 -17 -58q0 -11 3 -22q16 -70 35.5 -136t58.5 -128q20 -31 -16 -33q-10 -2 -20 -2 q-45 0 -72 39q-16 29 -30.5 57.5t-27.5 57.5q-4 4 -6 8t-8 6q-8 0 -12 -14q-39 -82 -80 -164t-64 -172q-10 -35 -39 -33q-34 0 -34 43q0 18 8 47z" />
<glyph unicode="Y" horiz-adv-x="514" d="M-18 174l9 31.5t13 34.5q27 66 53.5 132t55.5 132q13 27 13 57q0 22 -7 45q-29 100 -51.5 202.5t-30.5 207.5q-4 35 -5 72v8q0 32 7 63q4 16 11 26.5t26 12.5q20 2 29.5 -9t15.5 -28q10 -33 16 -65.5t10 -67.5q10 -72 20.5 -140.5t20.5 -137.5q2 -6 1 -13.5t10 -9.5 q8 0 9 7t5 14q23 55 46.5 107t47.5 106q20 41 42 79.5t50 75.5q10 16 24.5 26.5t37.5 8.5q37 -4 31 -39q-4 -18 -9.5 -37.5t-11.5 -38.5q-23 -70 -53.5 -135t-63.5 -131q-70 -137 -134 -274.5t-128 -276.5q-8 -16 -15 -30.5t-18 -30.5q-18 -25 -45 -25q-34 0 -32 41z" />
<glyph unicode="Z" horiz-adv-x="487" d="M-18 391q4 35 13 68t19 67q23 66 52.5 125.5t64.5 118.5q70 123 135 246q8 12 16.5 26.5t-1.5 26.5q-10 10 -24.5 4t-29.5 -10q-29 -6 -54.5 -14.5t-51.5 -16.5q-25 -7 -48 -7q-16 0 -32 3q-18 4 -22.5 16.5t10.5 26.5q6 6 14 12.5t18 12.5q117 65 248 67q63 0 115 -22 q42 -22 42 -59q0 -15 -7 -33q-8 -20 -18.5 -39t-20.5 -37q-66 -104 -125 -207.5t-113 -214.5q-14 -29 -26.5 -59.5t-22.5 -61.5q-4 -14 -8 -28.5t-6 -28.5q-6 -41 11 -55.5t56 1.5q10 4 21.5 10.5t21.5 10.5q10 6 21.5 10t23.5 2q18 -4 23 -12q2 -14 -8 -25q-23 -27 -51 -34 q-50 -21 -101 -21q-35 0 -71 10q-85 23 -85 103q0 9 1 18z" />
<glyph unicode="[" horiz-adv-x="278" d="M42 166q1 37 1 72q-4 137 9.5 272t29.5 272q8 70 38 95.5t101 29.5q16 0 33.5 -1t34.5 -5q8 -2 16 -5t6 -13q0 -10 -8 -10.5t-16 -0.5q-16 0 -31.5 1t-32.5 -1q-41 -2 -56 -14t-20 -53q-8 -47 -12 -92t-8 -92q-10 -117 -19.5 -231t-13.5 -230q-2 -39 1 -76t5 -74 q2 -16 8.5 -23t24.5 -3q16 4 34.5 8t33.5 -17q-10 -18 -27.5 -19t-34.5 -5q-10 -4 -18 -4h-19q-37 0 -45 37q-6 29 -8 55.5t-4 54.5q-4 35 -3 72z" />
<glyph unicode="\" horiz-adv-x="272" d="M41 1094.5q0 9.5 12 13.5q25 10 37 -12q6 -10 10 -23.5t9 -25.5q16 -53 25 -106.5t18 -106.5q23 -135 41 -268.5t34 -268.5q0 -13 2 -21q-2 -10 0 -20t-10 -18t-31 0q-10 6 -11 14t-3 18q-8 45 -15 89t-14 90q-23 137 -43 274t-43 276q-4 18 -8 38t-8 38q-2 10 -2 19.5z " />
<glyph unicode="]" horiz-adv-x="274" d="M41 1081q0 10 10 11q25 6 50.5 11t54.5 1q41 -8 53 -53q10 -35 13 -72t7 -76q8 -164 -6 -325.5t-41 -323.5q-4 -14 -6 -28.5t-2 -28.5q-2 -35 -41 -41q-10 -2 -19.5 -1t-13.5 9q-8 10 1.5 14t13.5 8q4 6 5 12.5t3 12.5q16 129 31.5 254t11.5 229v163t-6 136l-6 43 q-4 29 -12.5 35t-37.5 2q-14 -2 -26 -4t-27 2q-10 0 -10 10z" />
<glyph unicode="^" horiz-adv-x="301" d="M42 1041.5q5 11.5 9 21.5q16 33 30.5 63.5t31.5 63.5q20 35 55 29q14 -2 27.5 -9.5t19.5 -23.5q16 -35 24.5 -72t18.5 -76q4 -14 -4 -19t-21 -5q-23 4 -30.5 17t-14.5 30q-6 12 -7 28.5t-15 18.5q-12 0 -16.5 -15.5t-12.5 -25.5q-6 -10 -12 -21.5t-16 -21.5 q-12 -12 -30 -13t-28 9q-14 10 -9 21.5z" />
<glyph unicode="_" horiz-adv-x="561" d="M41 176q0 8 8 12q10 4 21.5 7.5t23.5 5.5q98 23 194.5 23.5t194.5 0.5q10 0 27 -4q6 -2 10 -12q0 -10 -12 -14q-6 -2 -16 -2q-96 -10 -191.5 -17.5t-187.5 -15.5q-18 2 -32.5 0t-31.5 4q-8 4 -8 12z" />
<glyph unicode="`" horiz-adv-x="239" d="M43 1243q-4 6 2 12q4 4 8 5.5t8 3.5q10 -2 20.5 -4.5t16.5 -8.5q23 -18 45.5 -36.5t44.5 -36.5q12 -8 9 -19q-6 -8 -19 -8q-12 0 -28 8q-53 33 -99 74q-4 4 -8 10z" />
<glyph unicode="a" d="M0 397q-20 56 -20 108q0 90 57 171q23 35 74 35q14 0 27.5 1t29.5 13q23 18 41 6t20 -43v-127q-1 -34 -1 -68v-33q1 -50 12 -100q2 -8 2 -15t-11 -11q-18 -10 -34 6q-10 10 -13.5 20.5l-7.5 22.5q-4 20 -6 40.5t-6 43.5q-2 6 1 15.5t-7 9.5q-8 2 -10.5 -7.5t-6.5 -17.5 q-14 -45 -32 -78q-22 -31 -54 -31h-4q-39 2 -51 39zM57 437.5q-2 -7.5 9 -7.5q8 0 12 14q10 35 21.5 71t21.5 71q2 12 1 24.5t-3 22.5q0 4 -3 10t-7 6q-8 4 -11.5 -2t-5.5 -12q-16 -41 -23.5 -82t-11.5 -82v-20q2 -6 0 -13.5z" />
<glyph unicode="b" horiz-adv-x="528" d="M-19 825q1 103 11 207q6 80 14 159t25 157q6 23 12 44t16 42q20 33 49 33q5 0 11 -1q23 -4 31 -17t10 -32q4 -29 6 -57.5t-2 -56.5q-8 -98 -14.5 -193.5t-12.5 -194.5q-4 -16 0 -30q0 -25 19 -11q4 2 7 4.5t7 4.5q45 29 94 35q17 2 35 2q32 0 66 -7q96 -18 116 -114 q6 -28 6 -54v-13q-2 -32 -8 -66q-18 -98 -59 -183.5t-107 -160.5q-29 -29 -60.5 -51.5t-72.5 -32.5q-22 -5 -43 -5q-15 0 -31 3q-36 6 -63 43q-10 14 -20 16q-31 0 -36 18.5t-5 40.5v264q-1 69 -1 138v69zM88 338q-1 -7 -1 -13q0 -31 24 -49q16 -10 32.5 -7t30.5 14 q20 14 33.5 31.5t25.5 35.5q53 84 77 174.5t30 188.5q0 25 -3 50t-13 48q-12 33 -27.5 39t-46.5 -10q-55 -29 -100 -84q-16 -16 -26.5 -36t-12.5 -42q-4 -45 -8.5 -88t-8.5 -86q-2 -16 1 -25.5t26 4.5q12 6 24 -2q8 -10 3 -16t-9 -12t-6 -11.5t-6 -11.5q-14 -23 -24.5 -45.5 t-14.5 -46.5z" />
<glyph unicode="c" horiz-adv-x="466" d="M-20 459q0 143 65 270q39 74 102 121q46 32 102 32q17 0 34 -3q12 -2 22 -7.5t10 -21.5q0 -27 -26 -31q-29 -4 -44.5 -21.5t-31.5 -39.5q-115 -168 -133 -369q-1 -10 -1 -21q0 -51 17 -94q10 -28 28 -29q12 0 28 13q23 18 45 45q51 55 96 115.5t92 120.5q12 16 24.5 30.5 t26.5 30.5q14 18 29 21q12 4 20 -5q8 -8 -2 -18q-66 -86 -126 -172t-132 -166q-12 -12 -24.5 -23.5t-28.5 -19.5q-27 -17 -56 -17q-14 0 -28 4q-43 12 -68 54q-16 29 -24 60.5t-12 66.5q-2 18 -3 37t-1 37z" />
<glyph unicode="d" horiz-adv-x="591" d="M-14 525q10 102 57 200q12 23 25.5 43t29.5 41q40 47 92 61q40 11 86 12q12 0 25 -1h22.5t13.5 3t8 10t7 19q29 86 55.5 172t43.5 177q6 31 19 41t42 6q23 -2 30 -10.5t7 -30.5v-72t-4 -72q-14 -125 -26.5 -249.5t-20.5 -251.5q-8 -135 -14 -267q-3 -77 -3 -155 q0 -56 2 -113q0 -14 2 -28.5t-20 -18.5q-5 -1 -10 -1q-36 0 -43 42q-4 31 -7.5 62.5t-3.5 64.5q-1 48 -1 95v48q1 70 1 140q2 84 4.5 164.5t4.5 162.5q0 6 -4 15q-4 -2 -9 -13q-16 -78 -47 -148.5t-51 -146.5q-14 -53 -32.5 -103t-37.5 -101q-14 -43 -41 -86 q-16 -31 -41.5 -40.5t-56.5 -7.5q-57 2 -80 62q-6 16 -11 34.5t-7 34.5q-10 64 -10 127q0 40 4 79zM132 357.5q-1 -5.5 1 -9.5q0 -12 2 -14q6 -2 12 8l13 31q35 86 65.5 174t61.5 178q4 14 13 30.5t-11 24.5q-16 6 -25.5 -10t-15.5 -29q-53 -88 -76 -182t-39 -184 q0 -12 -1 -17.5z" />
<glyph unicode="e" d="M-19 466.5q-1 20.5 1 43.5v7q0 97 57 190q14 20 30.5 36.5t41.5 24.5q14 6 27 6q20 0 38 -14q16 -10 19 -27.5t-5 -34.5q-12 -47 -37.5 -87t-66.5 -66q-23 -14 -31 -29.5t-6 -38.5q2 -20 3 -42.5t18 -31.5q20 -10 34.5 7.5t28.5 29.5q41 41 82 80t82 80q10 8 19.5 17.5 t23.5 9.5q10 4 20 -6q6 -4 -2 -19q-6 -4 -14 -16q-45 -47 -89 -93.5t-89 -93.5q-25 -27 -57 -39q-21 -7 -39 -7q-21 -1 -39 9q-33 18 -45 66q-4 18 -5 38.5zM76 627q-4 -8 2 -9q2 -4 8 3q16 20 28.5 40.5t18.5 45.5q0 4 -1 6t-1 4q-4 -2 -7 -2t-5 -2q-16 -20 -25.5 -42 t-17.5 -44z" />
<glyph unicode="f" horiz-adv-x="233" d="M-156 768q27 18 54.5 24.5t56.5 10.5q18 4 29.5 6t16.5 7t7 15.5t4 28.5q12 92 30.5 181t47.5 176q8 20 15.5 38.5t17.5 34.5q20 39 67 45q12 2 23 2q27 0 43 -11q23 -15 33 -60q7 -35 7 -74q0 -43 -9 -90q-4 -16 -11 -29q-12 -20 -34 -20q-25 2 -25 28q-4 25 -5 49.5 t-3 47.5q-6 10 -8 12q-8 4 -9.5 -1t-3.5 -9q-20 -63 -31.5 -127t-21.5 -129q-4 -20 -5 -39t-3 -39q-4 -23 1 -28t30 -5q20 0 39.5 1t38.5 -3q16 -2 33.5 -5t17.5 -24q0 -18 -16.5 -23t-32.5 -7q-23 -4 -44.5 -8.5t-43.5 -8.5q-37 -6 -39 -41q-10 -117 -17.5 -233.5 t-11.5 -233.5q-2 -31 -2 -62.5v-64.5q0 -16 -5 -24t-22 -13q-23 -2 -33 4.5t-14 26.5q-4 31 -5 62.5t-5 64.5q-4 104 -5 209v42q0 84 3 167v46t-5 20.5t-19.5 4.5t-41.5 -1q-20 0 -39.5 1t-38.5 11q-23 11 -23 24q0 11 17 23z" />
<glyph unicode="g" horiz-adv-x="485" d="M-16 512q-2 23 -2 46q0 42 7 81q11 61 36 121q18 43 43.5 82t62.5 69q61 53 134 53q25 0 52 -6q58 -11 58 -49q0 -10 -9 -27q-8 -12 -17 -22t-20.5 -16t-21.5 -4q-31 6 -44 -8.5t-25 -34.5q-31 -53 -52.5 -109.5t-38.5 -116.5q-2 -6 -4 -13t4 -9q8 -4 12.5 3t8.5 11 q53 76 92 156q10 20 19.5 39.5t19.5 42.5q16 37 51 37q49 0 66 -37q12 -25 17 -50.5t9 -52.5q2 -28 2 -56q0 -41 -4 -82q-6 -68 -24 -136q-27 -98 -57.5 -195.5t-69.5 -191.5q-14 -35 -30.5 -65.5t-39.5 -59.5q-12 -16 -27.5 -25.5t-35.5 -7.5q-33 2 -19 31q57 111 88 228.5 t56 236.5q10 53 17 107.5t15 107.5q2 16 3 31.5t-9 31.5l2 -2l-2 2q-35 -96 -92 -178q-23 -31 -53 -47q-26 -14 -61 -14h-9q-96 2 -108 98z" />
<glyph unicode="h" horiz-adv-x="305" d="M-20 655q2 123 12 245t41 245q4 16 9 28.5t9 26.5q8 23 37 27q7 1 13 1q38 0 40 -44q0 -15 1 -29q0 -43 -5 -85q-6 -56 -12 -114q-12 -94 -23.5 -187t-17.5 -187q-2 -23 2 -27t25 4q19 8 37 7q29 0 57 -19q29 -23 41 -50.5t16 -60.5q4 -20 -12 -26q-20 -6 -33 8 q-6 8 -14 28q-4 10 -8.5 22.5t-10.5 23.5q-18 33 -32.5 32.5t-32.5 -30.5q-10 -16 -18.5 -35t-18.5 -37q-14 -29 -24.5 -38t-30.5 -5q-18 4 -25.5 15.5t-11.5 45.5q-8 53 -9 105.5t-1 109.5z" />
<glyph unicode="i" horiz-adv-x="167" d="M-16 518q2 41 3 81t11 77q8 27 19.5 36t33.5 7q18 -4 25.5 -11.5t3.5 -27.5q-4 -25 -7 -49.5t-7 -48.5l-8 -116q-1 -9 0 -18q0 -49 16 -98q8 -27 -23 -26q-25 0 -42 16t-21 47q-7 42 -7 81q0 26 3 50zM53 885q-1 8 -1 16q0 27 16 53q8 12 19 12t24 -3q14 -4 14 -14.5 v-24.5q-2 -8 -4 -18.5t-2 -20.5q-2 -12 -6 -21.5t-21 -9.5q-33 4 -39 31z" />
<glyph unicode="j" horiz-adv-x="196" d="M-176 -322q23 29 34 61t19 66q76 303 96 607q4 55 9 110q5 41 5 83q0 15 -1 30q0 10 2 20.5t14 14.5q14 6 25.5 0t19.5 -19q16 -23 22.5 -49.5t10.5 -54.5q4 -20 4 -40t2 -40q3 -31 3 -63q0 -16 -1 -32q-2 -48 -10 -96q-23 -123 -48.5 -245.5t-62.5 -243.5 q-10 -27 -18 -51.5t-25 -46.5q-16 -23 -36.5 -34t-49.5 -7q-33 6 -14 30zM-2 827q-2 23 10 37.5t37 7.5q23 -6 21 -26q0 -10 -2.5 -18.5t-4.5 -18.5q0 -14 -5 -24.5t-23 -8.5q-31 2 -33 51z" />
<glyph unicode="k" horiz-adv-x="366" d="M-18 311q-2 41 -2 81q0 60 4 120q6 100 8 203q2 98 14 194.5t35 194.5q4 20 9 38.5t11 37.5q10 27 27.5 34t46.5 3q23 -4 34 -14.5t15 -37.5q7 -52 7 -106v-13q-1 -60 -5 -120q-4 -51 -11 -101.5t-17 -101.5q-2 -10 -2 -18.5t4 -18.5q0 -4 -2 -4t0 2q0 4 -2 2t4 -2 q39 55 75.5 111.5t79.5 109.5q20 27 40 50.5t42 45.5q20 20 39 31q10 6 24.5 8t24.5 -8q12 -10 5 -21.5t-11 -21.5q-16 -23 -29.5 -44t-29.5 -44q-61 -86 -121.5 -171t-122.5 -171q-23 -29 -21.5 -38t25.5 -34q27 -29 53.5 -54t59.5 -48q4 -4 9 -7t1 -9q-6 -10 -16 -11 q-16 -2 -29.5 4.5t-26.5 14.5q-23 14 -43 30.5t-41 34.5q-4 4 -10 9.5t-10 1.5q-4 -2 -6 -9.5t-2 -15.5q-8 -80 -13 -164q-2 -37 -7 -45t-27 -10q-11 -2 -21 -2q-53 0 -63 47q-6 27 -6 57z" />
<glyph unicode="l" horiz-adv-x="241" d="M-18 606v42q0 62 4 123q6 81 16 163q10 72 23.5 141.5t35.5 138.5q12 37 31 74q22 43 55 43q7 0 15 -2q18 -4 26.5 -18.5t10.5 -44.5q2 -20 2 -41t-2 -43q-4 -43 -13 -84q-29 -154 -53 -308.5t-35 -312.5q-1 -21 -1 -41q1 -48 7 -96q10 -68 29 -135q0 -6 8 -19 q4 -8 12.5 -14t-1.5 -16q-6 -8 -15.5 -8.5t-19.5 -0.5q-23 2 -34 14.5t-22 28.5q-16 33 -25 68t-16 70q-14 70 -26 138t-12 140z" />
<glyph unicode="m" horiz-adv-x="731" d="M-18 502v24q0 37 4 76q4 29 4 56.5t10 54.5q4 10 8 19t10 20q12 23 39 16q16 -4 19.5 -13.5t3.5 -23.5l-12 -178v-13.5t2 -7.5q10 -2 12 4.5t4 12.5q80 217 193 414q16 29 34.5 58.5t36.5 57.5q16 25 30.5 30t41.5 -1q51 -12 57 -59q3 -23 3 -45q0 -28 -4 -54 q-7 -50 -13 -96q-6 -35 -12.5 -68.5t-12.5 -68.5q-2 -6 -1 -12.5t1 -12.5q10 2 12.5 8.5t6.5 12.5q23 47 45 91t49 87q12 20 28.5 31.5t41.5 7.5q37 -4 53 -23.5t12 -60.5t-9 -84t-9 -84q-12 -96 -18.5 -190.5t-14.5 -190.5q-4 -53 -8 -108.5t-8 -108.5q-2 -10 -4.5 -19.5 t-18.5 -11.5t-28.5 2t-18.5 23q-4 10 -5 22.5t-3 22.5v110q8 117 14 239t14 245q0 8 3.5 16t-7.5 10q-10 4 -13 -5t-7 -15q-70 -125 -119 -266q-10 -23 -16 -42.5t-17 -41.5q-10 -29 -22.5 -37t-38.5 -4q-29 4 -41 17t-17 42q-3 41 -3 81q0 20 1 40q2 60 9 123 q8 61 18 122.5t21 123.5q2 4 3 9t-6 9q-4 2 -7 -4l-5 -10q-102 -184 -166 -373q-10 -29 -20 -58.5t-21 -58.5q-16 -40 -45 -40q-4 0 -8 1q-45 2 -53 49q-10 51 -12 101z" />
<glyph unicode="n" horiz-adv-x="559" d="M-18 379q-1 25 -1 50q0 49 5 99q8 74 24 146q6 29 13.5 55.5t13.5 52.5q4 10 6 18.5t6 16.5q14 31 47 25q37 -6 33 -41q-4 -45 -10 -88t-13 -86l-4 -40l-4 -40q-2 -2 -2 -4t-2 -4l4 -2q6 6 -2 12q20 -2 23.5 11t7.5 24q41 84 87 163.5t99 157.5q16 23 31.5 43.5 t32.5 40.5q18 20 35 33q20 13 40 13q14 -1 28 -7q32 -16 36 -57q1 -15 1 -30q0 -37 -7 -71q-10 -48 -23 -98q-31 -129 -57.5 -257t-46.5 -257q-6 -29 -10 -58.5t2 -58.5q4 -12 -4.5 -17t-18.5 -1q-35 6 -41 43q-4 23 -3 43t3 41q10 100 26.5 197.5t33.5 195.5 q10 66 22.5 128.5t24.5 127.5v13.5t-2 7.5q-6 2 -10.5 -3.5t-8.5 -9.5q-41 -59 -76.5 -121.5t-68.5 -126.5q-29 -59 -55.5 -118.5t-53.5 -118.5q-8 -16 -14 -33.5t-16 -34.5q-16 -33 -31.5 -41t-46.5 -2q-29 6 -39 19.5t-14 48.5z" />
<glyph unicode="o" horiz-adv-x="239" d="M-20 504q2 55 10 106.5t30 98.5q10 18 23.5 34.5t40.5 12.5q29 -4 57.5 -11.5t38.5 -46.5q10 -34 16 -70q3 -14 3 -29q0 -22 -6 -46q-10 -43 -24.5 -84t-41.5 -76q-16 -23 -34.5 -33t-47.5 -6q-29 6 -41 25.5t-16 44.5q-4 20 -5 41t-3 39zM57 446.5q0 -12.5 2 -24.5 q0 -4 1 -10t8 -6q6 0 12 10q44 64 58 132q6 26 5 54q0 44 -14 90q-2 4 -3 10.5t-7 4.5q-10 0 -15 -15q-18 -53 -31.5 -108.5t-15.5 -114.5v-22.5z" />
<glyph unicode="p" horiz-adv-x="423" d="M-20 205q2 49 6 98q4 117 9 233.5t23 233.5q6 33 13.5 64.5t19.5 62.5q12 36 42 36q4 0 9 -1q33 -8 33 -47q-2 -14 -2 -28.5v-29.5q-2 -25 2 -27.5t29 5.5q31 11 64 11q27 0 55 -7q43 -12 68.5 -43t29.5 -76v-9q0 -31 -11 -67q-14 -41 -36.5 -78.5t-53 -67.5t-63.5 -44 q-10 -4 -18.5 -6t-18.5 -2q-7 -1 -13 -1q-36 0 -56 29q-10 20 -6 39t14 35q35 53 88 74q16 6 24 -6q4 -8 -10 -17q-16 -12 -30.5 -25.5t-24.5 -29.5q-6 -10 -12.5 -20.5t-3.5 -22.5q0 -14 9 -18t19 4q4 0 8 6q47 47 76 103q27 53 27 117v9q0 10 -4 27q-12 49 -44 49 q-17 0 -38 -12q-39 -20 -64.5 -48t-32.5 -75q-16 -137 -29.5 -272.5t-13.5 -272.5q0 -10 1.5 -22.5t-15.5 -16.5q-37 -6 -55 23q-6 8 -6 17t-2 20q-6 38 -6 76v20z" />
<glyph unicode="q" horiz-adv-x="397" d="M-18 565v17q0 52 10 102q12 57 45 111q27 47 65 50h7q35 0 71 -32q27 -23 35 -47.5t6 -54.5q-4 -80 -8 -161t-8 -163q-2 -10 -2 -31q0 -4 1 -8t5 -4q6 -4 7 0t1 8q6 18 12.5 36t12.5 36q10 29 21 58.5t28 58.5q4 8 9 15t11 15q8 10 17.5 15.5t19.5 -0.5q14 -10 5 -18.5 t-13 -16.5q-35 -63 -56.5 -131t-39.5 -137q-16 -63 -29.5 -127t-17.5 -129q0 -10 -1 -21.5t-20 -13.5q-16 0 -22.5 10t-8.5 25q-6 125 -6 249v43h6v261v26q0 10 -12 17q-8 4 -12 -1.5t-8 -11.5q-10 -16 -18.5 -33.5t-18.5 -35.5q-10 -16 -23.5 -23.5t-34.5 -3.5 q-23 4 -28.5 18.5t-7.5 32.5zM86 690q2 4 2 7.5t2 7.5q8 0 9 6t5 12q10 10 2 16q-6 4 -8 -2t-4 -10q-2 -6 -2 -12t-2 -13q-10 -4 -4 -12z" />
<glyph unicode="r" horiz-adv-x="284" d="M-18 565q-1 22 -1 45q0 128 29 256q8 35 29 80q18 29 45 31q5 1 10 1q33 0 35 -38q1 -14 1 -28q0 -21 -2 -44q-3 -37 -7 -71q0 -4 -1 -10.5t3 -10.5q6 -4 11 0t9 8q32 21 62 21q19 1 35 -7q46 -20 49 -75q2 -10 2.5 -17.5t-10.5 -11.5q-25 -10 -37 11q-6 10 -10.5 21 t-10.5 22q-20 39 -41 2q-33 -49 -56.5 -102.5t-29.5 -112.5q-4 -47 -6 -92.5t-4 -92.5q0 -14 -1 -25.5t-19 -15.5t-35 -1t-27 22q-6 10 -8 21t-4 24q-8 47 -9 95t-1 95z" />
<glyph unicode="s" horiz-adv-x="575" d="M-10 649q8 18 19 34.5t24 33.5q168 188 389 309q47 27 104 33q12 2 24 2q20 0 40 -6q23 -4 28 -21q4 -12 -3 -18t-15 -12q-2 -2 -4 -3q-109 -74 -204 -160.5t-191 -174.5q-12 -10 -26.5 -22.5t-10.5 -27.5q6 -14 24.5 -9t32.5 3q10 -2 17.5 -1t15.5 1q33 0 65.5 -2 t65.5 -12q16 -4 30.5 -10t26.5 -17q33 -24 33 -56q0 -19 -12 -40q-8 -12 -17.5 -23.5t-19.5 -21.5q-66 -57 -137.5 -102t-143.5 -90q-8 -4 -20 -9q-10 -2 -21.5 -2t-15.5 11q-8 14 3 19t20 9q53 37 105 75t101 83q16 14 30.5 28.5t25.5 32.5q7 13 7 23q0 19 -22 31 q-26 17 -62 17q-7 0 -15 -1q-35 -4 -71 -7t-71 -7q-19 -3 -37 -3q-32 0 -63 9q-59 18 -59 62q0 19 10 42z" />
<glyph unicode="t" horiz-adv-x="251" d="M-211 963q-4 16 14 26q29 16 57.5 23.5t59.5 11.5q18 2 27.5 5t14.5 8t7 15.5t4 28.5q4 63 12.5 126t24.5 126q14 49 30.5 98.5t41.5 94.5q30 52 81 52q5 0 11 -1q51 -2 51 -53q0 -47 -10 -90t-18 -88q-10 -57 -22.5 -114.5t-22.5 -115.5q-2 -6 -2 -12t-3 -14 q-2 -25 2.5 -29t28.5 -4q41 2 80 2t80 2q20 0 40.5 -4t39.5 -17q18 -8 16 -24q-4 -8 -10 -9t-12 -1t-13.5 -1t-13.5 3q-35 11 -71 11q-22 0 -42 -4q-56 -11 -112 -18q-20 0 -24.5 -11t-8.5 -28q-10 -86 -13 -169.5t-4 -170.5v-36q4 -90 5.5 -179.5t11.5 -181.5 q2 -20 5 -40.5t20 -37.5q10 -12 5 -19t-18 -11q-29 -6 -54.5 6t-39.5 39q-10 20 -15 39.5t-10 42.5q-12 59 -18 119.5t-10 121.5q-8 113 -12.5 223.5t-10.5 221.5q-2 31 -7 36t-36 1q-29 -6 -57.5 -10.5t-56.5 -2.5q-18 4 -23 13z" />
<glyph unicode="u" horiz-adv-x="415" d="M-16 459q-2 47 -2 93q0 70 5 138q9 114 38 228q8 31 22 69q24 52 78 52q6 0 12 -1q29 -4 38 -15t5 -40q-8 -51 -16 -100t-17 -101l-12 -94l-12 -94q-4 -16 -4 -33.5t6 -34.5h-4l2 2v-4q18 39 35.5 77t36.5 77q6 10 12 20.5t14 18.5q23 23 48.5 15.5t33.5 -38.5 q10 -35 16.5 -71.5t12.5 -73.5q6 -33 13 -64.5t24 -62.5q8 -12 2 -19q-10 -10 -25 -4q-18 6 -27.5 20.5t-15.5 31.5q-12 29 -19.5 59.5t-15.5 60.5q-4 16 -5 38t-15 24q-16 2 -21.5 -18.5t-11.5 -36.5q-23 -53 -42 -107.5t-42 -108.5q-8 -18 -18.5 -31.5t-32.5 -17.5 q-10 -2 -20 -2q-52 0 -64 58q-10 47 -12 90z" />
<glyph unicode="v" horiz-adv-x="366" d="M-20 627q4 135 18 261t53 249q8 23 16.5 45t18.5 45q20 39 57 41q41 6 58.5 -9.5t15.5 -56.5q-4 -78 -17.5 -155.5t-25.5 -155.5q-16 -104 -28.5 -210t-18.5 -212v-31q0 -14 2 -14q8 -2 9 3t3 9q8 18 15 41q29 78 59.5 156t69.5 153q12 25 25.5 49.5t29.5 47.5q6 8 13 15 t16 15q10 6 19 11.5t20 -4.5q10 -10 0.5 -17.5t-13.5 -15.5q-33 -45 -55.5 -94.5t-42.5 -100.5q-45 -111 -84 -223.5t-66 -228.5q-12 -54 -54 -54q-7 0 -15 2q-18 4 -27.5 15.5t-15.5 27.5q-23 63 -33 140q-10 66 -14 131.5t-8 124.5z" />
<glyph unicode="w" horiz-adv-x="657" d="M-20 350q4 180 35.5 350t84.5 338q18 57 37 114.5t43 111.5q25 45 45 90q4 8 10.5 15t12.5 15q16 18 50 24.5t52 -7.5q23 -16 19 -35.5t-11 -36.5q-31 -102 -59.5 -201.5t-56.5 -201.5q-41 -141 -71 -282.5t-48 -289.5q-6 -35 -6 -67q0 -10 -5.5 -23.5t7.5 -17.5 q10 -2 13 13t7 26l148 381q4 10 6 17t6 17q10 20 25.5 24.5t31.5 2.5q18 -4 25.5 -14.5t9.5 -26.5q4 -39 7 -77t8 -77q2 -18 6 -36.5t8 -36.5q0 -6 12 -15q6 6 10 17q18 55 36 110.5t34 112.5q16 55 32.5 111.5t39.5 109.5q16 39 34 66q14 23 35 22q31 4 21 -24 q-53 -117 -82 -237t-68 -238q-8 -23 -15 -44.5t-20 -39.5q-25 -37 -64.5 -37t-62.5 39q-14 23 -21 48t-13 50q-2 10 -3 22.5t-12 12.5q-10 0 -12 -12.5t-6 -22.5q-25 -66 -49 -135q-16 -47 -31.5 -95.5t-32.5 -95.5q-4 -14 -9 -27.5t-11 -25.5q-16 -37 -36 -49t-56 -8 q-29 4 -44.5 17t-25.5 50q-14 51 -17 103.5t-3 105.5z" />
<glyph unicode="x" horiz-adv-x="299" d="M-134 319.5q3 8.5 7 16.5q31 61 59.5 122.5t61.5 121.5q19 35 19 72q0 19 -5 38q-12 51 -22.5 100.5t-14.5 102.5q0 8 -1 15t-1 18q0 12 4 22t21 13q27 2 37 -25q12 -27 17 -55.5t11 -57.5q4 -16 4 -37.5t15 -25.5q12 -4 20 16.5t19 34.5q47 80 108 143q20 23 45 33t54 6 q33 -4 33 -23q0 -11 -11 -26q-37 -53 -76 -107.5t-77 -107.5q-16 -23 -31 -46.5t-33 -45.5q-16 -23 -18 -43.5t4 -44.5q16 -59 34.5 -116.5t45.5 -115.5q14 -34 -19 -36q-16 -2 -25.5 8t-19.5 22q-23 35 -37 71t-26 73q-4 10 -5.5 24.5t-15.5 16.5q-12 0 -17 -13.5 t-12 -23.5q-18 -31 -36.5 -62.5t-36.5 -64.5q-6 -10 -13.5 -20.5t-19.5 -14.5q-25 -8 -39 6q-10 8 -7 16.5z" />
<glyph unicode="y" horiz-adv-x="389" d="M-18 499.5v53.5v18q0 46 8 89q10 53 26 106q12 39 33 68q18 29 53 28q27 0 36 -9t5 -34q-8 -55 -17 -108.5t-17 -106.5q-4 -23 -7.5 -43t-7.5 -41q0 -4 1 -7t1 -7q12 4 15 6q23 35 46 68.5t48 66.5q18 29 37 45q16 18 36.5 19.5t43.5 -6.5q20 -6 22 -22.5t2 -35.5v-15 q0 -31 -6 -60q-8 -37 -16 -76q-20 -109 -43 -216.5t-52 -213.5q-18 -68 -45 -125q-6 -16 -16 -33q-16 -20 -39 -10q-12 6 -11 14t5 18q47 139 73.5 280.5t49.5 285.5q2 23 4 42t-2 42q-20 -10 -29.5 -29t-21.5 -35q-16 -23 -31.5 -45t-32.5 -45q-25 -35 -67 -35 q-35 0 -52.5 11.5t-25.5 43.5q-6 27 -6 53.5z" />
<glyph unicode="z" horiz-adv-x="387" d="M-18 1051q-2 16 14 24q18 8 35 12q55 15 111 19q14 1 26 1q42 0 84 -11q16 -2 35 -11q56 -24 56 -66q0 -21 -13 -46q-12 -25 -26.5 -46.5t-31.5 -43.5q-51 -80 -95 -162t-73 -174q-10 -27 -14 -51.5t-8 -51.5q-2 -12 -1 -22q0 -26 9 -44q14 -26 43 -48q21 -17 44 -17 q11 0 22 4q18 8 34 11q8 2 15.5 1t11.5 -12q2 -8 -4 -12t-10 -8q-34 -20 -71 -20q-20 0 -42 6q-59 14 -101 62q-38 44 -38 103v11q4 78 21.5 152.5t43.5 146.5q16 41 35 77.5t39 75.5l17.5 35t15.5 37q10 27 5 36t-34 11q-8 2 -15 1t-18 -1h-30v2h-70q-20 0 -22 19z" />
<glyph unicode="{" horiz-adv-x="311" d="M43 106q-6 145 53 269q14 29 19.5 53.5t-19.5 52.5q-8 10 -5 18.5t11 14.5q29 29 33 60.5t-4 66.5q-4 31 -10 60.5t-10 60.5q-8 59 -2 118.5t34 114.5q23 45 59 63.5t79 8.5q20 -6 40.5 -21.5t35 -37t21.5 -46t5 -47.5q-2 -10 -7 -19t-18 -11q-16 -2 -22 6t-10 20 q-6 16 -10.5 33t-12.5 33t-18.5 33.5t-28.5 17.5q-23 0 -31 -17.5t-16 -33.5q-16 -33 -22.5 -75t-6.5 -91q-2 -37 5.5 -75t11.5 -79q2 -12 3 -23t3 -24q2 -31 -7.5 -57.5t-37.5 -44.5q-10 -8 -12.5 -15.5t8.5 -17.5q20 -23 20 -45t-10 -49q-41 -102 -53 -203q-4 -45 0 -88 t28 -82q12 -18 25.5 -36.5t38.5 -22.5q10 -6 10 -10q0 -10 -14 -15q-33 -8 -60 15q-41 33 -67.5 73.5t-28.5 93.5z" />
<glyph unicode="|" horiz-adv-x="161" d="M41 536.5q-2 129.5 2 260.5q2 70 4 138.5t6 135.5q0 18 2 29q0 27 25 26q29 2 33 -26q2 -12 3 -24.5t1 -22.5q4 -102 1 -204.5t-9 -225.5q-2 -86 -1 -184.5t9 -202.5q0 -10 2 -20.5t-15 -14.5q-31 -6 -41 22q-4 14 -6 26.5t-4 26.5q-10 131 -12 260.5z" />
<glyph unicode="}" horiz-adv-x="307" d="M45 965q10 37 54 67.5t85 30.5q86 -2 80 -88q-4 -23 -10 -44.5t-16 -41.5q-12 -25 -24.5 -49.5t-27.5 -51.5q-27 -55 -43 -106q-12 -35 -8 -62.5t35 -50.5q25 -16 25 -25t-17 -32q-14 -18 -13 -36.5t7 -39.5q16 -49 30.5 -98t24.5 -100q25 -127 -63 -213 q-12 -14 -26.5 -21.5t-33.5 -3.5q-14 4 -14 14q0 8 8 13q41 23 54.5 59.5t15.5 77.5t-6 78t-19 73q-10 31 -18 62t-12 61q-4 23 -3 43.5t17 38.5q16 20 -6 33q-47 29 -51 67.5t12 86.5q16 47 36.5 91t43.5 87q12 27 22.5 54.5t5.5 57.5q-4 37 -32 17q-18 -10 -32.5 -22.5 t-27.5 -28.5q-6 -6 -11 -13.5t-11 -11.5q-14 -10 -29 2q-10 8 -2 25z" />
<glyph unicode="~" horiz-adv-x="413" d="M41 610q0 27 19.5 51.5t43.5 30.5q51 12 80 -43q10 -16 17.5 -30.5t15.5 -30.5q18 -29 49 -10q16 10 32.5 20t31.5 27q10 16 26 16q20 0 15 -20q0 -2 -2 -5q-27 -33 -58.5 -52t-66.5 -29q-49 2 -74 38q-10 14 -17.5 28.5t-17.5 29.5q-16 27 -29 0q-4 -8 -6 -16.5 t-6 -16.5q-10 -23 -31 -18q-23 6 -22 30z" />
<glyph unicode="&#xa3;" horiz-adv-x="419" d="M43 262q-2 8 4 14.5t13.5 11.5t16.5 10t13 15q27 47 32 95.5t3 99.5q0 12 -13.5 15t-13.5 16q0 10 13.5 13t13.5 15v49q0 59 3 117t19 115q6 29 15.5 54.5t25.5 47.5q27 43 70 56q41 14 72 -7q10 -6 16 -16t-2 -22q-6 -10 -16.5 -10.5t-18.5 7.5q-18 18 -29.5 10.5 t-21.5 -20.5q-29 -37 -40 -79t-17 -85q-4 -35 -6 -68.5t-5 -68.5h3v-22q0 -16 -2.5 -33t8.5 -29q10 -14 26.5 -10t32.5 2q8 -2 16.5 -3t8.5 -11t-8.5 -12.5t-16.5 -6.5q-16 -4 -34.5 0t-26.5 -14q-8 -16 -7.5 -33.5t-1.5 -36.5q-4 -43 -15 -82t-44 -71q-16 -16 2 -31 q6 -4 12.5 -9t12.5 -9q29 -23 47 -33t35.5 -10t36 12t44.5 35q10 10 27 20q16 10 29 -4q6 -6 2 -12t-8 -11q-102 -127 -238 -34q-16 8 -29 22q-14 16 -34.5 20.5t-24.5 20.5z" />
<glyph unicode="&#xa8;" horiz-adv-x="311" d="M41 1112q0 39 35 39q33 0 37 -39q8 27 7 25t-6 -15.5t-13.5 -29t-16.5 -15.5q-18 -2 -30.5 8.5t-12.5 26.5zM201 1112q0 12 10 21.5t25 7.5q14 0 24 -9.5t10 -23.5q-6 -31 -32 -33q-14 0 -25.5 11.5t-11.5 25.5z" />
<glyph unicode="&#xa9;" horiz-adv-x="565" d="M41 436q4 61 33.5 123t89.5 117q39 35 79 41t87 -4q109 -27 158 -100.5t30 -184.5q-35 -188 -207 -227q-117 -27 -192.5 36.5t-77.5 198.5zM106 406q0 -29 5.5 -55.5t21.5 -51.5q20 -35 50 -55.5t71 -18.5q59 4 106.5 33t75.5 86q16 31 21.5 64.5t5.5 68.5q0 74 -33 127 q-18 31 -49 51.5t-65.5 25.5t-70.5 -9.5t-65 -53.5q-72 -96 -74 -212zM193 418q0 76 34 123q20 29 52 38t61 -8q12 -4 10 -16q0 -6 -10 -10q-16 -4 -32.5 -4t-26.5 -21q-27 -47 -25 -96q0 -14 -2 -28.5t14 -24.5q14 -6 24.5 4t22.5 16t22.5 15.5t27.5 13.5q12 0 18 -10 q4 -8 -4 -13q-20 -23 -43 -40t-51 -27q-31 -10 -54.5 4t-31.5 45q-4 10 -4 21.5t-2 17.5z" />
<glyph unicode="&#xad;" horiz-adv-x="389" d="M43 475q-4 16 13.5 18.5t29.5 6.5q53 14 106.5 22.5t108.5 12.5q12 -4 29.5 -1t17.5 -16q0 -16 -16.5 -15t-28.5 -3q-47 -8 -96 -16.5t-96 -16.5q-12 -4 -17 -4q-14 -2 -30.5 -3t-20.5 15z" />
<glyph unicode="&#xb4;" horiz-adv-x="229" d="M43 1141q6 18 14 35q16 25 34 47t38 45q6 6 12 11t17 5q10 2 17 2t11 -8t-1 -13t-9 -10q-25 -29 -47.5 -57.5t-40.5 -58.5q-11 -21 -29 -21q-23 6 -16 23z" />
<glyph unicode="&#xb8;" horiz-adv-x="221" d="M47 -518q6 16 13.5 30.5t29.5 18.5q12 2 18.5 -6t2.5 -21l-7 -18q-16 -31 15 -49q12 -6 22.5 -14.5t20.5 -16.5q14 -14 18 -41q-2 -4 -2 -9t-4 -9q-31 -41 -80 -58q-6 -2 -13 -1t-11 5q-4 8 1 12.5t9 8.5q8 6 15 12l14 12q16 18 16 33t-21 31q-10 8 -21 14t-24 15 q-27 20 -12 51z" />
<glyph unicode="&#xc0;" horiz-adv-x="563" d="M-20 467q2 8 12 18q4 4 8 4q39 6 50 32t22 54q43 135 99 262.5t122 249.5q12 27 26 46q20 29 51 38t62 -4q16 -6 24.5 -18t12.5 -29q10 -35 10 -66.5v-66.5q2 -16 1 -31.5t-1 -31.5q0 -88 -8 -175t-20 -174q-2 -33 26 -32q12 2 24.5 1t22.5 -3q18 0 19 -17q0 -10 -15 -14 q-27 -12 -51 -10q-39 0 -41 -41q-10 -102 -21.5 -203.5t-23.5 -204.5q-4 -47 -12 -88t-49 -37q-31 4 -31 31v28.5t2 28.5q6 106 13.5 212t15.5 212v33q-4 16 -19 14q-27 -4 -52.5 -6t-53.5 -4q-29 -2 -35 -35q-10 -41 -22.5 -84t-24.5 -84q-4 -12 -7 -25.5t-10 -25.5 q-14 -35 -53 -28q-37 2 -43 40q-4 25 -3 50.5t5 50.5l13 67q6 27 3 33t-32 17l-10 5t-6 11zM206 533.5q5 -7.5 50 -3.5q10 2 31 2q18 2 27.5 3.5t14.5 6.5t6 15t3 29l18 307q2 10 2 18.5v18.5q0 4 -4 8q-2 -2 -4 -2t-4 -2q-4 -8 -7 -14.5t-7 -14.5q-31 -80 -60.5 -160.5 t-58.5 -162.5q-12 -41 -7 -48.5zM319 1368q-4 6 2 12q4 4 8 5.5t8 3.5q10 -2 20.5 -4.5t16.5 -8.5q23 -18 45.5 -36.5t44.5 -36.5q12 -8 9 -19q-6 -8 -19 -8q-12 0 -28 8q-53 33 -99 74q-4 4 -8 10z" />
<glyph unicode="&#xc1;" horiz-adv-x="563" d="M-20 467q2 8 12 18q4 4 8 4q39 6 50 32t22 54q43 135 99 262.5t122 249.5q12 27 26 46q20 29 51 38t62 -4q16 -6 24.5 -18t12.5 -29q10 -35 10 -66.5v-66.5q2 -16 1 -31.5t-1 -31.5q0 -88 -8 -175t-20 -174q-2 -33 26 -32q12 2 24.5 1t22.5 -3q18 0 19 -17q0 -10 -15 -14 q-27 -12 -51 -10q-39 0 -41 -41q-10 -102 -21.5 -203.5t-23.5 -204.5q-4 -47 -12 -88t-49 -37q-31 4 -31 31v28.5t2 28.5q6 106 13.5 212t15.5 212v33q-4 16 -19 14q-27 -4 -52.5 -6t-53.5 -4q-29 -2 -35 -35q-10 -41 -22.5 -84t-24.5 -84q-4 -12 -7 -25.5t-10 -25.5 q-14 -35 -53 -28q-37 2 -43 40q-4 25 -3 50.5t5 50.5l13 67q6 27 3 33t-32 17l-10 5t-6 11zM206 533.5q5 -7.5 50 -3.5q10 2 31 2q18 2 27.5 3.5t14.5 6.5t6 15t3 29l18 307q2 10 2 18.5v18.5q0 4 -4 8q-2 -2 -4 -2t-4 -2q-4 -8 -7 -14.5t-7 -14.5q-31 -80 -60.5 -160.5 t-58.5 -162.5q-12 -41 -7 -48.5zM315 1313q6 18 14 35q16 25 34 47t38 45q6 6 12 11t17 5q10 2 17 2t11 -8t-1 -13t-9 -10q-25 -29 -47.5 -57.5t-40.5 -58.5q-11 -21 -29 -21q-23 6 -16 23z" />
<glyph unicode="&#xc2;" horiz-adv-x="563" d="M-20 467q2 8 12 18q4 4 8 4q39 6 50 32t22 54q43 135 99 262.5t122 249.5q12 27 26 46q20 29 51 38t62 -4q16 -6 24.5 -18t12.5 -29q10 -35 10 -66.5v-66.5q2 -16 1 -31.5t-1 -31.5q0 -88 -8 -175t-20 -174q-2 -33 26 -32q12 2 24.5 1t22.5 -3q18 0 19 -17q0 -10 -15 -14 q-27 -12 -51 -10q-39 0 -41 -41q-10 -102 -21.5 -203.5t-23.5 -204.5q-4 -47 -12 -88t-49 -37q-31 4 -31 31v28.5t2 28.5q6 106 13.5 212t15.5 212v33q-4 16 -19 14q-27 -4 -52.5 -6t-53.5 -4q-29 -2 -35 -35q-10 -41 -22.5 -84t-24.5 -84q-4 -12 -7 -25.5t-10 -25.5 q-14 -35 -53 -28q-37 2 -43 40q-4 25 -3 50.5t5 50.5l13 67q6 27 3 33t-32 17l-10 5t-6 11zM206 533.5q5 -7.5 50 -3.5q10 2 31 2q18 2 27.5 3.5t14.5 6.5t6 15t3 29l18 307q2 10 2 18.5v18.5q0 4 -4 8q-2 -2 -4 -2t-4 -2q-4 -8 -7 -14.5t-7 -14.5q-31 -80 -60.5 -160.5 t-58.5 -162.5q-12 -41 -7 -48.5zM306 1258.5q5 11.5 9 21.5q16 33 30.5 64t31.5 63q20 35 55 29q14 -2 27.5 -9t19.5 -24q16 -35 24.5 -71.5t18.5 -75.5q4 -14 -4 -19.5t-21 -5.5q-23 4 -30.5 17.5t-14.5 29.5q-6 12 -7 28.5t-15 18.5q-12 0 -16.5 -15t-12.5 -26 q-6 -10 -12 -21t-16 -22q-12 -12 -30 -13t-28 9q-14 10 -9 21.5z" />
<glyph unicode="&#xc3;" horiz-adv-x="563" d="M-20 467q2 8 12 18q4 4 8 4q39 6 50 32t22 54q43 135 99 262.5t122 249.5q12 27 26 46q20 29 51 38t62 -4q16 -6 24.5 -18t12.5 -29q10 -35 10 -66.5v-66.5q2 -16 1 -31.5t-1 -31.5q0 -88 -8 -175t-20 -174q-2 -33 26 -32q12 2 24.5 1t22.5 -3q18 0 19 -17q0 -10 -15 -14 q-27 -12 -51 -10q-39 0 -41 -41q-10 -102 -21.5 -203.5t-23.5 -204.5q-4 -47 -12 -88t-49 -37q-31 4 -31 31v28.5t2 28.5q6 106 13.5 212t15.5 212v33q-4 16 -19 14q-27 -4 -52.5 -6t-53.5 -4q-29 -2 -35 -35q-10 -41 -22.5 -84t-24.5 -84q-4 -12 -7 -25.5t-10 -25.5 q-14 -35 -53 -28q-37 2 -43 40q-4 25 -3 50.5t5 50.5l13 67q6 27 3 33t-32 17l-10 5t-6 11zM206 533.5q5 -7.5 50 -3.5q10 2 31 2q18 2 27.5 3.5t14.5 6.5t6 15t3 29l18 307q2 10 2 18.5v18.5q0 4 -4 8q-2 -2 -4 -2t-4 -2q-4 -8 -7 -14.5t-7 -14.5q-31 -80 -60.5 -160.5 t-58.5 -162.5q-12 -41 -7 -48.5zM320 1364.5q3 19.5 12.5 37t23 30.5t29.5 13q29 0 45 -30q10 -16 19 -35t20 -35q12 -27 32 0q10 12 18.5 25.5t18.5 25.5q4 8 9 15.5t16 11.5q14 0 20 -2q8 -4 6 -9t-6 -10q-20 -41 -43 -71q-23 -31 -51.5 -32t-54.5 28q-14 14 -21.5 30.5 t-17.5 32.5q-4 14 -15 10q-8 -4 -8 -12q-4 -12 -5 -25.5t-3 -25.5q-4 -16 -18 -16q-10 -2 -23 10q-6 14 -3 33.5z" />
<glyph unicode="&#xc4;" horiz-adv-x="563" d="M-20 467q2 8 12 18q4 4 8 4q39 6 50 32t22 54q43 135 99 262.5t122 249.5q12 27 26 46q20 29 51 38t62 -4q16 -6 24.5 -18t12.5 -29q10 -35 10 -66.5v-66.5q2 -16 1 -31.5t-1 -31.5q0 -88 -8 -175t-20 -174q-2 -33 26 -32q12 2 24.5 1t22.5 -3q18 0 19 -17q0 -10 -15 -14 q-27 -12 -51 -10q-39 0 -41 -41q-10 -102 -21.5 -203.5t-23.5 -204.5q-4 -47 -12 -88t-49 -37q-31 4 -31 31v28.5t2 28.5q6 106 13.5 212t15.5 212v33q-4 16 -19 14q-27 -4 -52.5 -6t-53.5 -4q-29 -2 -35 -35q-10 -41 -22.5 -84t-24.5 -84q-4 -12 -7 -25.5t-10 -25.5 q-14 -35 -53 -28q-37 2 -43 40q-4 25 -3 50.5t5 50.5l13 67q6 27 3 33t-32 17l-10 5t-6 11zM206 533.5q5 -7.5 50 -3.5q10 2 31 2q18 2 27.5 3.5t14.5 6.5t6 15t3 29l18 307q2 10 2 18.5v18.5q0 4 -4 8q-2 -2 -4 -2t-4 -2q-4 -8 -7 -14.5t-7 -14.5q-31 -80 -60.5 -160.5 t-58.5 -162.5q-12 -41 -7 -48.5zM315 1343q0 39 35 39q33 0 37 -39q8 27 7 25t-6 -15.5t-13.5 -29t-16.5 -15.5q-18 -2 -30.5 8.5t-12.5 26.5zM475 1343q0 12 10 21.5t25 7.5q14 0 24 -9.5t10 -23.5q-6 -31 -32 -33q-14 0 -25.5 11.5t-11.5 25.5z" />
<glyph unicode="&#xc5;" horiz-adv-x="563" d="M-20 467q2 8 12 18q4 4 8 4q39 6 50 32t22 54q43 135 99 262.5t122 249.5q12 27 26 46q20 29 51 38t62 -4q16 -6 24.5 -18t12.5 -29q10 -35 10 -66.5v-66.5q2 -16 1 -31.5t-1 -31.5q0 -88 -8 -175t-20 -174q-2 -33 26 -32q12 2 24.5 1t22.5 -3q18 0 19 -17q0 -10 -15 -14 q-27 -12 -51 -10q-39 0 -41 -41q-10 -102 -21.5 -203.5t-23.5 -204.5q-4 -47 -12 -88t-49 -37q-31 4 -31 31v28.5t2 28.5q6 106 13.5 212t15.5 212v33q-4 16 -19 14q-27 -4 -52.5 -6t-53.5 -4q-29 -2 -35 -35q-10 -41 -22.5 -84t-24.5 -84q-4 -12 -7 -25.5t-10 -25.5 q-14 -35 -53 -28q-37 2 -43 40q-4 25 -3 50.5t5 50.5l13 67q6 27 3 33t-32 17l-10 5t-6 11zM206 533.5q5 -7.5 50 -3.5q10 2 31 2q18 2 27.5 3.5t14.5 6.5t6 15t3 29l18 307q2 10 2 18.5v18.5q0 4 -4 8q-2 -2 -4 -2t-4 -2q-4 -8 -7 -14.5t-7 -14.5q-31 -80 -60.5 -160.5 t-58.5 -162.5q-12 -41 -7 -48.5zM300 1241q0 57 36.5 96t93.5 42q49 0 78.5 -27.5t29.5 -67.5q0 -65 -39.5 -109t-96.5 -44q-48 3 -76.5 33t-25.5 77zM370 1219q6 -14 11.5 -27.5t20.5 -18.5q17 -6 28 4.5t21 21.5q11 14 16.5 33t2.5 44q-2 11 -3.5 25.5t-25.5 19.5 q-16 3 -33 -4t-24 -27q-8 -17 -13.5 -34.5t-0.5 -36.5z" />
<glyph unicode="&#xc6;" horiz-adv-x="950" d="M-20 467q2 8 12 18q4 4 8 4q39 6 50 32t22 54q43 135 99 262.5t122 249.5q12 27 26 46q20 29 51 38t62 -4q16 -6 24.5 -18t12.5 -29q10 -35 10 -66.5v-66.5q2 -16 1 -31.5t-1 -31.5q0 -88 -8 -175t-20 -174q-2 -33 26 -32q12 2 24.5 1t22.5 -3q18 0 19 -17q0 -10 -15 -14 q-27 -12 -51 -10q-39 0 -41 -41q-10 -102 -21.5 -203.5t-23.5 -204.5q-4 -47 -12 -88t-49 -37q-31 4 -31 31v28.5t2 28.5q6 106 13.5 212t15.5 212v33q-4 16 -19 14q-27 -4 -52.5 -6t-53.5 -4q-29 -2 -35 -35q-10 -41 -22.5 -84t-24.5 -84q-4 -12 -7 -25.5t-10 -25.5 q-14 -35 -53 -28q-37 2 -43 40q-4 25 -3 50.5t5 50.5l13 67q6 27 3 33t-32 17l-10 5t-6 11zM206 533.5q5 -7.5 50 -3.5q10 2 31 2q18 2 27.5 3.5t14.5 6.5t6 15t3 29l18 307q2 10 2 18.5v18.5q0 4 -4 8q-2 -2 -4 -2t-4 -2q-4 -8 -7 -14.5t-7 -14.5q-31 -80 -60.5 -160.5 t-58.5 -162.5q-12 -41 -7 -48.5zM367 153q6 12 14 23q4 10 10 12q37 20 43 52t6 67q0 47 2 92t6 92q4 16 1 32.5t-27 20.5q-12 2 -13 13.5t9 15.5q18 8 26.5 20.5t12.5 25.5t4 28.5t2 29.5q10 76 24.5 150t32.5 147q4 18 5 34t-27 22q-14 4 -13.5 13t11.5 19q8 8 16 13.5 t18 9.5q31 12 43 37q18 27 45 35t52 -11q20 -12 38.5 -13t36.5 3q29 4 55.5 5t55.5 1q16 0 31.5 -4t29.5 -8q10 -4 20.5 -9t6.5 -20q-4 -14 -18.5 -14t-24.5 4q-45 16 -88 8t-88 -16q-16 -4 -22.5 -11t-10.5 -24q-23 -197 -67 -387q-6 -29 22 -29q20 0 40 1t38 -9 q8 -4 15 -8t5 -12q0 -10 -8 -12.5t-16 -2.5q-10 -2 -18.5 -1t-18.5 3v2q-12 -2 -25.5 -2t-25.5 -4q-29 -4 -31 -30q-16 -63 -28.5 -127t-18.5 -129q-2 -23 3 -26t26 1q106 25 215 18q16 0 31.5 -3t27.5 -15q18 -18 -4 -29q-20 -10 -47 -2q-66 12 -125 -4t-119 -37 q-14 -6 -18 -22q-6 -23 -29 -23q-43 0 -82 -32l-7 -3.5l-7 -3.5q-14 -4 -26.5 -4t-22.5 13q-10 12 -4 24z" />
<glyph unicode="&#xc7;" horiz-adv-x="528" d="M-20 453q2 100 19 197.5t58 189.5q18 47 44 90t65 80q90 86 209 53q88 -20 94 -113q2 -49 -12 -94q-4 -12 -9.5 -21.5t-21.5 -9.5q-23 0 -33 29q-12 57 -39 104q-18 29 -30.5 31t-36.5 -24q-31 -33 -53.5 -70t-38.5 -78q-96 -225 -86 -471q2 -29 7 -55.5t17 -52.5 q16 -31 43 -13q16 12 33.5 24.5t34.5 26.5q106 98 196 216q4 8 8.5 14t10.5 12q18 25 41 8q10 -6 8 -15t-6 -17t-7 -15.5t-8 -13.5q-88 -129 -204 -244q-47 -47 -117 -57q-119 -16 -160 94q-16 47 -21 96.5t-5 98.5zM121 135q6 16 13.5 30.5t29.5 18.5q12 2 18.5 -6t2.5 -21 l-7 -18q-16 -31 15 -49q12 -6 22.5 -14.5t20.5 -16.5q14 -14 18 -41q-2 -4 -2 -9t-4 -9q-31 -41 -80 -58q-6 -2 -13 -1t-11 5q-4 8 1 12.5t9 8.5q8 6 15 12l14 12q16 18 16 33t-21 31q-10 8 -21 14t-24 15q-27 20 -12 51z" />
<glyph unicode="&#xc8;" horiz-adv-x="530" d="M-18 178q6 12 14 23q4 10 10 12q37 20 43 52t6 67q0 47 2 92t6 92q4 16 1 32.5t-27 20.5q-12 2 -13 13.5t9 15.5q18 8 26.5 20.5t12.5 25.5t4 28.5t2 29.5q10 76 24.5 150t32.5 147q4 18 5 34t-27 22q-14 4 -13.5 13t11.5 19q8 8 16 13.5t18 9.5q31 12 43 37q18 27 45 35 t52 -11q20 -12 38.5 -13t36.5 3q29 4 55.5 5t55.5 1q16 0 31.5 -4t29.5 -8q10 -4 20.5 -9t6.5 -20q-4 -14 -18.5 -14t-24.5 4q-45 16 -88 8t-88 -16q-16 -4 -22.5 -11t-10.5 -24q-23 -197 -67 -387q-6 -29 22 -29q20 0 40 1t38 -9q8 -4 15 -8t5 -12q0 -10 -8 -12.5t-16 -2.5 q-10 -2 -18.5 -1t-18.5 3v2q-12 -2 -25.5 -2t-25.5 -4q-29 -4 -31 -30q-16 -63 -28.5 -127t-18.5 -129q-2 -23 3 -26t26 1q106 25 215 18q16 0 31.5 -3t27.5 -15q18 -18 -4 -29q-20 -10 -47 -2q-66 12 -125 -4t-119 -37q-14 -6 -18 -22q-6 -23 -29 -23q-43 0 -82 -32 l-7 -3.5l-7 -3.5q-14 -4 -26.5 -4t-22.5 13q-10 12 -4 24zM256 1436q-4 6 2 12q4 4 8 5.5t8 3.5q10 -2 20.5 -4.5t16.5 -8.5q23 -18 45.5 -36.5t44.5 -36.5q12 -8 9 -19q-6 -8 -19 -8q-12 0 -28 8q-53 33 -99 74q-4 4 -8 10z" />
<glyph unicode="&#xc9;" horiz-adv-x="530" d="M-18 178q6 12 14 23q4 10 10 12q37 20 43 52t6 67q0 47 2 92t6 92q4 16 1 32.5t-27 20.5q-12 2 -13 13.5t9 15.5q18 8 26.5 20.5t12.5 25.5t4 28.5t2 29.5q10 76 24.5 150t32.5 147q4 18 5 34t-27 22q-14 4 -13.5 13t11.5 19q8 8 16 13.5t18 9.5q31 12 43 37q18 27 45 35 t52 -11q20 -12 38.5 -13t36.5 3q29 4 55.5 5t55.5 1q16 0 31.5 -4t29.5 -8q10 -4 20.5 -9t6.5 -20q-4 -14 -18.5 -14t-24.5 4q-45 16 -88 8t-88 -16q-16 -4 -22.5 -11t-10.5 -24q-23 -197 -67 -387q-6 -29 22 -29q20 0 40 1t38 -9q8 -4 15 -8t5 -12q0 -10 -8 -12.5t-16 -2.5 q-10 -2 -18.5 -1t-18.5 3v2q-12 -2 -25.5 -2t-25.5 -4q-29 -4 -31 -30q-16 -63 -28.5 -127t-18.5 -129q-2 -23 3 -26t26 1q106 25 215 18q16 0 31.5 -3t27.5 -15q18 -18 -4 -29q-20 -10 -47 -2q-66 12 -125 -4t-119 -37q-14 -6 -18 -22q-6 -23 -29 -23q-43 0 -82 -32 l-7 -3.5l-7 -3.5q-14 -4 -26.5 -4t-22.5 13q-10 12 -4 24zM260 1338q6 18 14 35q16 25 34 47t38 45q6 6 12 11t17 5q10 2 17 2t11 -8t-1 -13t-9 -10q-25 -29 -47.5 -57.5t-40.5 -58.5q-11 -21 -29 -21q-23 6 -16 23z" />
<glyph unicode="&#xca;" horiz-adv-x="530" d="M-18 178q6 12 14 23q4 10 10 12q37 20 43 52t6 67q0 47 2 92t6 92q4 16 1 32.5t-27 20.5q-12 2 -13 13.5t9 15.5q18 8 26.5 20.5t12.5 25.5t4 28.5t2 29.5q10 76 24.5 150t32.5 147q4 18 5 34t-27 22q-14 4 -13.5 13t11.5 19q8 8 16 13.5t18 9.5q31 12 43 37q18 27 45 35 t52 -11q20 -12 38.5 -13t36.5 3q29 4 55.5 5t55.5 1q16 0 31.5 -4t29.5 -8q10 -4 20.5 -9t6.5 -20q-4 -14 -18.5 -14t-24.5 4q-45 16 -88 8t-88 -16q-16 -4 -22.5 -11t-10.5 -24q-23 -197 -67 -387q-6 -29 22 -29q20 0 40 1t38 -9q8 -4 15 -8t5 -12q0 -10 -8 -12.5t-16 -2.5 q-10 -2 -18.5 -1t-18.5 3v2q-12 -2 -25.5 -2t-25.5 -4q-29 -4 -31 -30q-16 -63 -28.5 -127t-18.5 -129q-2 -23 3 -26t26 1q106 25 215 18q16 0 31.5 -3t27.5 -15q18 -18 -4 -29q-20 -10 -47 -2q-66 12 -125 -4t-119 -37q-14 -6 -18 -22q-6 -23 -29 -23q-43 0 -82 -32 l-7 -3.5l-7 -3.5q-14 -4 -26.5 -4t-22.5 13q-10 12 -4 24zM237 1346.5q5 11.5 9 21.5q16 33 30.5 64t31.5 63q20 35 55 29q14 -2 27.5 -9t19.5 -24q16 -35 24.5 -71.5t18.5 -75.5q4 -14 -4 -19.5t-21 -5.5q-23 4 -30.5 17.5t-14.5 29.5q-6 12 -7 28.5t-15 18.5 q-12 0 -16.5 -15t-12.5 -26q-6 -10 -12 -21t-16 -22q-12 -12 -30 -13t-28 9q-14 10 -9 21.5z" />
<glyph unicode="&#xcb;" horiz-adv-x="530" d="M-18 178q6 12 14 23q4 10 10 12q37 20 43 52t6 67q0 47 2 92t6 92q4 16 1 32.5t-27 20.5q-12 2 -13 13.5t9 15.5q18 8 26.5 20.5t12.5 25.5t4 28.5t2 29.5q10 76 24.5 150t32.5 147q4 18 5 34t-27 22q-14 4 -13.5 13t11.5 19q8 8 16 13.5t18 9.5q31 12 43 37q18 27 45 35 t52 -11q20 -12 38.5 -13t36.5 3q29 4 55.5 5t55.5 1q16 0 31.5 -4t29.5 -8q10 -4 20.5 -9t6.5 -20q-4 -14 -18.5 -14t-24.5 4q-45 16 -88 8t-88 -16q-16 -4 -22.5 -11t-10.5 -24q-23 -197 -67 -387q-6 -29 22 -29q20 0 40 1t38 -9q8 -4 15 -8t5 -12q0 -10 -8 -12.5t-16 -2.5 q-10 -2 -18.5 -1t-18.5 3v2q-12 -2 -25.5 -2t-25.5 -4q-29 -4 -31 -30q-16 -63 -28.5 -127t-18.5 -129q-2 -23 3 -26t26 1q106 25 215 18q16 0 31.5 -3t27.5 -15q18 -18 -4 -29q-20 -10 -47 -2q-66 12 -125 -4t-119 -37q-14 -6 -18 -22q-6 -23 -29 -23q-43 0 -82 -32 l-7 -3.5l-7 -3.5q-14 -4 -26.5 -4t-22.5 13q-10 12 -4 24zM213 1368q0 39 35 39q33 0 37 -39q8 27 7 25t-6 -15.5t-13.5 -29t-16.5 -15.5q-18 -2 -30.5 8.5t-12.5 26.5zM373 1368q0 12 10 21.5t25 7.5q14 0 24 -9.5t10 -23.5q-6 -31 -32 -33q-14 0 -25.5 11.5t-11.5 25.5z " />
<glyph unicode="&#xcc;" horiz-adv-x="395" d="M-18 295q-4 12 4 19.5t18 13.5q27 23 68 28q20 6 12 27q-10 35 -12 70.5t-4 72.5v287q4 176 61 342q4 12 5 19.5t-19 3.5q-10 -4 -24.5 -5.5t-18.5 15.5q-4 16 9 22.5t25 10.5q35 16 72 19t74 7q16 2 31.5 1t31.5 -1v2h80q10 0 23.5 -3t13.5 -17q0 -12 -12 -13.5 t-23 -1.5q-23 0 -45 -1t-45 -5q-10 -2 -14 -5t0 -13q16 -33 15 -65.5t-3 -65.5q-4 -80 -15 -160t-25.5 -158.5t-30 -157.5t-25.5 -159q0 -6 -1 -12t-3 -15q-2 -20 20 -20h47q25 0 47 -12q10 -4 7 -13q0 -4 -9 -12q-10 -4 -18 -4h-18q-63 0 -124 -9.5t-118 -37.5q-4 -2 -7 -3 t-7 -3q-12 0 -24.5 -2t-18.5 14zM160 1460q-4 6 2 12q4 4 8 5.5t8 3.5q10 -2 20.5 -4.5t16.5 -8.5q23 -18 45.5 -36.5t44.5 -36.5q12 -8 9 -19q-6 -8 -19 -8q-12 0 -28 8q-53 33 -99 74q-4 4 -8 10z" />
<glyph unicode="&#xcd;" horiz-adv-x="395" d="M-18 295q-4 12 4 19.5t18 13.5q27 23 68 28q20 6 12 27q-10 35 -12 70.5t-4 72.5v287q4 176 61 342q4 12 5 19.5t-19 3.5q-10 -4 -24.5 -5.5t-18.5 15.5q-4 16 9 22.5t25 10.5q35 16 72 19t74 7q16 2 31.5 1t31.5 -1v2h80q10 0 23.5 -3t13.5 -17q0 -12 -12 -13.5 t-23 -1.5q-23 0 -45 -1t-45 -5q-10 -2 -14 -5t0 -13q16 -33 15 -65.5t-3 -65.5q-4 -80 -15 -160t-25.5 -158.5t-30 -157.5t-25.5 -159q0 -6 -1 -12t-3 -15q-2 -20 20 -20h47q25 0 47 -12q10 -4 7 -13q0 -4 -9 -12q-10 -4 -18 -4h-18q-63 0 -124 -9.5t-118 -37.5q-4 -2 -7 -3 t-7 -3q-12 0 -24.5 -2t-18.5 14zM186 1377q6 18 14 35q16 25 34 47t38 45q6 6 12 11t17 5q10 2 17 2t11 -8t-1 -13t-9 -10q-25 -29 -47.5 -57.5t-40.5 -58.5q-11 -21 -29 -21q-23 6 -16 23z" />
<glyph unicode="&#xce;" horiz-adv-x="395" d="M-18 295q-4 12 4 19.5t18 13.5q27 23 68 28q20 6 12 27q-10 35 -12 70.5t-4 72.5v287q4 176 61 342q4 12 5 19.5t-19 3.5q-10 -4 -24.5 -5.5t-18.5 15.5q-4 16 9 22.5t25 10.5q35 16 72 19t74 7q16 2 31.5 1t31.5 -1v2h80q10 0 23.5 -3t13.5 -17q0 -12 -12 -13.5 t-23 -1.5q-23 0 -45 -1t-45 -5q-10 -2 -14 -5t0 -13q16 -33 15 -65.5t-3 -65.5q-4 -80 -15 -160t-25.5 -158.5t-30 -157.5t-25.5 -159q0 -6 -1 -12t-3 -15q-2 -20 20 -20h47q25 0 47 -12q10 -4 7 -13q0 -4 -9 -12q-10 -4 -18 -4h-18q-63 0 -124 -9.5t-118 -37.5q-4 -2 -7 -3 t-7 -3q-12 0 -24.5 -2t-18.5 14zM110 1419.5q5 11.5 9 21.5q16 33 30.5 64t31.5 63q20 35 55 29q14 -2 27.5 -9t19.5 -24q16 -35 24.5 -71.5t18.5 -75.5q4 -14 -4 -19.5t-21 -5.5q-23 4 -30.5 17.5t-14.5 29.5q-6 12 -7 28.5t-15 18.5q-12 0 -16.5 -15t-12.5 -26 q-6 -10 -12 -21t-16 -22q-12 -12 -30 -13t-28 9q-14 10 -9 21.5z" />
<glyph unicode="&#xcf;" horiz-adv-x="395" d="M-18 295q-4 12 4 19.5t18 13.5q27 23 68 28q20 6 12 27q-10 35 -12 70.5t-4 72.5v287q4 176 61 342q4 12 5 19.5t-19 3.5q-10 -4 -24.5 -5.5t-18.5 15.5q-4 16 9 22.5t25 10.5q35 16 72 19t74 7q16 2 31.5 1t31.5 -1v2h80q10 0 23.5 -3t13.5 -17q0 -12 -12 -13.5 t-23 -1.5q-23 0 -45 -1t-45 -5q-10 -2 -14 -5t0 -13q16 -33 15 -65.5t-3 -65.5q-4 -80 -15 -160t-25.5 -158.5t-30 -157.5t-25.5 -159q0 -6 -1 -12t-3 -15q-2 -20 20 -20h47q25 0 47 -12q10 -4 7 -13q0 -4 -9 -12q-10 -4 -18 -4h-18q-63 0 -124 -9.5t-118 -37.5q-4 -2 -7 -3 t-7 -3q-12 0 -24.5 -2t-18.5 14zM135 1425q0 39 35 39q33 0 37 -39q8 27 7 25t-6 -15.5t-13.5 -29t-16.5 -15.5q-18 -2 -30.5 8.5t-12.5 26.5zM295 1425q0 12 10 21.5t25 7.5q14 0 24 -9.5t10 -23.5q-6 -31 -32 -33q-14 0 -25.5 11.5t-11.5 25.5z" />
<glyph unicode="&#xd0;" horiz-adv-x="550" d="M-19 959.5q1 9.5 5 19.5q29 53 77 78q27 14 41.5 33.5t24.5 44.5q6 20 18 39q16 31 50 24q31 -6 36 -39q2 -8 2.5 -14t2.5 -12q2 -29 32 -29q57 0 117 -27q78 -35 115 -101.5t24 -152.5q-8 -53 -25.5 -101t-39.5 -95q-94 -176 -213 -348q-10 -14 -21.5 -26.5t-23.5 -27.5 q-6 -8 -12.5 -16t-10.5 -19q-10 -29 -23.5 -37t-41.5 -3q-49 2 -52 61q-8 166 -6 338q-2 72 -1 144.5t7 148.5q2 31 5.5 60.5t7.5 60.5q4 10 0 14q-8 6 -19 -4q-6 -8 -12 -14.5t-12 -14.5q-18 -23 -43 -2q-10 8 -9 17.5zM-18 637q-4 16 13 18t30 7q53 14 106.5 22t108.5 12 q12 -4 29.5 -1t17.5 -15q0 -16 -16.5 -15t-28.5 -3q-47 -8 -96.5 -16.5t-96.5 -16.5q-12 -4 -16 -4q-14 -2 -30.5 -3t-20.5 15zM191.5 341q-1.5 -7 7.5 -11q8 -2 11 5t7 11q39 63 74 127t63 131q25 57 42.5 116.5t19.5 125.5q0 66 -27 115t-86 77q-37 18 -48 12t-9 -46 q4 -86 -3 -168t-18 -166q-10 -80 -16 -159t-14 -159q-2 -4 -3.5 -11z" />
<glyph unicode="&#xd1;" horiz-adv-x="536" d="M-18.5 665.5q-4.5 118.5 2.5 241.5q4 55 12 110.5t24 108.5q16 55 70 62q49 4 68.5 -13.5t23.5 -66.5q4 -47 3 -95t-7 -95q-2 -8 -5 -18.5t7 -14.5q8 -2 11.5 7t7.5 15q27 45 51 88t51 88q6 12 15.5 23.5t15.5 26.5q18 33 47 41t63 4q47 -6 62 -52q6 -16 8 -34.5t2 -36.5 q2 -90 -1 -178.5t-15 -176.5q-8 -63 -11.5 -126.5t-7.5 -127.5q-4 -76 -7 -149.5t-3 -146.5q0 -14 -2 -26.5t-18 -19.5q-16 -6 -38 -2t-32 17q-10 10 -16.5 23.5t-10.5 27.5q-8 31 -11 62.5t-5 62.5q-8 129 -11 258t-3 258q-2 39 3 77t9 77q2 10 -2 30q4 2 7 3t-3 6 q-2 0 -3 -3.5t1 -5.5q-14 -4 -19.5 -14t-9.5 -20q-47 -80 -87 -164t-68 -172q-16 -49 -21.5 -99.5t-17.5 -99.5q-6 -27 -12.5 -53.5t-12.5 -55.5q-4 -16 -11 -26t-26 -8q-29 0 -35 32q-14 51 -18 109q-10 123 -14.5 241.5zM148 1442.5q3 19.5 12.5 37t23 30.5t29.5 13 q29 0 45 -30q10 -16 19 -35t20 -35q12 -27 32 0q10 12 18.5 25.5t18.5 25.5q4 8 9 15.5t16 11.5q14 0 20 -2q8 -4 6 -9t-6 -10q-20 -41 -43 -71q-23 -31 -51.5 -32t-54.5 28q-14 14 -21.5 30.5t-17.5 32.5q-4 14 -15 10q-8 -4 -8 -12q-4 -12 -5 -25.5t-3 -25.5 q-4 -16 -18 -16q-10 -2 -23 10q-6 14 -3 33.5z" />
<glyph unicode="&#xd2;" horiz-adv-x="514" d="M-16 555q-10 147 16.5 285.5t85.5 271.5q16 35 33.5 66.5t44.5 60.5q37 43 88 41q45 -2 33 -45q0 -4 -2 -8t-2 -8q-2 -10 -8.5 -22.5t1.5 -20.5q10 -10 20.5 -1t20.5 13q70 16 113 -51q57 -94 64 -211q2 -23 1 -43t-1 -43q-4 -98 -15.5 -192.5t-38.5 -188.5 q-12 -41 -29.5 -80t-43.5 -74q-29 -39 -72 -58.5t-89 -18.5t-89 26t-70 72q-31 53 -44 111.5t-17 117.5zM159 495.5q-1 -26.5 3 -53.5q4 -72 39 -131q16 -31 41 -6q23 18 38 41t29 49q25 47 41.5 99.5t26.5 105.5q20 88 32.5 176t6.5 180q-6 98 -54 179q-14 20 -23 21 t-28 -15q-6 -6 -11 -14.5t-11 -8.5q-35 -4 -41 -26.5t-12 -44.5l-8.5 -34l-8.5 -34q-25 -106 -44 -212.5t-15 -217.5q0 -27 -1 -53.5zM238 1454q-4 6 2 12q4 4 8 5.5t8 3.5q10 -2 20.5 -4.5t16.5 -8.5q23 -18 45.5 -36.5t44.5 -36.5q12 -8 9 -19q-6 -8 -19 -8q-12 0 -28 8 q-53 33 -99 74q-4 4 -8 10z" />
<glyph unicode="&#xd3;" horiz-adv-x="542" d="M-16 555q-10 147 16.5 285.5t85.5 271.5q16 35 33.5 66.5t44.5 60.5q37 43 88 41q45 -2 33 -45q0 -4 -2 -8t-2 -8q-2 -10 -8.5 -22.5t1.5 -20.5q10 -10 20.5 -1t20.5 13q70 16 113 -51q57 -94 64 -211q2 -23 1 -43t-1 -43q-4 -98 -15.5 -192.5t-38.5 -188.5 q-12 -41 -29.5 -80t-43.5 -74q-29 -39 -72 -58.5t-89 -18.5t-89 26t-70 72q-31 53 -44 111.5t-17 117.5zM159 495.5q-1 -26.5 3 -53.5q4 -72 39 -131q16 -31 41 -6q23 18 38 41t29 49q25 47 41.5 99.5t26.5 105.5q20 88 32.5 176t6.5 180q-6 98 -54 179q-14 20 -23 21 t-28 -15q-6 -6 -11 -14.5t-11 -8.5q-35 -4 -41 -26.5t-12 -44.5l-8.5 -34l-8.5 -34q-25 -106 -44 -212.5t-15 -217.5q0 -27 -1 -53.5zM203 1401q6 18 14 35q16 25 34 47t38 45q6 6 12 11t17 5q10 2 17 2t11 -8t-1 -13t-9 -10q-25 -29 -47.5 -57.5t-40.5 -58.5 q-11 -21 -29 -21q-23 6 -16 23z" />
<glyph unicode="&#xd4;" horiz-adv-x="514" d="M-16 555q-10 147 16.5 285.5t85.5 271.5q16 35 33.5 66.5t44.5 60.5q37 43 88 41q45 -2 33 -45q0 -4 -2 -8t-2 -8q-2 -10 -8.5 -22.5t1.5 -20.5q10 -10 20.5 -1t20.5 13q70 16 113 -51q57 -94 64 -211q2 -23 1 -43t-1 -43q-4 -98 -15.5 -192.5t-38.5 -188.5 q-12 -41 -29.5 -80t-43.5 -74q-29 -39 -72 -58.5t-89 -18.5t-89 26t-70 72q-31 53 -44 111.5t-17 117.5zM151 1428.5q5 11.5 9 21.5q16 33 30.5 64t31.5 63q20 35 55 29q14 -2 27.5 -9t19.5 -24q16 -35 24.5 -71.5t18.5 -75.5q4 -14 -4 -19.5t-21 -5.5q-23 4 -30.5 17.5 t-14.5 29.5q-6 12 -7 28.5t-15 18.5q-12 0 -16.5 -15t-12.5 -26q-6 -10 -12 -21t-16 -22q-12 -12 -30 -13t-28 9q-14 10 -9 21.5zM159 495.5q-1 -26.5 3 -53.5q4 -72 39 -131q16 -31 41 -6q23 18 38 41t29 49q25 47 41.5 99.5t26.5 105.5q20 88 32.5 176t6.5 180 q-6 98 -54 179q-14 20 -23 21t-28 -15q-6 -6 -11 -14.5t-11 -8.5q-35 -4 -41 -26.5t-12 -44.5l-8.5 -34l-8.5 -34q-25 -106 -44 -212.5t-15 -217.5q0 -27 -1 -53.5z" />
<glyph unicode="&#xd5;" horiz-adv-x="514" d="M-16 555q-10 147 16.5 285.5t85.5 271.5q16 35 33.5 66.5t44.5 60.5q37 43 88 41q45 -2 33 -45q0 -4 -2 -8t-2 -8q-2 -10 -8.5 -22.5t1.5 -20.5q10 -10 20.5 -1t20.5 13q70 16 113 -51q57 -94 64 -211q2 -23 1 -43t-1 -43q-4 -98 -15.5 -192.5t-38.5 -188.5 q-12 -41 -29.5 -80t-43.5 -74q-29 -39 -72 -58.5t-89 -18.5t-89 26t-70 72q-31 53 -44 111.5t-17 117.5zM128 1627.5q3 19.5 12.5 37t23 30.5t29.5 13q29 0 45 -30q10 -16 19 -35t20 -35q12 -27 32 0q10 12 18.5 25.5t18.5 25.5q4 8 9 15.5t16 11.5q14 0 20 -2q8 -4 6 -9 t-6 -10q-20 -41 -43 -71q-23 -31 -51.5 -32t-54.5 28q-14 14 -21.5 30.5t-17.5 32.5q-4 14 -15 10q-8 -4 -8 -12q-4 -12 -5 -25.5t-3 -25.5q-4 -16 -18 -16q-10 -2 -23 10q-6 14 -3 33.5zM159 495.5q-1 -26.5 3 -53.5q4 -72 39 -131q16 -31 41 -6q23 18 38 41t29 49 q25 47 41.5 99.5t26.5 105.5q20 88 32.5 176t6.5 180q-6 98 -54 179q-14 20 -23 21t-28 -15q-6 -6 -11 -14.5t-11 -8.5q-35 -4 -41 -26.5t-12 -44.5l-8.5 -34l-8.5 -34q-25 -106 -44 -212.5t-15 -217.5q0 -27 -1 -53.5z" />
<glyph unicode="&#xd6;" horiz-adv-x="514" d="M-16 555q-10 147 16.5 285.5t85.5 271.5q16 35 33.5 66.5t44.5 60.5q37 43 88 41q45 -2 33 -45q0 -4 -2 -8t-2 -8q-2 -10 -8.5 -22.5t1.5 -20.5q10 -10 20.5 -1t20.5 13q70 16 113 -51q57 -94 64 -211q2 -23 1 -43t-1 -43q-4 -98 -15.5 -192.5t-38.5 -188.5 q-12 -41 -29.5 -80t-43.5 -74q-29 -39 -72 -58.5t-89 -18.5t-89 26t-70 72q-31 53 -44 111.5t-17 117.5zM141 1460q0 39 35 39q33 0 37 -39q8 27 7 25t-6 -15.5t-13.5 -29t-16.5 -15.5q-18 -2 -30.5 8.5t-12.5 26.5zM159 495.5q-1 -26.5 3 -53.5q4 -72 39 -131q16 -31 41 -6 q23 18 38 41t29 49q25 47 41.5 99.5t26.5 105.5q20 88 32.5 176t6.5 180q-6 98 -54 179q-14 20 -23 21t-28 -15q-6 -6 -11 -14.5t-11 -8.5q-35 -4 -41 -26.5t-12 -44.5l-8.5 -34l-8.5 -34q-25 -106 -44 -212.5t-15 -217.5q0 -27 -1 -53.5zM301 1460q0 12 10 21.5t25 7.5 q14 0 24 -9.5t10 -23.5q-6 -31 -32 -33q-14 0 -25.5 11.5t-11.5 25.5z" />
<glyph unicode="&#xd8;" horiz-adv-x="514" d="M-16 555q-10 147 16.5 285.5t85.5 271.5q16 35 33.5 66.5t44.5 60.5q37 43 88 41q45 -2 33 -45q0 -4 -2 -8t-2 -8q-2 -10 -8.5 -22.5t1.5 -20.5q10 -10 20.5 -1t20.5 13q70 16 113 -51q57 -94 64 -211q2 -23 1 -43t-1 -43q-4 -98 -15.5 -192.5t-38.5 -188.5 q-12 -41 -29.5 -80t-43.5 -74q-29 -39 -72 -58.5t-89 -18.5t-89 26t-70 72q-31 53 -44 111.5t-17 117.5zM159 495.5q-1 -26.5 3 -53.5q4 -72 39 -131q16 -31 41 -6q23 18 38 41t29 49q25 47 41.5 99.5t26.5 105.5q20 88 32.5 176t6.5 180q-6 98 -54 179q-14 20 -23 21 t-28 -15q-6 -6 -11 -14.5t-11 -8.5q-35 -4 -41 -26.5t-12 -44.5l-8.5 -34l-8.5 -34q-25 -106 -44 -212.5t-15 -217.5q0 -27 -1 -53.5zM172 104q0 22 3 42q27 290 69.5 575t112.5 571q7 17 8.5 31t8.5 28q21 46 67 36q23 -7 25 -23t-2 -37l-46 -230t-44 -229 q-39 -196 -67 -391.5t-45 -393.5v-31.5t-21 -17.5q-42 -10 -59 27q-10 21 -10 43z" />
<glyph unicode="&#xd9;" horiz-adv-x="638" d="M-17 399.5q-3 75.5 1 153.5q8 129 30.5 256t63.5 250q12 39 28.5 77t38.5 72q35 55 105 45q55 -8 45 -61q-12 -66 -25.5 -132.5t-27.5 -133.5q-31 -152 -55.5 -302.5t-34.5 -304.5q-2 -27 -1 -51t1 -51q0 -10 8 -10q6 0 6 6q8 14 15 27.5t14 29.5q31 76 55 152t49 153 q35 115 74 225.5t84 221.5q6 16 13 31.5t15 31.5q14 29 26.5 35t45.5 4q25 -4 36 -14t19 -39q10 -45 4 -88l-12 -86q-16 -121 -37.5 -238.5t-36.5 -238.5q-16 -121 -18 -238q-2 -10 -1 -18t-1 -19q-4 -31 -12.5 -41t-32.5 -12q-61 -4 -68 51q-4 41 -4 85.5t2 97.5 q4 80 7.5 170t13.5 184v14q0 2 -4 11q-6 -6 -6 -9q-4 -12 -9.5 -24.5t-9.5 -24.5q-29 -96 -56.5 -191.5t-62.5 -189.5q-23 -59 -49 -116q-12 -27 -37.5 -39.5t-53.5 -12.5t-52.5 13.5t-36.5 35.5q-25 49 -37 101q-16 76 -19 151.5zM352 1448q-4 6 2 12q4 4 8 5.5t8 3.5 q10 -2 20.5 -4.5t16.5 -8.5q23 -18 45.5 -36.5t44.5 -36.5q12 -8 9 -19q-6 -8 -19 -8q-12 0 -28 8q-53 33 -99 74q-4 4 -8 10z" />
<glyph unicode="&#xda;" horiz-adv-x="638" d="M-17 399.5q-3 75.5 1 153.5q8 129 30.5 256t63.5 250q12 39 28.5 77t38.5 72q35 55 105 45q55 -8 45 -61q-12 -66 -25.5 -132.5t-27.5 -133.5q-31 -152 -55.5 -302.5t-34.5 -304.5q-2 -27 -1 -51t1 -51q0 -10 8 -10q6 0 6 6q8 14 15 27.5t14 29.5q31 76 55 152t49 153 q35 115 74 225.5t84 221.5q6 16 13 31.5t15 31.5q14 29 26.5 35t45.5 4q25 -4 36 -14t19 -39q10 -45 4 -88l-12 -86q-16 -121 -37.5 -238.5t-36.5 -238.5q-16 -121 -18 -238q-2 -10 -1 -18t-1 -19q-4 -31 -12.5 -41t-32.5 -12q-61 -4 -68 51q-4 41 -4 85.5t2 97.5 q4 80 7.5 170t13.5 184v14q0 2 -4 11q-6 -6 -6 -9q-4 -12 -9.5 -24.5t-9.5 -24.5q-29 -96 -56.5 -191.5t-62.5 -189.5q-23 -59 -49 -116q-12 -27 -37.5 -39.5t-53.5 -12.5t-52.5 13.5t-36.5 35.5q-25 49 -37 101q-16 76 -19 151.5zM403 1360q6 18 14 35q16 25 34 47t38 45 q6 6 12 11t17 5q10 2 17 2t11 -8t-1 -13t-9 -10q-25 -29 -47.5 -57.5t-40.5 -58.5q-11 -21 -29 -21q-23 6 -16 23z" />
<glyph unicode="&#xdb;" horiz-adv-x="638" d="M-17 399.5q-3 75.5 1 153.5q8 129 30.5 256t63.5 250q12 39 28.5 77t38.5 72q35 55 105 45q55 -8 45 -61q-12 -66 -25.5 -132.5t-27.5 -133.5q-31 -152 -55.5 -302.5t-34.5 -304.5q-2 -27 -1 -51t1 -51q0 -10 8 -10q6 0 6 6q8 14 15 27.5t14 29.5q31 76 55 152t49 153 q35 115 74 225.5t84 221.5q6 16 13 31.5t15 31.5q14 29 26.5 35t45.5 4q25 -4 36 -14t19 -39q10 -45 4 -88l-12 -86q-16 -121 -37.5 -238.5t-36.5 -238.5q-16 -121 -18 -238q-2 -10 -1 -18t-1 -19q-4 -31 -12.5 -41t-32.5 -12q-61 -4 -68 51q-4 41 -4 85.5t2 97.5 q4 80 7.5 170t13.5 184v14q0 2 -4 11q-6 -6 -6 -9q-4 -12 -9.5 -24.5t-9.5 -24.5q-29 -96 -56.5 -191.5t-62.5 -189.5q-23 -59 -49 -116q-12 -27 -37.5 -39.5t-53.5 -12.5t-52.5 13.5t-36.5 35.5q-25 49 -37 101q-16 76 -19 151.5zM331 1350.5q5 11.5 9 21.5q16 33 30.5 64 t31.5 63q20 35 55 29q14 -2 27.5 -9t19.5 -24q16 -35 24.5 -71.5t18.5 -75.5q4 -14 -4 -19.5t-21 -5.5q-23 4 -30.5 17.5t-14.5 29.5q-6 12 -7 28.5t-15 18.5q-12 0 -16.5 -15t-12.5 -26q-6 -10 -12 -21t-16 -22q-12 -12 -30 -13t-28 9q-14 10 -9 21.5z" />
<glyph unicode="&#xdc;" horiz-adv-x="638" d="M-17 399.5q-3 75.5 1 153.5q8 129 30.5 256t63.5 250q12 39 28.5 77t38.5 72q35 55 105 45q55 -8 45 -61q-12 -66 -25.5 -132.5t-27.5 -133.5q-31 -152 -55.5 -302.5t-34.5 -304.5q-2 -27 -1 -51t1 -51q0 -10 8 -10q6 0 6 6q8 14 15 27.5t14 29.5q31 76 55 152t49 153 q35 115 74 225.5t84 221.5q6 16 13 31.5t15 31.5q14 29 26.5 35t45.5 4q25 -4 36 -14t19 -39q10 -45 4 -88l-12 -86q-16 -121 -37.5 -238.5t-36.5 -238.5q-16 -121 -18 -238q-2 -10 -1 -18t-1 -19q-4 -31 -12.5 -41t-32.5 -12q-61 -4 -68 51q-4 41 -4 85.5t2 97.5 q4 80 7.5 170t13.5 184v14q0 2 -4 11q-6 -6 -6 -9q-4 -12 -9.5 -24.5t-9.5 -24.5q-29 -96 -56.5 -191.5t-62.5 -189.5q-23 -59 -49 -116q-12 -27 -37.5 -39.5t-53.5 -12.5t-52.5 13.5t-36.5 35.5q-25 49 -37 101q-16 76 -19 151.5zM338 1333q0 39 35 39q33 0 37 -39 q8 27 7 25t-6 -15.5t-13.5 -29t-16.5 -15.5q-18 -2 -30.5 8.5t-12.5 26.5zM498 1333q0 12 10 21.5t25 7.5q14 0 24 -9.5t10 -23.5q-6 -31 -32 -33q-14 0 -25.5 11.5t-11.5 25.5z" />
<glyph unicode="&#xdd;" horiz-adv-x="514" d="M-18 174l9 31.5t13 34.5q27 66 53.5 132t55.5 132q23 47 6 102q-29 100 -51.5 202.5t-30.5 207.5q-4 35 -5 71.5t7 71.5q4 16 11 26.5t26 12.5q20 2 29.5 -9t15.5 -28q10 -33 16 -65.5t10 -67.5q10 -72 20.5 -140.5t20.5 -137.5q2 -6 1 -13.5t10 -9.5q8 0 9 7t5 14 q23 55 46.5 107t47.5 106q20 41 42 79.5t50 75.5q10 16 24.5 26.5t37.5 8.5q37 -4 31 -39q-4 -18 -9.5 -37.5t-11.5 -38.5q-23 -70 -53.5 -135t-63.5 -131q-70 -137 -134 -274.5t-128 -276.5q-8 -16 -15 -30.5t-18 -30.5q-18 -25 -45 -25q-34 0 -32 41zM231 1243q6 18 14 35 q16 25 34 47t38 45q6 6 12 11t17 5q10 2 17 2t11 -8t-1 -13t-9 -10q-25 -29 -47.5 -57.5t-40.5 -58.5q-11 -21 -29 -21q-23 6 -16 23z" />
<glyph unicode="&#xdf;" horiz-adv-x="481" d="M-39 399q4 180 56.5 340t144.5 308q27 43 55 77q8 10 16.5 18.5t18.5 14.5q37 23 70.5 9.5t42.5 -56.5q10 -39 5 -77t-16 -75q-33 -137 -100 -249q-18 -29 -36.5 -58.5t-39.5 -58.5q-23 -35 -16.5 -38t35.5 -13q94 -27 139 -115q16 -37 16 -75t-22 -72 q-76 -117 -195 -199q-6 -6 -22 -14q-12 -4 -25.5 -6.5t-19.5 8.5q-8 12 3 18t17 12q41 33 75 69t62 79q45 68 30 138.5t-81 111.5q-27 16 -63 22q-23 4 -26 10.5t9 28.5q45 82 90 168q37 72 60.5 147.5t38.5 153.5q4 18 7 38.5t-7 39.5q-23 -4 -32 -21.5t-20 -33.5 q-166 -260 -206 -568q-4 -31 -4.5 -61.5t-2.5 -61.5v-25.5t-2 -27.5q0 -12 -2 -25.5t-22 -13.5q-16 2 -20.5 14.5t-4.5 24.5q-2 27 -3 50.5t-3 43.5z" />
<glyph unicode="&#xe0;" d="M0 397q-53 150 37 279q23 35 74 35q14 0 27.5 1t29.5 13q23 18 41 6t20 -43v-127q-2 -51 -1 -101t12 -100q2 -8 2 -15t-11 -11q-18 -10 -34 6q-10 10 -13.5 20.5l-7.5 22.5q-4 20 -6 40.5t-6 43.5q-2 6 1 15.5t-7 9.5q-8 2 -10.5 -7.5t-6.5 -17.5q-14 -45 -32 -78 q-23 -33 -58 -31q-39 2 -51 39zM57 437.5q-2 -7.5 9 -7.5q8 0 12 14q10 35 21.5 71t21.5 71q2 12 1 24.5t-3 22.5q0 4 -3 10t-7 6q-8 4 -11.5 -2t-5.5 -12q-16 -41 -23.5 -82t-11.5 -82v-20q2 -6 0 -13.5zM59 936q-4 6 2 12q4 4 8 5.5t8 3.5q10 -2 20.5 -4.5t16.5 -8.5 q23 -18 45.5 -36.5t44.5 -36.5q12 -8 9 -19q-6 -8 -19 -8q-12 0 -28 8q-53 33 -99 74q-4 4 -8 10z" />
<glyph unicode="&#xe1;" d="M0 397q-53 150 37 279q23 35 74 35q14 0 27.5 1t29.5 13q23 18 41 6t20 -43v-127q-2 -51 -1 -101t12 -100q2 -8 2 -15t-11 -11q-18 -10 -34 6q-10 10 -13.5 20.5l-7.5 22.5q-4 20 -6 40.5t-6 43.5q-2 6 1 15.5t-7 9.5q-8 2 -10.5 -7.5t-6.5 -17.5q-14 -45 -32 -78 q-23 -33 -58 -31q-39 2 -51 39zM57 437.5q-2 -7.5 9 -7.5q8 0 12 14q10 35 21.5 71t21.5 71q2 12 1 24.5t-3 22.5q0 4 -3 10t-7 6q-8 4 -11.5 -2t-5.5 -12q-16 -41 -23.5 -82t-11.5 -82v-20q2 -6 0 -13.5zM63 860q6 18 14 35q16 25 34 47t38 45q6 6 12 11t17 5q10 2 17 2 t11 -8t-1 -13t-9 -10q-25 -29 -47.5 -57.5t-40.5 -58.5q-11 -21 -29 -21q-23 6 -16 23z" />
<glyph unicode="&#xe2;" d="M0 397q-53 150 37 279q23 35 74 35q14 0 27.5 1t29.5 13q23 18 41 6t20 -43v-127q-2 -51 -1 -101t12 -100q2 -8 2 -15t-11 -11q-18 -10 -34 6q-10 10 -13.5 20.5l-7.5 22.5q-4 20 -6 40.5t-6 43.5q-2 6 1 15.5t-7 9.5q-8 2 -10.5 -7.5t-6.5 -17.5q-14 -45 -32 -78 q-23 -33 -58 -31q-39 2 -51 39zM40 889.5q5 11.5 9 21.5q16 33 30.5 64t31.5 63q20 35 55 29q14 -2 27.5 -9t19.5 -24q16 -35 24.5 -71.5t18.5 -75.5q4 -14 -4 -19.5t-21 -5.5q-23 4 -30.5 17.5t-14.5 29.5q-6 12 -7 28.5t-15 18.5q-12 0 -16.5 -15t-12.5 -26 q-6 -10 -12 -21t-16 -22q-12 -12 -30 -13t-28 9q-14 10 -9 21.5zM57 437.5q-2 -7.5 9 -7.5q8 0 12 14q10 35 21.5 71t21.5 71q2 12 1 24.5t-3 22.5q0 4 -3 10t-7 6q-8 4 -11.5 -2t-5.5 -12q-16 -41 -23.5 -82t-11.5 -82v-20q2 -6 0 -13.5z" />
<glyph unicode="&#xe3;" d="M0 397q-53 150 37 279q23 35 74 35q14 0 27.5 1t29.5 13q23 18 41 6t20 -43v-127q-2 -51 -1 -101t12 -100q2 -8 2 -15t-11 -11q-18 -10 -34 6q-10 10 -13.5 20.5l-7.5 22.5q-4 20 -6 40.5t-6 43.5q-2 6 1 15.5t-7 9.5q-8 2 -10.5 -7.5t-6.5 -17.5q-14 -45 -32 -78 q-23 -33 -58 -31q-39 2 -51 39zM13 941.5q3 19.5 12.5 37t23 30.5t29.5 13q29 0 45 -30q10 -16 19 -35t20 -35q12 -27 32 0q10 12 18.5 25.5t18.5 25.5q4 8 9 15.5t16 11.5q14 0 20 -2q8 -4 6 -9t-6 -10q-20 -41 -43 -71q-23 -31 -51.5 -32t-54.5 28q-14 14 -21.5 30.5 t-17.5 32.5q-4 14 -15 10q-8 -4 -8 -12q-4 -12 -5 -25.5t-3 -25.5q-4 -16 -18 -16q-10 -2 -23 10q-6 14 -3 33.5zM57 437.5q-2 -7.5 9 -7.5q8 0 12 14q10 35 21.5 71t21.5 71q2 12 1 24.5t-3 22.5q0 4 -3 10t-7 6q-8 4 -11.5 -2t-5.5 -12q-16 -41 -23.5 -82t-11.5 -82v-20 q2 -6 0 -13.5z" />
<glyph unicode="&#xe4;" d="M0 397q-53 150 37 279q23 35 74 35q14 0 27.5 1t29.5 13q23 18 41 6t20 -43v-127q-2 -51 -1 -101t12 -100q2 -8 2 -15t-11 -11q-18 -10 -34 6q-10 10 -13.5 20.5l-7.5 22.5q-4 20 -6 40.5t-6 43.5q-2 6 1 15.5t-7 9.5q-8 2 -10.5 -7.5t-6.5 -17.5q-14 -45 -32 -78 q-23 -33 -58 -31q-39 2 -51 39zM25 934q0 39 35 39q33 0 37 -39q8 27 7 25t-6 -15.5t-13.5 -29t-16.5 -15.5q-18 -2 -30.5 8.5t-12.5 26.5zM57 437.5q-2 -7.5 9 -7.5q8 0 12 14q10 35 21.5 71t21.5 71q2 12 1 24.5t-3 22.5q0 4 -3 10t-7 6q-8 4 -11.5 -2t-5.5 -12 q-16 -41 -23.5 -82t-11.5 -82v-20q2 -6 0 -13.5zM185 934q0 12 10 21.5t25 7.5q14 0 24 -9.5t10 -23.5q-6 -31 -32 -33q-14 0 -25.5 11.5t-11.5 25.5z" />
<glyph unicode="&#xe5;" d="M0 397q-53 150 37 279q23 35 74 35q14 0 27.5 1t29.5 13q23 18 41 6t20 -43v-127q-2 -51 -1 -101t12 -100q2 -8 2 -15t-11 -11q-18 -10 -34 6q-10 10 -13.5 20.5l-7.5 22.5q-4 20 -6 40.5t-6 43.5q-2 6 1 15.5t-7 9.5q-8 2 -10.5 -7.5t-6.5 -17.5q-14 -45 -32 -78 q-23 -33 -58 -31q-39 2 -51 39zM55 897q0 41 26.5 69t67.5 30q35 0 56.5 -19.5t21.5 -48.5q0 -47 -28.5 -78.5t-69.5 -31.5q-35 2 -55.5 23.5t-18.5 55.5zM57 437.5q-2 -7.5 9 -7.5q8 0 12 14q10 35 21.5 71t21.5 71q2 12 1 24.5t-3 22.5q0 4 -3 10t-7 6q-8 4 -11.5 -2 t-5.5 -12q-16 -41 -23.5 -82t-11.5 -82v-20q2 -6 0 -13.5zM106 881q4 -10 8 -19.5t15 -13.5q12 -4 20 3.5t15 15.5q8 10 12 23.5t2 31.5q-2 8 -3 18.5t-18 14.5q-12 2 -24 -3t-17 -20q-6 -12 -10 -24.5t0 -26.5z" />
<glyph unicode="&#xe6;" horiz-adv-x="542" d="M0 397q-53 150 37 279q23 35 74 35q14 0 27.5 1t29.5 13q23 18 41 6t20 -43v-127q-2 -51 -1 -101t12 -100q2 -8 2 -15t-11 -11q-18 -10 -34 6q-10 10 -13.5 20.5l-7.5 22.5q-4 20 -6 40.5t-6 43.5q-2 6 1 15.5t-7 9.5q-8 2 -10.5 -7.5t-6.5 -17.5q-14 -45 -32 -78 q-23 -33 -58 -31q-39 2 -51 39zM57 437.5q-2 -7.5 9 -7.5q8 0 12 14q10 35 21.5 71t21.5 71q2 12 1 24.5t-3 22.5q0 4 -3 10t-7 6q-8 4 -11.5 -2t-5.5 -12q-16 -41 -23.5 -82t-11.5 -82v-20q2 -6 0 -13.5zM186 472.5q-1 20.5 1 43.5q-2 100 57 197q14 20 30.5 36.5 t41.5 24.5q35 16 65 -8q16 -10 18.5 -27.5t-4.5 -34.5q-12 -47 -37.5 -87t-66.5 -66q-23 -14 -31 -29.5t-6 -38.5q2 -20 3 -42.5t18 -31.5q20 -10 34.5 7.5t28.5 29.5q41 41 82 80t82 80q10 8 19.5 17.5t23.5 9.5q10 4 20 -6q6 -4 -2 -19q-6 -4 -14 -16q-45 -47 -89 -93.5 t-89 -93.5q-25 -27 -57 -39q-45 -16 -78 2.5t-45 65.5q-4 18 -5 38.5zM281 633q-4 -8 2 -9q2 -4 8 3q16 20 28.5 40.5t18.5 45.5q0 4 -1 6t-1 4q-4 -2 -7 -2t-5 -2q-16 -20 -25.5 -42t-17.5 -44z" />
<glyph unicode="&#xe7;" horiz-adv-x="466" d="M-20 459q0 143 65 270q39 74 102 121q59 41 136 29q12 -2 22 -7.5t10 -21.5q0 -27 -26 -31q-29 -4 -44.5 -21.5t-31.5 -39.5q-115 -168 -133 -369q-4 -63 16 -115q16 -47 56 -16q23 18 45 45q51 55 96 115.5t92 120.5q12 16 24.5 30.5t26.5 30.5q14 18 29 21q12 4 20 -5 q8 -8 -2 -18q-66 -86 -126 -172t-132 -166q-12 -12 -24.5 -23.5t-28.5 -19.5q-41 -25 -84 -12.5t-68 53.5q-16 29 -24 60.5t-12 66.5q-2 18 -3 37t-1 37zM86 168q6 16 13.5 30.5t29.5 18.5q12 2 18.5 -6t2.5 -21l-7 -18q-16 -31 15 -49q12 -6 22.5 -14.5t20.5 -16.5 q14 -14 18 -41q-2 -4 -2 -9t-4 -9q-31 -41 -80 -58q-6 -2 -13 -1t-11 5q-4 8 1 12.5t9 8.5q8 6 15 12l14 12q16 18 16 33t-21 31q-10 8 -21 14t-24 15q-27 20 -12 51z" />
<glyph unicode="&#xe8;" d="M-19 466.5q-1 20.5 1 43.5q-2 100 57 197q14 20 30.5 36.5t41.5 24.5q35 16 65 -8q16 -10 18.5 -27.5t-4.5 -34.5q-12 -47 -37.5 -87t-66.5 -66q-23 -14 -31 -29.5t-6 -38.5q2 -20 3 -42.5t18 -31.5q20 -10 34.5 7.5t28.5 29.5q41 41 82 80t82 80q10 8 19.5 17.5 t23.5 9.5q10 4 20 -6q6 -4 -2 -19q-6 -4 -14 -16q-45 -47 -89 -93.5t-89 -93.5q-25 -27 -57 -39q-45 -16 -78 2.5t-45 65.5q-4 18 -5 38.5zM74 1018q-4 6 2 12q4 4 8 5.5t8 3.5q10 -2 20.5 -4.5t16.5 -8.5q23 -18 45.5 -36.5t44.5 -36.5q12 -8 9 -19q-6 -8 -19 -8 q-12 0 -28 8q-53 33 -99 74q-4 4 -8 10zM76 627q-4 -8 2 -9q2 -4 8 3q16 20 28.5 40.5t18.5 45.5q0 4 -1 6t-1 4q-4 -2 -7 -2t-5 -2q-16 -20 -25.5 -42t-17.5 -44z" />
<glyph unicode="&#xe9;" d="M-19 466.5q-1 20.5 1 43.5q-2 100 57 197q14 20 30.5 36.5t41.5 24.5q35 16 65 -8q16 -10 18.5 -27.5t-4.5 -34.5q-12 -47 -37.5 -87t-66.5 -66q-23 -14 -31 -29.5t-6 -38.5q2 -20 3 -42.5t18 -31.5q20 -10 34.5 7.5t28.5 29.5q41 41 82 80t82 80q10 8 19.5 17.5 t23.5 9.5q10 4 20 -6q6 -4 -2 -19q-6 -4 -14 -16q-45 -47 -89 -93.5t-89 -93.5q-25 -27 -57 -39q-45 -16 -78 2.5t-45 65.5q-4 18 -5 38.5zM76 627q-4 -8 2 -9q2 -4 8 3q16 20 28.5 40.5t18.5 45.5q0 4 -1 6t-1 4q-4 -2 -7 -2t-5 -2q-16 -20 -25.5 -42t-17.5 -44zM78 926 q6 18 14 35q16 25 34 47t38 45q6 6 12 11t17 5q10 2 17 2t11 -8t-1 -13t-9 -10q-25 -29 -47.5 -57.5t-40.5 -58.5q-11 -21 -29 -21q-23 6 -16 23z" />
<glyph unicode="&#xea;" d="M-19 466.5q-1 20.5 1 43.5q-2 100 57 197q14 20 30.5 36.5t41.5 24.5q35 16 65 -8q16 -10 18.5 -27.5t-4.5 -34.5q-12 -47 -37.5 -87t-66.5 -66q-23 -14 -31 -29.5t-6 -38.5q2 -20 3 -42.5t18 -31.5q20 -10 34.5 7.5t28.5 29.5q41 41 82 80t82 80q10 8 19.5 17.5 t23.5 9.5q10 4 20 -6q6 -4 -2 -19q-6 -4 -14 -16q-45 -47 -89 -93.5t-89 -93.5q-25 -27 -57 -39q-45 -16 -78 2.5t-45 65.5q-4 18 -5 38.5zM9 936.5q5 11.5 9 21.5q16 33 30.5 64t31.5 63q20 35 55 29q14 -2 27.5 -9t19.5 -24q16 -35 24.5 -71.5t18.5 -75.5q4 -14 -4 -19.5 t-21 -5.5q-23 4 -30.5 17.5t-14.5 29.5q-6 12 -7 28.5t-15 18.5q-12 0 -16.5 -15t-12.5 -26q-6 -10 -12 -21t-16 -22q-12 -12 -30 -13t-28 9q-14 10 -9 21.5zM76 627q-4 -8 2 -9q2 -4 8 3q16 20 28.5 40.5t18.5 45.5q0 4 -1 6t-1 4q-4 -2 -7 -2t-5 -2q-16 -20 -25.5 -42 t-17.5 -44z" />
<glyph unicode="&#xeb;" d="M-19 466.5q-1 20.5 1 43.5q-2 100 57 197q14 20 30.5 36.5t41.5 24.5q35 16 65 -8q16 -10 18.5 -27.5t-4.5 -34.5q-12 -47 -37.5 -87t-66.5 -66q-23 -14 -31 -29.5t-6 -38.5q2 -20 3 -42.5t18 -31.5q20 -10 34.5 7.5t28.5 29.5q41 41 82 80t82 80q10 8 19.5 17.5 t23.5 9.5q10 4 20 -6q6 -4 -2 -19q-6 -4 -14 -16q-45 -47 -89 -93.5t-89 -93.5q-25 -27 -57 -39q-45 -16 -78 2.5t-45 65.5q-4 18 -5 38.5zM21 948q0 39 35 39q33 0 37 -39q8 27 7 25t-6 -15.5t-13.5 -29t-16.5 -15.5q-18 -2 -30.5 8.5t-12.5 26.5zM76 627q-4 -8 2 -9 q2 -4 8 3q16 20 28.5 40.5t18.5 45.5q0 4 -1 6t-1 4q-4 -2 -7 -2t-5 -2q-16 -20 -25.5 -42t-17.5 -44zM181 948q0 12 10 21.5t25 7.5q14 0 24 -9.5t10 -23.5q-6 -31 -32 -33q-14 0 -25.5 11.5t-11.5 25.5z" />
<glyph unicode="&#xec;" horiz-adv-x="167" d="M-16 518q2 41 3 81t11 77q8 27 19.5 36t33.5 7q18 -4 25.5 -11.5t3.5 -27.5q-4 -25 -7 -49.5t-7 -48.5q-4 -59 -7.5 -116.5t15.5 -115.5q8 -27 -23 -26q-25 0 -42 16t-21 47q-12 70 -4 131zM-12 983q-4 6 2 12q4 4 8 5.5t8 3.5q10 -2 20.5 -4.5t16.5 -8.5 q23 -18 45.5 -36.5t44.5 -36.5q12 -8 8 -19q-6 -8 -18 -8t-29 8q-53 33 -98 74q-4 4 -8 10z" />
<glyph unicode="&#xed;" horiz-adv-x="167" d="M-16 518q2 41 3 81t11 77q8 27 19.5 36t33.5 7q18 -4 25.5 -11.5t3.5 -27.5q-4 -25 -7 -49.5t-7 -48.5q-4 -59 -7.5 -116.5t15.5 -115.5q8 -27 -23 -26q-25 0 -42 16t-21 47q-12 70 -4 131zM12 885q6 18 15 35q16 25 33.5 47t37.5 45q6 6 12.5 11t16.5 5q10 2 17.5 2 t11.5 -8t-1 -13l-10 -10q-25 -29 -47 -57.5t-41 -58.5q-10 -21 -28 -21q-23 6 -17 23z" />
<glyph unicode="&#xee;" horiz-adv-x="167" d="M-62 916.5q5 11.5 9 21.5q16 33 30.5 63.5t30.5 63.5q20 35 55 29q14 -2 27.5 -9.5t20.5 -23.5q16 -35 24 -72t19 -76q4 -14 -4.5 -19t-20.5 -5q-23 4 -31 17.5t-14 29.5q-6 12 -7 28.5t-16 18.5q-12 0 -16 -15.5t-12 -25.5q-6 -10 -12.5 -21.5t-16.5 -21.5 q-12 -12 -29.5 -13t-27.5 9q-14 10 -9 21.5zM-16 518q2 41 3 81t11 77q8 27 19.5 36t33.5 7q18 -4 25.5 -11.5t3.5 -27.5q-4 -25 -7 -49.5t-7 -48.5q-4 -59 -7.5 -116.5t15.5 -115.5q8 -27 -23 -26q-25 0 -42 16t-21 47q-12 70 -4 131z" />
<glyph unicode="&#xef;" horiz-adv-x="167" d="M-45 918q0 39 35 38q33 1 37 -38q8 27 7 24.5t-6 -16t-13.5 -28.5t-16.5 -15q-18 -2 -30.5 8t-12.5 27zM-16 518q2 41 3 81t11 77q8 27 19.5 36t33.5 7q18 -4 25.5 -11.5t3.5 -27.5q-4 -25 -7 -49.5t-7 -48.5q-4 -59 -7.5 -116.5t15.5 -115.5q8 -27 -23 -26q-25 0 -42 16 t-21 47q-12 70 -4 131zM115 918q0 12 10 21t25 7q14 0 24 -9.5t10 -23.5q-6 -31 -32 -32q-14 0 -25.5 11t-11.5 26z" />
<glyph unicode="&#xf1;" horiz-adv-x="559" d="M-18 379q-4 76 4 149.5t24 145.5q6 29 13.5 55.5t13.5 52.5q4 10 6 18.5t6 16.5q14 31 47 25q37 -6 33 -41q-4 -45 -10 -88t-13 -86l-4 -40l-4 -40q-2 -2 -2 -4t-2 -4l4 -2q6 6 -2 12q20 -2 23.5 11t7.5 24q41 84 87 163.5t99 157.5q16 23 31.5 43.5t32.5 40.5 q18 20 35 33q35 23 67.5 6.5t36.5 -57.5q4 -53 -6 -101.5t-23 -97.5q-31 -129 -57.5 -257t-46.5 -257q-6 -29 -10 -58.5t2 -58.5q4 -12 -4.5 -17t-18.5 -1q-35 6 -41 43q-4 23 -3 43t3 41q10 100 26.5 197.5t33.5 195.5q10 66 22.5 128.5t24.5 127.5v13.5t-2 7.5 q-6 2 -10.5 -3.5t-8.5 -9.5q-41 -59 -76.5 -121.5t-68.5 -126.5q-29 -59 -55.5 -118.5t-53.5 -118.5q-8 -16 -14 -33.5t-16 -34.5q-16 -33 -31.5 -41t-46.5 -2q-29 6 -39 19.5t-14 48.5zM150 1217.5q3 19.5 12.5 37t23 30.5t29.5 13q29 0 45 -30q10 -16 19 -35t20 -35 q12 -27 32 0q10 12 18.5 25.5t18.5 25.5q4 8 9 15.5t16 11.5q14 0 20 -2q8 -4 6 -9t-6 -10q-20 -41 -43 -71q-23 -31 -51.5 -32t-54.5 28q-14 14 -21.5 30.5t-17.5 32.5q-4 14 -15 10q-8 -4 -8 -12q-4 -12 -5 -25.5t-3 -25.5q-4 -16 -18 -16q-10 -2 -23 10q-6 14 -3 33.5z " />
<glyph unicode="&#xf2;" horiz-adv-x="239" d="M-20 504q2 55 10 106.5t30 98.5q10 18 23.5 34.5t40.5 12.5q29 -4 57.5 -11.5t38.5 -46.5q10 -35 16.5 -70.5t-3.5 -74.5q-10 -43 -24.5 -84t-41.5 -76q-16 -23 -34.5 -33t-47.5 -6q-29 6 -41 25.5t-16 44.5q-4 20 -5 41t-3 39zM39 987q-4 6 2 12q4 4 8 5.5t8 3.5 q10 -2 20.5 -4.5t16.5 -8.5q23 -18 45.5 -36.5t44.5 -36.5q12 -8 9 -19q-6 -8 -19 -8q-12 0 -28 8q-53 33 -99 74q-4 4 -8 10zM57 446.5q0 -12.5 2 -24.5q0 -4 1 -10t8 -6q6 0 12 10q43 63 57.5 131.5t-8.5 144.5q-2 4 -3 10.5t-7 4.5q-10 0 -15 -15q-18 -53 -31.5 -108.5 t-15.5 -114.5v-22.5z" />
<glyph unicode="&#xf3;" horiz-adv-x="239" d="M-20 504q2 55 10 106.5t30 98.5q10 18 23.5 34.5t40.5 12.5q29 -4 57.5 -11.5t38.5 -46.5q10 -35 16.5 -70.5t-3.5 -74.5q-10 -43 -24.5 -84t-41.5 -76q-16 -23 -34.5 -33t-47.5 -6q-29 6 -41 25.5t-16 44.5q-4 20 -5 41t-3 39zM57 446.5q0 -12.5 2 -24.5q0 -4 1 -10 t8 -6q6 0 12 10q43 63 57.5 131.5t-8.5 144.5q-2 4 -3 10.5t-7 4.5q-10 0 -15 -15q-18 -53 -31.5 -108.5t-15.5 -114.5v-22.5zM68 895q6 18 14 35q16 25 34 47t38 45q6 6 12 11t17 5q10 2 17 2t11 -8t-1 -13t-9 -10q-25 -29 -47.5 -57.5t-40.5 -58.5q-11 -21 -29 -21 q-23 6 -16 23z" />
<glyph unicode="&#xf4;" horiz-adv-x="239" d="M-20 504q2 55 10 106.5t30 98.5q10 18 23.5 34.5t40.5 12.5q29 -4 57.5 -11.5t38.5 -46.5q10 -35 16.5 -70.5t-3.5 -74.5q-10 -43 -24.5 -84t-41.5 -76q-16 -23 -34.5 -33t-47.5 -6q-29 6 -41 25.5t-16 44.5q-4 20 -5 41t-3 39zM5 926.5q5 11.5 9 21.5q16 33 30.5 64 t31.5 63q20 35 55 29q14 -2 27.5 -9t19.5 -24q16 -35 24.5 -71.5t18.5 -75.5q4 -14 -4 -19.5t-21 -5.5q-23 4 -30.5 17.5t-14.5 29.5q-6 12 -7 28.5t-15 18.5q-12 0 -16.5 -15t-12.5 -26q-6 -10 -12 -21t-16 -22q-12 -12 -30 -13t-28 9q-14 10 -9 21.5zM57 446.5 q0 -12.5 2 -24.5q0 -4 1 -10t8 -6q6 0 12 10q43 63 57.5 131.5t-8.5 144.5q-2 4 -3 10.5t-7 4.5q-10 0 -15 -15q-18 -53 -31.5 -108.5t-15.5 -114.5v-22.5z" />
<glyph unicode="&#xf5;" horiz-adv-x="239" d="M-24 934.5q3 19.5 12.5 37t23 30.5t29.5 13q29 0 45 -30q10 -16 19 -35t20 -35q12 -27 32 0q10 12 18.5 25.5t18.5 25.5q4 8 9 15.5t16 11.5q14 0 20 -2q8 -4 6 -9t-6 -10q-20 -41 -43 -71q-23 -31 -51.5 -32t-54.5 28q-14 14 -21.5 30.5t-17.5 32.5q-4 14 -15 10 q-8 -4 -8 -12q-4 -12 -5 -25.5t-3 -25.5q-4 -16 -18 -16q-10 -2 -23 10q-6 14 -3 33.5zM-20 504q2 55 10 106.5t30 98.5q10 18 23.5 34.5t40.5 12.5q29 -4 57.5 -11.5t38.5 -46.5q10 -35 16.5 -70.5t-3.5 -74.5q-10 -43 -24.5 -84t-41.5 -76q-16 -23 -34.5 -33t-47.5 -6 q-29 6 -41 25.5t-16 44.5q-4 20 -5 41t-3 39zM57 446.5q0 -12.5 2 -24.5q0 -4 1 -10t8 -6q6 0 12 10q43 63 57.5 131.5t-8.5 144.5q-2 4 -3 10.5t-7 4.5q-10 0 -15 -15q-18 -53 -31.5 -108.5t-15.5 -114.5v-22.5z" />
<glyph unicode="&#xf6;" horiz-adv-x="239" d="M-20 504q2 55 10 106.5t30 98.5q10 18 23.5 34.5t40.5 12.5q29 -4 57.5 -11.5t38.5 -46.5q10 -35 16.5 -70.5t-3.5 -74.5q-10 -43 -24.5 -84t-41.5 -76q-16 -23 -34.5 -33t-47.5 -6q-29 6 -41 25.5t-16 44.5q-4 20 -5 41t-3 39zM10 917q0 39 35 39q33 0 37 -39q8 27 7 25 t-6 -15.5t-13.5 -29t-16.5 -15.5q-18 -2 -30.5 8.5t-12.5 26.5zM57 446.5q0 -12.5 2 -24.5q0 -4 1 -10t8 -6q6 0 12 10q43 63 57.5 131.5t-8.5 144.5q-2 4 -3 10.5t-7 4.5q-10 0 -15 -15q-18 -53 -31.5 -108.5t-15.5 -114.5v-22.5zM170 917q0 12 10 21.5t25 7.5 q14 0 24 -9.5t10 -23.5q-6 -31 -32 -33q-14 0 -25.5 11.5t-11.5 25.5z" />
<glyph unicode="&#xf8;" horiz-adv-x="239" d="M-20 504q2 55 10 106.5t30 98.5q10 18 23.5 34.5t40.5 12.5q29 -4 57.5 -11.5t38.5 -46.5q10 -35 16.5 -70.5t-3.5 -74.5q-10 -43 -24.5 -84t-41.5 -76q-16 -23 -34.5 -33t-47.5 -6q-29 6 -41 25.5t-16 44.5q-4 20 -5 41t-3 39zM46 303q0 11 2 21q13 141 33.5 280 t54.5 278q3 8 4 15t4 14q10 22 33 17q11 -3 12 -11t-1 -18q-11 -56 -22.5 -112t-21.5 -111q-19 -96 -32.5 -191.5t-21.5 -191.5v-15t-10 -9q-21 -5 -29 14q-5 9 -5 20zM57 446.5q0 -12.5 2 -24.5q0 -4 1 -10t8 -6q6 0 12 10q43 63 57.5 131.5t-8.5 144.5q-2 4 -3 10.5 t-7 4.5q-10 0 -15 -15q-18 -53 -31.5 -108.5t-15.5 -114.5v-22.5z" />
<glyph unicode="&#xf9;" horiz-adv-x="415" d="M-16 459q-6 117 3 230.5t38 228.5q8 31 22 69q27 57 90 51q29 -4 38 -15t5 -40q-8 -51 -16 -100t-17 -101l-12 -94l-12 -94q-4 -16 -4 -33.5t6 -34.5h-4l2 2v-4q18 39 35.5 77t36.5 77q6 10 12 20.5t14 18.5q23 23 48.5 15.5t33.5 -38.5q10 -35 16.5 -71.5t12.5 -73.5 q6 -33 13 -64.5t24 -62.5q8 -12 2 -19q-10 -10 -25 -4q-18 6 -27.5 20.5t-15.5 31.5q-12 29 -19.5 59.5t-15.5 60.5q-4 16 -5 38t-15 24q-16 2 -21.5 -18.5t-11.5 -36.5q-23 -53 -42 -107.5t-42 -108.5q-8 -18 -18.5 -31.5t-32.5 -17.5q-70 -12 -84 56q-10 47 -12 90z M193 1151q-4 6 2 12q4 4 8 5.5t8 3.5q10 -2 20.5 -4.5t16.5 -8.5q23 -18 45.5 -36.5t44.5 -36.5q12 -8 9 -19q-6 -8 -19 -8q-12 0 -28 8q-53 33 -99 74q-4 4 -8 10z" />
<glyph unicode="&#xfa;" horiz-adv-x="415" d="M-16 459q-6 117 3 230.5t38 228.5q8 31 22 69q27 57 90 51q29 -4 38 -15t5 -40q-8 -51 -16 -100t-17 -101l-12 -94l-12 -94q-4 -16 -4 -33.5t6 -34.5h-4l2 2v-4q18 39 35.5 77t36.5 77q6 10 12 20.5t14 18.5q23 23 48.5 15.5t33.5 -38.5q10 -35 16.5 -71.5t12.5 -73.5 q6 -33 13 -64.5t24 -62.5q8 -12 2 -19q-10 -10 -25 -4q-18 6 -27.5 20.5t-15.5 31.5q-12 29 -19.5 59.5t-15.5 60.5q-4 16 -5 38t-15 24q-16 2 -21.5 -18.5t-11.5 -36.5q-23 -53 -42 -107.5t-42 -108.5q-8 -18 -18.5 -31.5t-32.5 -17.5q-70 -12 -84 56q-10 47 -12 90z M197 1135q6 18 14 35q16 25 34 47t38 45q6 6 12 11t17 5q10 2 17 2t11 -8t-1 -13t-9 -10q-25 -29 -47.5 -57.5t-40.5 -58.5q-11 -21 -29 -21q-23 6 -16 23z" />
<glyph unicode="&#xfb;" horiz-adv-x="415" d="M-16 459q-6 117 3 230.5t38 228.5q8 31 22 69q27 57 90 51q29 -4 38 -15t5 -40q-8 -51 -16 -100t-17 -101l-12 -94l-12 -94q-4 -16 -4 -33.5t6 -34.5h-4l2 2v-4q18 39 35.5 77t36.5 77q6 10 12 20.5t14 18.5q23 23 48.5 15.5t33.5 -38.5q10 -35 16.5 -71.5t12.5 -73.5 q6 -33 13 -64.5t24 -62.5q8 -12 2 -19q-10 -10 -25 -4q-18 6 -27.5 20.5t-15.5 31.5q-12 29 -19.5 59.5t-15.5 60.5q-4 16 -5 38t-15 24q-16 2 -21.5 -18.5t-11.5 -36.5q-23 -53 -42 -107.5t-42 -108.5q-8 -18 -18.5 -31.5t-32.5 -17.5q-70 -12 -84 56q-10 47 -12 90z M177 1165.5q5 11.5 9 21.5q16 33 30.5 64t31.5 63q20 35 55 29q14 -2 27.5 -9t19.5 -24q16 -35 24.5 -71.5t18.5 -75.5q4 -14 -4 -19.5t-21 -5.5q-23 4 -30.5 17.5t-14.5 29.5q-6 12 -7 28.5t-15 18.5q-12 0 -16.5 -15t-12.5 -26q-6 -10 -12 -21t-16 -22q-12 -12 -30 -13 t-28 9q-14 10 -9 21.5z" />
<glyph unicode="&#xfc;" horiz-adv-x="415" d="M-16 459q-6 117 3 230.5t38 228.5q8 31 22 69q27 57 90 51q29 -4 38 -15t5 -40q-8 -51 -16 -100t-17 -101l-12 -94l-12 -94q-4 -16 -4 -33.5t6 -34.5h-4l2 2v-4q18 39 35.5 77t36.5 77q6 10 12 20.5t14 18.5q23 23 48.5 15.5t33.5 -38.5q10 -35 16.5 -71.5t12.5 -73.5 q6 -33 13 -64.5t24 -62.5q8 -12 2 -19q-10 -10 -25 -4q-18 6 -27.5 20.5t-15.5 31.5q-12 29 -19.5 59.5t-15.5 60.5q-4 16 -5 38t-15 24q-16 2 -21.5 -18.5t-11.5 -36.5q-23 -53 -42 -107.5t-42 -108.5q-8 -18 -18.5 -31.5t-32.5 -17.5q-70 -12 -84 56q-10 47 -12 90z M129 1210q0 39 35 39q33 0 37 -39q8 27 7 25t-6 -15.5t-13.5 -29t-16.5 -15.5q-18 -2 -30.5 8.5t-12.5 26.5zM289 1210q0 12 10 21.5t25 7.5q14 0 24 -9.5t10 -23.5q-6 -31 -32 -33q-14 0 -25.5 11.5t-11.5 25.5z" />
<glyph unicode="&#xfd;" horiz-adv-x="389" d="M-18 499.5v53.5q-2 55 8 107.5t26 105.5q12 39 33 68q18 29 53 28q27 0 36 -9t5 -34q-8 -55 -17 -108.5t-17 -106.5q-4 -23 -7.5 -43t-7.5 -41q0 -4 1 -7t1 -7q12 4 15 6q23 35 46 68.5t48 66.5q18 29 37 45q16 18 36.5 19.5t43.5 -6.5q20 -6 22 -22.5t2 -35.5 q2 -39 -6 -75.5t-16 -75.5q-20 -109 -43 -216.5t-52 -213.5q-18 -68 -45 -125q-6 -16 -16 -33q-16 -20 -39 -10q-12 6 -11 14t5 18q47 139 73.5 280.5t49.5 285.5q2 23 4 42t-2 42q-20 -10 -29.5 -29t-21.5 -35q-16 -23 -31.5 -45t-32.5 -45q-25 -35 -67 -35 q-35 0 -52.5 11.5t-25.5 43.5q-6 27 -6 53.5zM195 1014q6 18 14 35q16 25 34 47t38 45q6 6 12 11t17 5q10 2 17 2t11 -8t-1 -13t-9 -10q-25 -29 -47.5 -57.5t-40.5 -58.5q-11 -21 -29 -21q-23 6 -16 23z" />
<glyph unicode="&#xff;" horiz-adv-x="389" d="M-18 499.5v53.5q-2 55 8 107.5t26 105.5q12 39 33 68q18 29 53 28q27 0 36 -9t5 -34q-8 -55 -17 -108.5t-17 -106.5q-4 -23 -7.5 -43t-7.5 -41q0 -4 1 -7t1 -7q12 4 15 6q23 35 46 68.5t48 66.5q18 29 37 45q16 18 36.5 19.5t43.5 -6.5q20 -6 22 -22.5t2 -35.5 q2 -39 -6 -75.5t-16 -75.5q-20 -109 -43 -216.5t-52 -213.5q-18 -68 -45 -125q-6 -16 -16 -33q-16 -20 -39 -10q-12 6 -11 14t5 18q47 139 73.5 280.5t49.5 285.5q2 23 4 42t-2 42q-20 -10 -29.5 -29t-21.5 -35q-16 -23 -31.5 -45t-32.5 -45q-25 -35 -67 -35 q-35 0 -52.5 11.5t-25.5 43.5q-6 27 -6 53.5zM135 989q0 39 35 39q33 0 37 -39q8 27 7 25t-6 -15.5t-13.5 -29t-16.5 -15.5q-18 -2 -30.5 8.5t-12.5 26.5zM295 989q0 12 10 21.5t25 7.5q14 0 24 -9.5t10 -23.5q-6 -31 -32 -33q-14 0 -25.5 11.5t-11.5 25.5z" />
<glyph unicode="&#x152;" horiz-adv-x="931" d="M-16 555q-10 147 16.5 285.5t85.5 271.5q16 35 33.5 66.5t44.5 60.5q37 43 88 41q45 -2 33 -45q0 -4 -2 -8t-2 -8q-2 -10 -8.5 -22.5t1.5 -20.5q10 -10 20.5 -1t20.5 13q70 16 113 -51q57 -94 64 -211q2 -23 1 -43t-1 -43q-4 -98 -15.5 -192.5t-38.5 -188.5 q-12 -41 -29.5 -80t-43.5 -74q-29 -39 -72 -58.5t-89 -18.5t-89 26t-70 72q-31 53 -44 111.5t-17 117.5zM159 495.5q-1 -26.5 3 -53.5q4 -72 39 -131q16 -31 41 -6q23 18 38 41t29 49q25 47 41.5 99.5t26.5 105.5q20 88 32.5 176t6.5 180q-6 98 -54 179q-14 20 -23 21 t-28 -15q-6 -6 -11 -14.5t-11 -8.5q-35 -4 -41 -26.5t-12 -44.5l-8.5 -34l-8.5 -34q-25 -106 -44 -212.5t-15 -217.5q0 -27 -1 -53.5zM349 217q6 12 14 23q4 10 10 12q37 20 43 52t6 67q0 47 2 92t6 92q4 16 1 32.5t-27 20.5q-12 2 -13 13.5t9 15.5q18 8 26.5 20.5 t12.5 25.5t4 28.5t2 29.5q10 76 24.5 150t32.5 147q4 18 5 34t-27 22q-14 4 -13.5 13t11.5 19q8 8 16 13.5t18 9.5q31 12 43 37q18 27 45 35t52 -11q20 -12 38.5 -13t36.5 3q29 4 55.5 5t55.5 1q16 0 31.5 -4t29.5 -8q10 -4 20.5 -9t6.5 -20q-4 -14 -18.5 -14t-24.5 4 q-45 16 -88 8t-88 -16q-16 -4 -22.5 -11t-10.5 -24q-23 -197 -67 -387q-6 -29 22 -29q20 0 40 1t38 -9q8 -4 15 -8t5 -12q0 -10 -8 -12.5t-16 -2.5q-10 -2 -18.5 -1t-18.5 3v2q-12 -2 -25.5 -2t-25.5 -4q-29 -4 -31 -30q-16 -63 -28.5 -127t-18.5 -129q-2 -23 3 -26t26 1 q106 25 215 18q16 0 31.5 -3t27.5 -15q18 -18 -4 -29q-20 -10 -47 -2q-66 12 -125 -4t-119 -37q-14 -6 -18 -22q-6 -23 -29 -23q-43 0 -82 -32l-7 -3.5l-7 -3.5q-14 -4 -26.5 -4t-22.5 13q-10 12 -4 24z" />
<glyph unicode="&#x153;" horiz-adv-x="509" d="M-20 504q2 55 10 106.5t30 98.5q10 18 23.5 34.5t40.5 12.5q29 -4 57.5 -11.5t38.5 -46.5q10 -35 16.5 -70.5t-3.5 -74.5q-10 -43 -24.5 -84t-41.5 -76q-16 -23 -34.5 -33t-47.5 -6q-29 6 -41 25.5t-16 44.5q-4 20 -5 41t-3 39zM57 446.5q0 -12.5 2 -24.5q0 -4 1 -10 t8 -6q6 0 12 10q43 63 57.5 131.5t-8.5 144.5q-2 4 -3 10.5t-7 4.5q-10 0 -15 -15q-18 -53 -31.5 -108.5t-15.5 -114.5v-22.5zM153 458.5q-1 20.5 1 43.5q-2 100 57 197q14 20 30.5 36.5t41.5 24.5q35 16 65 -8q16 -10 18.5 -27.5t-4.5 -34.5q-12 -47 -37.5 -87t-66.5 -66 q-23 -14 -31 -29.5t-6 -38.5q2 -20 3 -42.5t18 -31.5q20 -10 34.5 7.5t28.5 29.5q41 41 82 80t82 80q10 8 19.5 17.5t23.5 9.5q10 4 20 -6q6 -4 -2 -19q-6 -4 -14 -16q-45 -47 -89 -93.5t-89 -93.5q-25 -27 -57 -39q-45 -16 -78 2.5t-45 65.5q-4 18 -5 38.5zM248 619 q-4 -8 2 -9q2 -4 8 3q16 20 28.5 40.5t18.5 45.5q0 4 -1 6t-1 4q-4 -2 -7 -2t-5 -2q-16 -20 -25.5 -42t-17.5 -44z" />
<glyph unicode="&#x178;" horiz-adv-x="514" d="M-18 174l9 31.5t13 34.5q27 66 53.5 132t55.5 132q23 47 6 102q-29 100 -51.5 202.5t-30.5 207.5q-4 35 -5 71.5t7 71.5q4 16 11 26.5t26 12.5q20 2 29.5 -9t15.5 -28q10 -33 16 -65.5t10 -67.5q10 -72 20.5 -140.5t20.5 -137.5q2 -6 1 -13.5t10 -9.5q8 0 9 7t5 14 q23 55 46.5 107t47.5 106q20 41 42 79.5t50 75.5q10 16 24.5 26.5t37.5 8.5q37 -4 31 -39q-4 -18 -9.5 -37.5t-11.5 -38.5q-23 -70 -53.5 -135t-63.5 -131q-70 -137 -134 -274.5t-128 -276.5q-8 -16 -15 -30.5t-18 -30.5q-18 -25 -45 -25q-34 0 -32 41zM172 1298q0 39 35 39 q33 0 37 -39q8 27 7 25t-6 -15.5t-13.5 -29t-16.5 -15.5q-18 -2 -30.5 8.5t-12.5 26.5zM332 1298q0 12 10 21.5t25 7.5q14 0 24 -9.5t10 -23.5q-6 -31 -32 -33q-14 0 -25.5 11.5t-11.5 25.5z" />
<glyph unicode="&#x2c6;" horiz-adv-x="301" d="M42 1018.5q5 11.5 9 21.5q16 33 30.5 64t31.5 63q20 35 55 29q14 -2 27.5 -9t19.5 -24q16 -35 24.5 -71.5t18.5 -75.5q4 -14 -4 -19.5t-21 -5.5q-23 4 -30.5 17.5t-14.5 29.5q-6 12 -7 28.5t-15 18.5q-12 0 -16.5 -15t-12.5 -26q-6 -10 -12 -21t-16 -22q-12 -12 -30 -13 t-28 9q-14 10 -9 21.5z" />
<glyph unicode="&#x2dc;" horiz-adv-x="354" d="M44 1217.5q3 19.5 12.5 37t23 30.5t29.5 13q29 0 45 -30q10 -16 19 -35t20 -35q12 -27 32 0q10 12 18.5 25.5t18.5 25.5q4 8 9 15.5t16 11.5q14 0 20 -2q8 -4 6 -9t-6 -10q-20 -41 -43 -71q-23 -31 -51.5 -32t-54.5 28q-14 14 -21.5 30.5t-17.5 32.5q-4 14 -15 10 q-8 -4 -8 -12q-4 -12 -5 -25.5t-3 -25.5q-4 -16 -18 -16q-10 -2 -23 10q-6 14 -3 33.5z" />
<glyph unicode="&#x2000;" horiz-adv-x="854" />
<glyph unicode="&#x2001;" horiz-adv-x="1708" />
<glyph unicode="&#x2002;" horiz-adv-x="854" />
<glyph unicode="&#x2003;" horiz-adv-x="1708" />
<glyph unicode="&#x2004;" horiz-adv-x="569" />
<glyph unicode="&#x2005;" horiz-adv-x="427" />
<glyph unicode="&#x2006;" horiz-adv-x="284" />
<glyph unicode="&#x2007;" horiz-adv-x="284" />
<glyph unicode="&#x2008;" horiz-adv-x="213" />
<glyph unicode="&#x2009;" horiz-adv-x="341" />
<glyph unicode="&#x200a;" horiz-adv-x="94" />
<glyph unicode="&#x2010;" horiz-adv-x="389" d="M43 475q-4 16 13.5 18.5t29.5 6.5q53 14 106.5 22.5t108.5 12.5q12 -4 29.5 -1t17.5 -16q0 -16 -16.5 -15t-28.5 -3q-47 -8 -96 -16.5t-96 -16.5q-12 -4 -17 -4q-14 -2 -30.5 -3t-20.5 15z" />
<glyph unicode="&#x2011;" horiz-adv-x="389" d="M43 475q-4 16 13.5 18.5t29.5 6.5q53 14 106.5 22.5t108.5 12.5q12 -4 29.5 -1t17.5 -16q0 -16 -16.5 -15t-28.5 -3q-47 -8 -96 -16.5t-96 -16.5q-12 -4 -17 -4q-14 -2 -30.5 -3t-20.5 15z" />
<glyph unicode="&#x2012;" horiz-adv-x="389" d="M43 475q-4 16 13.5 18.5t29.5 6.5q53 14 106.5 22.5t108.5 12.5q12 -4 29.5 -1t17.5 -16q0 -16 -16.5 -15t-28.5 -3q-47 -8 -96 -16.5t-96 -16.5q-12 -4 -17 -4q-14 -2 -30.5 -3t-20.5 15z" />
<glyph unicode="&#x2013;" horiz-adv-x="1107" d="M44 475q-13 16 45.5 18.5t99.5 6.5q177 14 356 22.5t364 12.5q40 -4 98.5 -1t58.5 -16q0 -16 -55.5 -15t-95.5 -3q-157 -8 -321 -16.5t-322 -16.5q-40 -4 -57 -4q-47 -2 -102 -3t-69 15z" />
<glyph unicode="&#x2014;" horiz-adv-x="2131" d="M47 475q-27 16 90.5 18.5t197.5 6.5q355 14 713.5 22.5t726.5 12.5q81 -4 198 -1t117 -16q0 -16 -110.5 -15t-190.5 -3q-315 -8 -643.5 -16.5t-643.5 -16.5q-80 -4 -113 -4q-94 -2 -204.5 -3t-137.5 15z" />
<glyph unicode="&#x202f;" horiz-adv-x="341" />
<glyph unicode="&#x205f;" horiz-adv-x="427" />
<glyph unicode="&#x20ac;" horiz-adv-x="382" d="M41 457q0 4 2 8t6 4q43 2 53.5 29.5t18.5 58.5t18.5 60.5t26.5 58.5q12 23 29.5 43t40.5 35q35 27 75 16q8 -2 15.5 -5t7.5 -13q0 -8 -6 -10.5t-13 -2.5q-23 -2 -35 -15t-22 -28q-29 -41 -44 -85t-28 -91q-6 -25 19 -24h23.5t23.5 -2q14 -4 14 -15q0 -12 -14 -12 q-14 -2 -26.5 -2t-26.5 -2q-25 0 -27 -25q-2 -14 1 -21t20 -5h15t17 2h4q12 -2 27.5 0t17.5 -15q2 -12 -13 -13t-25 -3q-29 -6 -44.5 -10t-21.5 -13.5t-4 -25t8 -45.5q12 -57 42 -84t89 -31h23.5t13.5 -12q-2 -16 -15.5 -16.5t-23.5 -2.5q-78 -4 -132 38t-71 120 q-4 23 -7 43.5t-32 30.5q-6 2 -4 7t6 9q6 4 12.5 6t10.5 6q10 10 6 22.5t-20 16.5q-4 2 -9.5 2t-11.5 2q-6 4 -10 11z" />
<glyph unicode="&#x2122;" horiz-adv-x="1009" d="M53 1090q0 14 6.5 23t16.5 20q23 31 51.5 53t58.5 41q16 10 33 16t33 17q27 12 54.5 19t58.5 7q25 0 49 3t49 1q10 0 22.5 -2t18.5 -10q6 -4 5 -11t-11 -10q-12 -12 -33 -2q-25 4 -47.5 -2t-44.5 -10q-10 -2 -11.5 -9t-5.5 -15q-8 -49 -16 -100.5t-16 -100.5 q-16 -78 -22.5 -155t-8.5 -154v-24.5t4 -27.5q4 -18 -18 -22q-37 -6 -43 33q-8 27 -9.5 52t-1.5 50v115q-2 66 0 122t13 115q0 10 1 19.5t3 19.5q0 10 -2 13l-11 -5q-29 -23 -58.5 -46t-53.5 -54q-14 -20 -41 -14q-29 8 -23 35zM412 840q0 123 18 243q2 23 10 45 q10 33 54 31q16 -4 22 -11t8 -28q2 -16 1 -30.5t1 -28.5v-10q0 -4 2 -7q4 0 5.5 5.5t3.5 9.5q18 47 36.5 93t38.5 91q0 12 6 17q10 23 32 29.5t44 -3.5q16 -10 17 -33q4 -20 2 -40.5t-2 -43.5q-4 -45 -8.5 -89t-8.5 -89v-18q0 -2 -2 -2t-2 -2q0 -10 4 -2v6q8 4 9.5 10 t5.5 14q29 70 57.5 137.5t56.5 137.5q10 31 37 33q59 8 60 -52q4 -57 -4.5 -112.5t-18.5 -112.5q-12 -68 -21.5 -135.5t-13.5 -136.5q-4 -35 -5 -68t-5 -67q0 -20 -16 -23q-10 0 -18.5 4t-8.5 14q0 14 -2 25q-4 66 -1 132.5t3 133.5q0 55 1 110.5t5 110.5v13q-6 0 -6 -11 q-10 -14 -15.5 -27t-13.5 -26q-20 -49 -39.5 -99t-40.5 -101q-4 -18 -12 -33q-12 -25 -41 -23q-27 2 -35 29q-8 33 -12 76q-2 70 0 137v16q0 10 -4 11q2 0 -4 -7q-4 -4 -4 -6q-20 -53 -38 -106t-30 -107q-6 -33 -10 -65.5t-14 -67.5q-2 -4 -7 -16q-8 -23 -30 -23 q-23 0 -29 23q-8 31 -13 61.5t-5 63.5z" />
<glyph unicode="&#x25fc;" horiz-adv-x="993" d="M0 0v993h993v-993h-993z" />
</font>
</defs>
</svg>
