<?xml version="1.0" standalone="no"?>
<!DOCTYPE svg PUBLIC "-//W3C//DTD SVG 1.1//EN" "http://www.w3.org/Graphics/SVG/1.1/DTD/svg11.dtd" >
<svg xmlns="http://www.w3.org/2000/svg" xmlns:xlink="http://www.w3.org/1999/xlink" version="1.1">
<metadata></metadata>
<defs>
<font id="cormorant_garamondsemibold" horiz-adv-x="860" >
<font-face units-per-em="2048" ascent="1485" descent="-563" />
<missing-glyph horiz-adv-x="479" />
<glyph unicode="&#xfb01;" horiz-adv-x="1165" d="M44 748.5q0 17.5 7 17.5q75 0 103.5 19t29.5 71q12 330 141 480.5t367 150.5q130 0 207.5 -44t77.5 -112q0 -36 -23 -58t-65 -22q-35 0 -60 20.5t-41 49.5t-34 57.5t-50.5 49t-78.5 20.5q-118 0 -194.5 -137t-76.5 -412v-127q98 3 240 19q5 0 9.5 -16t4.5 -34 q0 -8 -1.5 -16.5t-3.5 -15.5t-5 -13t-6 -8.5t-6 -1.5q-116 29 -232 35v-555q0 -48 5.5 -73t27 -41.5t56.5 -21.5t100 -5q7 0 7 -12.5t-7 -12.5q-46 0 -137 2t-136 2q-43 0 -114.5 -2t-98.5 -2q-6 0 -6 12.5t6 12.5q82 0 105.5 26t23.5 115v461q0 67 -25 85.5t-110 18.5 q-7 0 -7 17.5zM669.5 656.5q-5.5 12.5 0.5 15.5l295 137q8 6 20 -4t12 -19q0 -2 -2 -82t-2 -163v-375q0 -83 24 -112t93 -29q6 0 6 -12.5t-6 -12.5q-24 0 -92 2t-109 2t-107.5 -2t-90.5 -2q-6 0 -6 12.5t6 12.5q68 0 92 29t24 112v371q0 103 -31 126.5t-114 -16.5 q-7 -3 -12.5 9.5z" />
<glyph unicode="&#xfb02;" horiz-adv-x="1161" d="M44 748.5q0 17.5 7 17.5q75 0 103.5 19t29.5 71q10 334 124 482.5t343 148.5q175 0 285 -82q33 45 33 90q0 6 12 6t12 -6v-1329q0 -84 23 -112.5t92 -28.5q8 0 8 -12.5t-8 -12.5q-23 0 -91 2t-110 2q-41 0 -107.5 -2t-90.5 -2q-6 0 -6 12.5t6 12.5q69 0 92.5 29t23.5 112 v1116q-46 81 -106 125.5t-125 44.5q-73 0 -125 -53t-83.5 -179.5t-31.5 -320.5v-127q98 3 240 19q5 0 9.5 -16t4.5 -34q0 -8 -1.5 -16.5t-3.5 -15.5t-5 -13t-6 -8.5t-6 -1.5q-116 29 -232 35v-555q0 -48 5.5 -73t27 -41.5t56.5 -21.5t100 -5q7 0 7 -12.5t-7 -12.5 q-46 0 -137 2t-136 2q-43 0 -114.5 -2t-98.5 -2q-6 0 -6 12.5t6 12.5q82 0 105.5 26t23.5 115v461q0 67 -25 85.5t-110 18.5q-7 0 -7 17.5z" />
<glyph unicode="&#xfb03;" horiz-adv-x="1775" d="M44 748.5q0 17.5 7 17.5q75 0 103.5 19t29.5 71q12 286 141 422.5t355 136.5q164 0 272 -59q125 131 351 131q130 0 207 -44t77 -112q0 -36 -23 -58t-65 -22q-35 0 -60 20.5t-41 49.5t-34 57.5t-50.5 49t-78.5 20.5q-118 0 -194 -136.5t-76 -412.5v-127q97 2 239 19 q5 0 10 -16t5 -34q0 -13 -3.5 -27t-9 -22t-10.5 -6q-117 29 -231 35v-555q0 -48 5.5 -73t26.5 -41.5t56 -21.5t100 -5q7 0 7 -12.5t-7 -12.5q-46 0 -136.5 2t-135.5 2q-43 0 -114.5 -2t-98.5 -2q-6 0 -6 12.5t6 12.5q82 0 105.5 26t23.5 115v461q0 29 -2 41 q-6 33 -32.5 43.5t-100.5 13.5q-70 2 -308 2v-561q0 -48 5.5 -73t27 -41.5t56.5 -21.5t100 -5q7 0 7 -12.5t-7 -12.5q-46 0 -137 2t-136 2q-43 0 -114.5 -2t-98.5 -2q-6 0 -6 12.5t6 12.5q82 0 105.5 26t23.5 115v461q0 67 -25 85.5t-110 18.5q-7 0 -7 17.5zM354 770 q221 0 305 2q73 2 101.5 15t32.5 49q0 4 2 8v12q9 239 75 377q-47 66 -115.5 104.5t-140.5 38.5q-120 0 -190 -118.5t-70 -358.5v-129zM1279.5 656.5q-5.5 12.5 0.5 15.5l295 137q8 6 20.5 -4.5t12.5 -18.5q0 -2 -2 -82t-2 -163v-375q0 -83 23.5 -112t92.5 -29q6 0 6 -12.5 t-6 -12.5q-24 0 -91.5 2t-108.5 2t-108 -2t-91 -2q-6 0 -6 12.5t6 12.5q68 0 92.5 29t24.5 112v371q0 103 -31.5 126.5t-114.5 -16.5q-7 -3 -12.5 9.5z" />
<glyph unicode="&#xfb04;" horiz-adv-x="1771" d="M44 748.5q0 17.5 7 17.5q75 0 103.5 19t29.5 71q12 286 141 422.5t355 136.5q152 0 260 -53q110 125 322 125q174 0 284 -82q33 45 33 90q0 6 12.5 6t12.5 -6v-1329q0 -84 22.5 -112.5t91.5 -28.5q8 0 8 -12.5t-8 -12.5q-23 0 -90.5 2t-109.5 2q-41 0 -108 -2t-91 -2 q-6 0 -6 12.5t6 12.5q69 0 93 29t24 112v1116q-46 81 -106.5 125.5t-125.5 44.5q-54 0 -97 -30.5t-75 -95t-49.5 -172.5t-17.5 -255v-127q97 2 239 19q5 0 10 -16t5 -34q0 -13 -3.5 -27t-9 -22t-10.5 -6q-117 29 -231 35v-555q0 -48 5.5 -73t26.5 -41.5t56 -21.5t100 -5 q7 0 7 -12.5t-7 -12.5q-46 0 -136.5 2t-135.5 2q-43 0 -114.5 -2t-98.5 -2q-6 0 -6 12.5t6 12.5q82 0 105.5 26t23.5 115v461q0 29 -2 41q-6 33 -32.5 43.5t-100.5 13.5q-70 2 -308 2v-561q0 -48 5.5 -73t27 -41.5t56.5 -21.5t100 -5q7 0 7 -12.5t-7 -12.5q-46 0 -137 2 t-136 2q-43 0 -114.5 -2t-98.5 -2q-6 0 -6 12.5t6 12.5q82 0 105.5 26t23.5 115v461q0 67 -25 85.5t-110 18.5q-7 0 -7 17.5zM354 770q221 0 305 2q73 2 101.5 15t32.5 49q0 4 2 8v12q9 245 69 385q-50 64 -115 99.5t-135 35.5q-120 0 -190 -118.5t-70 -358.5v-129z" />
<glyph horiz-adv-x="0" />
<glyph horiz-adv-x="682" />
<glyph unicode=" "  horiz-adv-x="479" />
<glyph unicode="&#x09;" horiz-adv-x="479" />
<glyph unicode="&#xa0;" horiz-adv-x="479" />
<glyph unicode="!" horiz-adv-x="528" d="M135 1264q-1 7 20.5 13t50.5 8.5t56 2.5q47 0 89.5 -6.5t39.5 -17.5q-31 -121 -53 -293.5t-30 -283t-19 -300.5q0 -9 -29 -9t-29 9q-9 182 -17 298.5t-29 287t-50 291.5zM145 90q0 50 30.5 78.5t82.5 28.5t81.5 -28.5t29.5 -78.5q0 -53 -29.5 -83t-81.5 -30t-82.5 30.5 t-30.5 82.5z" />
<glyph unicode="&#x22;" horiz-adv-x="604" d="M68 1243q-2 26 75 51q77 24 112 15q13 -4 11 -13l-121 -546q-2 -3 -9 -5t-13 -1.5t-6 4.5zM373 1243q-2 26 75 51q77 24 112 15q13 -4 11 -13l-120 -546q-2 -3 -9 -5t-13.5 -1.5t-6.5 4.5z" />
<glyph unicode="#" horiz-adv-x="1077" d="M120.5 223q1.5 23 6.5 23h149l56 313h-131q-6 0 -8 23.5t-0.5 47t6.5 23.5h149l60 334q4 5 25 3t45.5 -9t23.5 -12l-56 -316h285l60 334q4 5 25 3t45.5 -9t23.5 -12l-56 -316h119q9 0 9 -47t-9 -47h-135l-55 -313h119q9 0 9 -46t-9 -46h-136l-57 -322q-4 -5 -25.5 -4 t-46 7t-22.5 11l53 308h-285l-57 -322q-4 -5 -25.5 -4t-46 7t-22.5 11l53 308h-131q-6 0 -8 23t-0.5 46zM375 246h284l56 313h-285z" />
<glyph unicode="$" horiz-adv-x="856" d="M106 313q-1 9 9.5 10.5t13.5 -6.5q51 -111 124.5 -195.5t164.5 -101.5v404q-20 12 -49 27q-42 23 -63 35t-56 34.5t-53 41.5t-38.5 45t-29 56t-8.5 64q0 108 84.5 175.5t212.5 78.5v168q0 15 27.5 15t27.5 -15v-166q125 -3 225 -47q28 -11 31 -39l4 -190q0 -6 -10.5 -9 t-13.5 4q-7 23 -25 55t-46.5 70t-72 69t-92.5 42v-363q7 -4 22.5 -11t22.5 -11q41 -21 56.5 -30t51.5 -30t52 -35t41 -38t36 -45.5t20 -51t9 -61.5q0 -111 -86.5 -191.5t-224.5 -93.5v-186q0 -13 -27.5 -13t-27.5 13v184q-83 0 -162.5 21.5t-118.5 52.5q-15 8 -18 41z M270 799q0 -63 38.5 -108t109.5 -87v338q-73 -3 -110.5 -42t-37.5 -101zM473 16q65 5 107.5 44.5t42.5 117.5q0 68 -39.5 119t-110.5 96v-377z" />
<glyph unicode="%" horiz-adv-x="1175" d="M43 887q0 109 74.5 184.5t189.5 75.5q114 0 186 -77t72 -189q0 -110 -72.5 -185t-185.5 -75q-116 0 -190 76t-74 190zM164 23l760 1114q4 5 19.5 -4t28 -21t9.5 -16l-758 -1110q-3 -4 -18.5 4t-29 18.5t-11.5 14.5zM195 893q0 -242 127 -242q30 0 49 15.5t28 47t12 66 t3 86.5q0 250 -119 250q-30 0 -50.5 -17t-31 -49.5t-14.5 -69t-4 -87.5zM610 256q0 109 75 185.5t189 76.5q113 0 187 -77.5t74 -188.5t-74 -186.5t-187 -75.5q-114 0 -189 77t-75 189zM762 264q0 -244 127 -244q30 0 49 15.5t28.5 47.5t13 67.5t3.5 87.5q0 122 -31 185.5 t-90 63.5q-30 0 -50.5 -17t-31 -50t-14.5 -69.5t-4 -86.5z" />
<glyph unicode="&#x26;" horiz-adv-x="1454" d="M133 272q0 46 16.5 90t38.5 77t63.5 72.5t72.5 64.5t84 65q-34 49 -62 100q-59 115 -59 222q0 156 102.5 258t272.5 102q117 0 190.5 -51.5t73.5 -151.5q0 -26 -6 -51.5t-13 -46.5t-24 -44.5t-28 -39.5t-37 -39t-39 -35t-45.5 -35.5t-45.5 -32.5t-50 -34t-48 -33 q149 -229 422 -440q32 79 32 200q0 104 -35.5 152.5t-123.5 48.5q-5 0 -5.5 12.5t5.5 12.5l467 2q8 0 8 -12.5t-8 -12.5q-48 0 -76.5 -6t-47.5 -27t-27.5 -42t-22.5 -68q-56 -191 -121 -295q260 -195 409 -229q5 -1 6 -7t-1 -12t-5 -6h-297q-65 0 -225 115 q-157 -140 -399 -140q-202 0 -307 87t-105 210zM313 375q0 -126 102.5 -219t264.5 -93q141 0 229 76q-9 7 -32.5 27t-38.5 31q-253 206 -408 411q-117 -105 -117 -233zM455 1108q0 -160 112 -344q81 73 126.5 148.5t45.5 166.5t-43.5 142t-115.5 51q-125 0 -125 -164z" />
<glyph unicode="'" horiz-adv-x="301" d="M68 1243q-2 26 75 51q77 24 112 15q13 -4 11 -13l-121 -546q-2 -3 -9 -5t-13 -1.5t-6 4.5z" />
<glyph unicode="(" horiz-adv-x="632" d="M104 623q0 291 120.5 522t336.5 340q3 2 7.5 -3t0.5 -9q-266 -282 -266 -850t266 -850q4 -3 -0.5 -9t-7.5 -4q-216 111 -336.5 342t-120.5 521z" />
<glyph unicode=")" horiz-adv-x="632" d="M61.5 1478q1.5 3 5 5.5t5.5 1.5q216 -111 336 -341.5t120 -520.5q0 -291 -120 -522.5t-336 -340.5q-3 -2 -8 3.5t-1 9.5q267 283 267 850t-267 850q-3 2 -1.5 5z" />
<glyph unicode="*" horiz-adv-x="917" d="M108 833q-1 3 1 5l313 168q4 4 12 -1.5t6 -11.5l-129 -231q-13 -25 -114 18q-78 33 -89 53zM139 1210q7 88 22 103q3 2 5 0l258 -248q3 -3 2.5 -7t-3 -8t-5.5 -3l-262 49q-27 5 -17 114zM428 1346q-3 26 96 50q87 22 110 13q5 -2 3 -6l-154 -320q-1 -6 -10.5 -6t-9.5 6z M475 985q-1 4 7.5 10.5t11.5 3.5l182 -194q13 -13 -20 -60.5t-73 -84.5t-42 -25zM505.5 1041q-2.5 9 2.5 10l240 114q18 7 53 -39t57 -95t10 -48l-354 49q-6 0 -8.5 9z" />
<glyph unicode="+" horiz-adv-x="815" d="M61.5 410.5q1.5 23.5 6.5 23.5h292v293q0 9 47.5 9t47.5 -9v-293h290q9 0 9 -47t-9 -47h-290v-289q0 -6 -23.5 -8t-47.5 -0.5t-24 6.5v291h-290q-6 0 -8 23.5t-0.5 47z" />
<glyph unicode="," horiz-adv-x="454" d="M88 86q0 52 31.5 80.5t87.5 28.5q68 0 106.5 -53t38.5 -150q0 -90 -39.5 -166t-117.5 -152q-5 -4 -11 -1.5t-7.5 7.5t1.5 9q101 104 101 241q0 56 -21 84q-18 -30 -72 -30q-44 0 -71 28t-27 74z" />
<glyph unicode="-" horiz-adv-x="577" d="M56 412.5q1 26.5 5 27.5l439 72q6 1 8 -24.5t0 -52t-8 -27.5l-434 -72q-6 -1 -8.5 24.5t-1.5 52z" />
<glyph unicode="." horiz-adv-x="417" d="M98 90q0 50 30.5 78.5t82.5 28.5t81.5 -28.5t29.5 -78.5q0 -53 -29.5 -83t-81.5 -30q-53 0 -83 30.5t-30 82.5z" />
<glyph unicode="/" horiz-adv-x="712" d="M53 -311l516 1806q4 9 48 -5.5t42 -23.5l-514 -1802q-4 -9 -49 4t-43 21z" />
<glyph unicode="0" horiz-adv-x="976" d="M59 401q0 183 121.5 299.5t311.5 116.5q188 0 307 -118.5t119 -303.5t-119.5 -303.5t-306.5 -118.5q-190 0 -311.5 120.5t-121.5 307.5zM252 420q0 -183 71.5 -295.5t190.5 -112.5q103 0 156 94.5t53 262.5q0 205 -71.5 307t-178.5 102q-104 0 -162.5 -97t-58.5 -261z " />
<glyph unicode="1" horiz-adv-x="679" d="M64 12.5q0 12.5 6 12.5q122 0 159 26t37 115v459q0 48 -6 73t-28 41.5t-58.5 21.5t-103.5 5q-6 0 -6 12.5t6 12.5q33 0 123.5 -2.5t146.5 -2.5q54 0 145.5 2.5t126.5 2.5q4 0 4 -12.5t-4 -12.5q-124 0 -161 -26t-37 -115v-459q0 -38 4.5 -60.5t15 -40t34 -25.5 t56.5 -11.5t88 -3.5q4 0 4 -12.5t-4 -12.5q-34 0 -125 2t-147 2q-54 0 -145.5 -2t-124.5 -2q-6 0 -6 12.5z" />
<glyph unicode="2" horiz-adv-x="823" d="M72.5 9q-5.5 9 1.5 16q257 232 343.5 338.5t86.5 205.5q0 80 -43.5 135.5t-118.5 55.5q-77 0 -128.5 -66.5t-94.5 -199.5q-1 -3 -7.5 -3t-12.5 2.5t-5 6.5l86 336q2 8 17 2q8 -4 6 -7q-11 -57 28 -57q13 0 84.5 21.5t135.5 21.5q111 0 173 -53t62 -141q0 -52 -24 -99.5 t-70.5 -93t-94.5 -83.5t-117.5 -92.5t-117.5 -98.5q-6 -6 -2.5 -10.5t12.5 -4.5q62 0 100 0.5t85 1.5t74.5 3t60.5 6t51.5 10t38.5 14.5t31.5 20t20.5 26t14 33.5q3 6 13.5 5t10.5 -7l-39 -231q0 -8 -5.5 -15.5t-12.5 -7.5h-627q-10 0 -15.5 9z" />
<glyph unicode="3" horiz-adv-x="772" d="M45 535l78 299q2 7 16 2q8 -3 6 -7q-8 -32 3 -44.5t30 -12.5q12 0 81.5 22.5t125.5 22.5q120 0 188 -68t68 -165q0 -87 -60 -166t-167 -139q132 -15 209 -95.5t77 -197.5q0 -150 -144.5 -282t-457.5 -267q-7 -3 -11.5 7t1.5 15q119 65 202 130t129 128t65.5 121t19.5 121 q0 113 -59 193.5t-162 80.5q-54 0 -90 -20q-4 -2 -9 4.5t-6.5 13t2.5 9.5q75 41 178 41h15q84 107 84 268q0 102 -34.5 158.5t-103.5 56.5q-164 0 -249 -236q-2 -3 -8 -3t-12 3t-5 7z" />
<glyph unicode="4" horiz-adv-x="931" d="M51 41l623 770q6 6 18.5 3.5t12.5 -11.5v-713l151 6q6 0 7 -23.5t-2 -47t-9 -23.5q-16 1 -46 2.5t-54.5 2.5t-46.5 1v-297q0 -19 -17 -28l-135 -68q-11 -6 -14.5 -3.5t-3.5 15.5v387q-125 2 -469 2q-8 0 -14.5 8.5t-0.5 16.5zM172 98q-11 -14 8 -14q255 0 355 2v451z" />
<glyph unicode="5" horiz-adv-x="837" d="M119 367l65 364q2 14 6 18t21 5q372 43 433 60q46 12 57 36l6 16q1 4 7 5t11 -1.5t4 -7.5l-41 -203q-6 -23 -17.5 -28.5t-39.5 -5.5l-389 -11q-28 0 -31 -28l-31 -185q145 -1 252.5 -30t172 -80.5t95.5 -119.5t31 -153q0 -172 -137 -304.5t-455 -276.5q-8 -3 -13.5 7.5 t1.5 14.5q119 64 202.5 130t130 132.5t67 129.5t20.5 133q0 169 -106 263.5t-302 94.5q-10 0 -16 8t-4 17z" />
<glyph unicode="6" horiz-adv-x="952" d="M84 424q0 193 87 375.5t255.5 330t392.5 224.5q7 1 11.5 -8.5t-1.5 -14.5q-137 -66 -246 -166.5t-177.5 -217t-104 -242t-35.5 -250.5q0 -186 71 -311.5t191 -125.5q84 0 133.5 66t49.5 184q0 110 -46 176t-137 66q-77 0 -166 -72q-4 -4 -13.5 3t-6.5 12q114 133 283 133 q70 0 124 -22.5t84.5 -61t46 -83t15.5 -93.5q0 -146 -124.5 -249.5t-299.5 -103.5q-180 0 -283.5 119.5t-103.5 331.5z" />
<glyph unicode="7" horiz-adv-x="878" d="M33 502l86 344q2 3 8.5 3.5t11.5 -1t4 -4.5q-7 -35 10.5 -44t86.5 -9h542q9 0 15.5 -9.5t3.5 -17.5l-449 -1202q-12 -34 -43 -49l-145 -76q-6 -1 -11.5 4t-2.5 10l536 1172q4 6 2 10t-10 4q-114 0 -186.5 -0.5t-140.5 -3.5t-105.5 -6t-73 -12t-50.5 -17t-30 -25 t-21 -32.5t-14 -42.5q-1 -5 -7.5 -5.5t-12 2.5t-4.5 7z" />
<glyph unicode="8" horiz-adv-x="1001" d="M84 311q0 112 75.5 212t200.5 159q-155 107 -155 240q0 52 20 95.5t53 72t75.5 48.5t86.5 29t88 9q131 0 213 -66.5t82 -146.5q0 -62 -55.5 -131t-149.5 -117q140 -83 194 -128q130 -110 130 -253q0 -103 -61 -186.5t-163.5 -129t-223.5 -45.5q-182 0 -296 99t-114 239z M268 367q0 -143 79.5 -247t201.5 -104q99 0 161 70t62 172q0 44 -11.5 82.5t-35 71.5t-48.5 59t-64.5 53.5t-68.5 45.5t-75.5 45.5t-71.5 43.5q-62 -51 -95.5 -127t-33.5 -165zM371 995q0 -43 16.5 -80.5t50.5 -70t68.5 -57t85.5 -54.5q76 99 76 201q0 86 -49 144.5 t-115 58.5q-61 0 -97 -39t-36 -103z" />
<glyph unicode="9" horiz-adv-x="952" d="M59 500q0 140 106.5 228.5t274.5 88.5q199 0 314.5 -127t115.5 -342q0 -138 -50.5 -277t-142.5 -261.5t-233 -221t-311 -151.5q-6 -2 -10.5 8t2.5 14q136 60 246 159.5t177.5 215t103.5 238t36 239.5q0 76 -15.5 153t-46 149t-87 117.5t-129.5 45.5q-85 0 -126.5 -60.5 t-41.5 -170.5q0 -121 47.5 -195t140.5 -74q75 0 160 68q6 6 15.5 -1t6.5 -13q-101 -125 -268 -125q-60 0 -109 18t-81 48t-54 69t-31.5 79t-9.5 81z" />
<glyph unicode=":" horiz-adv-x="417" d="M98 90q0 50 30.5 78.5t82.5 28.5t81.5 -28.5t29.5 -78.5q0 -53 -29.5 -83t-81.5 -30q-53 0 -83 30.5t-30 82.5zM98 666q0 49 30 77.5t83 28.5q52 0 81.5 -28t29.5 -78q0 -53 -29.5 -83t-81.5 -30q-53 0 -83 30.5t-30 82.5z" />
<glyph unicode=";" horiz-adv-x="468" d="M102 86q0 52 31.5 80.5t87.5 28.5q68 0 107 -53t39 -150q0 -89 -40 -165t-118 -153q-5 -4 -10.5 -1.5t-7 7.5t1.5 9q100 103 100 241q0 56 -21 84q-18 -30 -71 -30q-44 0 -71.5 28t-27.5 74zM102 666q0 49 30 77.5t83 28.5q52 0 81.5 -28t29.5 -78q0 -53 -29.5 -83 t-81.5 -30q-53 0 -83 30.5t-30 82.5z" />
<glyph unicode="&#x3c;" horiz-adv-x="833" d="M64 390q0 30 10 34l684 301q8 5 12 -16q7 -40 -5 -67q-3 -7 -7 -9l-570 -244l570 -244q14 -6 13 -57q-2 -40 -13 -37l-684 303q-10 6 -10 36z" />
<glyph unicode="=" horiz-adv-x="958" d="M61.5 266.5q1.5 22.5 6.5 22.5h821q9 0 9 -45t-9 -45h-819q-6 0 -8 22.5t-0.5 45zM61.5 555q1.5 23 6.5 23h821q9 0 9 -45.5t-9 -45.5h-819q-6 0 -8 22.5t-0.5 45.5z" />
<glyph unicode="&#x3e;" horiz-adv-x="833" d="M63 688q2 40 13 37l684 -303q10 -6 10 -36t-10 -34l-684 -301q-8 -5 -12 16q-7 40 5 67q3 7 7 9l569 244l-569 244q-14 6 -13 57z" />
<glyph unicode="?" horiz-adv-x="688" d="M70 1120q0 68 77 114t189 46q128 0 215.5 -63.5t87.5 -180.5q0 -34 -8.5 -64.5t-19.5 -51.5t-33.5 -46.5t-36.5 -38.5t-44 -38.5t-42 -36.5q-66 -60 -95.5 -119.5t-29.5 -132.5q0 -42 12 -109q1 -5 -6 -8.5t-14.5 -3.5t-10.5 4q-24 55 -38.5 126.5t-14.5 121.5 q0 45 13.5 82.5t33.5 62.5t44 54.5t44 56.5t33.5 71t13.5 97q0 80 -28.5 131t-77.5 51q-36 0 -50 -24.5t-18 -63.5q-3 -24 -7 -40.5t-14.5 -38.5t-31.5 -34t-51 -12q-47 0 -69.5 26t-22.5 62zM213 90q0 50 30.5 78.5t82.5 28.5t81 -28.5t29 -78.5q0 -53 -29 -83t-81 -30 t-82.5 30.5t-30.5 82.5z" />
<glyph unicode="@" horiz-adv-x="1486" d="M137 358q0 144 57.5 270t152.5 212t220.5 135t259.5 49q120 0 222 -39t171 -104.5t107.5 -152t38.5 -181.5q0 -117 -55 -217t-149.5 -158.5t-205.5 -58.5q-79 0 -108.5 47.5t-9.5 134.5l8 41q-70 -105 -152 -167.5t-153 -62.5q-57 0 -90.5 43t-20.5 134q16 110 86 216 t163.5 171t176.5 65q67 0 100 -47q49 22 58 62q4 3 20.5 2t16.5 -4l-84 -461q-12 -62 2.5 -94.5t68.5 -32.5q81 0 154.5 87.5t73.5 235.5q0 206 -146 349t-362 143q-117 0 -214 -45.5t-160 -123.5t-97.5 -180t-34.5 -216q0 -252 154 -402.5t409 -150.5q96 0 175 22.5 t167 79.5q7 4 13 -7q4 -6 -1 -9q-181 -154 -424 -154q-127 0 -237.5 39t-193 110t-130 179.5t-47.5 240.5zM588 375q-32 -154 41 -154q66 0 149.5 109t108.5 229q9 55 -7.5 91.5t-54.5 35.5q-75 -3 -144 -96t-93 -215z" />
<glyph unicode="A" horiz-adv-x="1456" d="M-13 12.5q0 12.5 9 12.5q83 0 135 54.5t127 221.5l438 991q2 5 17 5.5t18 -5.5l500 -1011q73 -147 121 -201.5t104 -54.5q9 0 9 -12.5t-9 -12.5q-40 0 -125 4t-125 4q-47 0 -118 -4t-111 -4q-9 0 -9 12.5t9 12.5q93 0 110 33q5 9 5 22q0 36 -35 106l-221 449h-371 l-158 -354q-26 -65 -26 -114q1 -45 23 -77q46 -66 171 -65q9 0 9 -12.5t-9 -12.5q-37 0 -111.5 4t-130.5 4q-53 0 -124 -4t-113 -4q-9 0 -9 12.5zM487 688h322l-168 342z" />
<glyph unicode="B" horiz-adv-x="1193" d="M80 12.5q0 12.5 6 12.5q96 0 127 26.5t31 114.5v948q0 87 -30 114t-126 27q-4 0 -4 12.5t4 12.5q32 0 117 -3t135 -3q38 0 123 6t125 6q181 0 278 -70t97 -196q0 -98 -63.5 -177t-180.5 -124q169 -19 268.5 -112.5t99.5 -233.5q0 -163 -128.5 -272t-321.5 -109 q-37 0 -143 6t-154 6q-50 0 -136 -2t-118 -2q-6 0 -6 12.5zM440 166q0 -71 31 -99t131 -28q279 0 279 285q0 157 -81 250.5t-237 93.5q-74 0 -123 -4v-498zM440 721q49 -2 86 -2q121 0 182.5 78.5t61.5 203.5q0 116 -55 180t-162 64q-65 0 -89 -26.5t-24 -108.5v-389z" />
<glyph unicode="C" horiz-adv-x="1396" d="M100 637q0 193 99.5 345.5t274 236.5t390.5 84q220 0 367 -64q17 -7 21.5 -15t7.5 -32l24 -270q0 -6 -9.5 -8t-12.5 4q-111 346 -422 346q-229 0 -371.5 -167.5t-142.5 -449.5q0 -280 150 -456.5t380 -176.5q150 0 248.5 79t173.5 251q4 7 14.5 5t10.5 -7l-27 -244 q-3 -26 -7.5 -33.5t-21.5 -13.5q-187 -76 -391 -76q-218 0 -390 83.5t-269 234.5t-97 344z" />
<glyph unicode="D" horiz-adv-x="1435" d="M60 12.5q0 12.5 6 12.5q100 0 128.5 26t28.5 115v948q0 89 -28 115t-127 26q-4 0 -4 12.5t4 12.5q32 0 116.5 -3t134.5 -3q51 0 158.5 5t145.5 5q157 0 291 -48t225 -131t142.5 -197.5t51.5 -245.5q0 -150 -54.5 -277t-147.5 -212.5t-217 -133t-263 -47.5q-39 0 -158 6 t-174 6q-50 0 -135.5 -2t-117.5 -2q-6 0 -6 12.5zM420 188q0 -84 43 -119.5t168 -35.5q217 0 350 153.5t133 429.5q0 176 -56.5 318t-165 225.5t-249.5 83.5q-129 0 -176 -24.5t-47 -108.5v-922z" />
<glyph unicode="E" horiz-adv-x="1120" d="M80 12.5q0 12.5 6 12.5q99 0 127.5 25.5t28.5 115.5v948q0 88 -28.5 114.5t-127.5 26.5q-6 0 -6 12.5t6 12.5h854q18 0 18 -18l5 -267q0 -3 -5.5 -4.5t-11.5 -1t-6 3.5q-52 234 -287 234h-82q-75 0 -105 -27t-30 -92v-416h199q223 0 223 152q0 6 12.5 6t12.5 -6 q0 -48 -2 -102t-2 -76q0 -33 3 -98t3 -103q0 -6 -12.5 -6t-12.5 6q0 174 -229 174h-195v-465q0 -68 25.5 -94.5t91.5 -26.5h100q275 0 348 266q1 4 13 2.5t12 -6.5q-20 -156 -20 -284q0 -18 -6.5 -24.5t-24.5 -6.5h-889q-6 0 -6 12.5z" />
<glyph unicode="F" horiz-adv-x="1060" d="M70 12.5q0 12.5 6 12.5q106 0 136 26t30 115v948q0 88 -28.5 114.5t-127.5 26.5q-6 0 -6 12.5t6 12.5h854q18 0 18 -18l5 -267q0 -3 -5.5 -4.5t-11.5 -1t-6 3.5q-52 234 -287 234h-82q-74 0 -104.5 -26.5t-30.5 -88.5v-444h168q230 0 230 151q0 6 12 6t12 -6 q0 -48 -1 -102t-1 -76q0 -33 2 -98t2 -103q0 -6 -12 -6t-12 6q0 176 -236 176h-164v-442q0 -65 17 -94.5t64.5 -42t148.5 -12.5q4 0 4 -12.5t-4 -12.5q-39 0 -147.5 2t-184.5 2q-51 0 -138.5 -2t-119.5 -2q-6 0 -6 12.5z" />
<glyph unicode="G" horiz-adv-x="1484" d="M100 635q0 197 103 350t282.5 235.5t403.5 82.5q100 0 197.5 -17.5t158.5 -46.5q20 -9 23.5 -15t5.5 -32l26 -270q0 -5 -10.5 -7t-13.5 5q-15 44 -39 88.5t-64 91.5t-88.5 82.5t-117 58.5t-144.5 23q-106 0 -198.5 -41.5t-160.5 -116.5t-107.5 -186.5t-39.5 -245.5 q0 -186 71 -336.5t206 -240t311 -89.5q88 0 136 20t72 74.5t24 155.5q0 55 -1.5 85t-10 58t-20 40t-38 21t-58 11t-85.5 2q-8 0 -11 8.5t-0.5 17.5t9.5 9q145 -9 298 -9q92 0 187 3q9 0 9.5 -14.5t-9.5 -14.5q-21 1 -33.5 -0.5t-23 -11.5t-15 -23t-8 -44t-4 -65t-0.5 -95 q0 -80 7 -127.5t7 -51.5q0 -12 -4.5 -16.5t-19.5 -7.5q-255 -58 -459 -58q-174 0 -317.5 52t-238 142t-146.5 210t-52 256z" />
<glyph unicode="H" horiz-adv-x="1560" d="M60 12.5q0 12.5 6 12.5q105 0 135 25.5t30 115.5v948q0 88 -30 114.5t-133 26.5q-4 0 -4 12.5t4 12.5q32 0 118.5 -3t137.5 -3q64 0 155 3t123 3q4 0 4 -12.5t-4 -12.5q-109 0 -141.5 -28t-32.5 -117v-418h702v418q0 90 -31 117.5t-143 27.5q-4 0 -4 12.5t4 12.5 q29 0 119 -3t154 -3q51 0 141.5 3t122.5 3q6 0 6 -12.5t-6 -12.5q-105 0 -135.5 -26.5t-30.5 -114.5v-948q0 -89 30 -115t136 -26q6 0 6 -12.5t-6 -12.5q-32 0 -122.5 2t-141.5 2q-64 0 -154 -2t-119 -2q-4 0 -4 12.5t4 12.5q113 0 143.5 25.5t30.5 115.5v473h-702v-473 q0 -90 31 -115.5t143 -25.5q4 0 4 -12.5t-4 -12.5q-33 0 -123.5 2t-154.5 2q-51 0 -138.5 -2t-119.5 -2q-6 0 -6 12.5z" />
<glyph unicode="I" horiz-adv-x="692" d="M84 12.5q0 12.5 6 12.5q100 0 129 26t29 115v948q0 88 -29.5 114.5t-128.5 26.5q-6 0 -6 12.5t6 12.5q32 0 117.5 -3t136.5 -3q55 0 141.5 3t116.5 3q4 0 4 -12.5t-4 -12.5q-98 0 -127 -28t-29 -117v-944q0 -90 27 -115.5t129 -25.5q4 0 4 -12.5t-4 -12.5q-32 0 -117.5 2 t-140.5 2q-51 0 -136.5 -2t-117.5 -2q-6 0 -6 12.5z" />
<glyph unicode="J" horiz-adv-x="684" d="M-111 -387q0 38 25 66t72 28q41 0 68.5 -25.5t39 -55.5t29.5 -55.5t41 -25.5q53 0 78.5 75t25.5 245v1249q0 89 -33 115t-149 26q-4 0 -4 12.5t4 12.5q38 0 132 -3t147 -3q51 0 128 3t105 3q4 0 4 -12.5t-4 -12.5q-84 0 -107.5 -27.5t-23.5 -117.5v-1135 q0 -221 -107 -347t-301 -126q-75 0 -122.5 30t-47.5 81z" />
<glyph unicode="K" horiz-adv-x="1337" d="M60 12.5q0 12.5 6 12.5q100 0 128.5 26t28.5 115v948q0 89 -28 115t-127 26q-4 0 -4 12.5t4 12.5q32 0 116.5 -3t134.5 -3q54 0 140 3t116 3q5 0 5 -12.5t-5 -12.5q-98 0 -126.5 -28t-28.5 -117v-432l401 405q63 63 63 106q0 11 -3 19q-17 48 -121 47q-4 0 -4 12.5 t4 12.5q30 0 109 -3t147 -3t145.5 3t104.5 3q6 0 6 -12.5t-6 -12.5q-92 0 -199 -48.5t-193 -135.5l-264 -264l301 -397q71 -98 120.5 -162.5t91 -108.5t66 -66t55 -33.5t48 -13t54.5 -1.5q4 0 4 -12.5t-4 -12.5h-232q-20 0 -51 -1h-15q-51 1 -74 19q-27 22 -127 157 q-55 74 -91 122l-283 373l-53 -54v-450q0 -90 27.5 -115.5t127.5 -25.5q6 0 6 -12.5t-6 -12.5q-31 0 -116.5 2t-139.5 2q-50 0 -135.5 -2t-117.5 -2q-6 0 -6 12.5z" />
<glyph unicode="L" horiz-adv-x="1107" d="M60 12.5q0 12.5 6 12.5q99 0 127 25.5t28 115.5v948q0 89 -28 115t-127 26q-6 0 -6 12.5t6 12.5q29 0 114 -3t137 -3q54 0 140 3t116 3q5 0 5 -12.5t-5 -12.5q-99 0 -128 -27t-29 -116v-938q0 -78 24.5 -99.5t110.5 -21.5h121q145 0 245.5 81t133.5 220q1 4 12.5 2.5 t11.5 -6.5q-20 -172 -20 -319q0 -18 -6.5 -24.5t-24.5 -6.5h-958q-6 0 -6 12.5z" />
<glyph unicode="M" horiz-adv-x="1740" d="M57 12.5q0 12.5 6 12.5q84 0 131 58t48 165l18 882q-68 125 -182 125q-6 0 -6 12.5t6 12.5q28 0 83.5 -2t74.5 -2q35 0 81.5 2t55.5 2q27 0 43 -19t51 -87l451 -879l407 934q12 28 26.5 39.5t37.5 11.5q8 0 38 -2t52 -2q45 0 104.5 2t85.5 2q5 0 5 -12.5t-5 -12.5 q-99 1 -143 -35q-40 -33 -39 -105v-13l47 -936q3 -63 15 -90.5t43 -39t100 -11.5q4 0 4 -12.5t-4 -12.5q-32 0 -118 2t-136 2q-53 0 -136.5 -2t-113.5 -2q-4 0 -4 12.5t4 12.5q98 0 126 26q24 23 24 93q0 10 -1 22l-41 864l-436 -1016q-4 -8 -17 -8t-18 8l-512 1012 l-18 -778v-9q0 -102 42 -157q44 -57 132 -57q6 0 6 -12.5t-6 -12.5q-27 0 -92.5 2t-106.5 2q-44 0 -113 -2t-94 -2q-6 0 -6 12.5z" />
<glyph unicode="N" horiz-adv-x="1499" d="M52 1267.5q0 12.5 5 12.5q26 0 80.5 -2t77.5 -2q47 0 111.5 2t76.5 2q13 0 23 -6.5t17 -16t24.5 -35t36.5 -48.5l737 -869v725q0 109 -42.5 167t-123.5 58q-5 0 -5 12.5t5 12.5q26 0 90 -3t103 -3q38 0 105 3t95 3q4 0 4 -12.5t-4 -12.5q-83 0 -127.5 -58t-44.5 -167 v-1059q0 -5 -10 -6.5t-14 2.5l-961 1116v-835q0 -108 43 -165.5t125 -57.5q5 0 5 -12.5t-5 -12.5q-28 0 -90.5 2t-101.5 2q-41 0 -113 -2t-102 -2q-6 0 -6 12.5t6 12.5q89 0 136.5 58t47.5 165v899q-103 108 -199 108q-5 0 -5 12.5z" />
<glyph unicode="O" horiz-adv-x="1568" d="M100 639q0 129 43 239t115 187t165.5 131.5t195 80.5t202.5 26q146 0 270 -55t205.5 -146.5t126.5 -208t45 -240.5q0 -140 -58 -266t-155 -216t-229 -143t-276 -53q-191 0 -341 91t-229.5 242t-79.5 331zM319 713q0 -195 64 -352.5t178.5 -246.5t257.5 -89q188 0 309 151 t121 418q0 189 -61 337.5t-178 234t-271 85.5q-201 0 -310.5 -142.5t-109.5 -395.5z" />
<glyph unicode="P" horiz-adv-x="1126" d="M70 12.5q0 12.5 6 12.5q99 0 127 25.5t28 115.5v948q0 89 -28 115t-127 26q-6 0 -6 12.5t6 12.5q32 0 116.5 -3t135.5 -3q29 0 128.5 6t151.5 6q198 0 315.5 -82t123.5 -254v-12q1 -76 -23 -140q-26 -70 -70.5 -116.5t-104 -80t-123 -49t-128.5 -15.5q-57 0 -96 10 q-5 1 -5.5 8t2.5 13t7 5q33 -8 72 -8q107 0 180 88.5t73 251.5q0 162 -75.5 251t-208.5 89q-73 0 -97 -25t-24 -110v-936q0 -65 15.5 -94.5t59 -42t138.5 -12.5q5 0 5 -12.5t-5 -12.5q-40 0 -142 2t-167 2q-51 0 -136.5 -2t-117.5 -2q-6 0 -6 12.5z" />
<glyph unicode="Q" horiz-adv-x="1568" d="M100 639q0 129 43 239t115 187t165.5 131.5t195 80.5t202.5 26q146 0 270 -55t205.5 -146.5t126.5 -208t45 -240.5q0 -220 -134 -394.5t-345 -244.5q82 -163 214.5 -267.5t250.5 -104.5q36 0 72 4q4 1 7 -4t3.5 -10t-2.5 -7q-91 -24 -168 -24q-99 0 -205.5 41.5t-211 128 t-183.5 204.5h-16q-191 0 -341 91t-229.5 242t-79.5 331zM319 713q0 -195 64 -352.5t178.5 -246.5t257.5 -89q188 0 309 151t121 418q0 189 -61 337.5t-178 234t-271 85.5q-201 0 -310.5 -142.5t-109.5 -395.5z" />
<glyph unicode="R" horiz-adv-x="1413" d="M80 12.5q0 12.5 6 12.5q100 0 129 26t29 115v948q0 88 -28.5 114.5t-127.5 26.5q-4 0 -4 12.5t4 12.5q32 0 117 -3t135 -3q38 0 130.5 6t133.5 6q182 0 280.5 -68t98.5 -192q0 -96 -56.5 -180.5t-150.5 -138.5q248 -382 390.5 -532t265.5 -150q6 0 6 -12.5t-6 -12.5h-330 q-47 0 -176 171.5t-312 477.5q-35 -6 -69 -6q-74 0 -105 2v-479q0 -90 27.5 -115.5t128.5 -25.5q4 0 4 -12.5t-4 -12.5q-32 0 -117.5 2t-138.5 2q-50 0 -136 -2t-118 -2q-6 0 -6 12.5zM440 700q56 -6 119 -6q122 0 171.5 55.5t49.5 202.5q0 165 -55 230t-156 65 q-73 0 -101 -28.5t-28 -108.5v-410z" />
<glyph unicode="S" horiz-adv-x="1038" d="M147 401q-1 9 9.5 11t15.5 -4q23 -60 45 -107t57 -102.5t72 -92t89 -61.5t110 -25q42 0 77 10t66 32.5t48.5 64.5t17.5 100q0 41 -10 79t-22 66t-39.5 59.5t-45.5 49.5t-58 47t-58 41t-64 41q-129 83 -177 128q-110 103 -110 237q0 82 36.5 146.5t96.5 103t132.5 58.5 t150.5 20q150 0 254 -48q32 -13 32 -38l5 -279q0 -6 -11 -8.5t-14 4.5q-101 330 -315 330q-92 0 -145.5 -54.5t-53.5 -146.5q0 -47 17 -89.5t39 -72.5t66.5 -66t74 -55t86.5 -55q59 -37 92 -59t80.5 -61.5t73 -75t44.5 -86.5t19 -107q0 -159 -121 -260t-315 -101 q-85 0 -176 23t-138 57q-18 9 -20 37z" />
<glyph unicode="T" horiz-adv-x="1310" d="M80 930q8 63 18.5 195t10.5 200q0 9 12 9.5t12 -9.5q0 -45 113 -45q175 -6 411 -6q108 0 231.5 3t164.5 3q77 0 113 10t46 41q2 7 12.5 7t10.5 -7q-6 -63 -12 -204.5t-6 -196.5q0 -4 -11.5 -4t-13.5 4q-21 158 -96.5 232.5t-204.5 74.5q-84 0 -107.5 -24t-23.5 -103v-944 q0 -63 12.5 -90.5t48.5 -39t117 -11.5q6 0 6 -12.5t-6 -12.5q-33 0 -126.5 2t-154.5 2q-55 0 -148.5 -2t-129.5 -2q-5 0 -5 12.5t5 12.5q114 0 148 26t34 115v948q0 76 -24.5 99.5t-104.5 23.5q-126 0 -205.5 -76.5t-122.5 -232.5q-2 -4 -13 -3.5t-11 5.5z" />
<glyph unicode="U" horiz-adv-x="1435" d="M57 1267.5q0 12.5 6 12.5q32 0 116.5 -3t135.5 -3q54 0 139 3t115 3q6 0 6 -12.5t-6 -12.5q-98 0 -126.5 -28t-28.5 -117v-584q0 -243 100.5 -362t284.5 -119q174 0 272 107.5t98 302.5v575q0 107 -47.5 166t-136.5 59q-6 0 -6 12.5t6 12.5q29 0 99.5 -3t115.5 -3 q38 0 105.5 3t95.5 3q5 0 5 -12.5t-5 -12.5q-81 0 -124.5 -59t-43.5 -166v-573q0 -223 -137.5 -354.5t-364.5 -131.5q-229 0 -370.5 130.5t-141.5 353.5v659q0 88 -28.5 114.5t-127.5 26.5q-6 0 -6 12.5z" />
<glyph unicode="V" horiz-adv-x="1355" d="M0 1267.5q0 12.5 6 12.5q19 0 63.5 -3t94.5 -3q112 0 213 3t119 3q4 0 4 -12.5t-4 -12.5q-87 0 -117 -43q-14 -20 -14 -47q0 -33 20 -78l387 -823l303 785q19 48 19 86q0 35 -16 63q-34 57 -136 57q-4 0 -4 12.5t4 12.5q34 0 108.5 -3t133.5 -3q39 0 93.5 3t88.5 3 q4 0 4 -12.5t-4 -12.5q-73 0 -136 -56t-102 -159l-397 -1038q-3 -8 -22.5 -8t-22.5 8l-518 1108q-36 76 -73.5 110.5t-88.5 34.5q-6 0 -6 12.5z" />
<glyph unicode="W" horiz-adv-x="1880" d="M0 1267.5q0 12.5 6 12.5q19 0 63.5 -3t94.5 -3q93 0 177.5 3t100.5 3q4 0 4 -12.5t-4 -12.5q-85 -1 -99 -33q-3 -7 -3 -18q0 -37 37 -117l391 -833l147 381l-223 475q-36 75 -68.5 110t-74.5 35q-6 0 -6 12.5t6 12.5q17 0 56.5 -3t82.5 -3q76 0 144.5 3t80.5 3 q5 0 5 -12.5t-5 -12.5q-21 0 -33.5 -2.5t-19.5 -10t-8 -18.5t5 -31t16 -44t28 -62l111 -233l73 195q37 95 37 144v13q-6 50 -61 49q-6 0 -6 12.5t6 12.5q12 0 42 -3t91 -3q36 0 85.5 3t78.5 3q6 0 6 -12.5t-6 -12.5q-136 0 -219 -215l-97 -252l252 -532l299 776 q22 57 22 102q0 34 -13 60q-29 61 -117 61q-6 0 -6 12.5t6 12.5q31 0 100 -3t123 -3q39 0 93.5 3t88.5 3q4 0 4 -12.5t-4 -12.5q-73 0 -134.5 -55t-102.5 -160l-398 -1038q-3 -8 -22.5 -8t-22.5 8l-264 565l-215 -565q-3 -8 -22.5 -8t-22.5 8l-518 1108q-42 89 -72.5 117 t-89.5 28q-6 0 -6 12.5z" />
<glyph unicode="X" horiz-adv-x="1327" d="M12 12.5q0 12.5 6 12.5q66 0 150.5 60.5t175.5 184.5l236 320l-330 508q-57 86 -107 121.5t-112 35.5q-6 0 -6 12.5t6 12.5q27 0 84 -3t84 -3q62 0 158.5 3t129.5 3q5 0 5 -12.5t-5 -12.5q-28 0 -45.5 -3t-28 -11.5t-8 -25t18.5 -41.5l281 -431l190 271q71 101 71 162 q0 8 -2 16q-10 64 -108 63q-4 0 -4 12.5t4 12.5q34 0 110 -3t138 -3q38 0 90.5 3t85.5 3q4 0 4 -12.5t-4 -12.5q-67 0 -152 -62.5t-178 -188.5l-221 -299l348 -535q52 -78 107 -111.5t129 -33.5q6 0 6 -12.5t-6 -12.5q-27 0 -96.5 2t-112.5 2q-63 0 -150.5 -2t-119.5 -2 q-6 0 -6 12.5t6 12.5q37 0 56 6.5t23.5 24t-18.5 48.5l-291 447l-205 -289q-69 -99 -69 -159q0 -7 2 -15q10 -62 108 -63q6 0 6 -12.5t-6 -12.5q-33 0 -108.5 2t-136.5 2q-39 0 -92 -2t-85 -2q-6 0 -6 12.5z" />
<glyph unicode="Y" horiz-adv-x="1261" d="M0 1267.5q0 12.5 6 12.5q21 0 66.5 -3t66.5 -3q61 0 176.5 3t147.5 3q5 0 5 -12.5t-5 -12.5q-65 0 -81 -34q-4 -10 -4 -22q0 -28 25 -66l297 -455l209 340q53 86 53 144q0 15 -4 28q-16 65 -110 65q-4 0 -4 12.5t4 12.5q36 0 117.5 -3t148.5 -3q34 0 81.5 3t76.5 3 q4 0 4 -12.5t-4 -12.5q-67 0 -153.5 -70t-153.5 -181l-234 -379v-459q0 -90 27.5 -115.5t128.5 -25.5q5 0 5 -12.5t-5 -12.5q-31 0 -116.5 2t-139.5 2q-50 0 -136 -2t-118 -2q-5 0 -5 12.5t5 12.5q100 0 129 26t29 115v422l-312 473q-70 108 -120.5 151t-96.5 43 q-6 0 -6 12.5z" />
<glyph unicode="Z" horiz-adv-x="1232" d="M115 997l82 344q1 3 7 3t11 -2t4 -5q-4 -37 17.5 -47t101.5 -10h745q9 0 15 -10.5t0 -16.5l-738 -1198q-7 -11 -5 -13.5t14 -2.5h448q121 0 209.5 73t108.5 189q1 5 12.5 5t11.5 -5l-29 -285q0 -7 -6 -13.5t-14 -6.5q-303 4 -979 4q-9 0 -13 10t1 17l749 1202 q3 6 4.5 8.5t0.5 4.5t-4.5 2.5t-10.5 0.5q-104 0 -172.5 -1t-138 -6t-113 -12t-87 -20.5t-70.5 -31t-54 -44.5t-46.5 -59.5t-39.5 -77.5q-2 -4 -8 -4.5t-10.5 2t-3.5 6.5z" />
<glyph unicode="[" horiz-adv-x="561" d="M152 -217v1681q0 14 3 17.5t15 3.5h313q6 0 6 -12.5t-6 -12.5q-100 0 -128.5 -28t-28.5 -117v-1385q0 -89 28.5 -117t128.5 -28q6 0 6 -12.5t-6 -12.5h-313q-12 0 -15 4t-3 19z" />
<glyph unicode="\" horiz-adv-x="712" d="M211 991q-1 3 11.5 8t23.5 7t14 0l242 -840q0 -3 -26 -10t-27 -4z" />
<glyph unicode="]" horiz-adv-x="561" d="M72 -227.5q0 12.5 6 12.5q100 0 129 28t29 117v1385q0 89 -29 117t-129 28q-6 0 -6 12.5t6 12.5h313q12 0 15.5 -4t3.5 -17v-1681q0 -15 -3.5 -19t-15.5 -4h-313q-6 0 -6 12.5z" />
<glyph unicode="^" horiz-adv-x="802" d="M119 778l260 510q1 10 21.5 10t23.5 -10l258 -510q2 -3 -2 -6.5t-8.5 -4.5t-7.5 1l-263 301l-262 -301q-4 -4 -13 0.5t-7 9.5z" />
<glyph unicode="_" horiz-adv-x="815" d="M61.5 -93.5q1.5 23.5 6.5 23.5h677q9 0 9 -47t-9 -47h-675q-6 0 -8 23.5t-0.5 47z" />
<glyph unicode="`" horiz-adv-x="436" d="M61 1489q-7 14 78 3q92 -13 97 -26l79 -491q1 -3 -3.5 -5.5t-10 -2.5t-6.5 4z" />
<glyph unicode="a" d="M92 131q0 27 7 49.5t23.5 40.5t32.5 31t46 27t52 22.5t62 23.5q12 5 19 7l198 74v122q0 129 -25 186.5t-81 57.5q-36 0 -62.5 -17t-40.5 -45t-20.5 -51.5t-9.5 -48.5q-12 -106 -105 -106q-44 0 -66 21t-22 53q0 58 71.5 114t166 87.5t168.5 31.5q88 0 140 -56t52 -163 v-371q0 -129 82 -129q26 0 72 19q9 3 14 -8t-4 -15l-211 -100q-12 -4 -20 -4q-30 0 -58 35t-36 96l-95 -66q-48 -34 -87.5 -48.5t-88.5 -14.5q-85 0 -129.5 39t-44.5 106zM289 193q0 -51 31.5 -81t76.5 -30q34 0 76 29l59 39v18v203l-122 -52q-24 -9 -39.5 -17t-37.5 -23 t-33 -36.5t-11 -49.5z" />
<glyph unicode="b" horiz-adv-x="1052" d="M16 1334q-5 11 0 12l287 137q6 2 10 2q9 0 19 -8.5t10 -14.5v-794q149 149 305 149q141 0 238.5 -99.5t97.5 -281.5q0 -111 -38 -201t-101.5 -146t-141 -86t-159.5 -30q-161 0 -291 95l-174 -80q-6 -2 -10.5 2t-4 8.5t4.5 7.5q55 34 80.5 80t25.5 125v1001 q0 72 -13.5 104t-47.5 32q-30 0 -82 -25q-8 -5 -15 11zM342 209q49 -100 115 -148.5t137 -48.5q99 0 152 90.5t53 257.5q0 180 -64.5 271.5t-173.5 91.5q-103 0 -219 -94v-420z" />
<glyph unicode="c" d="M68 381q0 98 42.5 181t111 135.5t151.5 82t166 29.5q101 0 172 -38.5t77 -96.5q1 -6 1 -12q0 -30 -22 -54q-26 -28 -77 -28q-79 0 -112 92q-22 53 -43.5 74.5t-71.5 21.5q-97 0 -153 -88.5t-56 -235.5q0 -81 18 -147t55.5 -119t102 -82.5t150.5 -29.5q58 0 102.5 13.5 t97.5 45.5q6 3 13.5 -5t1.5 -14q-73 -67 -148.5 -99t-169.5 -32q-103 0 -183.5 35.5t-128.5 94.5t-72.5 129.5t-24.5 146.5z" />
<glyph unicode="d" horiz-adv-x="1046" d="M68 371q0 93 30 170t78 127t110.5 84.5t125.5 49.5t125 15q88 0 172 -33v428q0 70 -14.5 103t-47.5 33q-29 0 -84 -25q-5 -3 -9.5 2.5t-5 12t2.5 8.5l287 137q4 2 10 2q7 0 16.5 -8.5t9.5 -14.5v-1229q0 -71 15 -101t49 -30q22 0 92 25q5 3 9.5 -2.5t5 -11.5t-2.5 -9 l-264 -127q-4 -2 -10 -2q-21 0 -37.5 40.5t-19.5 111.5q-162 -154 -322 -154q-135 0 -228 109t-93 289zM252 434q0 -171 67.5 -271t172.5 -100q111 0 217 103v2v487q-81 113 -211 113q-117 0 -181.5 -81.5t-64.5 -252.5z" />
<glyph unicode="e" horiz-adv-x="847" d="M68 373q0 183 129.5 309.5t324.5 126.5q121 0 188.5 -59.5t67.5 -176.5q0 -59 -24 -59l-500 -2q-2 -18 -2 -57q0 -179 82.5 -283t236.5 -104q41 0 77 8.5t58.5 18.5t65.5 32q3 3 7.5 0t6.5 -8.5t0 -9.5q-142 -134 -315 -134q-125 0 -218.5 56.5t-139 145.5t-45.5 196z M258 549l326 4q0 215 -138 215q-75 0 -124 -58t-64 -161z" />
<glyph unicode="f" horiz-adv-x="624" d="M44 748.5q0 17.5 7 17.5q75 0 103.5 19t29.5 71q10 334 124.5 482.5t344.5 148.5q112 0 177 -31.5t65 -85.5q0 -40 -29 -65t-65 -25q-22 0 -38 5.5t-28.5 19.5t-18.5 22.5t-18 30.5q-17 30 -28.5 45t-36 28t-58.5 13q-102 0 -161.5 -133.5t-59.5 -411.5v-127q98 3 240 19 q5 0 9.5 -15.5t4.5 -34.5q0 -12 -3.5 -25.5t-8.5 -22t-10 -7.5q-121 30 -232 33v-553q0 -48 5.5 -73t27 -41.5t56.5 -21.5t100 -5q7 0 7 -12.5t-7 -12.5q-46 0 -137 2t-136 2q-43 0 -114.5 -2t-98.5 -2q-6 0 -6 12.5t6 12.5q82 0 105.5 26t23.5 115v461q0 67 -25 85.5 t-110 18.5q-7 0 -7 17.5z" />
<glyph unicode="g" horiz-adv-x="921" d="M55 -346q0 145 211 285q-73 13 -113 46.5t-40 98.5q0 120 145 221q-75 34 -117.5 100t-42.5 140q0 80 51 140.5t128.5 90t166.5 29.5q133 0 218 -66q115 72 221 72q16 0 16 -53q0 -54 -15 -81q-3 -7 -7 -5q-79 33 -148 33q-14 0 -29 -3q62 -65 62 -155q0 -119 -104 -197 t-244 -78q-68 0 -123 21q-45 -45 -45 -103q0 -31 12 -52.5t31 -34t55.5 -19.5t73 -9t96.5 -3q158 -2 224 -20q149 -41 149 -195q0 -114 -71 -214t-189.5 -159t-253.5 -59q-142 0 -230 63.5t-88 165.5zM217 -252q0 -123 75 -191.5t189 -68.5q117 0 187.5 68.5t70.5 185.5 q0 33 -5.5 59.5t-18.5 45.5t-26 32.5t-38.5 22.5t-44.5 14t-54.5 7.5t-59.5 3.5t-68 1q-41 0 -111 4q-96 -66 -96 -184zM272 602q0 -130 58.5 -212.5t132.5 -82.5q54 0 88.5 46t34.5 141q0 128 -62 202t-141 74q-111 0 -111 -168z" />
<glyph unicode="h" horiz-adv-x="1036" d="M5.5 1332.5q-5.5 12.5 0.5 15.5l287 135q4 2 8 2q9 0 19 -8.5t10 -14.5v-817q142 168 311 168q113 0 176.5 -68t63.5 -186v-393q0 -83 23.5 -112t92.5 -29q6 0 6 -12.5t-6 -12.5q-24 0 -91.5 2t-108.5 2t-108 -2t-91 -2q-6 0 -6 12.5t6 12.5q68 0 92.5 29t24.5 112v305 q0 115 -42.5 169t-133.5 54q-54 0 -110 -24.5t-99 -67.5v-436q0 -83 23.5 -112t92.5 -29q6 0 6 -12.5t-6 -12.5q-24 0 -91.5 2t-108.5 2t-108 -2t-91 -2q-6 0 -6 12.5t6 12.5q68 0 92.5 29t24.5 112v1046q0 72 -14.5 104t-49.5 32q-27 0 -82 -25q-7 -3 -12.5 9.5z" />
<glyph unicode="i" horiz-adv-x="544" d="M46 660q-1 4 0 7.5t3 4.5l293 137l8 2q8 0 17.5 -9.5t9.5 -15.5q0 -2 -2 -82t-2 -163v-375q0 -83 23.5 -112t92.5 -29q6 0 6 -12.5t-6 -12.5q-24 0 -91.5 2t-108.5 2t-108 -2t-91 -2q-6 0 -6 12.5t6 12.5q68 0 92.5 29t24.5 112v371q0 71 -15.5 103t-50.5 32 q-27 0 -82 -25q-3 -1 -5.5 0.5t-4.5 5t-3 7.5zM162 1137q0 49 30.5 77.5t83.5 28.5q52 0 80.5 -28t28.5 -78q0 -54 -28.5 -83.5t-80.5 -29.5q-53 0 -83.5 29.5t-30.5 83.5z" />
<glyph unicode="j" horiz-adv-x="534" d="M17.5 -569q-5.5 11 0.5 14q99 42 141 138t42 272v682q0 71 -14.5 103t-47.5 32q-29 0 -84 -25q-7 -3 -12.5 9.5t0.5 15.5l295 137q4 2 6 2q8 0 17.5 -9.5t9.5 -15.5q0 -2 -2 -82t-2 -163v-639q0 -206 -73.5 -311.5t-264.5 -168.5q-6 -2 -11.5 9zM156 1137q0 49 30.5 77.5 t83.5 28.5q52 0 80.5 -28t28.5 -78q0 -54 -28.5 -83.5t-80.5 -29.5q-53 0 -83.5 29.5t-30.5 83.5z" />
<glyph unicode="k" horiz-adv-x="1005" d="M5.5 1332.5q-5.5 12.5 0.5 15.5l285 135q4 2 10 2q8 0 18.5 -8.5t10.5 -14.5v-1048l217 196q42 38 54 74q4 13 4 23q0 21 -15 36q-23 23 -76 23q-6 0 -6 12.5t6 12.5q29 0 105 -2.5t143 -2.5q61 0 130 2.5t93 2.5q5 0 5 -12.5t-5 -12.5q-86 0 -192 -41.5t-197 -122.5 l-88 -78l272 -358q108 -141 228 -141q6 0 6 -12.5t-6 -12.5q-24 0 -91 2t-108 2q-60 0 -140 -2t-108 -2q-5 0 -5 12.5t5 12.5q61 0 79 23q6 8 6 19q0 18 -19 42l-238 313l-59 -51v-205q0 -83 23.5 -112t92.5 -29q6 0 6 -12.5t-6 -12.5q-24 0 -91.5 2t-108.5 2t-108 -2 t-91 -2q-6 0 -6 12.5t6 12.5q68 0 92.5 29t24.5 112v1046q0 72 -14.5 104t-49.5 32q-27 0 -82 -25q-7 -3 -12.5 9.5z" />
<glyph unicode="l" horiz-adv-x="542" d="M33.5 1339q-0.5 6 3.5 9l287 135q4 2 8 2q9 0 18.5 -8.5t9.5 -14.5v-1296q0 -83 24 -112t93 -29q6 0 6 -12.5t-6 -12.5q-23 0 -91.5 2t-111.5 2q-41 0 -107.5 -2t-90.5 -2q-6 0 -6 12.5t6 12.5q68 0 92.5 29t24.5 112v1046q0 72 -14 104t-48 32q-27 0 -82 -25 q-5 -2 -10 4t-5.5 12z" />
<glyph unicode="m" horiz-adv-x="1581" d="M15 668q0 6 3 8l271 131q8 4 12 4q22 0 41.5 -45.5t22.5 -120.5q143 168 301 168q95 0 152.5 -45.5t70.5 -134.5q144 180 311 180q110 0 168.5 -63t58.5 -191v-393q0 -84 23 -112.5t92 -28.5q8 0 8 -12.5t-8 -12.5q-24 0 -91 2t-108 2t-108.5 -2t-89.5 -2q-6 0 -6 12.5 t6 12.5q68 0 91.5 29t23.5 112v305q0 116 -38.5 169.5t-121.5 53.5q-55 0 -110.5 -25.5t-96.5 -70.5v-20v-412q0 -83 24 -112t93 -29q6 0 6 -12.5t-6 -12.5q-23 0 -91 2t-110 2q-41 0 -108 -2t-91 -2q-6 0 -6 12.5t6 12.5q68 0 92.5 29t24.5 112v305q0 115 -39.5 169 t-122.5 54q-111 0 -200 -92v-436q0 -83 23.5 -112t92.5 -29q7 0 7 -12.5t-7 -12.5q-24 0 -90.5 2t-107.5 2t-109 -2t-92 -2q-4 0 -4 12.5t4 12.5q69 0 93 29t24 112v391q0 65 -15.5 95t-50.5 30q-31 0 -104 -29q-5 -2 -9.5 3.5t-4.5 11.5z" />
<glyph unicode="n" horiz-adv-x="1071" d="M15 668q0 6 3 8l271 131q8 4 12 4q22 0 41.5 -45.5t22.5 -120.5q143 170 313 170q112 0 174.5 -68t62.5 -186v-395q0 -83 24 -112t93 -29q8 0 8 -12.5t-8 -12.5q-24 0 -90.5 2t-107.5 2t-109 -2t-92 -2q-5 0 -5 12.5t5 12.5q69 0 93 29t24 112v307q0 115 -42.5 169 t-132.5 54q-55 0 -111.5 -25t-98.5 -69v-436q0 -83 23.5 -112t92.5 -29q7 0 7 -12.5t-7 -12.5q-24 0 -90.5 2t-107.5 2t-109 -2t-92 -2q-4 0 -4 12.5t4 12.5q69 0 93 29t24 112v391q0 65 -15.5 95t-50.5 30q-31 0 -104 -29q-5 -2 -9.5 3.5t-4.5 11.5z" />
<glyph unicode="o" horiz-adv-x="995" d="M68 406q0 82 27 151t71.5 116t103 80.5t121 48.5t125.5 15q125 0 221 -62t143.5 -157t47.5 -205q0 -93 -36.5 -172.5t-97.5 -133t-142 -84t-169 -30.5q-124 0 -220 60.5t-145.5 158.5t-49.5 214zM262 477q0 -201 80 -332t199 -131q93 0 141.5 79.5t48.5 234.5 q0 206 -82 326t-200 120q-91 0 -139 -74t-48 -223z" />
<glyph unicode="p" horiz-adv-x="1050" d="M-2.5 662.5q-5.5 12.5 0.5 15.5l268 129q4 4 10 4q24 0 43 -37t25 -104q157 147 315 147q134 0 229 -102t95 -275q0 -99 -28 -179.5t-73.5 -133t-105.5 -88t-120 -51t-121 -15.5q-107 0 -189 31v-401q0 -89 34.5 -115.5t154.5 -26.5q5 0 5 -12t-5 -12q-36 0 -128.5 2 t-146.5 2q-41 0 -109 -2t-92 -2q-6 0 -6 12t6 12q75 0 97 27t22 115v954q0 67 -15 97t-52 30q-34 0 -101 -31q-7 -3 -12.5 9.5zM346 131q47 -54 101.5 -82.5t132.5 -28.5q103 0 162 90.5t59 266.5q0 161 -73.5 249.5t-184.5 88.5q-101 0 -197 -86v-6v-492z" />
<glyph unicode="q" horiz-adv-x="1017" d="M68 352q0 115 40 206.5t106 146.5t145 83.5t163 28.5q165 0 305 -76l144 62q5 2 9 -2t3.5 -9t-4.5 -8q-55 -32 -81 -77.5t-26 -120.5v-983q0 -88 23 -115t98 -27q5 0 5 -12t-5 -12q-23 0 -91.5 2t-110.5 2q-48 0 -130 -2t-114 -2q-5 0 -5 12t5 12q101 0 130.5 27 t29.5 115v522q-73 -71 -144 -111.5t-162 -40.5q-140 0 -236.5 100t-96.5 279zM254 428q0 -177 62.5 -268.5t170.5 -91.5q104 0 220 94v467q-86 145 -234 145q-219 0 -219 -346z" />
<glyph unicode="r" horiz-adv-x="765" d="M15 668q0 6 3 8l271 131q8 4 12 4q22 0 41.5 -44.5t22.5 -117.5q83 91 135 126.5t96 35.5q46 0 89.5 -31t43.5 -73q0 -38 -24 -62t-64 -24q-25 0 -46 12t-32.5 26.5t-29.5 26.5t-39 12q-22 0 -48 -17.5t-81 -74.5v-440q0 -83 39 -112t149 -29q7 0 7 -12.5t-7 -12.5 q-32 0 -123 2t-147 2q-41 0 -109 -2t-92 -2q-4 0 -4 12.5t4 12.5q69 0 93 29t24 112v391q0 65 -15.5 95t-50.5 30q-31 0 -104 -29q-5 -2 -9.5 3.5t-4.5 11.5z" />
<glyph unicode="s" horiz-adv-x="690" d="M90 248q0 6 12 7t13 -5q34 -101 105.5 -166.5t152.5 -65.5q51 0 79 28q27 27 27 79q-1 34 -13 66q-12 29 -25 48t-41.5 40.5t-45 31t-51.5 29.5q-34 17 -43.5 22.5t-38.5 23t-40 27.5t-31 30t-28 38t-15 44t-7 55q0 117 85 175t206 58q82 0 164 -31q18 -9 18 -22 q0 -23 -2 -79.5t-2 -92.5q0 -6 -12 -6t-12 6q0 63 -70 123.5t-151 60.5q-95 0 -95 -88q0 -34 13 -63.5t40 -53.5t52 -41t65 -39q102 -55 138 -86q77 -66 77 -161q0 -107 -80 -185t-221 -78q-107 0 -207 58q-12 12 -12 24z" />
<glyph unicode="t" horiz-adv-x="690" d="M58 750.5q0 17.5 8 17.5q191 6 241 164q3 8 17 8t14 -8v-162q119 5 272 21q6 0 10.5 -15t4.5 -35q0 -12 -3.5 -25.5t-8.5 -22t-9 -7.5q-113 28 -266 35v-496q0 -80 40 -118.5t111 -38.5q85 0 162 61q4 3 9.5 -0.5t7.5 -9t-2 -10.5q-76 -70 -143.5 -102t-143.5 -32 q-40 0 -75 9t-66.5 28.5t-49.5 56t-18 87.5v465q0 67 -21 89.5t-83 22.5q-8 0 -8 17.5z" />
<glyph unicode="u" horiz-adv-x="1026" d="M17.5 676.5q-0.5 6.5 2.5 9.5l261 121q4 2 8 2q9 0 18.5 -8.5t9.5 -14.5v-464q0 -228 172 -228q109 0 201 92v351q0 141 -61 141q-20 0 -60 -16q-5 -3 -9.5 2.5t-4.5 12t4 9.5l258 121q6 2 10 2q8 0 18.5 -8.5t10.5 -14.5v-555q0 -70 14 -99.5t48 -29.5q26 0 92 27 q8 3 13.5 -9t-1.5 -16l-266 -129q-6 -2 -11 -2q-20 0 -37 46.5t-18 123.5q-141 -163 -303 -163q-109 0 -172 68t-63 185v304q0 73 -14.5 107t-47.5 34q-20 0 -57 -16q-5 -3 -10 2.5t-5.5 12z" />
<glyph unicode="v" horiz-adv-x="897" d="M-24 778.5q0 12.5 6 12.5q16 0 73.5 -2.5t104.5 -2.5q57 0 136 2.5t105 2.5q6 0 6 -12.5t-6 -12.5q-71 0 -102 -18q-18 -10 -18 -29q0 -14 10 -33l237 -469l154 381q16 38 16 68q0 32 -18 56q-34 44 -125 44q-5 0 -5 12.5t5 12.5q29 0 93 -2.5t114 -2.5q32 0 77.5 2.5 t73.5 2.5q5 0 5 -12.5t-5 -12.5q-57 0 -99.5 -40.5t-80.5 -131.5l-252 -594q-6 -9 -23.5 -9t-23.5 9l-303 621q-44 89 -74 117t-75 28q-6 0 -6 12.5z" />
<glyph unicode="w" horiz-adv-x="1392" d="M-24 778.5q0 12.5 6 12.5q16 0 73.5 -2.5t104.5 -2.5q53 0 125.5 2.5t97.5 2.5q6 0 6 -12.5t-6 -12.5q-63 0 -93 -18q-16 -10 -16 -28q0 -15 11 -34l243 -465l134 328l-35 72q-44 90 -69 117.5t-62 27.5q-6 0 -6 12.5t6 12.5q16 0 67.5 -2.5t93.5 -2.5q53 0 126 2.5 t98 2.5q5 0 5 -12.5t-5 -12.5q-59 0 -87 -20q-16 -11 -16 -29q0 -14 10 -31l238 -467l152 379q16 39 16 69q0 33 -18 55q-34 44 -123 44q-6 0 -6 12.5t6 12.5q28 0 91 -2.5t113 -2.5q34 0 79.5 2.5t72.5 2.5q6 0 6 -12.5t-6 -12.5q-56 0 -98 -40t-80 -132l-254 -592 q-1 -8 -21.5 -8t-23.5 8l-242 490l-209 -490q-3 -8 -23 -8t-24 8l-303 619q-44 89 -74 117t-75 28q-6 0 -6 12.5z" />
<glyph unicode="x" horiz-adv-x="899" d="M8 12.5q0 12.5 6 12.5q60 0 128 47.5t128 130.5l111 149l-178 269q-45 69 -90.5 107t-81.5 38q-6 0 -6 12.5t6 12.5q20 0 63.5 -2.5t63.5 -2.5q51 0 126 2.5t101 2.5q5 0 5 -12.5t-5 -12.5q-53 0 -53 -30q0 -19 22 -50l127 -192l74 108q46 66 46 106q0 9 -2 16 q-12 42 -99 42q-4 0 -4 12.5t4 12.5q30 0 93 -2.5t114 -2.5q34 0 79 2.5t72 2.5q6 0 6 -12.5t-6 -12.5q-60 0 -128.5 -47t-129.5 -131l-94 -129l190 -289q96 -145 191 -145q6 0 6 -12.5t-6 -12.5q-23 0 -72 2t-72 2q-53 0 -127.5 -2t-99.5 -2q-6 0 -6 12.5t6 12.5 q44 0 52 19q2 4 1 9q0 19 -22 51l-141 213l-89 -129q-46 -66 -46 -105q0 -58 100 -58q6 0 6 -12.5t-6 -12.5q-28 0 -91.5 2t-113.5 2q-34 0 -79.5 -2t-72.5 -2q-6 0 -6 12.5z" />
<glyph unicode="y" horiz-adv-x="880" d="M-76 -481q0 40 24.5 62t61.5 22t77.5 -26t72.5 -26q70 0 128 88t150 328l-321 654q-46 90 -71.5 117.5t-63.5 27.5q-4 0 -4 12.5t4 12.5q25 0 80.5 -2.5t80.5 -2.5q53 0 126 2.5t98 2.5q6 0 6 -12.5t-6 -12.5q-73 0 -97 -18q-11 -8 -11 -24t11 -38l252 -512l135 393 q18 52 18 90q0 34 -14 58q-30 51 -122 51q-5 0 -5 12.5t5 12.5q29 0 92 -2.5t114 -2.5q32 0 78 2.5t74 2.5q5 0 5 -12.5t-5 -12.5q-61 0 -105 -49.5t-83 -149.5l-234 -624q-110 -290 -208 -404t-224 -114q-57 0 -88 24t-31 70z" />
<glyph unicode="z" horiz-adv-x="829" d="M72 561l80 301q1 4 7.5 4.5t12 -2t4.5 -6.5q-9 -40 13 -53.5t87 -13.5h459q9 0 14.5 -8.5t2.5 -16.5l-473 -717q-6 -14 10 -14q228 0 326 48t130 175q1 4 13 4t12 -4l-6 -235q0 -8 -5.5 -15.5t-13.5 -7.5h-657q-9 0 -14 8.5t0 16.5l469 723q7 14 -11 14 q-190 0 -295 -47.5t-141 -157.5q-1 -4 -7.5 -4t-12 2.5t-4.5 5.5z" />
<glyph unicode="{" horiz-adv-x="591" d="M60 623.5q0 13.5 6 13.5q34 5 59 34.5t39 70.5t22 102t10.5 115t2.5 124q0 89 5 149.5t19.5 107.5t35.5 73.5t58.5 43.5t82 22.5t112.5 5.5q8 0 8 -12.5t-8 -12.5q-60 0 -92.5 -56.5t-34.5 -160.5t-3.5 -150t-6 -116.5t-10 -98t-17.5 -72t-27.5 -62t-40.5 -43.5t-55 -42 t-73 -34q34 -15 60 -28.5t48 -32t38 -34.5t28.5 -42.5t21 -48t15 -60.5t9.5 -70t6 -86t4 -100t3 -119v-2q2 -104 34.5 -160.5t92.5 -56.5q8 0 8 -12.5t-8 -12.5q-68 0 -113.5 6t-82.5 23.5t-58 44t-35 74t-19 107.5t-5 149q0 72 -2.5 126t-10.5 115t-22 101.5t-39 69.5 t-59 34q-6 0 -6 13.5z" />
<glyph unicode="|" horiz-adv-x="344" d="M129 -315v1812q0 13 46 13t46 -13v-1812q0 -15 -46 -15t-46 15z" />
<glyph unicode="}" horiz-adv-x="579" d="M60 -227.5q0 12.5 8 12.5q60 0 92.5 56.5t34.5 160.5q7 280 21 366q19 119 83 179q44 41 129 78q-43 18 -73 34t-55 42t-40.5 43.5t-27.5 62t-17.5 72t-10 98t-6 116.5t-3.5 150t-34.5 160.5t-92.5 56.5q-8 0 -8 12.5t8 12.5q68 0 112.5 -5.5t82 -22.5t58.5 -43.5 t35.5 -73.5t19.5 -107.5t5 -149.5q0 -58 1.5 -104t6.5 -98.5t14 -91.5t23.5 -73.5t36.5 -54.5t51 -24q6 0 6 -13.5t-6 -13.5q-34 -5 -59 -34t-39 -69.5t-22 -101.5t-10.5 -115t-2.5 -126q0 -89 -5 -149t-19 -107.5t-35 -74t-58 -44t-82.5 -23.5t-113.5 -6q-8 0 -8 12.5z" />
<glyph unicode="~" horiz-adv-x="907" d="M98 305q126 193 246 193q40 0 139.5 -37t159.5 -37q40 0 72 14t46.5 27.5t35.5 38.5q5 3 11.5 -4t2.5 -11q-78 -116 -125.5 -155t-105.5 -39q-54 0 -154 37t-162 37q-20 0 -36.5 -3.5t-27 -6.5t-24.5 -13t-19.5 -14.5t-21.5 -20t-22 -20.5q-2 -2 -6.5 -0.5t-7.5 6t-1 8.5 z" />
<glyph unicode="&#xa1;" horiz-adv-x="528" d="M137 -539q31 121 53 292t30.5 285.5t19.5 299.5q0 9 28.5 9t28.5 -9q9 -182 17 -298.5t29 -287t50 -291.5q1 -7 -20.5 -13t-50.5 -8.5t-56 -2.5q-47 0 -89.5 6.5t-39.5 17.5zM160 635q0 53 29 83t81 30t82.5 -30t30.5 -83q0 -50 -30.5 -78.5t-82.5 -28.5t-81 28.5 t-29 78.5z" />
<glyph unicode="&#xa2;" horiz-adv-x="1091" d="M66 483q0 197 139.5 335.5t355.5 160.5v170q0 15 27.5 15t27.5 -15v-166h17q78 0 166 -15.5t145 -43.5q23 -10 25 -35l12 -211q0 -6 -11 -7.5t-14 5.5q-122 259 -340 268v-928q12 -2 35 -2q112 0 189.5 65.5t134.5 207.5q5 7 14.5 5.5t9.5 -7.5l-20 -217q-2 -18 -6.5 -24 t-22.5 -13q-160 -56 -327 -56h-7v-184q0 -13 -27.5 -13t-27.5 13v186q-107 8 -193.5 44.5t-141.5 87.5t-92 116.5t-52.5 129.5t-15.5 128zM276 514q0 -111 28.5 -209t95 -176.5t161.5 -103.5v917q-133 -17 -209 -134t-76 -294z" />
<glyph unicode="&#xa3;" horiz-adv-x="884" d="M34 12q0 12 5 13q58 13 96 35t56 51t24 58t4 67q-5 102 -35 206h-90q-14 0 -14 28t14 28h72q-35 107 -35 176q0 81 30.5 142.5t84 97t118.5 52.5t140 17q98 0 184 -29q30 -12 33 -39l14 -210q0 -9 -10.5 -9t-13.5 9q-24 55 -44.5 92.5t-50 74.5t-67 55.5t-82.5 18.5 q-86 0 -124 -59t-38 -144q0 -42 9 -90t16.5 -73.5t25.5 -81.5h205q13 0 13 -28t-13 -28h-190q20 -75 20 -139q0 -76 -25.5 -123.5t-70.5 -85.5h219q130 0 173.5 30.5t66.5 135.5q0 4 6 4.5t12 -1.5t6 -5q-18 -106 -18 -227q0 -17 -7 -24t-24 -7h-690q-5 0 -5 12z" />
<glyph unicode="&#xa4;" horiz-adv-x="847" d="M96 696l70 66l104 -115q74 39 162 39q82 0 154 -43l102 111l60 -58l-103 -102q70 -77 70 -182q0 -99 -68 -174l103 -103l-74 -67l-98 112q-80 -47 -177 -47q-78 0 -141 37l-94 -102l-60 61l91 94q-72 81 -72 191q0 109 74 180zM260 457q0 -69 18 -130t60.5 -105 t101.5 -44q61 0 97 50t36 141q0 110 -51 191t-137 81q-57 0 -91 -47t-34 -137z" />
<glyph unicode="&#xa5;" horiz-adv-x="1009" d="M2 946q0 12 4 12q18 0 75 -3t75 -3q53 0 163.5 3t137.5 3q5 0 5 -12t-5 -12q-145 0 -74 -107l201 -313l131 238q43 76 26 129t-94 53q-5 0 -5 12t5 12q34 0 106 -3t132 -3q25 0 59.5 3t56.5 3q5 0 5 -12t-5 -12q-127 0 -235 -184l-160 -279v-35h197q13 0 13 -24.5 t-13 -24.5h-197v-90h197q13 0 13 -24.5t-13 -24.5h-197v-82q0 -90 28.5 -115.5t131.5 -25.5q6 0 6 -12.5t-6 -12.5q-31 0 -114.5 2t-137.5 2q-47 0 -133 -2t-119 -2q-6 0 -6 12.5t6 12.5q102 0 132 26t30 115v82h-201q-13 0 -13 24.5t13 24.5h201v90h-201q-13 0 -13 24.5 t13 24.5h201v2l-227 350q-51 79 -95 112.5t-96 33.5q-4 0 -4 12z" />
<glyph unicode="&#xa6;" horiz-adv-x="344" d="M129 -315v757q0 15 46 15t46 -15v-757q0 -15 -46 -15t-46 15zM129 737v760q0 13 46 13t46 -13v-760q0 -13 -46 -13t-46 13z" />
<glyph unicode="&#xa7;" horiz-adv-x="966" d="M162 451q0 74 31.5 134t117.5 134q-82 82 -82 184q0 88 50 150.5t123.5 90t160.5 27.5q110 0 178 -38q23 -11 23 -33l16 -228q0 -4 -11 -4t-13 4q-13 33 -34 70t-54 81t-79 72.5t-95 28.5q-52 0 -83.5 -35t-31.5 -106q0 -62 26 -112.5t68 -86.5t92.5 -69.5t101.5 -69.5 t93 -77t68 -101t26 -133t-31.5 -133t-117.5 -133q83 -83 83 -187q0 -88 -50 -150t-123.5 -89t-161.5 -27q-105 0 -177 37q-22 15 -22 35l-16 225q0 6 11 6t13 -6q11 -31 32.5 -68.5t54.5 -81t79 -72t94 -28.5q54 0 85.5 35t31.5 106q0 62 -26.5 112.5t-68.5 87t-93 70 t-101.5 69t-92.5 76.5t-68.5 100.5t-26.5 132.5zM297 543q0 -74 24.5 -134t69.5 -104.5t88.5 -76t104.5 -71t94 -67.5q39 59 39 154q0 62 -19 115.5t-47 90t-70.5 73t-80 60.5t-85 56t-77.5 57q-41 -58 -41 -153z" />
<glyph unicode="&#xa8;" horiz-adv-x="659" d="M49 1063q0 46 28 72t77 26q46 0 72 -26t26 -72q0 -49 -26 -75.5t-72 -26.5q-50 0 -77.5 26.5t-27.5 75.5zM408 1063q0 45 27 70.5t75 25.5q47 0 72.5 -25t25.5 -71q0 -49 -25.5 -75.5t-72.5 -26.5q-48 0 -75 26.5t-27 75.5z" />
<glyph unicode="&#xa9;" horiz-adv-x="1484" d="M137 385q0 139 59 261t156 204t223 129t259 47q119 0 220 -39t168 -104.5t104.5 -152t37.5 -181.5q0 -91 -39.5 -176t-108 -150t-168 -104t-212.5 -39q-79 0 -143 18.5t-106 49.5t-70.5 72.5t-41 86t-12.5 92.5q0 80 31.5 147t82.5 109.5t114.5 66t129.5 23.5 q52 0 98.5 -12t79.5 -39t33 -65q0 -36 -19.5 -57t-58.5 -21q-29 0 -48 18t-36 49q-18 29 -27 42t-32.5 27.5t-52.5 14.5q-72 0 -100.5 -59t-28.5 -178q0 -144 74.5 -237t228.5 -93q127 0 220 95.5t93 256.5q0 134 -62 246.5t-173 179t-246 66.5q-116 0 -210.5 -43 t-156 -117.5t-94.5 -173t-33 -209.5q0 -179 77.5 -313t205.5 -201t287 -67q110 0 200 22t189 80q3 2 6.5 -1.5t4.5 -8t-1 -6.5q-112 -89 -225.5 -122.5t-241.5 -33.5q-123 0 -236 40t-202.5 113.5t-143 189.5t-53.5 257z" />
<glyph unicode="&#xaa;" horiz-adv-x="583" d="M59 827q0 35 22 59t77 44l194 67v105q0 50 -6 82t-18 46t-24 18.5t-30 4.5q-31 0 -51 -29t-28 -75q-9 -70 -66 -70q-32 0 -51 18t-19 46q0 35 48.5 70t111.5 56t111 21q61 0 99 -37t38 -110v-240q0 -69 19 -82t73 13q5 2 9.5 -2t5 -9t-2.5 -8l-139 -65q-24 -11 -47.5 10 t-30.5 65l-67 -37q-43 -24 -70 -32t-61 -8q-44 0 -70.5 22.5t-26.5 56.5zM69.5 632.5q1.5 16.5 6.5 16.5h463q9 0 9 -33.5t-9 -33.5h-461q-6 0 -8 17t-0.5 33.5zM190 864q0 -26 15.5 -40.5t40.5 -14.5q30 0 47 10l59 31v8v115l-104 -41q-31 -11 -44.5 -26t-13.5 -42z" />
<glyph unicode="&#xab;" horiz-adv-x="960" d="M104 410.5q0 14.5 9 23.5l376 305q6 8 14 -2q4 -5 1 -8l-209 -317l209 -318q2 -3 -0.5 -7.5t-7 -6t-7.5 1.5l-376 305q-9 9 -9 23.5zM440 410.5q0 14.5 9 23.5l378 305q2 3 6.5 2t7.5 -5t1 -7l-211 -317l211 -318q2 -7 -7 -13q-6 -2 -8 1l-378 305q-9 9 -9 23.5z" />
<glyph unicode="&#xac;" horiz-adv-x="808" d="M61.5 530.5q1.5 22.5 6.5 22.5h677v-395q0 -6 -23 -8t-46 -0.5t-23 6.5v307h-583q-6 0 -8 22.5t-0.5 45z" />
<glyph unicode="&#xad;" horiz-adv-x="577" d="M56 412.5q1 26.5 5 27.5l439 72q6 1 8 -24.5t0 -52t-8 -27.5l-434 -72q-6 -1 -8.5 24.5t-1.5 52z" />
<glyph unicode="&#xae;" horiz-adv-x="1521" d="M137 864q0 138 56 256t149.5 197t215.5 123.5t255 44.5q132 0 243 -43.5t186.5 -119t118 -178.5t42.5 -220q0 -175 -87 -322.5t-237.5 -233t-330.5 -85.5q-115 0 -224 40.5t-195.5 113.5t-139 184.5t-52.5 242.5zM252 932q0 -131 46.5 -244t124.5 -188.5t180.5 -118.5 t215.5 -43q223 0 344 143t121 377q0 264 -152.5 421t-394.5 157q-122 0 -217 -41t-152.5 -112t-86.5 -160t-29 -191zM478 571.5q0 12.5 3 12.5q53 0 65.5 14.5t12.5 75.5v440q0 58 -13.5 75t-64.5 17q-3 0 -3 12.5t3 12.5q19 0 71 -2t77 -2t84.5 4t81.5 4q101 0 150.5 -33.5 t49.5 -105.5q0 -118 -112 -174q80 -166 136.5 -240.5t131.5 -106.5q5 -1 5 -8.5t-5 -7.5h-186q-20 0 -67 82.5t-126 247.5q-41 -6 -88 -6v-209q0 -61 15.5 -75.5t76.5 -14.5q3 0 3 -12.5t-3 -12.5q-18 0 -66.5 1t-80.5 1q-26 0 -79 -1t-69 -1q-3 0 -3 12.5zM684 915 q100 -9 141 21.5t41 116.5q0 155 -104 155q-48 0 -63 -15.5t-15 -82.5v-195z" />
<glyph unicode="&#xaf;" horiz-adv-x="706" d="M77 1012q0 35 19 35h514q19 0 19 -35t-19 -35h-514q-19 0 -19 35z" />
<glyph unicode="&#xb0;" horiz-adv-x="679" d="M59 1030q0 108 79 184t204 76t202 -75.5t77 -188.5q0 -112 -77.5 -187t-201.5 -75q-126 0 -204.5 76t-78.5 190zM205 1036q0 -117 33 -181t118 -64q32 0 54.5 11t35.5 28.5t20 47.5t9 60t2 74q0 252 -147 252q-51 0 -79.5 -31.5t-37 -77.5t-8.5 -119z" />
<glyph unicode="&#xb1;" horiz-adv-x="815" d="M61.5 65q1.5 21 6.5 21h677q9 0 9 -42t-9 -42h-675q-6 0 -8 21t-0.5 42zM61.5 539.5q1.5 23.5 6.5 23.5h292v293q0 9 47.5 9t47.5 -9v-293h290q9 0 9 -47t-9 -47h-290v-289q0 -6 -23.5 -8t-47.5 -0.5t-24 6.5v291h-290q-6 0 -8 23.5t-0.5 47z" />
<glyph unicode="&#xb2;" horiz-adv-x="516" d="M48 829.5q-2 4.5 1 8.5q17 68 49 127t65.5 99t64.5 78.5t51 83.5t20 97q0 60 -24.5 89.5t-65.5 29.5q-47 0 -82 -31t-49 -78q-2 -9 -16 -4q-10 3 -7 8q47 158 203 158q86 0 130 -41.5t44 -107.5q0 -48 -26.5 -94t-66.5 -83.5t-81.5 -72.5t-78.5 -75.5t-50 -78.5 q0 -8 6 -8q129 0 187.5 6.5t83 25t28.5 60.5q0 3 10.5 3t10.5 -3l-2 -190q0 -3 -3 -7t-6 -4h-389q-5 0 -7 4.5z" />
<glyph unicode="&#xb3;" horiz-adv-x="514" d="M45 954q-1 5 4.5 8t11.5 3t7 -4q17 -47 53 -73t82 -26q49 0 86 36t37 116q0 98 -47 153q-20 -10 -64 -28q-6 -2 -11.5 1.5t-6.5 8.5t2 8q46 29 73 76.5t27 97.5q0 48 -27.5 77.5t-68.5 29.5q-43 0 -77 -30t-46 -75q-2 -9 -16 -4q-10 3 -7 8q43 158 197 158 q85 0 132.5 -43.5t47.5 -101.5q0 -82 -117 -158q66 -22 105 -67.5t39 -102.5q0 -76 -64 -142.5t-170 -66.5q-79 0 -120 36.5t-62 104.5z" />
<glyph unicode="&#xb4;" horiz-adv-x="434" d="M119 975l80 491q7 13 101 26q82 11 75 -3l-234 -518q-1 -4 -7 -4t-11 2.5t-4 5.5z" />
<glyph unicode="&#xb6;" horiz-adv-x="1333" d="M111 791q0 243 152 369t423 126q42 0 141.5 -6t163.5 -6q39 0 116 3t110 3q5 0 5 -12.5t-5 -12.5q-89 0 -136 -42.5t-47 -122.5l2 -977q0 -264 -77.5 -386t-249.5 -122q-77 0 -122.5 29t-45.5 81q0 38 22.5 62t67.5 24q36 0 56.5 -16t26.5 -38.5t10.5 -45.5t15.5 -39 t34 -16q45 0 63.5 80.5t18.5 289.5v240q-50 -6 -115 -6q-92 0 -178.5 16.5t-169.5 57t-145 100.5t-99.5 154.5t-37.5 212.5z" />
<glyph unicode="&#xb7;" horiz-adv-x="399" d="M86 412q0 49 30 77.5t83 28.5q52 0 81 -28t29 -78q0 -53 -29 -83t-81 -30q-53 0 -83 30.5t-30 82.5z" />
<glyph unicode="&#xb8;" horiz-adv-x="475" d="M41 -471q0 28 22 50t52 22q34 0 52 -18.5t23 -41t22 -41t50 -18.5q53 0 53 59q0 54 -38 96.5t-134 96.5q-19 9 -21 19t9 38q43 108 78 207l35 -2q-23 -79 -10 -117t77 -76q53 -31 83 -66t30 -91q0 -37 -13.5 -72.5t-40.5 -67t-74.5 -50.5t-109.5 -19q-145 0 -145 92z" />
<glyph unicode="&#xb9;" horiz-adv-x="536" d="M57 1363.5q-1 5.5 2 8.5l265 119q8 4 14 -1.5t6 -12.5v-486q0 -97 19.5 -119t107.5 -22q5 0 5 -12.5t-5 -12.5q-24 0 -87 3t-101 3q-40 0 -107.5 -3t-91.5 -3q-6 0 -6 12.5t6 12.5q89 0 110 22t21 119v242q0 48 -0.5 71t-6 45.5t-12.5 28t-25.5 5.5t-39.5 -8t-59 -25 q-4 -2 -9 3t-6 10.5z" />
<glyph unicode="&#xba;" horiz-adv-x="659" d="M59 1020q0 66 26 119.5t68.5 85t91.5 48.5t99 17q118 0 188 -82t70 -194q0 -116 -84 -197.5t-199 -81.5q-117 0 -188.5 83t-71.5 202zM74.5 632.5q1.5 16.5 5.5 16.5h500q8 0 8 -33.5t-8 -33.5h-496q-6 0 -8.5 17t-1 33.5zM188 1059q0 -119 47 -206t117 -87 q56 0 88.5 56.5t32.5 154.5q0 118 -47.5 199t-120.5 81q-56 0 -86.5 -51.5t-30.5 -146.5z" />
<glyph unicode="&#xbb;" horiz-adv-x="960" d="M119 85.5q-2 4.5 0 8.5l209 316l-209 319q-2 4 4 9.5t10 0.5l377 -305q9 -9 9 -23.5t-9 -23.5l-377 -305q-3 -4 -7.5 -2.5t-6.5 6zM455 94l211 316l-211 319q-2 5 6 11q6 4 8 -1l379 -305q9 -9 9 -23.5t-9 -23.5l-379 -305q-4 -7 -11 1q-5 6 -3 11z" />
<glyph unicode="&#xbc;" horiz-adv-x="1239" d="M57 1171q-1 6 2 9l265 118q8 3 14 -2.5t6 -11.5v-487q0 -97 20 -119.5t107 -22.5q5 0 5 -11t-5 -11q-24 0 -87 2t-101 2q-40 0 -107.5 -2t-91.5 -2q-6 0 -6 11t6 11q89 0 110 22.5t21 119.5v243q0 48 -0.5 71t-6 45.5t-12.5 28t-25.5 5.5t-39.5 -8t-59 -25q-4 -2 -9 3 t-6 11zM324 27l571 1261q4 7 33.5 -6t27.5 -18l-571 -1266q-2 -3 -17.5 2.5t-30 14t-13.5 12.5zM717 200q-4 7 0 13l334 444q7 9 31 7.5t24 -9.5v-424q15 1 44 2.5t42 2.5q4 0 4 -28t-4 -28q-15 1 -43 2t-43 2v-100q0 -40 13 -50.5t73 -10.5q2 0 2 -12.5t-2 -12.5 q-20 0 -63.5 1t-73.5 1q-36 0 -94 -1t-80 -1q-3 0 -3 12.5t3 12.5q68 0 86 10t18 51v104q-180 5 -256 5q-8 0 -12 7zM791 229q-3 -6 6 -6q42 0 104 1t84 1v279z" />
<glyph unicode="&#xbd;" horiz-adv-x="1251" d="M57 1171q-1 6 2 9l265 118q8 3 14 -2.5t6 -11.5v-487q0 -97 20 -119.5t107 -22.5q5 0 5 -11t-5 -11q-24 0 -87 2t-101 2q-40 0 -107.5 -2t-91.5 -2q-6 0 -6 11t6 11q89 0 110 22.5t21 119.5v243q0 48 -0.5 71t-6 45.5t-12.5 28t-25.5 5.5t-39.5 -8t-59 -25q-4 -2 -9 3 t-6 11zM324 27l571 1261q4 7 33.5 -6t27.5 -18l-571 -1266q-2 -3 -17.5 2.5t-30 14t-13.5 12.5zM784 12q17 68 49 127t65.5 99t64.5 79t51 84t20 97q0 60 -24.5 88t-65.5 28q-48 0 -82.5 -30t-48.5 -76q-2 -9 -16 -4q-8 3 -6 8q46 156 202 156q86 0 130 -41t44 -107 q0 -48 -26.5 -94t-66.5 -83.5t-81.5 -72t-78.5 -75t-50 -78.5q0 -8 6 -8q66 0 107.5 1t77.5 4.5t54.5 9.5t32.5 16.5t19.5 24t7.5 34.5q0 5 10.5 5t10.5 -5l-2 -189q0 -10 -8 -10h-389q-13 0 -7 12z" />
<glyph unicode="&#xbe;" horiz-adv-x="1216" d="M45 762q-1 5 4.5 8t11.5 2t7 -6q17 -46 53 -72t82 -26q50 0 86.5 36t36.5 117q0 99 -50 154q-23 -14 -61 -29q-10 -5 -17 7q-4 8 1 10q46 31 73 78t27 96q0 48 -27.5 77t-68.5 29q-43 0 -77 -29t-46 -73q-2 -9 -16 -5q-10 3 -7 9q42 155 197 155q85 0 132.5 -43 t47.5 -100q0 -83 -119 -160q67 -22 106.5 -67t39.5 -103q0 -74 -64 -140t-170 -66q-79 0 -120 36.5t-62 104.5zM301 27l571 1261q4 7 34 -6t28 -18l-572 -1266q-2 -3 -17.5 2.5t-30 14t-13.5 12.5zM694 213l334 444q8 9 31.5 7.5t23.5 -9.5v-424q15 1 44 2.5t42 2.5 q5 0 5 -28t-5 -28q-14 1 -43 2t-43 2v-100q0 -40 13 -50.5t73 -10.5q1 0 1 -12.5t-1 -12.5q-20 0 -63.5 1t-73.5 1q-36 0 -94 -1t-80 -1q-3 0 -3 12.5t3 12.5q69 0 87 10t18 51v104q-180 5 -256 5q-8 0 -12.5 7t-0.5 13zM768 229q-3 -6 6 -6q42 0 104.5 1t84.5 1v279z" />
<glyph unicode="&#xbf;" horiz-adv-x="669" d="M31 -319q0 34 8.5 64.5t19.5 51.5t33.5 46.5t36.5 38.5t44 38.5t42 36.5q66 60 95.5 119.5t29.5 132.5q0 40 -12 108q-1 5 6 8.5t14 3.5t10 -3q24 -55 39 -126.5t15 -121.5q0 -53 -19 -95.5t-46 -73t-53.5 -62.5t-45.5 -81t-19 -112q0 -79 29 -130.5t78 -51.5 q36 0 49.5 24t17.5 64q3 24 7.5 40.5t15 38.5t31.5 34t51 12q47 0 69.5 -26t22.5 -62q0 -68 -77 -114t-189 -46q-128 0 -215.5 63.5t-87.5 180.5zM233 627q0 53 29.5 82.5t81.5 29.5q53 0 83 -30t30 -82q0 -50 -30.5 -78.5t-82.5 -28.5t-81.5 28.5t-29.5 78.5z" />
<glyph unicode="&#xc0;" horiz-adv-x="1456" d="M-13 12.5q0 12.5 9 12.5q83 0 135 54.5t127 221.5l438 991q2 5 17 5.5t18 -5.5l500 -1011q73 -147 121 -201.5t104 -54.5q9 0 9 -12.5t-9 -12.5q-40 0 -125 4t-125 4q-47 0 -118 -4t-111 -4q-9 0 -9 12.5t9 12.5q93 0 110 33t-30 128l-221 449h-371l-158 -354 q-50 -125 -3.5 -190.5t171.5 -65.5q9 0 9 -12.5t-9 -12.5q-37 0 -111.5 4t-130.5 4q-53 0 -124 -4t-113 -4q-9 0 -9 12.5zM465 1548q-22 4 27 27q74 35 132 44q18 2 23 -1q29 -21 84.5 -64t103.5 -78t95 -65q4 -3 4.5 -8.5t-4 -10t-10.5 -1.5q-225 100 -455 157zM487 688 h322l-168 342z" />
<glyph unicode="&#xc1;" horiz-adv-x="1456" d="M-13 12.5q0 12.5 9 12.5q83 0 135 54.5t127 221.5l438 991q2 5 17 5.5t18 -5.5l500 -1011q73 -147 121 -201.5t104 -54.5q9 0 9 -12.5t-9 -12.5q-40 0 -125 4t-125 4q-47 0 -118 -4t-111 -4q-9 0 -9 12.5t9 12.5q93 0 110 33t-30 128l-221 449h-371l-158 -354 q-50 -125 -3.5 -190.5t171.5 -65.5q9 0 9 -12.5t-9 -12.5q-37 0 -111.5 4t-130.5 4q-53 0 -124 -4t-113 -4q-9 0 -9 12.5zM487 688h322l-168 342zM504.5 1405.5q0.5 4.5 3.5 5.5q49 30 96.5 65t102.5 78t84 64q17 12 114 -25q80 -30 75 -42q-1 -2 -7 -3q-223 -55 -455 -157 q-4 -2 -7.5 0t-5 6t-1 8.5z" />
<glyph unicode="&#xc2;" horiz-adv-x="1456" d="M-13 12.5q0 12.5 9 12.5q83 0 135 54.5t127 221.5l438 991q2 5 17 5.5t18 -5.5l500 -1011q73 -147 121 -201.5t104 -54.5q9 0 9 -12.5t-9 -12.5q-40 0 -125 4t-125 4q-47 0 -118 -4t-111 -4q-9 0 -9 12.5t9 12.5q93 0 110 33t-30 128l-221 449h-371l-158 -354 q-50 -125 -3.5 -190.5t171.5 -65.5q9 0 9 -12.5t-9 -12.5q-37 0 -111.5 4t-130.5 4q-53 0 -124 -4t-113 -4q-9 0 -9 12.5zM481 1335.5q-2 3.5 0 5.5l211 226q9 7 23.5 7t23.5 -7l209 -226q3 -2 2 -6t-5 -7t-7 -1l-221 92l-223 -92q-2 -1 -6.5 2t-6.5 6.5zM487 688h322 l-168 342z" />
<glyph unicode="&#xc3;" horiz-adv-x="1456" d="M-13 12.5q0 12.5 9 12.5q83 0 135 54.5t127 221.5l438 991q2 5 17 5.5t18 -5.5l500 -1011q73 -147 121 -201.5t104 -54.5q9 0 9 -12.5t-9 -12.5q-40 0 -125 4t-125 4q-47 0 -118 -4t-111 -4q-9 0 -9 12.5t9 12.5q93 0 110 33t-30 128l-221 449h-371l-158 -354 q-50 -125 -3.5 -190.5t171.5 -65.5q9 0 9 -12.5t-9 -12.5q-37 0 -111.5 4t-130.5 4q-53 0 -124 -4t-113 -4q-9 0 -9 12.5zM453 1442q89 153 178 153q25 0 112.5 -25.5t137.5 -25.5q34 0 55.5 12.5t48.5 42.5q2 2 6 0.5t7 -6t1 -8.5q-56 -90 -91 -120.5t-77 -30.5 q-38 0 -124.5 24.5t-135.5 24.5q-12 0 -22 -1t-19.5 -5t-14.5 -5.5t-13.5 -9t-10.5 -9.5t-12 -13t-12 -13t-6 0.5t-7 7t-1 7.5zM487 688h322l-168 342z" />
<glyph unicode="&#xc4;" horiz-adv-x="1456" d="M-13 12.5q0 12.5 9 12.5q83 0 135 54.5t127 221.5l438 991q2 5 17 5.5t18 -5.5l500 -1011q73 -147 121 -201.5t104 -54.5q9 0 9 -12.5t-9 -12.5q-40 0 -125 4t-125 4q-47 0 -118 -4t-111 -4q-9 0 -9 12.5t9 12.5q93 0 110 33t-30 128l-221 449h-371l-158 -354 q-50 -125 -3.5 -190.5t171.5 -65.5q9 0 9 -12.5t-9 -12.5q-37 0 -111.5 4t-130.5 4q-53 0 -124 -4t-113 -4q-9 0 -9 12.5zM436 1552q0 46 28 72.5t77 26.5q46 0 72 -26.5t26 -72.5q0 -49 -26 -75.5t-72 -26.5q-50 0 -77.5 26.5t-27.5 75.5zM487 688h322l-168 342zM795 1552 q0 46 27.5 71.5t74.5 25.5t72.5 -25.5t25.5 -71.5q0 -49 -25.5 -75.5t-72.5 -26.5q-48 0 -75 26.5t-27 75.5z" />
<glyph unicode="&#xc5;" horiz-adv-x="1456" d="M-13 12.5q0 12.5 9 12.5q83 0 135 54.5t127 221.5l438 991q2 5 17 5.5t18 -5.5l500 -1011q73 -147 121 -201.5t104 -54.5q9 0 9 -12.5t-9 -12.5q-40 0 -125 4t-125 4q-47 0 -118 -4t-111 -4q-9 0 -9 12.5t9 12.5q93 0 110 33t-30 128l-221 449h-371l-158 -354 q-50 -125 -3.5 -190.5t171.5 -65.5q9 0 9 -12.5t-9 -12.5q-37 0 -111.5 4t-130.5 4q-53 0 -124 -4t-113 -4q-9 0 -9 12.5zM487 688h322l-168 342zM498 1518q0 73 69 115t154 42t145 -47.5t60 -116.5q0 -71 -68 -114t-156 -43q-94 0 -149 48.5t-55 115.5zM627 1559 q0 -69 29 -124t77 -55q32 0 47 23t15 74q0 69 -34 120.5t-81 51.5q-53 0 -53 -90z" />
<glyph unicode="&#xc6;" horiz-adv-x="1808" d="M-17 12.5q0 12.5 9 12.5q79 0 152.5 58t158.5 187l600 906q34 48 23 61q-12 17 -119 18h-35q-4 0 -4 12.5t4 12.5h856q19 0 19 -18l6 -267q0 -5 -11.5 -5.5t-13.5 3.5q-15 85 -92.5 159.5t-175.5 74.5h-94q-74 0 -103.5 -26t-29.5 -89v-420h190q223 0 223 152q0 6 12.5 6 t12.5 -6q0 -48 -1 -102t-1 -76q0 -33 2 -98t2 -103q0 -6 -12.5 -6t-12.5 6q0 174 -229 174h-186v-465q0 -67 25 -94t89 -27h113q106 0 203.5 78t126.5 188q2 4 13 2.5t11 -6.5q-18 -140 -18 -284q0 -17 -7 -24t-26 -7h-872q-6 0 -6 12.5t6 12.5q98 0 126.5 26t28.5 115v473 h-323l-238 -365q-75 -118 -50 -183.5t148 -65.5q9 0 9 -12.5t-9 -12.5q-44 0 -128 4t-148 4q-49 0 -113 -4t-102 -4q-9 0 -9 12.5zM657 692h289v445z" />
<glyph unicode="&#xc7;" horiz-adv-x="1396" d="M100 637q0 193 99.5 345.5t274 236.5t390.5 84q220 0 367 -64q17 -7 21.5 -15t7.5 -32l24 -270q0 -6 -9.5 -8t-12.5 4q-111 346 -422 346q-229 0 -371.5 -167.5t-142.5 -449.5q0 -280 150 -456.5t380 -176.5q150 0 248.5 79t173.5 251q4 7 14.5 5t10.5 -7l-27 -244 q-3 -26 -7.5 -33.5t-21.5 -13.5q-187 -76 -391 -76h-8q-17 -68 -2 -102t76 -70q52 -30 82 -65.5t30 -91.5q0 -82 -59.5 -145.5t-177.5 -63.5q-146 0 -146 92q0 28 22 50t52 22q34 0 52 -18.5t23 -41t22 -41t50 -18.5q54 0 54 59q0 54 -38 96.5t-134 96.5q-19 9 -21 19t8 38 q46 114 70 184q-206 9 -368 94t-252.5 233t-90.5 335z" />
<glyph unicode="&#xc8;" horiz-adv-x="1120" d="M80 12.5q0 12.5 6 12.5q99 0 127.5 25.5t28.5 115.5v948q0 88 -28.5 114.5t-127.5 26.5q-6 0 -6 12.5t6 12.5h854q18 0 18 -18l5 -267q0 -3 -5.5 -4.5t-11.5 -1t-6 3.5q-52 234 -287 234h-82q-75 0 -105 -27t-30 -92v-416h199q223 0 223 152q0 6 12.5 6t12.5 -6 q0 -48 -2 -102t-2 -76q0 -33 3 -98t3 -103q0 -6 -12.5 -6t-12.5 6q0 174 -229 174h-195v-465q0 -68 25.5 -94.5t91.5 -26.5h100q275 0 348 266q1 4 13 2.5t12 -6.5q-20 -156 -20 -284q0 -18 -6.5 -24.5t-24.5 -6.5h-889q-6 0 -6 12.5zM354 1548q-22 4 27 27q75 35 133 44 q18 3 23 -1q30 -22 84.5 -64t102.5 -77.5t95 -65.5q4 -3 4.5 -8.5t-4 -10t-10.5 -1.5q-225 100 -455 157z" />
<glyph unicode="&#xc9;" horiz-adv-x="1120" d="M80 12.5q0 12.5 6 12.5q99 0 127.5 25.5t28.5 115.5v948q0 88 -28.5 114.5t-127.5 26.5q-6 0 -6 12.5t6 12.5h854q18 0 18 -18l5 -267q0 -3 -5.5 -4.5t-11.5 -1t-6 3.5q-52 234 -287 234h-82q-75 0 -105 -27t-30 -92v-416h199q223 0 223 152q0 6 12.5 6t12.5 -6 q0 -48 -2 -102t-2 -76q0 -33 3 -98t3 -103q0 -6 -12.5 -6t-12.5 6q0 174 -229 174h-195v-465q0 -68 25.5 -94.5t91.5 -26.5h100q275 0 348 266q1 4 13 2.5t12 -6.5q-20 -156 -20 -284q0 -18 -6.5 -24.5t-24.5 -6.5h-889q-6 0 -6 12.5zM394 1402.5q0 5.5 3 8.5q49 30 96.5 65 t102.5 78t84 64q17 12 114 -25q80 -30 75 -42q-1 -2 -7 -3q-220 -55 -454 -157q-6 -3 -10 1.5t-4 10z" />
<glyph unicode="&#xca;" horiz-adv-x="1120" d="M80 12.5q0 12.5 6 12.5q99 0 127.5 25.5t28.5 115.5v948q0 88 -28.5 114.5t-127.5 26.5q-6 0 -6 12.5t6 12.5h854q18 0 18 -18l5 -267q0 -3 -5.5 -4.5t-11.5 -1t-6 3.5q-52 234 -287 234h-82q-75 0 -105 -27t-30 -92v-416h199q223 0 223 152q0 6 12.5 6t12.5 -6 q0 -48 -2 -102t-2 -76q0 -33 3 -98t3 -103q0 -6 -12.5 -6t-12.5 6q0 174 -229 174h-195v-465q0 -68 25.5 -94.5t91.5 -26.5h100q275 0 348 266q1 4 13 2.5t12 -6.5q-20 -156 -20 -284q0 -18 -6.5 -24.5t-24.5 -6.5h-889q-6 0 -6 12.5zM373 1426q-2 4 0 6l211 225q9 7 23.5 7 t23.5 -7l209 -225q3 -2 2 -6.5t-5.5 -7.5t-7.5 -1l-221 92l-223 -92q-2 -1 -6 2t-6 7z" />
<glyph unicode="&#xcb;" horiz-adv-x="1120" d="M80 12.5q0 12.5 6 12.5q99 0 127.5 25.5t28.5 115.5v948q0 88 -28.5 114.5t-127.5 26.5q-6 0 -6 12.5t6 12.5h854q18 0 18 -18l5 -267q0 -3 -5.5 -4.5t-11.5 -1t-6 3.5q-52 234 -287 234h-82q-75 0 -105 -27t-30 -92v-416h199q223 0 223 152q0 6 12.5 6t12.5 -6 q0 -48 -2 -102t-2 -76q0 -33 3 -98t3 -103q0 -6 -12.5 -6t-12.5 6q0 174 -229 174h-195v-465q0 -68 25.5 -94.5t91.5 -26.5h100q275 0 348 266q1 4 13 2.5t12 -6.5q-20 -156 -20 -284q0 -18 -6.5 -24.5t-24.5 -6.5h-889q-6 0 -6 12.5zM326 1552q0 46 27.5 72.5t76.5 26.5 q46 0 72 -26.5t26 -72.5q0 -49 -26 -75.5t-72 -26.5q-50 0 -77 26.5t-27 75.5zM684 1552q0 46 27.5 71.5t74.5 25.5t73 -25.5t26 -71.5q0 -49 -26 -75.5t-73 -26.5q-48 0 -75 26.5t-27 75.5z" />
<glyph unicode="&#xcc;" horiz-adv-x="692" d="M84 12.5q0 12.5 6 12.5q100 0 129 26t29 115v948q0 88 -29.5 114.5t-128.5 26.5q-6 0 -6 12.5t6 12.5q32 0 117.5 -3t136.5 -3q55 0 141.5 3t116.5 3q4 0 4 -12.5t-4 -12.5q-98 0 -127 -28t-29 -117v-944q0 -90 27 -115.5t129 -25.5q4 0 4 -12.5t-4 -12.5q-32 0 -117.5 2 t-140.5 2q-51 0 -136.5 -2t-117.5 -2q-6 0 -6 12.5zM94 1548q-22 4 27 27q74 35 132 44q18 3 23 -1q29 -21 84.5 -64t103.5 -78t95 -65q4 -3 4.5 -8.5t-4 -10t-10.5 -1.5q-225 100 -455 157z" />
<glyph unicode="&#xcd;" horiz-adv-x="692" d="M84 12.5q0 12.5 6 12.5q100 0 129 26t29 115v948q0 88 -29.5 114.5t-128.5 26.5q-6 0 -6 12.5t6 12.5q32 0 117.5 -3t136.5 -3q55 0 141.5 3t116.5 3q4 0 4 -12.5t-4 -12.5q-98 0 -127 -28t-29 -117v-944q0 -90 27 -115.5t129 -25.5q4 0 4 -12.5t-4 -12.5q-32 0 -117.5 2 t-140.5 2q-51 0 -136.5 -2t-117.5 -2q-6 0 -6 12.5zM134 1397.5q-4 10.5 3 13.5q49 30 96.5 65t102.5 78t84 64q17 12 114 -25q80 -30 75 -42q-1 -2 -7 -3q-223 -55 -455 -157q-9 -4 -13 6.5z" />
<glyph unicode="&#xce;" horiz-adv-x="692" d="M84 12.5q0 12.5 6 12.5q100 0 129 26t29 115v948q0 88 -29.5 114.5t-128.5 26.5q-6 0 -6 12.5t6 12.5q32 0 117.5 -3t136.5 -3q55 0 141.5 3t116.5 3q4 0 4 -12.5t-4 -12.5q-98 0 -127 -28t-29 -117v-944q0 -90 27 -115.5t129 -25.5q4 0 4 -12.5t-4 -12.5q-32 0 -117.5 2 t-140.5 2q-51 0 -136.5 -2t-117.5 -2q-6 0 -6 12.5zM113 1426q-2 4 0 6l211 225q9 7 23.5 7t23.5 -7l209 -225q3 -2 2 -6.5t-5.5 -7.5t-7.5 -1l-221 92l-223 -92q-2 -1 -6 2t-6 7z" />
<glyph unicode="&#xcf;" horiz-adv-x="692" d="M84 12.5q0 12.5 6 12.5q100 0 129 26t29 115v948q0 88 -29.5 114.5t-128.5 26.5q-6 0 -6 12.5t6 12.5q32 0 117.5 -3t136.5 -3q55 0 141.5 3t116.5 3q4 0 4 -12.5t-4 -12.5q-98 0 -127 -28t-29 -117v-944q0 -90 27 -115.5t129 -25.5q4 0 4 -12.5t-4 -12.5q-32 0 -117.5 2 t-140.5 2q-51 0 -136.5 -2t-117.5 -2q-6 0 -6 12.5zM90 1552q0 45 28.5 72t76.5 27q47 0 73.5 -26.5t26.5 -72.5q0 -49 -26 -75.5t-74 -26.5t-76.5 26.5t-28.5 75.5zM397 1552q0 46 27 71.5t76 25.5q46 0 72 -25.5t26 -71.5q0 -49 -26 -75.5t-72 -26.5q-50 0 -76.5 26.5 t-26.5 75.5z" />
<glyph unicode="&#xd0;" horiz-adv-x="1435" d="M60 12.5q0 12.5 6 12.5q100 0 128.5 26t28.5 115v444h-114q-9 0 -9 27t9 27h114v450q0 89 -28 115t-127 26q-4 0 -4 12.5t4 12.5q32 0 116.5 -3t134.5 -3q51 0 158.5 5t145.5 5q157 0 291 -48t225 -131t142.5 -197.5t51.5 -245.5q0 -150 -54.5 -277t-147.5 -212.5 t-217 -133t-263 -47.5q-39 0 -158 6t-174 6q-50 0 -135.5 -2t-117.5 -2q-6 0 -6 12.5zM420 188q0 -84 43 -119.5t168 -35.5q217 0 350 153.5t133 429.5q0 176 -56.5 318t-165 225.5t-249.5 83.5q-129 0 -176 -24.5t-47 -108.5v-446h276q9 0 9 -27t-9 -27h-276v-422z" />
<glyph unicode="&#xd1;" horiz-adv-x="1499" d="M52 1267.5q0 12.5 5 12.5q26 0 80.5 -2t77.5 -2q47 0 111.5 2t76.5 2q13 0 23 -6.5t17 -16t24.5 -35t36.5 -48.5l737 -869v725q0 109 -42.5 167t-123.5 58q-5 0 -5 12.5t5 12.5q26 0 90 -3t103 -3q38 0 105 3t95 3q4 0 4 -12.5t-4 -12.5q-83 0 -127.5 -58t-44.5 -167 v-1059q0 -5 -10 -6.5t-14 2.5l-961 1116v-835q0 -108 43 -165.5t125 -57.5q5 0 5 -12.5t-5 -12.5q-28 0 -90.5 2t-101.5 2q-41 0 -113 -2t-102 -2q-6 0 -6 12.5t6 12.5q89 0 136.5 58t47.5 165v899q-103 108 -199 108q-5 0 -5 12.5zM514 1442q89 153 178 153 q25 0 112.5 -25.5t137.5 -25.5q35 0 56.5 12.5t48.5 42.5q2 2 6 0.5t7 -6t1 -8.5q-56 -90 -91 -120.5t-77 -30.5q-38 0 -124.5 24.5t-135.5 24.5q-11 0 -20.5 -1.5t-16 -2.5t-14.5 -5.5t-11.5 -6t-11.5 -8.5t-10 -9t-10.5 -11.5t-10.5 -11.5t-6 0.5t-7 7t-1 7.5z" />
<glyph unicode="&#xd2;" horiz-adv-x="1568" d="M100 639q0 129 43 239t115 187t165.5 131.5t195 80.5t202.5 26q146 0 270 -55t205.5 -146.5t126.5 -208t45 -240.5q0 -140 -58 -266t-155 -216t-229 -143t-276 -53q-191 0 -341 91t-229.5 242t-79.5 331zM319 713q0 -195 64 -352.5t178.5 -246.5t257.5 -89q188 0 309 151 t121 418q0 189 -61 337.5t-178 234t-271 85.5q-201 0 -310.5 -142.5t-109.5 -395.5zM541 1548q-22 4 27 27q74 35 132 44q18 2 23 -1q29 -21 84.5 -64t103.5 -78t95 -65q4 -3 4 -8.5t-4.5 -10t-10.5 -1.5q-226 101 -454 157z" />
<glyph unicode="&#xd3;" horiz-adv-x="1568" d="M100 639q0 129 43 239t115 187t165.5 131.5t195 80.5t202.5 26q146 0 270 -55t205.5 -146.5t126.5 -208t45 -240.5q0 -140 -58 -266t-155 -216t-229 -143t-276 -53q-191 0 -341 91t-229.5 242t-79.5 331zM319 713q0 -195 64 -352.5t178.5 -246.5t257.5 -89q188 0 309 151 t121 418q0 189 -61 337.5t-178 234t-271 85.5q-201 0 -310.5 -142.5t-109.5 -395.5zM580.5 1405.5q0.5 4.5 3.5 5.5q48 30 96 65.5t102 77.5t84 64q17 12 114 -24q81 -31 76 -43q-1 -2 -7 -3q-223 -55 -455 -157q-4 -2 -7.5 0t-5 6t-1 8.5z" />
<glyph unicode="&#xd4;" horiz-adv-x="1568" d="M100 639q0 129 43 239t115 187t165.5 131.5t195 80.5t202.5 26q146 0 270 -55t205.5 -146.5t126.5 -208t45 -240.5q0 -140 -58 -266t-155 -216t-229 -143t-276 -53q-191 0 -341 91t-229.5 242t-79.5 331zM319 713q0 -195 64 -352.5t178.5 -246.5t257.5 -89q188 0 309 151 t121 418q0 189 -61 337.5t-178 234t-271 85.5q-201 0 -310.5 -142.5t-109.5 -395.5zM559 1426q-2 4 0 6l211 225q9 7 23.5 7t23.5 -7l209 -225q3 -2 2 -6.5t-5 -7.5t-7 -1l-221 92l-224 -92q-2 -1 -6 2t-6 7z" />
<glyph unicode="&#xd5;" horiz-adv-x="1568" d="M100 639q0 129 43 239t115 187t165.5 131.5t195 80.5t202.5 26q146 0 270 -55t205.5 -146.5t126.5 -208t45 -240.5q0 -140 -58 -266t-155 -216t-229 -143t-276 -53q-191 0 -341 91t-229.5 242t-79.5 331zM319 713q0 -195 64 -352.5t178.5 -246.5t257.5 -89q188 0 309 151 t121 418q0 189 -61 337.5t-178 234t-271 85.5q-201 0 -310.5 -142.5t-109.5 -395.5zM528 1442q89 153 179 153q25 0 112 -25.5t137 -25.5q35 0 56.5 12.5t48.5 42.5q2 2 6 0.5t7 -6t1 -8.5q-56 -90 -91 -120.5t-77 -30.5q-38 0 -124.5 24.5t-135.5 24.5q-12 0 -22 -1 t-19.5 -5t-14.5 -5.5t-13.5 -9t-10.5 -9.5t-12 -13t-12 -13t-6.5 0.5t-7.5 7t-1 7.5z" />
<glyph unicode="&#xd6;" horiz-adv-x="1568" d="M100 639q0 129 43 239t115 187t165.5 131.5t195 80.5t202.5 26q146 0 270 -55t205.5 -146.5t126.5 -208t45 -240.5q0 -140 -58 -266t-155 -216t-229 -143t-276 -53q-191 0 -341 91t-229.5 242t-79.5 331zM319 713q0 -195 64 -352.5t178.5 -246.5t257.5 -89q188 0 309 151 t121 418q0 189 -61 337.5t-178 234t-271 85.5q-201 0 -310.5 -142.5t-109.5 -395.5zM512 1552q0 46 27.5 72.5t76.5 26.5q46 0 72.5 -26.5t26.5 -72.5q0 -49 -26.5 -75.5t-72.5 -26.5q-50 0 -77 26.5t-27 75.5zM870 1552q0 45 27.5 71t75.5 26q47 0 72.5 -25.5t25.5 -71.5 q0 -49 -25.5 -75.5t-72.5 -26.5q-48 0 -75.5 26.5t-27.5 75.5z" />
<glyph unicode="&#xd7;" horiz-adv-x="804" d="M129 180l207 207l-207 205q-4 5 11.5 23.5t33.5 34t21 12.5l208 -207l205 204q5 4 23.5 -11t33.5 -32.5t11 -21.5l-207 -207l205 -205q4 -5 -11 -23t-33 -33t-22 -11l-205 204l-204 -204q-5 -4 -23.5 11t-34 33t-12.5 21z" />
<glyph unicode="&#xd8;" horiz-adv-x="1603" d="M100 639q0 129 43 239t115 187t165.5 131.5t195 80.5t202.5 26q249 0 430 -156l146 147q6 5 25.5 -11t13.5 -23l-148 -150q87 -91 133.5 -210.5t46.5 -246.5q0 -140 -58 -266t-155 -216t-229 -143t-276 -53q-251 0 -426 154l-146 -147q-6 -5 -24.5 13t-12.5 25l144 146 q-89 91 -137 213t-48 260zM319 713q0 -234 95 -416l723 733q-67 105 -169 163t-229 58q-201 0 -310.5 -142.5t-109.5 -395.5zM440 248q69 -106 166.5 -164.5t212.5 -58.5q188 0 309 151t121 418q0 223 -86 389z" />
<glyph unicode="&#xd9;" horiz-adv-x="1435" d="M57 1267.5q0 12.5 6 12.5q32 0 116.5 -3t135.5 -3q54 0 139 3t115 3q6 0 6 -12.5t-6 -12.5q-98 0 -126.5 -28t-28.5 -117v-584q0 -243 100.5 -362t284.5 -119q174 0 272 107.5t98 302.5v575q0 107 -47.5 166t-136.5 59q-6 0 -6 12.5t6 12.5q29 0 99.5 -3t115.5 -3 q38 0 105.5 3t95.5 3q5 0 5 -12.5t-5 -12.5q-81 0 -124.5 -59t-43.5 -166v-573q0 -223 -137.5 -354.5t-364.5 -131.5q-229 0 -370.5 130.5t-141.5 353.5v659q0 88 -28.5 114.5t-127.5 26.5q-6 0 -6 12.5zM512 1548q-22 4 27 27q74 35 132 44q18 2 23 -1q29 -21 84.5 -64 t103.5 -78t95 -65q4 -3 4.5 -8.5t-4 -10t-10.5 -1.5q-225 100 -455 157z" />
<glyph unicode="&#xda;" horiz-adv-x="1435" d="M57 1267.5q0 12.5 6 12.5q32 0 116.5 -3t135.5 -3q54 0 139 3t115 3q6 0 6 -12.5t-6 -12.5q-98 0 -126.5 -28t-28.5 -117v-584q0 -243 100.5 -362t284.5 -119q174 0 272 107.5t98 302.5v575q0 107 -47.5 166t-136.5 59q-6 0 -6 12.5t6 12.5q29 0 99.5 -3t115.5 -3 q38 0 105.5 3t95.5 3q5 0 5 -12.5t-5 -12.5q-81 0 -124.5 -59t-43.5 -166v-573q0 -223 -137.5 -354.5t-364.5 -131.5q-229 0 -370.5 130.5t-141.5 353.5v659q0 88 -28.5 114.5t-127.5 26.5q-6 0 -6 12.5zM552 1397.5q-4 10.5 3 13.5q49 30 96.5 65t102.5 78t84 64 q17 12 114 -25q80 -30 75 -42q-1 -2 -7 -3q-223 -55 -455 -157q-9 -4 -13 6.5z" />
<glyph unicode="&#xdb;" horiz-adv-x="1435" d="M57 1267.5q0 12.5 6 12.5q32 0 116.5 -3t135.5 -3q54 0 139 3t115 3q6 0 6 -12.5t-6 -12.5q-98 0 -126.5 -28t-28.5 -117v-584q0 -243 100.5 -362t284.5 -119q174 0 272 107.5t98 302.5v575q0 107 -47.5 166t-136.5 59q-6 0 -6 12.5t6 12.5q29 0 99.5 -3t115.5 -3 q38 0 105.5 3t95.5 3q5 0 5 -12.5t-5 -12.5q-81 0 -124.5 -59t-43.5 -166v-573q0 -223 -137.5 -354.5t-364.5 -131.5q-229 0 -370.5 130.5t-141.5 353.5v659q0 88 -28.5 114.5t-127.5 26.5q-6 0 -6 12.5zM530 1426q-2 4 0 6l211 225q9 7 23.5 7t23.5 -7l209 -225 q3 -2 2 -6.5t-5 -7.5t-7 -1l-221 92l-223 -92q-2 -1 -6.5 2t-6.5 7z" />
<glyph unicode="&#xdc;" horiz-adv-x="1435" d="M57 1267.5q0 12.5 6 12.5q32 0 116.5 -3t135.5 -3q54 0 139 3t115 3q6 0 6 -12.5t-6 -12.5q-98 0 -126.5 -28t-28.5 -117v-584q0 -243 100.5 -362t284.5 -119q174 0 272 107.5t98 302.5v575q0 107 -47.5 166t-136.5 59q-6 0 -6 12.5t6 12.5q29 0 99.5 -3t115.5 -3 q38 0 105.5 3t95.5 3q5 0 5 -12.5t-5 -12.5q-81 0 -124.5 -59t-43.5 -166v-573q0 -223 -137.5 -354.5t-364.5 -131.5q-229 0 -370.5 130.5t-141.5 353.5v659q0 88 -28.5 114.5t-127.5 26.5q-6 0 -6 12.5zM483 1552q0 46 28 72.5t77 26.5q46 0 72 -26.5t26 -72.5 q0 -49 -26 -75.5t-72 -26.5q-50 0 -77.5 26.5t-27.5 75.5zM842 1552q0 46 27.5 71.5t74.5 25.5t72.5 -25.5t25.5 -71.5q0 -49 -25.5 -75.5t-72.5 -26.5q-48 0 -75 26.5t-27 75.5z" />
<glyph unicode="&#xdd;" horiz-adv-x="1261" d="M0 1267.5q0 12.5 6 12.5q21 0 66.5 -3t66.5 -3q61 0 176.5 3t147.5 3q5 0 5 -12.5t-5 -12.5q-65 0 -80.5 -34t20.5 -88l297 -455l209 340q66 107 49.5 172t-110.5 65q-4 0 -4 12.5t4 12.5q36 0 117.5 -3t148.5 -3q34 0 81.5 3t76.5 3q4 0 4 -12.5t-4 -12.5 q-67 0 -153.5 -70t-153.5 -181l-234 -379v-459q0 -90 27.5 -115.5t128.5 -25.5q5 0 5 -12.5t-5 -12.5q-31 0 -116.5 2t-139.5 2q-50 0 -136 -2t-118 -2q-5 0 -5 12.5t5 12.5q100 0 129 26t29 115v422l-312 473q-70 108 -120.5 151t-96.5 43q-6 0 -6 12.5zM448 1397.5 q-4 10.5 3 13.5q48 30 96 65.5t102 77.5t84 64q17 12 114 -25q80 -30 75 -42q-1 -2 -7 -3q-220 -55 -454 -157q-9 -4 -13 6.5z" />
<glyph unicode="&#xde;" horiz-adv-x="1116" d="M80 12.5q0 12.5 6 12.5q89 0 113 25.5t24 115.5v948q0 89 -24.5 115t-112.5 26q-6 0 -6 12.5t6 12.5q28 0 109 -3t129 -3q63 0 165.5 3t143.5 3q5 0 5 -12.5t-5 -12.5q-95 0 -138.5 -12.5t-59 -42.5t-15.5 -96v-94q99 12 184 12q94 0 171 -18t138.5 -56t97 -104 t38.5 -156q2 -84 -24 -154.5t-70 -118t-102 -80.5t-119 -48t-122 -15q-43 0 -100 11q-5 1 -5.5 8t2.5 13t7 5q50 -8 76 -8q102 0 172 88.5t70 257.5q0 163 -76 249.5t-203 86.5q-71 0 -135 -12v-797q0 -65 15.5 -94.5t59 -42t138.5 -12.5q5 0 5 -12.5t-5 -12.5 q-41 0 -143.5 2t-165.5 2q-48 0 -129 -2t-109 -2q-6 0 -6 12.5z" />
<glyph unicode="&#xdf;" horiz-adv-x="1136" d="M38 752.5q0 15.5 7 15.5q33 0 54.5 1.5t36.5 10.5t22.5 16t12.5 29.5t6 38t3 54.5q18 286 128.5 427.5t336.5 141.5q136 0 211.5 -54t75.5 -145q0 -55 -27.5 -104t-66.5 -84.5t-78 -69t-66.5 -74t-27.5 -84.5q0 -34 14 -67.5t46 -72.5t56 -63.5t72 -70.5q44 -41 66.5 -63 t57.5 -61.5t53 -69t32 -68.5t14 -76q0 -110 -92 -196.5t-237 -86.5q-92 0 -147.5 40t-55.5 108q0 39 24.5 63.5t67.5 24.5q35 0 56.5 -20t31 -48.5t18.5 -56.5t28 -48t50 -20q53 0 80 46t21 108q-3 38 -17.5 72.5t-46 72.5t-51 58t-64.5 63q-93 91 -124 132q-60 82 -60 161 q0 47 19 93.5t46 86t54 81.5t46 97t19 115q0 62 -16 115.5t-57 92t-101 38.5q-221 0 -221 -539v-747q0 -90 21.5 -115.5t97.5 -25.5q6 0 6 -12.5t-6 -12.5q-36 0 -101.5 1t-101.5 1q-42 0 -115 -1t-98 -1q-5 0 -5 12.5t5 12.5q80 0 104.5 26t24.5 115l-2 469q0 64 -25.5 83 t-107.5 19q-7 0 -7 15.5z" />
<glyph unicode="&#xe0;" d="M92 131q0 27 7 49.5t23.5 40.5t32.5 31t46 27t52 22.5t62 23.5q12 5 19 7l198 74v122q0 129 -25 186.5t-81 57.5q-36 0 -62.5 -17t-40.5 -45t-20.5 -51.5t-9.5 -48.5q-12 -106 -105 -106q-44 0 -66 21t-22 53q0 58 71.5 114t166 87.5t168.5 31.5q88 0 140 -56t52 -163 v-371q0 -129 82 -129q26 0 72 19q9 3 14 -8t-4 -15l-211 -100q-12 -4 -20 -4q-30 0 -58 35t-36 96l-95 -66q-48 -34 -87.5 -48.5t-88.5 -14.5q-85 0 -129.5 39t-44.5 106zM215 1489q-7 14 78 3q93 -13 96 -26l80 -491q1 -3 -3.5 -5.5t-10 -2.5t-6.5 4zM289 193 q0 -51 31.5 -81t76.5 -30q34 0 76 29l59 39v18v203l-122 -52q-24 -9 -39.5 -17t-37.5 -23t-33 -36.5t-11 -49.5z" />
<glyph unicode="&#xe1;" d="M92 131q0 27 7 49.5t23.5 40.5t32.5 31t46 27t52 22.5t62 23.5q12 5 19 7l198 74v122q0 129 -25 186.5t-81 57.5q-36 0 -62.5 -17t-40.5 -45t-20.5 -51.5t-9.5 -48.5q-12 -106 -105 -106q-44 0 -66 21t-22 53q0 58 71.5 114t166 87.5t168.5 31.5q88 0 140 -56t52 -163 v-371q0 -129 82 -129q26 0 72 19q9 3 14 -8t-4 -15l-211 -100q-12 -4 -20 -4q-30 0 -58 35t-36 96l-95 -66q-48 -34 -87.5 -48.5t-88.5 -14.5q-85 0 -129.5 39t-44.5 106zM289 193q0 -51 31.5 -81t76.5 -30q34 0 76 29l59 39v18v203l-122 -52q-24 -9 -39.5 -17t-37.5 -23 t-33 -36.5t-11 -49.5zM410 975l79 491q7 13 101 26q83 11 76 -3l-234 -518q-1 -4 -7 -4t-11 2.5t-4 5.5z" />
<glyph unicode="&#xe2;" d="M92 131q0 27 7 49.5t23.5 40.5t32.5 31t46 27t52 22.5t62 23.5q12 5 19 7l198 74v122q0 129 -25 186.5t-81 57.5q-36 0 -62.5 -17t-40.5 -45t-20.5 -51.5t-9.5 -48.5q-12 -106 -105 -106q-44 0 -66 21t-22 53q0 58 71.5 114t166 87.5t168.5 31.5q88 0 140 -56t52 -163 v-371q0 -129 82 -129q26 0 72 19q9 3 14 -8t-4 -15l-211 -100q-12 -4 -20 -4q-30 0 -58 35t-36 96l-95 -66q-48 -34 -87.5 -48.5t-88.5 -14.5q-85 0 -129.5 39t-44.5 106zM274 975l140 510q2 11 22.5 11t24.5 -11l137 -510q3 -5 -7 -7.5t-13 3.5l-140 260l-141 -260 q-2 -4 -8 -4t-11 2.5t-4 5.5zM289 193q0 -51 31.5 -81t76.5 -30q34 0 76 29l59 39v18v203l-122 -52q-24 -9 -39.5 -17t-37.5 -23t-33 -36.5t-11 -49.5z" />
<glyph unicode="&#xe3;" d="M92 131q0 27 7 49.5t23.5 40.5t32.5 31t46 27t52 22.5t62 23.5q12 5 19 7l198 74v122q0 129 -25 186.5t-81 57.5q-36 0 -62.5 -17t-40.5 -45t-20.5 -51.5t-9.5 -48.5q-12 -106 -105 -106q-44 0 -66 21t-22 53q0 58 71.5 114t166 87.5t168.5 31.5q88 0 140 -56t52 -163 v-371q0 -129 82 -129q26 0 72 19q9 3 14 -8t-4 -15l-211 -100q-12 -4 -20 -4q-30 0 -58 35t-36 96l-95 -66q-48 -34 -87.5 -48.5t-88.5 -14.5q-85 0 -129.5 39t-44.5 106zM164 976q-2 4 0 7q92 154 176 154q27 0 113.5 -26t136.5 -26q34 0 55 12.5t49 43.5q5 3 12 -3t3 -12 q-54 -90 -88.5 -120.5t-77.5 -30.5q-38 0 -124.5 24.5t-135.5 24.5q-28 0 -48.5 -9t-27 -15t-29.5 -31q-3 -2 -7.5 0.5t-6.5 6.5zM289 193q0 -51 31.5 -81t76.5 -30q34 0 76 29l59 39v18v203l-122 -52q-24 -9 -39.5 -17t-37.5 -23t-33 -36.5t-11 -49.5z" />
<glyph unicode="&#xe4;" d="M92 131q0 27 7 49.5t23.5 40.5t32.5 31t46 27t52 22.5t62 23.5q12 5 19 7l198 74v122q0 129 -25 186.5t-81 57.5q-36 0 -62.5 -17t-40.5 -45t-20.5 -51.5t-9.5 -48.5q-12 -106 -105 -106q-44 0 -66 21t-22 53q0 58 71.5 114t166 87.5t168.5 31.5q88 0 140 -56t52 -163 v-371q0 -129 82 -129q26 0 72 19q9 3 14 -8t-4 -15l-211 -100q-12 -4 -20 -4q-30 0 -58 35t-36 96l-95 -66q-48 -34 -87.5 -48.5t-88.5 -14.5q-85 0 -129.5 39t-44.5 106zM156 1063q0 46 27.5 72t76.5 26q46 0 72 -26t26 -72q0 -49 -26 -75.5t-72 -26.5q-50 0 -77 26.5 t-27 75.5zM289 193q0 -51 31.5 -81t76.5 -30q34 0 76 29l59 39v18v203l-122 -52q-24 -9 -39.5 -17t-37.5 -23t-33 -36.5t-11 -49.5zM514 1063q0 45 27 70.5t75 25.5q47 0 73 -25t26 -71q0 -49 -26 -75.5t-73 -26.5q-48 0 -75 26.5t-27 75.5z" />
<glyph unicode="&#xe5;" d="M92 131q0 27 7 49.5t23.5 40.5t32.5 31t46 27t52 22.5t62 23.5q12 5 19 7l198 74v122q0 129 -25 186.5t-81 57.5q-36 0 -62.5 -17t-40.5 -45t-20.5 -51.5t-9.5 -48.5q-12 -106 -105 -106q-44 0 -66 21t-22 53q0 58 71.5 114t166 87.5t168.5 31.5q88 0 140 -56t52 -163 v-371q0 -129 82 -129q26 0 72 19q9 3 14 -8t-4 -15l-211 -100q-12 -4 -20 -4q-30 0 -58 35t-36 96l-95 -66q-48 -34 -87.5 -48.5t-88.5 -14.5q-85 0 -129.5 39t-44.5 106zM213 1120q0 74 70 117t155 43t145 -48t60 -116q0 -71 -68.5 -114.5t-156.5 -43.5q-93 0 -149 48 t-56 114zM289 193q0 -51 31.5 -81t76.5 -30q34 0 76 29l59 39v18v203l-122 -52q-24 -9 -39.5 -17t-37.5 -23t-33 -36.5t-11 -49.5zM342 1161q0 -67 30 -121.5t79 -54.5q61 0 61 94q0 71 -34 122.5t-81 51.5q-55 0 -55 -92z" />
<glyph unicode="&#xe6;" horiz-adv-x="1208" d="M70 133q0 28 6.5 50t23.5 40.5t32 31.5t47 28t52.5 23t63.5 24l203 76q-7 204 -25.5 283t-75.5 79q-131 0 -137 -172q0 -37 -20.5 -64.5t-73.5 -27.5q-94 0 -94 82q0 45 58.5 97.5t146.5 89t165 36.5q62 0 110.5 -31t74.5 -88q125 119 299 119q115 0 176 -65t61 -187 q0 -24 -5.5 -33.5t-22.5 -9.5l-453 -2q-4 -46 -4 -72q1 -65 9.5 -120t28 -103.5t49 -82.5t74.5 -53.5t103 -19.5q133 0 215 66q6 5 13 -3.5t1 -14.5q-73 -71 -146 -102.5t-163 -31.5q-227 0 -313 162l-125 -90q-91 -61 -184 -61q-83 0 -126.5 39.5t-43.5 107.5zM266 190 q0 -52 28.5 -80t76.5 -28q42 0 84 27l82 53q-34 88 -37 186v27l-131 -56q-51 -23 -77 -51.5t-26 -77.5zM686 549l283 6q0 103 -30.5 158t-82.5 55q-67 0 -111.5 -58.5t-58.5 -160.5z" />
<glyph unicode="&#xe7;" d="M68 381q0 98 42.5 181t111 135.5t151.5 82t166 29.5q101 0 172 -38.5t77 -96.5q5 -37 -21 -65.5t-77 -28.5q-79 0 -112 92q-22 53 -43.5 74.5t-71.5 21.5q-97 0 -153 -88.5t-56 -235.5q0 -81 18 -147t55.5 -119t102 -82.5t150.5 -29.5q58 0 102.5 13.5t97.5 45.5 q6 3 13.5 -5t1.5 -14q-73 -67 -148.5 -99t-169.5 -32h-10q-17 -68 -2 -102t76 -70q52 -30 82 -65.5t30 -91.5q0 -82 -59.5 -145.5t-177.5 -63.5q-146 0 -146 92q0 28 22 50t52 22q28 0 44.5 -12.5t24 -30t14 -34.5t22.5 -29.5t43 -12.5q53 0 53 59q0 54 -38 96.5t-134 96.5 q-19 9 -21 19t8 38q48 118 72 186q-92 7 -163.5 45t-114 96t-64.5 125t-22 138z" />
<glyph unicode="&#xe8;" horiz-adv-x="847" d="M68 373q0 183 129.5 309.5t324.5 126.5q121 0 188.5 -59.5t67.5 -176.5q0 -59 -24 -59l-500 -2q-2 -18 -2 -57q0 -179 82.5 -283t236.5 -104q41 0 77 8.5t58.5 18.5t65.5 32q3 3 7.5 0t6.5 -8.5t0 -9.5q-142 -134 -315 -134q-125 0 -218.5 56.5t-139 145.5t-45.5 196z M254 1489q-7 14 78 3q93 -13 96 -26l80 -491q1 -3 -4 -5.5t-10.5 -2.5t-6.5 4zM258 549l326 4q0 215 -138 215q-75 0 -124 -58t-64 -161z" />
<glyph unicode="&#xe9;" horiz-adv-x="847" d="M68 373q0 183 129.5 309.5t324.5 126.5q121 0 188.5 -59.5t67.5 -176.5q0 -59 -24 -59l-500 -2q-2 -18 -2 -57q0 -179 82.5 -283t236.5 -104q41 0 77 8.5t58.5 18.5t65.5 32q3 3 7.5 0t6.5 -8.5t0 -9.5q-142 -134 -315 -134q-125 0 -218.5 56.5t-139 145.5t-45.5 196z M258 549l326 4q0 215 -138 215q-75 0 -124 -58t-64 -161zM449 975l79 491q7 13 101 26q83 11 76 -3l-234 -518q-1 -4 -7 -4t-11 2.5t-4 5.5z" />
<glyph unicode="&#xea;" horiz-adv-x="847" d="M68 373q0 183 129.5 309.5t324.5 126.5q121 0 188.5 -59.5t67.5 -176.5q0 -59 -24 -59l-500 -2q-2 -18 -2 -57q0 -179 82.5 -283t236.5 -104q41 0 77 8.5t58.5 18.5t65.5 32q3 3 7.5 0t6.5 -8.5t0 -9.5q-142 -134 -315 -134q-125 0 -218.5 56.5t-139 145.5t-45.5 196z M258 549l326 4q0 215 -138 215q-75 0 -124 -58t-64 -161zM313 975l140 510q1 11 22 11t25 -11l137 -510q3 -4 -7 -7q-11 -3 -14 3l-139 260l-141 -260q-2 -4 -8 -4t-11 2.5t-4 5.5z" />
<glyph unicode="&#xeb;" horiz-adv-x="847" d="M68 373q0 183 129.5 309.5t324.5 126.5q121 0 188.5 -59.5t67.5 -176.5q0 -59 -24 -59l-500 -2q-2 -18 -2 -57q0 -179 82.5 -283t236.5 -104q41 0 77 8.5t58.5 18.5t65.5 32q3 3 7.5 0t6.5 -8.5t0 -9.5q-142 -134 -315 -134q-125 0 -218.5 56.5t-139 145.5t-45.5 196z M195 1063q0 46 27.5 72t76.5 26q46 0 72 -26t26 -72q0 -49 -26 -75.5t-72 -26.5q-50 0 -77 26.5t-27 75.5zM258 549l326 4q0 215 -138 215q-75 0 -124 -58t-64 -161zM553 1063q0 45 27 70.5t75 25.5q47 0 73 -25t26 -71q0 -49 -26 -75.5t-73 -26.5q-48 0 -75 26.5t-27 75.5z " />
<glyph unicode="&#xec;" horiz-adv-x="544" d="M46 660q-1 4 0 7.5t3 4.5l293 137l8 2q8 0 17.5 -9.5t9.5 -15.5q0 -2 -2 -82t-2 -163v-375q0 -83 23.5 -112t92.5 -29q6 0 6 -12.5t-6 -12.5q-24 0 -91.5 2t-108.5 2t-108 -2t-91 -2q-6 0 -6 12.5t6 12.5q68 0 92.5 29t24.5 112v371q0 71 -15.5 103t-50.5 32 q-27 0 -82 -25q-3 -1 -5.5 0.5t-4.5 5t-3 7.5zM55 1489q-7 14 78 3q93 -13 96 -26l80 -491q1 -3 -3.5 -5.5t-10 -2.5t-6.5 4z" />
<glyph unicode="&#xed;" horiz-adv-x="544" d="M46 660q-1 4 0 7.5t3 4.5l293 137l8 2q8 0 17.5 -9.5t9.5 -15.5q0 -2 -2 -82t-2 -163v-375q0 -83 23.5 -112t92.5 -29q6 0 6 -12.5t-6 -12.5q-24 0 -91.5 2t-108.5 2t-108 -2t-91 -2q-6 0 -6 12.5t6 12.5q68 0 92.5 29t24.5 112v371q0 71 -15.5 103t-50.5 32 q-27 0 -82 -25q-3 -1 -5.5 0.5t-4.5 5t-3 7.5zM250 975l80 491q7 13 101 26q82 11 75 -3l-234 -518q-1 -4 -7 -4t-11 2.5t-4 5.5z" />
<glyph unicode="&#xee;" horiz-adv-x="544" d="M46 660q-1 4 0 7.5t3 4.5l293 137l8 2q8 0 17.5 -9.5t9.5 -15.5q0 -2 -2 -82t-2 -163v-375q0 -83 23.5 -112t92.5 -29q6 0 6 -12.5t-6 -12.5q-24 0 -91.5 2t-108.5 2t-108 -2t-91 -2q-6 0 -6 12.5t6 12.5q68 0 92.5 29t24.5 112v371q0 71 -15.5 103t-50.5 32 q-27 0 -82 -25q-3 -1 -5.5 0.5t-4.5 5t-3 7.5zM115 975l139 510q2 11 22.5 11t24.5 -11l137 -510q3 -5 -7 -7.5t-13 3.5l-139 260l-142 -260q-2 -4 -8 -4t-10.5 2.5t-3.5 5.5z" />
<glyph unicode="&#xef;" horiz-adv-x="544" d="M20 1063q0 45 28.5 71.5t76.5 26.5q47 0 73.5 -26t26.5 -72q0 -49 -26 -75.5t-74 -26.5t-76.5 26.5t-28.5 75.5zM46 660q-1 4 0 7.5t3 4.5l293 137l8 2q8 0 17.5 -9.5t9.5 -15.5q0 -2 -2 -82t-2 -163v-375q0 -83 23.5 -112t92.5 -29q6 0 6 -12.5t-6 -12.5q-24 0 -91.5 2 t-108.5 2t-108 -2t-91 -2q-6 0 -6 12.5t6 12.5q68 0 92.5 29t24.5 112v371q0 71 -15.5 103t-50.5 32q-27 0 -82 -25q-3 -1 -5.5 0.5t-4.5 5t-3 7.5zM328 1063q0 46 26.5 71t75.5 25q46 0 72 -25t26 -71q0 -49 -26 -75.5t-72 -26.5q-50 0 -76 26.5t-26 75.5z" />
<glyph unicode="&#xf0;" horiz-adv-x="962" d="M41 381q0 107 42.5 193.5t110 137.5t144 78t151.5 27q104 0 189 -49q-62 198 -160 348l-262 -125q-7 -3 -15.5 11.5t-11.5 29t2 19.5l252 118q-135 189 -299 297q-9 4 1 15q6 6 12 4q229 -104 387 -266l209 98q7 3 16 -11t12 -28.5t-4 -20.5l-186 -88q139 -155 215 -338 t76 -366q0 -102 -24.5 -184.5t-67 -139t-102 -95t-127 -56t-144.5 -17.5q-187 0 -301.5 119.5t-114.5 288.5zM227 440q0 -178 80 -301t207 -123q52 0 90 18t68 60t45.5 116.5t15.5 180.5q0 115 -22 238q-42 70 -104.5 107.5t-133.5 37.5q-108 0 -177 -87.5t-69 -246.5z" />
<glyph unicode="&#xf1;" horiz-adv-x="1071" d="M15 668q0 6 3 8l271 131q8 4 12 4q22 0 41.5 -45.5t22.5 -120.5q143 170 313 170q112 0 174.5 -68t62.5 -186v-395q0 -83 24 -112t93 -29q8 0 8 -12.5t-8 -12.5q-24 0 -90.5 2t-107.5 2t-109 -2t-92 -2q-5 0 -5 12.5t5 12.5q69 0 93 29t24 112v307q0 115 -42.5 169 t-132.5 54q-55 0 -111.5 -25t-98.5 -69v-436q0 -83 23.5 -112t92.5 -29q7 0 7 -12.5t-7 -12.5q-24 0 -90.5 2t-107.5 2t-109 -2t-92 -2q-4 0 -4 12.5t4 12.5q69 0 93 29t24 112v391q0 65 -15.5 95t-50.5 30q-31 0 -104 -29q-5 -2 -9.5 3.5t-4.5 11.5zM291 976q-2 4 0 7 q92 154 176 154q27 0 113.5 -26t136.5 -26q34 0 55 12.5t49 43.5q5 3 12 -3t3 -12q-54 -90 -88.5 -120.5t-77.5 -30.5q-38 0 -124.5 24.5t-135.5 24.5q-28 0 -48.5 -9t-27 -15t-29.5 -31q-3 -2 -7.5 0.5t-6.5 6.5z" />
<glyph unicode="&#xf2;" horiz-adv-x="995" d="M68 406q0 82 27 151t71.5 116t103 80.5t121 48.5t125.5 15q125 0 221 -62t143.5 -157t47.5 -205q0 -93 -36.5 -172.5t-97.5 -133t-142 -84t-169 -30.5q-124 0 -220 60.5t-145.5 158.5t-49.5 214zM262 477q0 -201 80 -332t199 -131q93 0 141.5 79.5t48.5 234.5 q0 206 -82 326t-200 120q-91 0 -139 -74t-48 -223zM279 1489q-7 14 78 3q93 -13 96 -26l79 -491q1 -3 -3.5 -5.5t-10 -2.5t-6.5 4z" />
<glyph unicode="&#xf3;" horiz-adv-x="995" d="M68 406q0 82 27 151t71.5 116t103 80.5t121 48.5t125.5 15q125 0 221 -62t143.5 -157t47.5 -205q0 -93 -36.5 -172.5t-97.5 -133t-142 -84t-169 -30.5q-124 0 -220 60.5t-145.5 158.5t-49.5 214zM262 477q0 -201 80 -332t199 -131q93 0 141.5 79.5t48.5 234.5 q0 206 -82 326t-200 120q-91 0 -139 -74t-48 -223zM473 975l80 491q7 13 101 26q82 11 75 -3l-233 -518q-1 -4 -7 -4t-11.5 2.5t-4.5 5.5z" />
<glyph unicode="&#xf4;" horiz-adv-x="995" d="M68 406q0 82 27 151t71.5 116t103 80.5t121 48.5t125.5 15q125 0 221 -62t143.5 -157t47.5 -205q0 -93 -36.5 -172.5t-97.5 -133t-142 -84t-169 -30.5q-124 0 -220 60.5t-145.5 158.5t-49.5 214zM262 477q0 -201 80 -332t199 -131q93 0 141.5 79.5t48.5 234.5 q0 206 -82 326t-200 120q-91 0 -139 -74t-48 -223zM338 975l139 510q1 11 22 11t25 -11l138 -510q3 -4 -7 -7q-11 -3 -14 3l-139 260l-142 -260q-2 -4 -8 -4t-10.5 2.5t-3.5 5.5z" />
<glyph unicode="&#xf5;" horiz-adv-x="995" d="M68 406q0 82 27 151t71.5 116t103 80.5t121 48.5t125.5 15q125 0 221 -62t143.5 -157t47.5 -205q0 -93 -36.5 -172.5t-97.5 -133t-142 -84t-169 -30.5q-124 0 -220 60.5t-145.5 158.5t-49.5 214zM227 976q-2 4 0 7q92 154 176 154q27 0 113.5 -26t136.5 -26q34 0 56 12.5 t49 43.5q5 3 11.5 -3t2.5 -12q-54 -90 -88.5 -120.5t-77.5 -30.5q-38 0 -124.5 24.5t-135.5 24.5q-11 0 -20.5 -1.5t-16 -2.5t-14.5 -5t-11.5 -5.5t-11 -8.5t-9.5 -9t-10.5 -11.5t-10.5 -11.5q-3 -2 -8 0.5t-7 6.5zM262 477q0 -201 80 -332t199 -131q93 0 141.5 79.5 t48.5 234.5q0 206 -82 326t-200 120q-91 0 -139 -74t-48 -223z" />
<glyph unicode="&#xf6;" horiz-adv-x="995" d="M68 406q0 82 27 151t71.5 116t103 80.5t121 48.5t125.5 15q125 0 221 -62t143.5 -157t47.5 -205q0 -93 -36.5 -172.5t-97.5 -133t-142 -84t-169 -30.5q-124 0 -220 60.5t-145.5 158.5t-49.5 214zM219 1063q0 46 28 72t77 26q46 0 72 -26t26 -72q0 -49 -26 -75.5 t-72 -26.5q-50 0 -77.5 26.5t-27.5 75.5zM262 477q0 -201 80 -332t199 -131q93 0 141.5 79.5t48.5 234.5q0 206 -82 326t-200 120q-91 0 -139 -74t-48 -223zM578 1063q0 45 27 70.5t75 25.5q47 0 72.5 -25t25.5 -71q0 -49 -25.5 -75.5t-72.5 -26.5q-48 0 -75 26.5t-27 75.5z " />
<glyph unicode="&#xf7;" horiz-adv-x="815" d="M61.5 410.5q1.5 23.5 6.5 23.5h677q9 0 9 -47t-9 -47h-675q-6 0 -8 23.5t-0.5 47zM293 90q0 50 30.5 78.5t82.5 28.5t81 -28.5t29 -78.5q0 -53 -29 -83t-81 -30t-82.5 30.5t-30.5 82.5zM293 698q0 50 30.5 78.5t82.5 28.5t81 -28.5t29 -78.5q0 -53 -29 -82.5t-81 -29.5 q-53 0 -83 30t-30 82z" />
<glyph unicode="&#xf8;" horiz-adv-x="976" d="M68 406q0 82 27 151t71.5 116t103 80.5t121 48.5t125.5 15q152 0 260 -90l90 92q4 4 15 -3t19 -17t3 -15l-90 -92q115 -121 115 -299q0 -93 -36.5 -172.5t-97.5 -133t-142 -84t-169 -30.5q-155 0 -270 97l-100 -103q-3 -3 -14 5t-19.5 18.5t-3.5 15.5l98 103 q-106 122 -106 297zM262 477q0 -128 37 -241l371 380q-40 76 -97.5 117t-123.5 41q-91 0 -139 -74t-48 -223zM322 182q39 -79 95.5 -123.5t123.5 -44.5q93 0 141.5 79.5t48.5 234.5q0 136 -39 239z" />
<glyph unicode="&#xf9;" horiz-adv-x="1026" d="M17.5 676.5q-0.5 6.5 2.5 9.5l261 121q4 2 8 2q9 0 18.5 -8.5t9.5 -14.5v-464q0 -228 172 -228q109 0 201 92v351q0 141 -61 141q-20 0 -60 -16q-5 -3 -9.5 2.5t-4.5 12t4 9.5l258 121q6 2 10 2q8 0 18.5 -8.5t10.5 -14.5v-555q0 -70 14 -99.5t48 -29.5q26 0 92 27 q8 3 13.5 -9t-1.5 -16l-266 -129q-6 -2 -11 -2q-20 0 -37 46.5t-18 123.5q-141 -163 -303 -163q-109 0 -172 68t-63 185v304q0 73 -14.5 107t-47.5 34q-20 0 -57 -16q-5 -3 -10 2.5t-5.5 12zM293 1489q-7 14 78 3q93 -13 96 -26l80 -491q1 -3 -4 -5.5t-10.5 -2.5t-6.5 4z " />
<glyph unicode="&#xfa;" horiz-adv-x="1026" d="M17.5 676.5q-0.5 6.5 2.5 9.5l261 121q4 2 8 2q9 0 18.5 -8.5t9.5 -14.5v-464q0 -228 172 -228q109 0 201 92v351q0 141 -61 141q-20 0 -60 -16q-5 -3 -9.5 2.5t-4.5 12t4 9.5l258 121q6 2 10 2q8 0 18.5 -8.5t10.5 -14.5v-555q0 -70 14 -99.5t48 -29.5q26 0 92 27 q8 3 13.5 -9t-1.5 -16l-266 -129q-6 -2 -11 -2q-20 0 -37 46.5t-18 123.5q-141 -163 -303 -163q-109 0 -172 68t-63 185v304q0 73 -14.5 107t-47.5 34q-20 0 -57 -16q-5 -3 -10 2.5t-5.5 12zM487 975l80 491q7 13 101 26q82 11 75 -3l-233 -518q-1 -4 -7 -4t-11.5 2.5 t-4.5 5.5z" />
<glyph unicode="&#xfb;" horiz-adv-x="1026" d="M17.5 676.5q-0.5 6.5 2.5 9.5l261 121q4 2 8 2q9 0 18.5 -8.5t9.5 -14.5v-464q0 -228 172 -228q109 0 201 92v351q0 141 -61 141q-20 0 -60 -16q-5 -3 -9.5 2.5t-4.5 12t4 9.5l258 121q6 2 10 2q8 0 18.5 -8.5t10.5 -14.5v-555q0 -70 14 -99.5t48 -29.5q26 0 92 27 q8 3 13.5 -9t-1.5 -16l-266 -129q-6 -2 -11 -2q-20 0 -37 46.5t-18 123.5q-141 -163 -303 -163q-109 0 -172 68t-63 185v304q0 73 -14.5 107t-47.5 34q-20 0 -57 -16q-5 -3 -10 2.5t-5.5 12zM352 975l140 510q2 11 22.5 11t24.5 -11l137 -510q3 -4 -7 -7q-11 -3 -14 3 l-139 260l-141 -260q-2 -4 -8 -4t-11 2.5t-4 5.5z" />
<glyph unicode="&#xfc;" horiz-adv-x="1026" d="M17.5 676.5q-0.5 6.5 2.5 9.5l261 121q4 2 8 2q9 0 18.5 -8.5t9.5 -14.5v-464q0 -228 172 -228q109 0 201 92v351q0 141 -61 141q-20 0 -60 -16q-5 -3 -9.5 2.5t-4.5 12t4 9.5l258 121q6 2 10 2q8 0 18.5 -8.5t10.5 -14.5v-555q0 -70 14 -99.5t48 -29.5q26 0 92 27 q8 3 13.5 -9t-1.5 -16l-266 -129q-6 -2 -11 -2q-20 0 -37 46.5t-18 123.5q-141 -163 -303 -163q-109 0 -172 68t-63 185v304q0 73 -14.5 107t-47.5 34q-20 0 -57 -16q-5 -3 -10 2.5t-5.5 12zM233 1063q0 46 28 72t77 26q46 0 72 -26t26 -72q0 -49 -26 -75.5t-72 -26.5 q-50 0 -77.5 26.5t-27.5 75.5zM592 1063q0 45 27 70.5t75 25.5q47 0 73 -25t26 -71q0 -49 -26 -75.5t-73 -26.5q-48 0 -75 26.5t-27 75.5z" />
<glyph unicode="&#xfd;" horiz-adv-x="880" d="M-76 -481q0 40 24.5 62t61.5 22t77.5 -26t72.5 -26q70 0 128 88t150 328l-321 654q-46 90 -71.5 117.5t-63.5 27.5q-4 0 -4 12.5t4 12.5q25 0 80.5 -2.5t80.5 -2.5q53 0 126 2.5t98 2.5q6 0 6 -12.5t-6 -12.5q-73 0 -96.5 -17.5t-0.5 -62.5l252 -512l135 393q34 97 4 148 t-122 51q-5 0 -5 12.5t5 12.5q29 0 92 -2.5t114 -2.5q32 0 78 2.5t74 2.5q5 0 5 -12.5t-5 -12.5q-61 0 -105 -49.5t-83 -149.5l-234 -624q-110 -290 -208 -404t-224 -114q-57 0 -88 24t-31 70zM436 975l80 491q7 13 101 26q82 11 75 -3l-233 -518q-1 -4 -7 -4t-11.5 2.5 t-4.5 5.5z" />
<glyph unicode="&#xfe;" horiz-adv-x="1011" d="M-16.5 1332.5q-5.5 12.5 0.5 15.5l286 135q4 2 11 2t16.5 -8.5t9.5 -14.5v-790q158 145 316 145q133 0 227 -102t94 -275q0 -99 -28 -179.5t-73.5 -133t-105 -88t-120 -51t-121.5 -15.5q-94 0 -189 31v-401q0 -88 35 -115t154 -27q6 0 6 -12t-6 -12q-35 0 -127 2t-146 2 q-42 0 -111 -2t-92 -2q-4 0 -4 12t4 12q75 0 98 27t23 115v1609q0 72 -14 104t-47 32q-29 0 -84 -25q-7 -3 -12.5 9.5zM307 131q47 -54 101.5 -82.5t132.5 -28.5q104 0 163.5 90.5t59.5 266.5q0 160 -74.5 249t-185.5 89q-101 0 -197 -86v-498z" />
<glyph unicode="&#xff;" horiz-adv-x="880" d="M-76 -481q0 40 24.5 62t61.5 22t77.5 -26t72.5 -26q70 0 128 88t150 328l-321 654q-46 90 -71.5 117.5t-63.5 27.5q-4 0 -4 12.5t4 12.5q25 0 80.5 -2.5t80.5 -2.5q53 0 126 2.5t98 2.5q6 0 6 -12.5t-6 -12.5q-73 0 -96.5 -17.5t-0.5 -62.5l252 -512l135 393q34 97 4 148 t-122 51q-5 0 -5 12.5t5 12.5q29 0 92 -2.5t114 -2.5q32 0 78 2.5t74 2.5q5 0 5 -12.5t-5 -12.5q-61 0 -105 -49.5t-83 -149.5l-234 -624q-110 -290 -208 -404t-224 -114q-57 0 -88 24t-31 70zM182 1063q0 46 28 72t77 26q46 0 72 -26t26 -72q0 -49 -26 -75.5t-72 -26.5 q-50 0 -77.5 26.5t-27.5 75.5zM541 1063q0 45 27 70.5t75 25.5q47 0 72.5 -25t25.5 -71q0 -49 -25.5 -75.5t-72.5 -26.5q-48 0 -75 26.5t-27 75.5z" />
<glyph unicode="&#x152;" horiz-adv-x="1896" d="M100 616q0 120 37 226.5t104 186.5t156.5 138t196.5 87.5t223 29.5q46 0 151 -2t156 -2h592q19 0 19 -18l4 -267q0 -5 -10.5 -5.5t-12.5 3.5q-15 86 -92.5 161t-175.5 75h-100q-74 0 -104 -26.5t-30 -90.5v-420h197q223 0 223 152q0 6 12.5 6t12.5 -6q0 -48 -1 -102 t-1 -76q0 -33 2 -98t2 -103q0 -6 -12.5 -6t-12.5 6q0 174 -229 174h-193v-465q0 -67 25 -94t90 -27h117q107 0 205 77.5t127 186.5q2 6 13 4.5t11 -6.5q-18 -140 -18 -284q0 -17 -7 -24t-26 -7h-639q-42 0 -134 -4t-138 -4q-217 0 -386.5 82.5t-261.5 224.5t-92 317z M319 662q0 -176 61.5 -319t178 -227.5t268.5 -84.5q117 0 154 25.5t37 109.5v940q0 84 -34 111.5t-144 27.5q-234 0 -377.5 -153.5t-143.5 -429.5z" />
<glyph unicode="&#x153;" horiz-adv-x="1415" d="M43 406q0 82 27 151t71 116t102 80.5t118.5 48.5t121.5 15q98 0 173.5 -43t121.5 -117q63 71 149 111.5t185 40.5q125 0 188.5 -57.5t63.5 -182.5q0 -55 -25 -55l-493 -2q-4 -54 -4 -88q0 -166 80 -262t215 -96q134 0 217 61q3 3 7.5 0t6.5 -8.5t0 -9.5 q-142 -134 -313 -134q-212 0 -316 136q-116 -138 -293 -138q-118 0 -211 60t-142.5 158.5t-49.5 214.5zM229 465q0 -123 35 -227t97.5 -166t138.5 -62t121 88.5t45 249.5q0 195 -68.5 312.5t-181.5 117.5q-88 0 -137.5 -81t-49.5 -232zM852 549l319 6q0 213 -129 213 q-73 0 -122 -58.5t-68 -160.5z" />
<glyph unicode="&#x178;" horiz-adv-x="1261" d="M0 1267.5q0 12.5 6 12.5q21 0 66.5 -3t66.5 -3q61 0 176.5 3t147.5 3q5 0 5 -12.5t-5 -12.5q-65 0 -80.5 -34t20.5 -88l297 -455l209 340q66 107 49.5 172t-110.5 65q-4 0 -4 12.5t4 12.5q36 0 117.5 -3t148.5 -3q34 0 81.5 3t76.5 3q4 0 4 -12.5t-4 -12.5 q-67 0 -153.5 -70t-153.5 -181l-234 -379v-459q0 -90 27.5 -115.5t128.5 -25.5q5 0 5 -12.5t-5 -12.5q-31 0 -116.5 2t-139.5 2q-50 0 -136 -2t-118 -2q-5 0 -5 12.5t5 12.5q100 0 129 26t29 115v422l-312 473q-70 108 -120.5 151t-96.5 43q-6 0 -6 12.5zM379 1552 q0 46 27.5 72.5t76.5 26.5q46 0 72.5 -26.5t26.5 -72.5q0 -49 -26.5 -75.5t-72.5 -26.5q-50 0 -77 26.5t-27 75.5zM737 1552q0 45 27.5 71t75.5 26q47 0 72.5 -25.5t25.5 -71.5q0 -49 -25.5 -75.5t-72.5 -26.5q-48 0 -75.5 26.5t-27.5 75.5z" />
<glyph unicode="&#x2c6;" horiz-adv-x="536" d="M119 975l139 510q2 11 22.5 11t24.5 -11l137 -510q3 -5 -7 -7.5t-13 3.5l-139 260l-142 -260q-2 -4 -8 -4t-10.5 2.5t-3.5 5.5z" />
<glyph unicode="&#x2dc;" horiz-adv-x="786" d="M123 983q92 154 176 154q27 0 113.5 -26t136.5 -26q34 0 55 12.5t49 43.5q5 3 12 -3t3 -12q-54 -90 -88.5 -120.5t-77.5 -30.5q-38 0 -124.5 24.5t-135.5 24.5q-28 0 -48.5 -9t-27 -15t-29.5 -31q-6 -4 -13 5q-5 5 -1 9z" />
<glyph unicode="&#x2000;" horiz-adv-x="837" />
<glyph unicode="&#x2001;" horiz-adv-x="1675" />
<glyph unicode="&#x2002;" horiz-adv-x="837" />
<glyph unicode="&#x2003;" horiz-adv-x="1675" />
<glyph unicode="&#x2004;" horiz-adv-x="558" />
<glyph unicode="&#x2005;" horiz-adv-x="418" />
<glyph unicode="&#x2006;" horiz-adv-x="279" />
<glyph unicode="&#x2007;" horiz-adv-x="279" />
<glyph unicode="&#x2008;" horiz-adv-x="209" />
<glyph unicode="&#x2009;" horiz-adv-x="335" />
<glyph unicode="&#x200a;" horiz-adv-x="93" />
<glyph unicode="&#x2010;" horiz-adv-x="577" d="M56 412.5q1 26.5 5 27.5l439 72q6 1 8 -24.5t0 -52t-8 -27.5l-434 -72q-6 -1 -8.5 24.5t-1.5 52z" />
<glyph unicode="&#x2011;" horiz-adv-x="577" d="M56 412.5q1 26.5 5 27.5l439 72q6 1 8 -24.5t0 -52t-8 -27.5l-434 -72q-6 -1 -8.5 24.5t-1.5 52z" />
<glyph unicode="&#x2012;" horiz-adv-x="577" d="M56 412.5q1 26.5 5 27.5l439 72q6 1 8 -24.5t0 -52t-8 -27.5l-434 -72q-6 -1 -8.5 24.5t-1.5 52z" />
<glyph unicode="&#x2013;" horiz-adv-x="815" d="M61.5 410.5q1.5 23.5 6.5 23.5h677q9 0 9 -47t-9 -47h-675q-6 0 -8 23.5t-0.5 47z" />
<glyph unicode="&#x2014;" horiz-adv-x="1294" d="M61.5 410.5q1.5 23.5 6.5 23.5h1157q9 0 9 -47t-9 -47h-1155q-6 0 -8 23.5t-0.5 47z" />
<glyph unicode="&#x2018;" horiz-adv-x="358" d="M35 1014q0 89 40 164.5t118 152.5q5 4 10.5 2t7 -7t-1.5 -9q-100 -103 -100 -242q0 -57 20 -84q19 31 72 31q44 0 71 -28t27 -74q0 -52 -31.5 -80.5t-87.5 -28.5q-68 0 -106.5 53t-38.5 150z" />
<glyph unicode="&#x2019;" horiz-adv-x="333" d="M33 1180q0 52 31.5 80t87.5 28q68 0 106.5 -53t38.5 -150q0 -89 -40 -164.5t-118 -152.5q-5 -4 -10.5 -2t-7 7t1.5 9q100 103 100 242q0 57 -20 84q-19 -31 -72 -31q-44 0 -71 28.5t-27 74.5z" />
<glyph unicode="&#x201a;" horiz-adv-x="333" d="M33 86q0 52 31.5 80.5t87.5 28.5q68 0 106.5 -53t38.5 -150q0 -89 -40 -165t-118 -153q-5 -4 -10.5 -1.5t-7 7.5t1.5 9q100 103 100 241q0 57 -20 84q-18 -30 -72 -30q-44 0 -71 28t-27 74z" />
<glyph unicode="&#x201c;" horiz-adv-x="669" d="M35 1014q0 89 40 164.5t118 152.5q5 4 10.5 2t7 -7t-1.5 -9q-100 -103 -100 -242q0 -57 20 -84q19 31 72 31q44 0 71 -28t27 -74q0 -52 -31.5 -80.5t-87.5 -28.5q-68 0 -106.5 53t-38.5 150zM373 1014q0 90 39.5 165.5t117.5 151.5q5 4 11 2t7.5 -7t-1.5 -9 q-101 -104 -101 -242q0 -56 21 -84q19 31 72 31q44 0 71 -28t27 -74q0 -52 -31.5 -80.5t-87.5 -28.5q-68 0 -106.5 53t-38.5 150z" />
<glyph unicode="&#x201d;" horiz-adv-x="669" d="M33 1180q0 52 31.5 80t87.5 28q68 0 106.5 -53t38.5 -150q0 -89 -40 -164.5t-118 -152.5q-5 -4 -10.5 -2t-7 7t1.5 9q100 103 100 242q0 57 -20 84q-19 -31 -72 -31q-44 0 -71 28.5t-27 74.5zM371 1180q0 52 31 80t87 28q68 0 107 -53t39 -150q0 -89 -40 -164.5 t-118 -152.5q-5 -4 -10.5 -2t-7 7t1.5 9q100 103 100 242q0 57 -20 84q-19 -31 -72 -31q-44 0 -71 28.5t-27 74.5z" />
<glyph unicode="&#x201e;" horiz-adv-x="688" d="M33 86q0 52 31.5 80.5t87.5 28.5q68 0 106.5 -53t38.5 -150q0 -89 -40 -165t-118 -153q-5 -4 -10.5 -1.5t-7 7.5t1.5 9q100 103 100 241q0 57 -20 84q-18 -30 -72 -30q-44 0 -71 28t-27 74zM371 86q0 52 31 80.5t87 28.5q68 0 107 -53t39 -150q0 -89 -40 -165t-118 -153 q-5 -4 -10.5 -1.5t-7 7.5t1.5 9q100 103 100 241q0 57 -20 84q-18 -30 -72 -30q-44 0 -71 28t-27 74z" />
<glyph unicode="&#x2022;" horiz-adv-x="616" d="M119 408q0 77 55.5 131.5t134.5 54.5q77 0 132 -55t55 -131q0 -79 -55 -135t-132 -56q-79 0 -134.5 55.5t-55.5 135.5z" />
<glyph unicode="&#x2026;" horiz-adv-x="1376" d="M98 90q0 50 30.5 78.5t82.5 28.5t81.5 -28.5t29.5 -78.5q0 -53 -29.5 -83t-81.5 -30q-53 0 -83 30.5t-30 82.5zM578 90q0 50 30 78.5t82 28.5t81.5 -28.5t29.5 -78.5q0 -53 -29.5 -83t-81.5 -30t-82 30t-30 83zM1057 90q0 50 30 78.5t82 28.5t81.5 -28.5t29.5 -78.5 q0 -53 -29.5 -83t-81.5 -30t-82 30t-30 83z" />
<glyph unicode="&#x202f;" horiz-adv-x="335" />
<glyph unicode="&#x2039;" horiz-adv-x="622" d="M104 410.5q0 14.5 9 23.5l376 305q6 8 14 -2q4 -5 1 -8l-209 -317l209 -318q2 -3 -0.5 -7.5t-7 -6t-7.5 1.5l-376 305q-9 9 -9 23.5z" />
<glyph unicode="&#x203a;" horiz-adv-x="622" d="M119 85.5q-2 4.5 0 8.5l209 316l-209 319q-2 4 4 9.5t10 0.5l377 -305q9 -9 9 -23.5t-9 -23.5l-377 -305q-3 -4 -7.5 -2.5t-6.5 6z" />
<glyph unicode="&#x205f;" horiz-adv-x="418" />
<glyph unicode="&#x20ac;" horiz-adv-x="1202" d="M80 387q0 27 14 27h88q-4 50 -4 69v29h-84q-14 0 -14 27.5t14 27.5h92q32 183 191.5 299.5t382.5 116.5q198 0 301 -68q10 -6 14 -8t10 -7t7.5 -9t1.5 -10.5t-4 -14.5l-82 -188q-2 -3 -7 -3t-10 3.5t-4 7.5q10 107 -70 183.5t-200 76.5q-135 0 -228.5 -106.5 t-107.5 -272.5h580q15 0 4 -27q-12 -27 -27 -28h-559q0 -49 6 -98h520q14 0 3 -27q-12 -26 -25 -27h-488q16 -72 45.5 -133.5t72 -111t102.5 -77.5t130 -28q225 0 342 254q3 6 14 4t11 -8l-29 -192q-3 -18 -7 -24t-21 -13q-163 -56 -330 -56q-120 0 -216.5 33t-159 90 t-100.5 122t-56 140h-99q-14 0 -14 27z" />
<glyph unicode="&#x2122;" horiz-adv-x="1499" d="M59 1124q13 72 13 181q0 6 12 6.5t12 -6.5q0 -23 56 -23q23 0 85.5 -1t98.5 -1q43 0 95 1t69 1q41 0 59.5 5t22.5 24q2 5 13 5t11 -5q-8 -172 -8 -187q0 -4 -11.5 -4t-11.5 4q0 56 -31 91.5t-79 35.5q-37 0 -48 -13t-11 -56v-379q0 -45 16.5 -59.5t73.5 -14.5q4 0 4 -12 t-4 -12q-19 0 -72.5 1t-87.5 1q-30 0 -83.5 -1t-74.5 -1q-3 0 -3 12t3 12q56 0 74 14.5t18 59.5v381q0 44 -11 55.5t-48 11.5q-52 0 -86 -33t-41 -94q0 -4 -12.5 -4t-12.5 4zM632 717q0 12 3 12q95 0 98 102l12 363q-39 61 -98 61q-5 0 -5 12.5t5 12.5q9 0 40 -2t38 -2 q11 0 42.5 2t35.5 2q18 0 32 -12.5t33 -50.5l187 -363l170 393q4 14 16 23.5t23 9.5q1 0 25 -2t42 -2q23 0 52.5 2t43.5 2q3 0 3 -12.5t-3 -12.5q-47 0 -67 -16.5t-19 -67.5l13 -368q2 -46 16 -60t64 -14q4 0 4 -12t-4 -12q-18 0 -66.5 1t-75.5 1q-31 0 -78 -1t-63 -1 q-5 0 -5 12t5 12q52 0 68 14.5t14 59.5l-12 340l-187 -428q-3 -7 -19.5 -7t-19.5 7l-211 405l-10 -289q-6 -102 68 -102q3 0 3 -12t-3 -12q-12 0 -43.5 1t-53.5 1l-110 -2q-3 0 -3 12z" />
<glyph unicode="&#x25fc;" horiz-adv-x="788" d="M0 0v788h788v-788h-788z" />
</font>
</defs>
</svg>
